<svg width="80" height="80" viewBox="0 0 80 80" fill="none" xmlns="http://www.w3.org/2000/svg">
<circle cx="40" cy="40" r="39.5" fill="white" stroke="#CFC9D4"/>
<path d="M35.7818 47.6731C35.625 47.6732 35.4734 47.6172 35.3542 47.5154L31.0809 43.8767C31.0081 43.8147 30.9496 43.7376 30.9095 43.6508C30.8694 43.564 30.8486 43.4695 30.8486 43.3739C30.8486 43.2782 30.8694 43.1838 30.9095 43.0969C30.9496 43.0101 31.0081 42.933 31.0809 42.871L35.3542 39.2324C35.4875 39.1188 35.6605 39.0628 35.835 39.0768C36.0096 39.0907 36.1715 39.1734 36.2851 39.3067C36.5213 39.5846 36.4881 40.0013 36.2103 40.2376L32.5277 43.3737L36.2103 46.5097C36.3132 46.5973 36.3869 46.7144 36.4212 46.8452C36.4555 46.976 36.4488 47.1142 36.4021 47.241C36.3553 47.3679 36.2708 47.4774 36.1598 47.5546C36.0489 47.6319 35.917 47.6733 35.7818 47.6731ZM44.2176 47.6731C44.0308 47.6731 43.8452 47.5943 43.7147 47.4406C43.6011 47.3073 43.5452 47.1343 43.5592 46.9597C43.5731 46.7852 43.6558 46.6233 43.7891 46.5097L47.4717 43.3737L43.7891 40.2376C43.6606 40.1227 43.5821 39.9621 43.5703 39.7901C43.5586 39.6181 43.6146 39.4483 43.7264 39.317C43.8382 39.1858 43.9968 39.1034 44.1685 39.0876C44.3402 39.0717 44.5113 39.1237 44.6452 39.2323L48.9185 42.871C48.9913 42.9329 49.0498 43.01 49.0899 43.0968C49.13 43.1837 49.1508 43.2782 49.1508 43.3738C49.1508 43.4694 49.13 43.5639 49.0899 43.6507C49.0498 43.7375 48.9913 43.8146 48.9185 43.8766L44.6452 47.5153C44.526 47.6172 44.3745 47.6731 44.2177 47.6731H44.2176ZM38.487 50.4024C38.3886 50.4025 38.2914 50.3806 38.2026 50.3384C38.1138 50.2962 38.0355 50.2346 37.9735 50.1583C37.9114 50.0819 37.8672 49.9927 37.8441 49.8971C37.821 49.8015 37.8195 49.7019 37.8398 49.6057L40.503 36.9608C40.5391 36.7894 40.6418 36.6394 40.7886 36.5437C40.9353 36.448 41.114 36.4146 41.2854 36.4507C41.4568 36.4868 41.6068 36.5896 41.7025 36.7363C41.7981 36.883 41.8316 37.0617 41.7955 37.2331L39.1322 49.8779C39.1011 50.0261 39.02 50.159 38.9025 50.2544C38.785 50.3499 38.6383 50.4021 38.487 50.4024Z" fill="black"/>
<path d="M55.566 57.2911H24.434C21.9892 57.2911 20 55.3023 20 52.8572V26.434C20 23.9892 21.9892 22 24.434 22H55.566C58.0108 22 60 23.9892 60 26.434V52.8572C60 55.3023 58.0108 57.2911 55.566 57.2911ZM24.434 23.3208C22.7175 23.3208 21.3208 24.7175 21.3208 26.434V52.8572C21.3208 54.5737 22.7175 55.9704 24.434 55.9704H55.566C57.2825 55.9704 58.6792 54.5737 58.6792 52.8572V26.434C58.6792 24.7175 57.2825 23.3208 55.566 23.3208H24.434Z" fill="black"/>
<path d="M59.3393 32.5748H20.6601C20.4868 32.5719 20.3217 32.5011 20.2003 32.3775C20.0788 32.254 20.0107 32.0877 20.0107 31.9145C20.0107 31.7412 20.0788 31.5749 20.2003 31.4514C20.3217 31.3279 20.4868 31.257 20.6601 31.2541H59.3393C59.5125 31.257 59.6776 31.3279 59.7991 31.4514C59.9205 31.5749 59.9886 31.7412 59.9886 31.9145C59.9886 32.0877 59.9205 32.254 59.7991 32.3775C59.6776 32.5011 59.5125 32.5719 59.3393 32.5748ZM31.2829 29.4148C30.1309 29.4148 29.193 28.4769 29.193 27.3249C29.193 26.1727 30.1309 25.2351 31.2829 25.2351C32.4351 25.2351 33.3727 26.1727 33.3727 27.3249C33.3727 28.4769 32.4351 29.4148 31.2829 29.4148ZM31.2829 26.5559C30.859 26.5559 30.5137 26.9008 30.5137 27.3249C30.5137 27.7491 30.859 28.0941 31.2829 28.0941C31.707 28.0941 32.0519 27.7492 32.0519 27.3249C32.0519 26.9007 31.707 26.5559 31.2829 26.5559ZM24.8619 29.3946C23.7095 29.3946 22.772 28.457 22.772 27.3047C22.772 26.1524 23.7095 25.2148 24.8618 25.2148C26.0142 25.2148 26.9517 26.1524 26.9517 27.3047C26.9517 28.457 26.0143 29.3946 24.8619 29.3946ZM24.8619 26.5356C24.4381 26.5356 24.0928 26.8809 24.0928 27.3047C24.0928 27.7289 24.4381 28.0738 24.8618 28.0738C25.286 28.0738 25.6309 27.7289 25.6309 27.3047C25.6309 26.8809 25.2861 26.5356 24.8619 26.5356ZM37.7038 29.4347C36.5519 29.4347 35.6144 28.4972 35.6144 27.3448C35.6144 26.193 36.5518 25.2554 37.7038 25.2554C38.8562 25.2554 39.7936 26.1929 39.7936 27.3448C39.7936 28.4972 38.8562 29.4347 37.7038 29.4347ZM37.7038 26.5758C37.2801 26.5758 36.9351 26.9207 36.9351 27.3448C36.9351 27.769 37.2801 28.114 37.7038 28.114C38.128 28.114 38.4729 27.769 38.4729 27.3448C38.4729 26.9207 38.128 26.5758 37.7038 26.5758Z" fill="black"/>
</svg>
