<svg width="679" height="460" viewBox="0 0 679 460" fill="none" xmlns="http://www.w3.org/2000/svg">
<g filter="url(#filter0_f_3840_208)">
<circle cx="152" cy="152" r="102" fill="#FFF1BE" fill-opacity="0.32"/>
</g>
<g filter="url(#filter1_f_3840_208)">
<circle cx="527" cy="234" r="102" fill="#FFF1BE" fill-opacity="0.32"/>
</g>
<rect x="109.5" y="71.5" width="453" height="293" rx="9.5" fill="white" stroke="black"/>
<path d="M110 81C110 76.0294 114.029 72 119 72H553C557.971 72 562 76.0294 562 81V110H110V81Z" fill="#FF9BB8"/>
<line x1="109" y1="110.5" x2="563" y2="110.5" stroke="#D9B3FF"/>
<circle cx="142.378" cy="92.0494" r="4.08702" fill="white"/>
<circle cx="157.818" cy="92.0494" r="4.08702" fill="white"/>
<circle cx="173.258" cy="92.0494" r="4.08702" fill="white"/>
<path d="M113.5 115.5H214C217.038 115.5 219.5 117.962 219.5 121V354C219.5 357.038 217.038 359.5 214 359.5H121C116.858 359.5 113.5 356.142 113.5 352V115.5Z" fill="#F5EFD9" stroke="#D9B3FF"/>
<rect x="121.001" y="127" width="33" height="6" fill="#F7BE08"/>
<rect x="121.001" y="139" width="21" height="5" fill="#F7BE08"/>
<rect x="121.001" y="150" width="48" height="6" fill="#F7BE08"/>
<rect x="121.001" y="162" width="39" height="5" fill="#F7BE08"/>
<rect width="26.2547" height="5.75359" transform="matrix(0.999985 0.00555027 -0.00419157 0.999991 121.001 173.029)" fill="#F7BE08"/>
<rect x="121.001" y="185" width="33" height="5" fill="#F7BE08"/>
<rect x="121.001" y="196" width="21" height="6" fill="#F7BE08"/>
<rect x="121.001" y="208" width="48" height="5" fill="#F7BE08"/>
<rect x="121.001" y="219" width="39" height="6" fill="#F7BE08"/>
<rect width="26.2547" height="5.75359" transform="matrix(0.999985 0.00555027 -0.00419157 0.999991 121.024 230.565)" fill="#F7BE08"/>
<rect x="121.001" y="242" width="33" height="6" fill="#F7BE08"/>
<rect x="121.001" y="254" width="21" height="5" fill="#F7BE08"/>
<rect x="121.001" y="265" width="48" height="6" fill="#F7BE08"/>
<rect x="121.001" y="277" width="39" height="5" fill="#F7BE08"/>
<rect width="26.2547" height="5.75359" transform="matrix(0.999985 0.00555027 -0.00419157 0.999991 121.024 288.101)" fill="#F7BE08"/>
<rect x="629" y="460" width="585" height="282" transform="rotate(180 629 460)" fill="url(#paint0_linear_3840_208)"/>
<rect x="230.25" y="115.25" width="47.5" height="11.5" rx="1.75" fill="#F5EFD9" stroke="black" stroke-width="0.5"/>
<rect x="280.25" y="115.25" width="47.5" height="11.5" rx="1.75" fill="#F5EFD9" stroke="black" stroke-width="0.5"/>
<rect x="234" y="119" width="19" height="4" fill="#F7BE08"/>
<rect x="284" y="119" width="19" height="4" fill="#F7BE08"/>
<path d="M252.532 157.544L245.868 155.01V153.19L252.532 150.656V152.406L246.526 154.59V153.61L252.532 155.794V157.544ZM254.543 155.598L254.109 149.2H256.713L256.279 155.598H254.543ZM255.411 159.112C255.019 159.112 254.697 158.986 254.445 158.734C254.193 158.482 254.067 158.183 254.067 157.838C254.067 157.483 254.193 157.189 254.445 156.956C254.697 156.713 255.019 156.592 255.411 156.592C255.812 156.592 256.134 156.713 256.377 156.956C256.629 157.189 256.755 157.483 256.755 157.838C256.755 158.183 256.629 158.482 256.377 158.734C256.134 158.986 255.812 159.112 255.411 159.112ZM262.121 155.934V154.184H266.083V155.934H262.121ZM271.486 155.934V154.184H275.448V155.934H271.486ZM281.285 159V149.2H286.073C287.305 149.2 288.229 149.433 288.845 149.9C289.47 150.367 289.783 150.983 289.783 151.748C289.783 152.261 289.657 152.709 289.405 153.092C289.153 153.465 288.808 153.755 288.369 153.96C287.93 154.165 287.426 154.268 286.857 154.268L287.123 153.694C287.739 153.694 288.285 153.797 288.761 154.002C289.237 154.198 289.606 154.492 289.867 154.884C290.138 155.276 290.273 155.757 290.273 156.326C290.273 157.166 289.942 157.824 289.279 158.3C288.616 158.767 287.641 159 286.353 159H281.285ZM283.539 157.292H286.185C286.773 157.292 287.216 157.199 287.515 157.012C287.823 156.816 287.977 156.508 287.977 156.088C287.977 155.677 287.823 155.374 287.515 155.178C287.216 154.973 286.773 154.87 286.185 154.87H283.371V153.218H285.793C286.344 153.218 286.764 153.125 287.053 152.938C287.352 152.742 287.501 152.448 287.501 152.056C287.501 151.673 287.352 151.389 287.053 151.202C286.764 151.006 286.344 150.908 285.793 150.908H283.539V157.292ZM295.574 159.112C294.715 159.112 293.959 158.944 293.306 158.608C292.662 158.272 292.163 157.815 291.808 157.236C291.453 156.648 291.276 155.981 291.276 155.234C291.276 154.478 291.449 153.811 291.794 153.232C292.149 152.644 292.629 152.187 293.236 151.86C293.843 151.524 294.529 151.356 295.294 151.356C296.031 151.356 296.694 151.515 297.282 151.832C297.879 152.14 298.351 152.588 298.696 153.176C299.041 153.755 299.214 154.45 299.214 155.262C299.214 155.346 299.209 155.444 299.2 155.556C299.191 155.659 299.181 155.757 299.172 155.85H293.054V154.576H298.024L297.184 154.954C297.184 154.562 297.105 154.221 296.946 153.932C296.787 153.643 296.568 153.419 296.288 153.26C296.008 153.092 295.681 153.008 295.308 153.008C294.935 153.008 294.603 153.092 294.314 153.26C294.034 153.419 293.815 153.647 293.656 153.946C293.497 154.235 293.418 154.581 293.418 154.982V155.318C293.418 155.729 293.507 156.093 293.684 156.41C293.871 156.718 294.127 156.956 294.454 157.124C294.79 157.283 295.182 157.362 295.63 157.362C296.031 157.362 296.381 157.301 296.68 157.18C296.988 157.059 297.268 156.877 297.52 156.634L298.682 157.894C298.337 158.286 297.903 158.589 297.38 158.804C296.857 159.009 296.255 159.112 295.574 159.112ZM300.934 159V151.3C300.934 150.451 301.186 149.774 301.69 149.27C302.194 148.757 302.913 148.5 303.846 148.5C304.163 148.5 304.467 148.533 304.756 148.598C305.055 148.663 305.307 148.766 305.512 148.906L304.938 150.488C304.817 150.404 304.681 150.339 304.532 150.292C304.383 150.245 304.224 150.222 304.056 150.222C303.739 150.222 303.491 150.315 303.314 150.502C303.146 150.679 303.062 150.95 303.062 151.314V152.014L303.118 152.952V159H300.934ZM299.772 153.316V151.636H304.994V153.316H299.772ZM309.571 159.112C308.768 159.112 308.054 158.944 307.429 158.608C306.813 158.272 306.323 157.815 305.959 157.236C305.604 156.648 305.427 155.981 305.427 155.234C305.427 154.478 305.604 153.811 305.959 153.232C306.323 152.644 306.813 152.187 307.429 151.86C308.054 151.524 308.768 151.356 309.571 151.356C310.364 151.356 311.073 151.524 311.699 151.86C312.324 152.187 312.814 152.639 313.169 153.218C313.523 153.797 313.701 154.469 313.701 155.234C313.701 155.981 313.523 156.648 313.169 157.236C312.814 157.815 312.324 158.272 311.699 158.608C311.073 158.944 310.364 159.112 309.571 159.112ZM309.571 157.32C309.935 157.32 310.261 157.236 310.551 157.068C310.84 156.9 311.069 156.662 311.237 156.354C311.405 156.037 311.489 155.663 311.489 155.234C311.489 154.795 311.405 154.422 311.237 154.114C311.069 153.806 310.84 153.568 310.551 153.4C310.261 153.232 309.935 153.148 309.571 153.148C309.207 153.148 308.88 153.232 308.591 153.4C308.301 153.568 308.068 153.806 307.891 154.114C307.723 154.422 307.639 154.795 307.639 155.234C307.639 155.663 307.723 156.037 307.891 156.354C308.068 156.662 308.301 156.9 308.591 157.068C308.88 157.236 309.207 157.32 309.571 157.32ZM315.16 159V151.468H317.246V153.596L316.952 152.98C317.176 152.448 317.536 152.047 318.03 151.776C318.525 151.496 319.127 151.356 319.836 151.356V153.372C319.743 153.363 319.659 153.358 319.584 153.358C319.51 153.349 319.43 153.344 319.346 153.344C318.749 153.344 318.264 153.517 317.89 153.862C317.526 154.198 317.344 154.725 317.344 155.444V159H315.16ZM324.818 159.112C323.96 159.112 323.204 158.944 322.55 158.608C321.906 158.272 321.407 157.815 321.052 157.236C320.698 156.648 320.52 155.981 320.52 155.234C320.52 154.478 320.693 153.811 321.038 153.232C321.393 152.644 321.874 152.187 322.48 151.86C323.087 151.524 323.773 151.356 324.538 151.356C325.276 151.356 325.938 151.515 326.526 151.832C327.124 152.14 327.595 152.588 327.94 153.176C328.286 153.755 328.458 154.45 328.458 155.262C328.458 155.346 328.454 155.444 328.444 155.556C328.435 155.659 328.426 155.757 328.416 155.85H322.298V154.576H327.268L326.428 154.954C326.428 154.562 326.349 154.221 326.19 153.932C326.032 153.643 325.812 153.419 325.532 153.26C325.252 153.092 324.926 153.008 324.552 153.008C324.179 153.008 323.848 153.092 323.558 153.26C323.278 153.419 323.059 153.647 322.9 153.946C322.742 154.235 322.662 154.581 322.662 154.982V155.318C322.662 155.729 322.751 156.093 322.928 156.41C323.115 156.718 323.372 156.956 323.698 157.124C324.034 157.283 324.426 157.362 324.874 157.362C325.276 157.362 325.626 157.301 325.924 157.18C326.232 157.059 326.512 156.877 326.764 156.634L327.926 157.894C327.581 158.286 327.147 158.589 326.624 158.804C326.102 159.009 325.5 159.112 324.818 159.112ZM245.728 173.934V172.184H249.69V173.934H245.728ZM251.183 173.934V172.184H255.145V173.934H251.183ZM256.723 175.544V173.794L262.729 171.61V172.59L256.723 170.406V168.656L263.387 171.19V173.01L256.723 175.544ZM252.532 193.544L245.868 191.01V189.19L252.532 186.656V188.406L246.526 190.59V189.61L252.532 191.794V193.544ZM257.623 195.112C256.914 195.112 256.274 194.953 255.705 194.636C255.136 194.309 254.683 193.857 254.347 193.278C254.02 192.699 253.857 192.018 253.857 191.234C253.857 190.441 254.02 189.755 254.347 189.176C254.683 188.597 255.136 188.149 255.705 187.832C256.274 187.515 256.914 187.356 257.623 187.356C258.258 187.356 258.813 187.496 259.289 187.776C259.765 188.056 260.134 188.481 260.395 189.05C260.656 189.619 260.787 190.347 260.787 191.234C260.787 192.111 260.661 192.839 260.409 193.418C260.157 193.987 259.793 194.412 259.317 194.692C258.85 194.972 258.286 195.112 257.623 195.112ZM258.001 193.32C258.356 193.32 258.678 193.236 258.967 193.068C259.256 192.9 259.485 192.662 259.653 192.354C259.83 192.037 259.919 191.663 259.919 191.234C259.919 190.795 259.83 190.422 259.653 190.114C259.485 189.806 259.256 189.568 258.967 189.4C258.678 189.232 258.356 189.148 258.001 189.148C257.637 189.148 257.31 189.232 257.021 189.4C256.732 189.568 256.498 189.806 256.321 190.114C256.153 190.422 256.069 190.795 256.069 191.234C256.069 191.663 256.153 192.037 256.321 192.354C256.498 192.662 256.732 192.9 257.021 193.068C257.31 193.236 257.637 193.32 258.001 193.32ZM259.975 195V193.46L260.017 191.22L259.877 188.994V184.612H262.061V195H259.975ZM264.082 195V187.468H266.266V195H264.082ZM265.174 186.418C264.773 186.418 264.446 186.301 264.194 186.068C263.942 185.835 263.816 185.545 263.816 185.2C263.816 184.855 263.942 184.565 264.194 184.332C264.446 184.099 264.773 183.982 265.174 183.982C265.576 183.982 265.902 184.094 266.154 184.318C266.406 184.533 266.532 184.813 266.532 185.158C266.532 185.522 266.406 185.825 266.154 186.068C265.912 186.301 265.585 186.418 265.174 186.418ZM270.337 195L267.173 187.468H269.427L272.059 193.95H270.939L273.669 187.468H275.769L272.591 195H270.337ZM284.265 195.112C283.453 195.112 282.73 194.949 282.095 194.622C281.461 194.286 280.961 193.824 280.597 193.236C280.243 192.648 280.065 191.981 280.065 191.234C280.065 190.478 280.243 189.811 280.597 189.232C280.961 188.644 281.461 188.187 282.095 187.86C282.73 187.524 283.453 187.356 284.265 187.356C285.059 187.356 285.749 187.524 286.337 187.86C286.925 188.187 287.359 188.658 287.639 189.274L285.945 190.184C285.749 189.829 285.502 189.568 285.203 189.4C284.914 189.232 284.597 189.148 284.251 189.148C283.878 189.148 283.542 189.232 283.243 189.4C282.945 189.568 282.707 189.806 282.529 190.114C282.361 190.422 282.277 190.795 282.277 191.234C282.277 191.673 282.361 192.046 282.529 192.354C282.707 192.662 282.945 192.9 283.243 193.068C283.542 193.236 283.878 193.32 284.251 193.32C284.597 193.32 284.914 193.241 285.203 193.082C285.502 192.914 285.749 192.648 285.945 192.284L287.639 193.208C287.359 193.815 286.925 194.286 286.337 194.622C285.749 194.949 285.059 195.112 284.265 195.112ZM288.856 195V184.612H291.04V195H288.856ZM297.687 195V193.53L297.547 193.208V190.576C297.547 190.109 297.402 189.745 297.113 189.484C296.833 189.223 296.399 189.092 295.811 189.092C295.409 189.092 295.013 189.157 294.621 189.288C294.238 189.409 293.911 189.577 293.641 189.792L292.857 188.266C293.267 187.977 293.762 187.753 294.341 187.594C294.919 187.435 295.507 187.356 296.105 187.356C297.253 187.356 298.144 187.627 298.779 188.168C299.413 188.709 299.731 189.554 299.731 190.702V195H297.687ZM295.391 195.112C294.803 195.112 294.299 195.014 293.879 194.818C293.459 194.613 293.137 194.337 292.913 193.992C292.689 193.647 292.577 193.259 292.577 192.83C292.577 192.382 292.684 191.99 292.899 191.654C293.123 191.318 293.473 191.057 293.949 190.87C294.425 190.674 295.045 190.576 295.811 190.576H297.813V191.85H296.049C295.535 191.85 295.181 191.934 294.985 192.102C294.798 192.27 294.705 192.48 294.705 192.732C294.705 193.012 294.812 193.236 295.027 193.404C295.251 193.563 295.554 193.642 295.937 193.642C296.301 193.642 296.627 193.558 296.917 193.39C297.206 193.213 297.416 192.956 297.547 192.62L297.883 193.628C297.724 194.113 297.435 194.482 297.015 194.734C296.595 194.986 296.053 195.112 295.391 195.112ZM304.241 195.112C303.597 195.112 302.977 195.037 302.379 194.888C301.791 194.729 301.325 194.533 300.979 194.3L301.707 192.732C302.053 192.947 302.459 193.124 302.925 193.264C303.401 193.395 303.868 193.46 304.325 193.46C304.829 193.46 305.184 193.399 305.389 193.278C305.604 193.157 305.711 192.989 305.711 192.774C305.711 192.597 305.627 192.466 305.459 192.382C305.301 192.289 305.086 192.219 304.815 192.172C304.545 192.125 304.246 192.079 303.919 192.032C303.602 191.985 303.28 191.925 302.953 191.85C302.627 191.766 302.328 191.645 302.057 191.486C301.787 191.327 301.567 191.113 301.399 190.842C301.241 190.571 301.161 190.221 301.161 189.792C301.161 189.316 301.297 188.896 301.567 188.532C301.847 188.168 302.249 187.883 302.771 187.678C303.294 187.463 303.919 187.356 304.647 187.356C305.161 187.356 305.683 187.412 306.215 187.524C306.747 187.636 307.191 187.799 307.545 188.014L306.817 189.568C306.453 189.353 306.085 189.209 305.711 189.134C305.347 189.05 304.993 189.008 304.647 189.008C304.162 189.008 303.807 189.073 303.583 189.204C303.359 189.335 303.247 189.503 303.247 189.708C303.247 189.895 303.327 190.035 303.485 190.128C303.653 190.221 303.873 190.296 304.143 190.352C304.414 190.408 304.708 190.459 305.025 190.506C305.352 190.543 305.679 190.604 306.005 190.688C306.332 190.772 306.626 190.893 306.887 191.052C307.158 191.201 307.377 191.411 307.545 191.682C307.713 191.943 307.797 192.289 307.797 192.718C307.797 193.185 307.657 193.6 307.377 193.964C307.097 194.319 306.691 194.599 306.159 194.804C305.637 195.009 304.997 195.112 304.241 195.112ZM311.679 195.112C311.035 195.112 310.414 195.037 309.817 194.888C309.229 194.729 308.762 194.533 308.417 194.3L309.145 192.732C309.49 192.947 309.896 193.124 310.363 193.264C310.839 193.395 311.305 193.46 311.763 193.46C312.267 193.46 312.621 193.399 312.827 193.278C313.041 193.157 313.149 192.989 313.149 192.774C313.149 192.597 313.065 192.466 312.897 192.382C312.738 192.289 312.523 192.219 312.253 192.172C311.982 192.125 311.683 192.079 311.357 192.032C311.039 191.985 310.717 191.925 310.391 191.85C310.064 191.766 309.765 191.645 309.495 191.486C309.224 191.327 309.005 191.113 308.837 190.842C308.678 190.571 308.599 190.221 308.599 189.792C308.599 189.316 308.734 188.896 309.005 188.532C309.285 188.168 309.686 187.883 310.209 187.678C310.731 187.463 311.357 187.356 312.085 187.356C312.598 187.356 313.121 187.412 313.653 187.524C314.185 187.636 314.628 187.799 314.983 188.014L314.255 189.568C313.891 189.353 313.522 189.209 313.149 189.134C312.785 189.05 312.43 189.008 312.085 189.008C311.599 189.008 311.245 189.073 311.021 189.204C310.797 189.335 310.685 189.503 310.685 189.708C310.685 189.895 310.764 190.035 310.923 190.128C311.091 190.221 311.31 190.296 311.581 190.352C311.851 190.408 312.145 190.459 312.463 190.506C312.789 190.543 313.116 190.604 313.443 190.688C313.769 190.772 314.063 190.893 314.325 191.052C314.595 191.201 314.815 191.411 314.983 191.682C315.151 191.943 315.235 192.289 315.235 192.718C315.235 193.185 315.095 193.6 314.815 193.964C314.535 194.319 314.129 194.599 313.597 194.804C313.074 195.009 312.435 195.112 311.679 195.112ZM316.442 189.218V187.51H323.106V189.218H316.442ZM316.442 192.69V190.982H323.106V192.69H316.442ZM324.781 189.176L324.641 185.2H326.503L326.349 189.176H324.781ZM327.665 189.176L327.525 185.2H329.387L329.233 189.176H327.665ZM335.652 187.356C336.25 187.356 336.782 187.477 337.248 187.72C337.724 187.953 338.098 188.317 338.368 188.812C338.639 189.297 338.774 189.923 338.774 190.688V195H336.59V191.024C336.59 190.417 336.455 189.969 336.184 189.68C335.923 189.391 335.55 189.246 335.064 189.246C334.719 189.246 334.406 189.321 334.126 189.47C333.856 189.61 333.641 189.829 333.482 190.128C333.333 190.427 333.258 190.809 333.258 191.276V195H331.074V184.612H333.258V189.554L332.768 188.924C333.039 188.42 333.426 188.033 333.93 187.762C334.434 187.491 335.008 187.356 335.652 187.356ZM344.547 195.112C343.688 195.112 342.932 194.944 342.279 194.608C341.635 194.272 341.135 193.815 340.781 193.236C340.426 192.648 340.249 191.981 340.249 191.234C340.249 190.478 340.421 189.811 340.767 189.232C341.121 188.644 341.602 188.187 342.209 187.86C342.815 187.524 343.501 187.356 344.267 187.356C345.004 187.356 345.667 187.515 346.255 187.832C346.852 188.14 347.323 188.588 347.669 189.176C348.014 189.755 348.187 190.45 348.187 191.262C348.187 191.346 348.182 191.444 348.173 191.556C348.163 191.659 348.154 191.757 348.145 191.85H342.027V190.576H346.997L346.157 190.954C346.157 190.562 346.077 190.221 345.919 189.932C345.76 189.643 345.541 189.419 345.261 189.26C344.981 189.092 344.654 189.008 344.281 189.008C343.907 189.008 343.576 189.092 343.287 189.26C343.007 189.419 342.787 189.647 342.629 189.946C342.47 190.235 342.391 190.581 342.391 190.982V191.318C342.391 191.729 342.479 192.093 342.657 192.41C342.843 192.718 343.1 192.956 343.427 193.124C343.763 193.283 344.155 193.362 344.603 193.362C345.004 193.362 345.354 193.301 345.653 193.18C345.961 193.059 346.241 192.877 346.493 192.634L347.655 193.894C347.309 194.286 346.875 194.589 346.353 194.804C345.83 195.009 345.228 195.112 344.547 195.112ZM354.056 195V193.53L353.916 193.208V190.576C353.916 190.109 353.771 189.745 353.482 189.484C353.202 189.223 352.768 189.092 352.18 189.092C351.778 189.092 351.382 189.157 350.99 189.288C350.607 189.409 350.28 189.577 350.01 189.792L349.226 188.266C349.636 187.977 350.131 187.753 350.71 187.594C351.288 187.435 351.876 187.356 352.474 187.356C353.622 187.356 354.513 187.627 355.148 188.168C355.782 188.709 356.1 189.554 356.1 190.702V195H354.056ZM351.76 195.112C351.172 195.112 350.668 195.014 350.248 194.818C349.828 194.613 349.506 194.337 349.282 193.992C349.058 193.647 348.946 193.259 348.946 192.83C348.946 192.382 349.053 191.99 349.268 191.654C349.492 191.318 349.842 191.057 350.318 190.87C350.794 190.674 351.414 190.576 352.18 190.576H354.182V191.85H352.418C351.904 191.85 351.55 191.934 351.354 192.102C351.167 192.27 351.074 192.48 351.074 192.732C351.074 193.012 351.181 193.236 351.396 193.404C351.62 193.563 351.923 193.642 352.306 193.642C352.67 193.642 352.996 193.558 353.286 193.39C353.575 193.213 353.785 192.956 353.916 192.62L354.252 193.628C354.093 194.113 353.804 194.482 353.384 194.734C352.964 194.986 352.422 195.112 351.76 195.112ZM361.365 195.112C360.656 195.112 360.016 194.953 359.447 194.636C358.878 194.309 358.425 193.857 358.089 193.278C357.762 192.699 357.599 192.018 357.599 191.234C357.599 190.441 357.762 189.755 358.089 189.176C358.425 188.597 358.878 188.149 359.447 187.832C360.016 187.515 360.656 187.356 361.365 187.356C362 187.356 362.555 187.496 363.031 187.776C363.507 188.056 363.876 188.481 364.137 189.05C364.398 189.619 364.529 190.347 364.529 191.234C364.529 192.111 364.403 192.839 364.151 193.418C363.899 193.987 363.535 194.412 363.059 194.692C362.592 194.972 362.028 195.112 361.365 195.112ZM361.743 193.32C362.098 193.32 362.42 193.236 362.709 193.068C362.998 192.9 363.227 192.662 363.395 192.354C363.572 192.037 363.661 191.663 363.661 191.234C363.661 190.795 363.572 190.422 363.395 190.114C363.227 189.806 362.998 189.568 362.709 189.4C362.42 189.232 362.098 189.148 361.743 189.148C361.379 189.148 361.052 189.232 360.763 189.4C360.474 189.568 360.24 189.806 360.063 190.114C359.895 190.422 359.811 190.795 359.811 191.234C359.811 191.663 359.895 192.037 360.063 192.354C360.24 192.662 360.474 192.9 360.763 193.068C361.052 193.236 361.379 193.32 361.743 193.32ZM363.717 195V193.46L363.759 191.22L363.619 188.994V184.612H365.803V195H363.717ZM371.562 195.112C370.704 195.112 369.948 194.944 369.294 194.608C368.65 194.272 368.151 193.815 367.796 193.236C367.442 192.648 367.264 191.981 367.264 191.234C367.264 190.478 367.437 189.811 367.782 189.232C368.137 188.644 368.618 188.187 369.224 187.86C369.831 187.524 370.517 187.356 371.282 187.356C372.02 187.356 372.682 187.515 373.27 187.832C373.868 188.14 374.339 188.588 374.684 189.176C375.03 189.755 375.202 190.45 375.202 191.262C375.202 191.346 375.198 191.444 375.188 191.556C375.179 191.659 375.17 191.757 375.16 191.85H369.042V190.576H374.012L373.172 190.954C373.172 190.562 373.093 190.221 372.934 189.932C372.776 189.643 372.556 189.419 372.276 189.26C371.996 189.092 371.67 189.008 371.296 189.008C370.923 189.008 370.592 189.092 370.302 189.26C370.022 189.419 369.803 189.647 369.644 189.946C369.486 190.235 369.406 190.581 369.406 190.982V191.318C369.406 191.729 369.495 192.093 369.672 192.41C369.859 192.718 370.116 192.956 370.442 193.124C370.778 193.283 371.17 193.362 371.618 193.362C372.02 193.362 372.37 193.301 372.668 193.18C372.976 193.059 373.256 192.877 373.508 192.634L374.67 193.894C374.325 194.286 373.891 194.589 373.368 194.804C372.846 195.009 372.244 195.112 371.562 195.112ZM376.656 195V187.468H378.742V189.596L378.448 188.98C378.672 188.448 379.032 188.047 379.526 187.776C380.021 187.496 380.623 187.356 381.332 187.356V189.372C381.239 189.363 381.155 189.358 381.08 189.358C381.006 189.349 380.926 189.344 380.842 189.344C380.245 189.344 379.76 189.517 379.386 189.862C379.022 190.198 378.84 190.725 378.84 191.444V195H376.656ZM382.504 189.176L382.364 185.2H384.226L384.072 189.176H382.504ZM385.388 189.176L385.248 185.2H387.11L386.956 189.176H385.388ZM388.657 193.544V191.794L394.663 189.61V190.59L388.657 188.406V186.656L395.321 189.19V191.01L388.657 193.544ZM252.532 211.544L245.868 209.01V207.19L252.532 204.656V206.406L246.526 208.59V207.61L252.532 209.794V211.544ZM257.623 213.112C256.914 213.112 256.274 212.953 255.705 212.636C255.136 212.309 254.683 211.857 254.347 211.278C254.02 210.699 253.857 210.018 253.857 209.234C253.857 208.441 254.02 207.755 254.347 207.176C254.683 206.597 255.136 206.149 255.705 205.832C256.274 205.515 256.914 205.356 257.623 205.356C258.258 205.356 258.813 205.496 259.289 205.776C259.765 206.056 260.134 206.481 260.395 207.05C260.656 207.619 260.787 208.347 260.787 209.234C260.787 210.111 260.661 210.839 260.409 211.418C260.157 211.987 259.793 212.412 259.317 212.692C258.85 212.972 258.286 213.112 257.623 213.112ZM258.001 211.32C258.356 211.32 258.678 211.236 258.967 211.068C259.256 210.9 259.485 210.662 259.653 210.354C259.83 210.037 259.919 209.663 259.919 209.234C259.919 208.795 259.83 208.422 259.653 208.114C259.485 207.806 259.256 207.568 258.967 207.4C258.678 207.232 258.356 207.148 258.001 207.148C257.637 207.148 257.31 207.232 257.021 207.4C256.732 207.568 256.498 207.806 256.321 208.114C256.153 208.422 256.069 208.795 256.069 209.234C256.069 209.663 256.153 210.037 256.321 210.354C256.498 210.662 256.732 210.9 257.021 211.068C257.31 211.236 257.637 211.32 258.001 211.32ZM259.975 213V211.46L260.017 209.22L259.877 206.994V202.612H262.061V213H259.975ZM264.082 213V205.468H266.266V213H264.082ZM265.174 204.418C264.773 204.418 264.446 204.301 264.194 204.068C263.942 203.835 263.816 203.545 263.816 203.2C263.816 202.855 263.942 202.565 264.194 202.332C264.446 202.099 264.773 201.982 265.174 201.982C265.576 201.982 265.902 202.094 266.154 202.318C266.406 202.533 266.532 202.813 266.532 203.158C266.532 203.522 266.406 203.825 266.154 204.068C265.912 204.301 265.585 204.418 265.174 204.418ZM270.337 213L267.173 205.468H269.427L272.059 211.95H270.939L273.669 205.468H275.769L272.591 213H270.337ZM284.265 213.112C283.453 213.112 282.73 212.949 282.095 212.622C281.461 212.286 280.961 211.824 280.597 211.236C280.243 210.648 280.065 209.981 280.065 209.234C280.065 208.478 280.243 207.811 280.597 207.232C280.961 206.644 281.461 206.187 282.095 205.86C282.73 205.524 283.453 205.356 284.265 205.356C285.059 205.356 285.749 205.524 286.337 205.86C286.925 206.187 287.359 206.658 287.639 207.274L285.945 208.184C285.749 207.829 285.502 207.568 285.203 207.4C284.914 207.232 284.597 207.148 284.251 207.148C283.878 207.148 283.542 207.232 283.243 207.4C282.945 207.568 282.707 207.806 282.529 208.114C282.361 208.422 282.277 208.795 282.277 209.234C282.277 209.673 282.361 210.046 282.529 210.354C282.707 210.662 282.945 210.9 283.243 211.068C283.542 211.236 283.878 211.32 284.251 211.32C284.597 211.32 284.914 211.241 285.203 211.082C285.502 210.914 285.749 210.648 285.945 210.284L287.639 211.208C287.359 211.815 286.925 212.286 286.337 212.622C285.749 212.949 285.059 213.112 284.265 213.112ZM288.856 213V202.612H291.04V213H288.856ZM297.687 213V211.53L297.547 211.208V208.576C297.547 208.109 297.402 207.745 297.113 207.484C296.833 207.223 296.399 207.092 295.811 207.092C295.409 207.092 295.013 207.157 294.621 207.288C294.238 207.409 293.911 207.577 293.641 207.792L292.857 206.266C293.267 205.977 293.762 205.753 294.341 205.594C294.919 205.435 295.507 205.356 296.105 205.356C297.253 205.356 298.144 205.627 298.779 206.168C299.413 206.709 299.731 207.554 299.731 208.702V213H297.687ZM295.391 213.112C294.803 213.112 294.299 213.014 293.879 212.818C293.459 212.613 293.137 212.337 292.913 211.992C292.689 211.647 292.577 211.259 292.577 210.83C292.577 210.382 292.684 209.99 292.899 209.654C293.123 209.318 293.473 209.057 293.949 208.87C294.425 208.674 295.045 208.576 295.811 208.576H297.813V209.85H296.049C295.535 209.85 295.181 209.934 294.985 210.102C294.798 210.27 294.705 210.48 294.705 210.732C294.705 211.012 294.812 211.236 295.027 211.404C295.251 211.563 295.554 211.642 295.937 211.642C296.301 211.642 296.627 211.558 296.917 211.39C297.206 211.213 297.416 210.956 297.547 210.62L297.883 211.628C297.724 212.113 297.435 212.482 297.015 212.734C296.595 212.986 296.053 213.112 295.391 213.112ZM304.241 213.112C303.597 213.112 302.977 213.037 302.379 212.888C301.791 212.729 301.325 212.533 300.979 212.3L301.707 210.732C302.053 210.947 302.459 211.124 302.925 211.264C303.401 211.395 303.868 211.46 304.325 211.46C304.829 211.46 305.184 211.399 305.389 211.278C305.604 211.157 305.711 210.989 305.711 210.774C305.711 210.597 305.627 210.466 305.459 210.382C305.301 210.289 305.086 210.219 304.815 210.172C304.545 210.125 304.246 210.079 303.919 210.032C303.602 209.985 303.28 209.925 302.953 209.85C302.627 209.766 302.328 209.645 302.057 209.486C301.787 209.327 301.567 209.113 301.399 208.842C301.241 208.571 301.161 208.221 301.161 207.792C301.161 207.316 301.297 206.896 301.567 206.532C301.847 206.168 302.249 205.883 302.771 205.678C303.294 205.463 303.919 205.356 304.647 205.356C305.161 205.356 305.683 205.412 306.215 205.524C306.747 205.636 307.191 205.799 307.545 206.014L306.817 207.568C306.453 207.353 306.085 207.209 305.711 207.134C305.347 207.05 304.993 207.008 304.647 207.008C304.162 207.008 303.807 207.073 303.583 207.204C303.359 207.335 303.247 207.503 303.247 207.708C303.247 207.895 303.327 208.035 303.485 208.128C303.653 208.221 303.873 208.296 304.143 208.352C304.414 208.408 304.708 208.459 305.025 208.506C305.352 208.543 305.679 208.604 306.005 208.688C306.332 208.772 306.626 208.893 306.887 209.052C307.158 209.201 307.377 209.411 307.545 209.682C307.713 209.943 307.797 210.289 307.797 210.718C307.797 211.185 307.657 211.6 307.377 211.964C307.097 212.319 306.691 212.599 306.159 212.804C305.637 213.009 304.997 213.112 304.241 213.112ZM311.679 213.112C311.035 213.112 310.414 213.037 309.817 212.888C309.229 212.729 308.762 212.533 308.417 212.3L309.145 210.732C309.49 210.947 309.896 211.124 310.363 211.264C310.839 211.395 311.305 211.46 311.763 211.46C312.267 211.46 312.621 211.399 312.827 211.278C313.041 211.157 313.149 210.989 313.149 210.774C313.149 210.597 313.065 210.466 312.897 210.382C312.738 210.289 312.523 210.219 312.253 210.172C311.982 210.125 311.683 210.079 311.357 210.032C311.039 209.985 310.717 209.925 310.391 209.85C310.064 209.766 309.765 209.645 309.495 209.486C309.224 209.327 309.005 209.113 308.837 208.842C308.678 208.571 308.599 208.221 308.599 207.792C308.599 207.316 308.734 206.896 309.005 206.532C309.285 206.168 309.686 205.883 310.209 205.678C310.731 205.463 311.357 205.356 312.085 205.356C312.598 205.356 313.121 205.412 313.653 205.524C314.185 205.636 314.628 205.799 314.983 206.014L314.255 207.568C313.891 207.353 313.522 207.209 313.149 207.134C312.785 207.05 312.43 207.008 312.085 207.008C311.599 207.008 311.245 207.073 311.021 207.204C310.797 207.335 310.685 207.503 310.685 207.708C310.685 207.895 310.764 208.035 310.923 208.128C311.091 208.221 311.31 208.296 311.581 208.352C311.851 208.408 312.145 208.459 312.463 208.506C312.789 208.543 313.116 208.604 313.443 208.688C313.769 208.772 314.063 208.893 314.325 209.052C314.595 209.201 314.815 209.411 314.983 209.682C315.151 209.943 315.235 210.289 315.235 210.718C315.235 211.185 315.095 211.6 314.815 211.964C314.535 212.319 314.129 212.599 313.597 212.804C313.074 213.009 312.435 213.112 311.679 213.112ZM316.442 207.218V205.51H323.106V207.218H316.442ZM316.442 210.69V208.982H323.106V210.69H316.442ZM324.781 207.176L324.641 203.2H326.503L326.349 207.176H324.781ZM327.665 207.176L327.525 203.2H329.387L329.233 207.176H327.665ZM331.074 213V202.612H333.258V213H331.074ZM338.869 213.112C338.067 213.112 337.353 212.944 336.727 212.608C336.111 212.272 335.621 211.815 335.257 211.236C334.903 210.648 334.725 209.981 334.725 209.234C334.725 208.478 334.903 207.811 335.257 207.232C335.621 206.644 336.111 206.187 336.727 205.86C337.353 205.524 338.067 205.356 338.869 205.356C339.663 205.356 340.372 205.524 340.997 205.86C341.623 206.187 342.113 206.639 342.467 207.218C342.822 207.797 342.999 208.469 342.999 209.234C342.999 209.981 342.822 210.648 342.467 211.236C342.113 211.815 341.623 212.272 340.997 212.608C340.372 212.944 339.663 213.112 338.869 213.112ZM338.869 211.32C339.233 211.32 339.56 211.236 339.849 211.068C340.139 210.9 340.367 210.662 340.535 210.354C340.703 210.037 340.787 209.663 340.787 209.234C340.787 208.795 340.703 208.422 340.535 208.114C340.367 207.806 340.139 207.568 339.849 207.4C339.56 207.232 339.233 207.148 338.869 207.148C338.505 207.148 338.179 207.232 337.889 207.4C337.6 207.568 337.367 207.806 337.189 208.114C337.021 208.422 336.937 208.795 336.937 209.234C336.937 209.663 337.021 210.037 337.189 210.354C337.367 210.662 337.6 210.9 337.889 211.068C338.179 211.236 338.505 211.32 338.869 211.32ZM348.001 215.828C347.292 215.828 346.606 215.739 345.943 215.562C345.29 215.394 344.744 215.137 344.305 214.792L345.173 213.224C345.491 213.485 345.892 213.691 346.377 213.84C346.872 213.999 347.357 214.078 347.833 214.078C348.608 214.078 349.168 213.905 349.513 213.56C349.868 213.215 350.045 212.701 350.045 212.02V210.886L350.185 208.996L350.157 207.092V205.468H352.229V211.74C352.229 213.14 351.865 214.171 351.137 214.834C350.409 215.497 349.364 215.828 348.001 215.828ZM347.665 212.636C346.965 212.636 346.331 212.487 345.761 212.188C345.201 211.88 344.749 211.455 344.403 210.914C344.067 210.363 343.899 209.724 343.899 208.996C343.899 208.259 344.067 207.619 344.403 207.078C344.749 206.527 345.201 206.103 345.761 205.804C346.331 205.505 346.965 205.356 347.665 205.356C348.3 205.356 348.86 205.487 349.345 205.748C349.831 206 350.209 206.397 350.479 206.938C350.75 207.47 350.885 208.156 350.885 208.996C350.885 209.827 350.75 210.513 350.479 211.054C350.209 211.586 349.831 211.983 349.345 212.244C348.86 212.505 348.3 212.636 347.665 212.636ZM348.099 210.844C348.482 210.844 348.823 210.769 349.121 210.62C349.42 210.461 349.653 210.242 349.821 209.962C349.989 209.682 350.073 209.36 350.073 208.996C350.073 208.623 349.989 208.301 349.821 208.03C349.653 207.75 349.42 207.535 349.121 207.386C348.823 207.227 348.482 207.148 348.099 207.148C347.717 207.148 347.376 207.227 347.077 207.386C346.779 207.535 346.541 207.75 346.363 208.03C346.195 208.301 346.111 208.623 346.111 208.996C346.111 209.36 346.195 209.682 346.363 209.962C346.541 210.242 346.779 210.461 347.077 210.62C347.376 210.769 347.717 210.844 348.099 210.844ZM357.846 213.112C357.043 213.112 356.329 212.944 355.704 212.608C355.088 212.272 354.598 211.815 354.234 211.236C353.879 210.648 353.702 209.981 353.702 209.234C353.702 208.478 353.879 207.811 354.234 207.232C354.598 206.644 355.088 206.187 355.704 205.86C356.329 205.524 357.043 205.356 357.846 205.356C358.639 205.356 359.349 205.524 359.974 205.86C360.599 206.187 361.089 206.639 361.444 207.218C361.799 207.797 361.976 208.469 361.976 209.234C361.976 209.981 361.799 210.648 361.444 211.236C361.089 211.815 360.599 212.272 359.974 212.608C359.349 212.944 358.639 213.112 357.846 213.112ZM357.846 211.32C358.21 211.32 358.537 211.236 358.826 211.068C359.115 210.9 359.344 210.662 359.512 210.354C359.68 210.037 359.764 209.663 359.764 209.234C359.764 208.795 359.68 208.422 359.512 208.114C359.344 207.806 359.115 207.568 358.826 207.4C358.537 207.232 358.21 207.148 357.846 207.148C357.482 207.148 357.155 207.232 356.866 207.4C356.577 207.568 356.343 207.806 356.166 208.114C355.998 208.422 355.914 208.795 355.914 209.234C355.914 209.663 355.998 210.037 356.166 210.354C356.343 210.662 356.577 210.9 356.866 211.068C357.155 211.236 357.482 211.32 357.846 211.32ZM363.049 207.176L362.909 203.2H364.771L364.617 207.176H363.049ZM365.933 207.176L365.793 203.2H367.655L367.501 207.176H365.933ZM369.202 211.544V209.794L375.208 207.61V208.59L369.202 206.406V204.656L375.866 207.19V209.01L369.202 211.544ZM252.532 229.544L245.868 227.01V225.19L252.532 222.656V224.406L246.526 226.59V225.61L252.532 227.794V229.544ZM254.389 231V223.468H256.573V231H254.389ZM255.481 222.418C255.08 222.418 254.753 222.301 254.501 222.068C254.249 221.835 254.123 221.545 254.123 221.2C254.123 220.855 254.249 220.565 254.501 220.332C254.753 220.099 255.08 219.982 255.481 219.982C255.882 219.982 256.209 220.094 256.461 220.318C256.713 220.533 256.839 220.813 256.839 221.158C256.839 221.522 256.713 221.825 256.461 222.068C256.218 222.301 255.892 222.418 255.481 222.418ZM268.246 223.356C268.843 223.356 269.37 223.477 269.828 223.72C270.294 223.953 270.658 224.317 270.92 224.812C271.19 225.297 271.326 225.923 271.326 226.688V231H269.142V227.024C269.142 226.417 269.016 225.969 268.764 225.68C268.512 225.391 268.157 225.246 267.7 225.246C267.382 225.246 267.098 225.321 266.846 225.47C266.594 225.61 266.398 225.825 266.258 226.114C266.118 226.403 266.048 226.772 266.048 227.22V231H263.864V227.024C263.864 226.417 263.738 225.969 263.486 225.68C263.243 225.391 262.893 225.246 262.436 225.246C262.118 225.246 261.834 225.321 261.582 225.47C261.33 225.61 261.134 225.825 260.994 226.114C260.854 226.403 260.784 226.772 260.784 227.22V231H258.6V223.468H260.686V225.526L260.294 224.924C260.555 224.411 260.924 224.023 261.4 223.762C261.885 223.491 262.436 223.356 263.052 223.356C263.742 223.356 264.344 223.533 264.858 223.888C265.38 224.233 265.726 224.765 265.894 225.484L265.124 225.274C265.376 224.686 265.777 224.219 266.328 223.874C266.888 223.529 267.527 223.356 268.246 223.356ZM276.88 233.828C276.171 233.828 275.485 233.739 274.822 233.562C274.169 233.394 273.623 233.137 273.184 232.792L274.052 231.224C274.369 231.485 274.771 231.691 275.256 231.84C275.751 231.999 276.236 232.078 276.712 232.078C277.487 232.078 278.047 231.905 278.392 231.56C278.747 231.215 278.924 230.701 278.924 230.02V228.886L279.064 226.996L279.036 225.092V223.468H281.108V229.74C281.108 231.14 280.744 232.171 280.016 232.834C279.288 233.497 278.243 233.828 276.88 233.828ZM276.544 230.636C275.844 230.636 275.209 230.487 274.64 230.188C274.08 229.88 273.627 229.455 273.282 228.914C272.946 228.363 272.778 227.724 272.778 226.996C272.778 226.259 272.946 225.619 273.282 225.078C273.627 224.527 274.08 224.103 274.64 223.804C275.209 223.505 275.844 223.356 276.544 223.356C277.179 223.356 277.739 223.487 278.224 223.748C278.709 224 279.087 224.397 279.358 224.938C279.629 225.47 279.764 226.156 279.764 226.996C279.764 227.827 279.629 228.513 279.358 229.054C279.087 229.586 278.709 229.983 278.224 230.244C277.739 230.505 277.179 230.636 276.544 230.636ZM276.978 228.844C277.361 228.844 277.701 228.769 278 228.62C278.299 228.461 278.532 228.242 278.7 227.962C278.868 227.682 278.952 227.36 278.952 226.996C278.952 226.623 278.868 226.301 278.7 226.03C278.532 225.75 278.299 225.535 278 225.386C277.701 225.227 277.361 225.148 276.978 225.148C276.595 225.148 276.255 225.227 275.956 225.386C275.657 225.535 275.419 225.75 275.242 226.03C275.074 226.301 274.99 226.623 274.99 226.996C274.99 227.36 275.074 227.682 275.242 227.962C275.419 228.242 275.657 228.461 275.956 228.62C276.255 228.769 276.595 228.844 276.978 228.844ZM289.64 231.112C288.996 231.112 288.375 231.037 287.778 230.888C287.19 230.729 286.723 230.533 286.378 230.3L287.106 228.732C287.451 228.947 287.857 229.124 288.324 229.264C288.8 229.395 289.266 229.46 289.724 229.46C290.228 229.46 290.582 229.399 290.788 229.278C291.002 229.157 291.11 228.989 291.11 228.774C291.11 228.597 291.026 228.466 290.858 228.382C290.699 228.289 290.484 228.219 290.214 228.172C289.943 228.125 289.644 228.079 289.318 228.032C289 227.985 288.678 227.925 288.352 227.85C288.025 227.766 287.726 227.645 287.456 227.486C287.185 227.327 286.966 227.113 286.798 226.842C286.639 226.571 286.56 226.221 286.56 225.792C286.56 225.316 286.695 224.896 286.966 224.532C287.246 224.168 287.647 223.883 288.17 223.678C288.692 223.463 289.318 223.356 290.046 223.356C290.559 223.356 291.082 223.412 291.614 223.524C292.146 223.636 292.589 223.799 292.944 224.014L292.216 225.568C291.852 225.353 291.483 225.209 291.11 225.134C290.746 225.05 290.391 225.008 290.046 225.008C289.56 225.008 289.206 225.073 288.982 225.204C288.758 225.335 288.646 225.503 288.646 225.708C288.646 225.895 288.725 226.035 288.884 226.128C289.052 226.221 289.271 226.296 289.542 226.352C289.812 226.408 290.106 226.459 290.424 226.506C290.75 226.543 291.077 226.604 291.404 226.688C291.73 226.772 292.024 226.893 292.286 227.052C292.556 227.201 292.776 227.411 292.944 227.682C293.112 227.943 293.196 228.289 293.196 228.718C293.196 229.185 293.056 229.6 292.776 229.964C292.496 230.319 292.09 230.599 291.558 230.804C291.035 231.009 290.396 231.112 289.64 231.112ZM294.543 231V223.468H296.629V225.596L296.335 224.98C296.559 224.448 296.918 224.047 297.413 223.776C297.908 223.496 298.51 223.356 299.219 223.356V225.372C299.126 225.363 299.042 225.358 298.967 225.358C298.892 225.349 298.813 225.344 298.729 225.344C298.132 225.344 297.646 225.517 297.273 225.862C296.909 226.198 296.727 226.725 296.727 227.444V231H294.543ZM304.103 231.112C303.291 231.112 302.568 230.949 301.933 230.622C301.298 230.286 300.799 229.824 300.435 229.236C300.08 228.648 299.903 227.981 299.903 227.234C299.903 226.478 300.08 225.811 300.435 225.232C300.799 224.644 301.298 224.187 301.933 223.86C302.568 223.524 303.291 223.356 304.103 223.356C304.896 223.356 305.587 223.524 306.175 223.86C306.763 224.187 307.197 224.658 307.477 225.274L305.783 226.184C305.587 225.829 305.34 225.568 305.041 225.4C304.752 225.232 304.434 225.148 304.089 225.148C303.716 225.148 303.38 225.232 303.081 225.4C302.782 225.568 302.544 225.806 302.367 226.114C302.199 226.422 302.115 226.795 302.115 227.234C302.115 227.673 302.199 228.046 302.367 228.354C302.544 228.662 302.782 228.9 303.081 229.068C303.38 229.236 303.716 229.32 304.089 229.32C304.434 229.32 304.752 229.241 305.041 229.082C305.34 228.914 305.587 228.648 305.783 228.284L307.477 229.208C307.197 229.815 306.763 230.286 306.175 230.622C305.587 230.949 304.896 231.112 304.103 231.112ZM308.595 225.218V223.51H315.259V225.218H308.595ZM308.595 228.69V226.982H315.259V228.69H308.595ZM316.933 225.176L316.793 221.2H318.655L318.501 225.176H316.933ZM319.817 225.176L319.677 221.2H321.539L321.385 225.176H319.817ZM323.227 231V220.612H325.411V231H323.227ZM331.022 231.112C330.219 231.112 329.505 230.944 328.88 230.608C328.264 230.272 327.774 229.815 327.41 229.236C327.055 228.648 326.878 227.981 326.878 227.234C326.878 226.478 327.055 225.811 327.41 225.232C327.774 224.644 328.264 224.187 328.88 223.86C329.505 223.524 330.219 223.356 331.022 223.356C331.815 223.356 332.524 223.524 333.15 223.86C333.775 224.187 334.265 224.639 334.62 225.218C334.974 225.797 335.152 226.469 335.152 227.234C335.152 227.981 334.974 228.648 334.62 229.236C334.265 229.815 333.775 230.272 333.15 230.608C332.524 230.944 331.815 231.112 331.022 231.112ZM331.022 229.32C331.386 229.32 331.712 229.236 332.002 229.068C332.291 228.9 332.52 228.662 332.688 228.354C332.856 228.037 332.94 227.663 332.94 227.234C332.94 226.795 332.856 226.422 332.688 226.114C332.52 225.806 332.291 225.568 332.002 225.4C331.712 225.232 331.386 225.148 331.022 225.148C330.658 225.148 330.331 225.232 330.042 225.4C329.752 225.568 329.519 225.806 329.342 226.114C329.174 226.422 329.09 226.795 329.09 227.234C329.09 227.663 329.174 228.037 329.342 228.354C329.519 228.662 329.752 228.9 330.042 229.068C330.331 229.236 330.658 229.32 331.022 229.32ZM340.154 233.828C339.444 233.828 338.758 233.739 338.096 233.562C337.442 233.394 336.896 233.137 336.458 232.792L337.326 231.224C337.643 231.485 338.044 231.691 338.53 231.84C339.024 231.999 339.51 232.078 339.986 232.078C340.76 232.078 341.32 231.905 341.666 231.56C342.02 231.215 342.198 230.701 342.198 230.02V228.886L342.338 226.996L342.31 225.092V223.468H344.382V229.74C344.382 231.14 344.018 232.171 343.29 232.834C342.562 233.497 341.516 233.828 340.154 233.828ZM339.818 230.636C339.118 230.636 338.483 230.487 337.914 230.188C337.354 229.88 336.901 229.455 336.556 228.914C336.22 228.363 336.052 227.724 336.052 226.996C336.052 226.259 336.22 225.619 336.556 225.078C336.901 224.527 337.354 224.103 337.914 223.804C338.483 223.505 339.118 223.356 339.818 223.356C340.452 223.356 341.012 223.487 341.498 223.748C341.983 224 342.361 224.397 342.632 224.938C342.902 225.47 343.038 226.156 343.038 226.996C343.038 227.827 342.902 228.513 342.632 229.054C342.361 229.586 341.983 229.983 341.498 230.244C341.012 230.505 340.452 230.636 339.818 230.636ZM340.252 228.844C340.634 228.844 340.975 228.769 341.274 228.62C341.572 228.461 341.806 228.242 341.974 227.962C342.142 227.682 342.226 227.36 342.226 226.996C342.226 226.623 342.142 226.301 341.974 226.03C341.806 225.75 341.572 225.535 341.274 225.386C340.975 225.227 340.634 225.148 340.252 225.148C339.869 225.148 339.528 225.227 339.23 225.386C338.931 225.535 338.693 225.75 338.516 226.03C338.348 226.301 338.264 226.623 338.264 226.996C338.264 227.36 338.348 227.682 338.516 227.962C338.693 228.242 338.931 228.461 339.23 228.62C339.528 228.769 339.869 228.844 340.252 228.844ZM349.998 231.112C349.196 231.112 348.482 230.944 347.856 230.608C347.24 230.272 346.75 229.815 346.386 229.236C346.032 228.648 345.854 227.981 345.854 227.234C345.854 226.478 346.032 225.811 346.386 225.232C346.75 224.644 347.24 224.187 347.856 223.86C348.482 223.524 349.196 223.356 349.998 223.356C350.792 223.356 351.501 223.524 352.126 223.86C352.752 224.187 353.242 224.639 353.596 225.218C353.951 225.797 354.128 226.469 354.128 227.234C354.128 227.981 353.951 228.648 353.596 229.236C353.242 229.815 352.752 230.272 352.126 230.608C351.501 230.944 350.792 231.112 349.998 231.112ZM349.998 229.32C350.362 229.32 350.689 229.236 350.978 229.068C351.268 228.9 351.496 228.662 351.664 228.354C351.832 228.037 351.916 227.663 351.916 227.234C351.916 226.795 351.832 226.422 351.664 226.114C351.496 225.806 351.268 225.568 350.978 225.4C350.689 225.232 350.362 225.148 349.998 225.148C349.634 225.148 349.308 225.232 349.018 225.4C348.729 225.568 348.496 225.806 348.318 226.114C348.15 226.422 348.066 226.795 348.066 227.234C348.066 227.663 348.15 228.037 348.318 228.354C348.496 228.662 348.729 228.9 349.018 229.068C349.308 229.236 349.634 229.32 349.998 229.32ZM356.332 231.112C355.959 231.112 355.637 230.986 355.366 230.734C355.105 230.473 354.974 230.141 354.974 229.74C354.974 229.339 355.105 229.017 355.366 228.774C355.637 228.522 355.959 228.396 356.332 228.396C356.715 228.396 357.037 228.522 357.298 228.774C357.559 229.017 357.69 229.339 357.69 229.74C357.69 230.141 357.559 230.473 357.298 230.734C357.037 230.986 356.715 231.112 356.332 231.112ZM362.575 233.828C362.239 233.828 361.917 233.791 361.609 233.716C361.301 233.651 361.04 233.548 360.825 233.408L361.413 231.826C361.665 232.003 361.973 232.092 362.337 232.092C362.608 232.092 362.822 231.999 362.981 231.812C363.149 231.635 363.233 231.364 363.233 231V223.468H365.417V230.986C365.417 231.854 365.17 232.545 364.675 233.058C364.18 233.571 363.48 233.828 362.575 233.828ZM364.325 222.418C363.924 222.418 363.597 222.301 363.345 222.068C363.093 221.835 362.967 221.545 362.967 221.2C362.967 220.855 363.093 220.565 363.345 220.332C363.597 220.099 363.924 219.982 364.325 219.982C364.726 219.982 365.053 220.094 365.305 220.318C365.557 220.533 365.683 220.813 365.683 221.158C365.683 221.522 365.557 221.825 365.305 222.068C365.062 222.301 364.736 222.418 364.325 222.418ZM371.88 231.112C371.245 231.112 370.69 230.972 370.214 230.692C369.738 230.412 369.365 229.987 369.094 229.418C368.833 228.839 368.702 228.111 368.702 227.234C368.702 226.347 368.828 225.619 369.08 225.05C369.332 224.481 369.696 224.056 370.172 223.776C370.648 223.496 371.217 223.356 371.88 223.356C372.589 223.356 373.224 223.519 373.784 223.846C374.353 224.163 374.801 224.611 375.128 225.19C375.464 225.769 375.632 226.45 375.632 227.234C375.632 228.027 375.464 228.713 375.128 229.292C374.801 229.871 374.353 230.319 373.784 230.636C373.224 230.953 372.589 231.112 371.88 231.112ZM367.428 233.716V223.468H369.514V225.008L369.472 227.248L369.612 229.474V233.716H367.428ZM371.502 229.32C371.866 229.32 372.188 229.236 372.468 229.068C372.757 228.9 372.986 228.662 373.154 228.354C373.331 228.037 373.42 227.663 373.42 227.234C373.42 226.795 373.331 226.422 373.154 226.114C372.986 225.806 372.757 225.568 372.468 225.4C372.188 225.232 371.866 225.148 371.502 225.148C371.138 225.148 370.811 225.232 370.522 225.4C370.233 225.568 370.004 225.806 369.836 226.114C369.668 226.422 369.584 226.795 369.584 227.234C369.584 227.663 369.668 228.037 369.836 228.354C370.004 228.662 370.233 228.9 370.522 229.068C370.811 229.236 371.138 229.32 371.502 229.32ZM380.636 233.828C379.927 233.828 379.241 233.739 378.578 233.562C377.925 233.394 377.379 233.137 376.94 232.792L377.808 231.224C378.125 231.485 378.527 231.691 379.012 231.84C379.507 231.999 379.992 232.078 380.468 232.078C381.243 232.078 381.803 231.905 382.148 231.56C382.503 231.215 382.68 230.701 382.68 230.02V228.886L382.82 226.996L382.792 225.092V223.468H384.864V229.74C384.864 231.14 384.5 232.171 383.772 232.834C383.044 233.497 381.999 233.828 380.636 233.828ZM380.3 230.636C379.6 230.636 378.965 230.487 378.396 230.188C377.836 229.88 377.383 229.455 377.038 228.914C376.702 228.363 376.534 227.724 376.534 226.996C376.534 226.259 376.702 225.619 377.038 225.078C377.383 224.527 377.836 224.103 378.396 223.804C378.965 223.505 379.6 223.356 380.3 223.356C380.935 223.356 381.495 223.487 381.98 223.748C382.465 224 382.843 224.397 383.114 224.938C383.385 225.47 383.52 226.156 383.52 226.996C383.52 227.827 383.385 228.513 383.114 229.054C382.843 229.586 382.465 229.983 381.98 230.244C381.495 230.505 380.935 230.636 380.3 230.636ZM380.734 228.844C381.117 228.844 381.457 228.769 381.756 228.62C382.055 228.461 382.288 228.242 382.456 227.962C382.624 227.682 382.708 227.36 382.708 226.996C382.708 226.623 382.624 226.301 382.456 226.03C382.288 225.75 382.055 225.535 381.756 225.386C381.457 225.227 381.117 225.148 380.734 225.148C380.351 225.148 380.011 225.227 379.712 225.386C379.413 225.535 379.175 225.75 378.998 226.03C378.83 226.301 378.746 226.623 378.746 226.996C378.746 227.36 378.83 227.682 378.998 227.962C379.175 228.242 379.413 228.461 379.712 228.62C380.011 228.769 380.351 228.844 380.734 228.844ZM386.715 225.176L386.575 221.2H388.437L388.283 225.176H386.715ZM389.599 225.176L389.459 221.2H391.321L391.167 225.176H389.599ZM401.593 231V229.53L401.453 229.208V226.576C401.453 226.109 401.308 225.745 401.019 225.484C400.739 225.223 400.305 225.092 399.717 225.092C399.316 225.092 398.919 225.157 398.527 225.288C398.144 225.409 397.818 225.577 397.547 225.792L396.763 224.266C397.174 223.977 397.668 223.753 398.247 223.594C398.826 223.435 399.414 223.356 400.011 223.356C401.159 223.356 402.05 223.627 402.685 224.168C403.32 224.709 403.637 225.554 403.637 226.702V231H401.593ZM399.297 231.112C398.709 231.112 398.205 231.014 397.785 230.818C397.365 230.613 397.043 230.337 396.819 229.992C396.595 229.647 396.483 229.259 396.483 228.83C396.483 228.382 396.59 227.99 396.805 227.654C397.029 227.318 397.379 227.057 397.855 226.87C398.331 226.674 398.952 226.576 399.717 226.576H401.719V227.85H399.955C399.442 227.85 399.087 227.934 398.891 228.102C398.704 228.27 398.611 228.48 398.611 228.732C398.611 229.012 398.718 229.236 398.933 229.404C399.157 229.563 399.46 229.642 399.843 229.642C400.207 229.642 400.534 229.558 400.823 229.39C401.112 229.213 401.322 228.956 401.453 228.62L401.789 229.628C401.63 230.113 401.341 230.482 400.921 230.734C400.501 230.986 399.96 231.112 399.297 231.112ZM405.613 231V220.612H407.797V231H405.613ZM413.465 231.112C412.578 231.112 411.888 230.888 411.393 230.44C410.898 229.983 410.651 229.306 410.651 228.41V221.802H412.835V228.382C412.835 228.699 412.919 228.947 413.087 229.124C413.255 229.292 413.484 229.376 413.773 229.376C414.118 229.376 414.412 229.283 414.655 229.096L415.243 230.636C415.019 230.795 414.748 230.916 414.431 231C414.123 231.075 413.801 231.112 413.465 231.112ZM409.489 225.316V223.636H414.711V225.316H409.489ZM416.329 225.218V223.51H422.993V225.218H416.329ZM416.329 228.69V226.982H422.993V228.69H416.329ZM424.668 225.176L424.528 221.2H426.39L426.236 225.176H424.668ZM427.552 225.176L427.412 221.2H429.274L429.12 225.176H427.552ZM430.961 231V220.612H433.145V231H430.961ZM438.756 231.112C437.953 231.112 437.239 230.944 436.614 230.608C435.998 230.272 435.508 229.815 435.144 229.236C434.789 228.648 434.612 227.981 434.612 227.234C434.612 226.478 434.789 225.811 435.144 225.232C435.508 224.644 435.998 224.187 436.614 223.86C437.239 223.524 437.953 223.356 438.756 223.356C439.549 223.356 440.259 223.524 440.884 223.86C441.509 224.187 441.999 224.639 442.354 225.218C442.709 225.797 442.886 226.469 442.886 227.234C442.886 227.981 442.709 228.648 442.354 229.236C441.999 229.815 441.509 230.272 440.884 230.608C440.259 230.944 439.549 231.112 438.756 231.112ZM438.756 229.32C439.12 229.32 439.447 229.236 439.736 229.068C440.025 228.9 440.254 228.662 440.422 228.354C440.59 228.037 440.674 227.663 440.674 227.234C440.674 226.795 440.59 226.422 440.422 226.114C440.254 225.806 440.025 225.568 439.736 225.4C439.447 225.232 439.12 225.148 438.756 225.148C438.392 225.148 438.065 225.232 437.776 225.4C437.487 225.568 437.253 225.806 437.076 226.114C436.908 226.422 436.824 226.795 436.824 227.234C436.824 227.663 436.908 228.037 437.076 228.354C437.253 228.662 437.487 228.9 437.776 229.068C438.065 229.236 438.392 229.32 438.756 229.32ZM447.888 233.828C447.179 233.828 446.493 233.739 445.83 233.562C445.177 233.394 444.631 233.137 444.192 232.792L445.06 231.224C445.377 231.485 445.779 231.691 446.264 231.84C446.759 231.999 447.244 232.078 447.72 232.078C448.495 232.078 449.055 231.905 449.4 231.56C449.755 231.215 449.932 230.701 449.932 230.02V228.886L450.072 226.996L450.044 225.092V223.468H452.116V229.74C452.116 231.14 451.752 232.171 451.024 232.834C450.296 233.497 449.251 233.828 447.888 233.828ZM447.552 230.636C446.852 230.636 446.217 230.487 445.648 230.188C445.088 229.88 444.635 229.455 444.29 228.914C443.954 228.363 443.786 227.724 443.786 226.996C443.786 226.259 443.954 225.619 444.29 225.078C444.635 224.527 445.088 224.103 445.648 223.804C446.217 223.505 446.852 223.356 447.552 223.356C448.187 223.356 448.747 223.487 449.232 223.748C449.717 224 450.095 224.397 450.366 224.938C450.637 225.47 450.772 226.156 450.772 226.996C450.772 227.827 450.637 228.513 450.366 229.054C450.095 229.586 449.717 229.983 449.232 230.244C448.747 230.505 448.187 230.636 447.552 230.636ZM447.986 228.844C448.369 228.844 448.709 228.769 449.008 228.62C449.307 228.461 449.54 228.242 449.708 227.962C449.876 227.682 449.96 227.36 449.96 226.996C449.96 226.623 449.876 226.301 449.708 226.03C449.54 225.75 449.307 225.535 449.008 225.386C448.709 225.227 448.369 225.148 447.986 225.148C447.603 225.148 447.263 225.227 446.964 225.386C446.665 225.535 446.427 225.75 446.25 226.03C446.082 226.301 445.998 226.623 445.998 226.996C445.998 227.36 446.082 227.682 446.25 227.962C446.427 228.242 446.665 228.461 446.964 228.62C447.263 228.769 447.603 228.844 447.986 228.844ZM457.733 231.112C456.93 231.112 456.216 230.944 455.591 230.608C454.975 230.272 454.485 229.815 454.121 229.236C453.766 228.648 453.589 227.981 453.589 227.234C453.589 226.478 453.766 225.811 454.121 225.232C454.485 224.644 454.975 224.187 455.591 223.86C456.216 223.524 456.93 223.356 457.733 223.356C458.526 223.356 459.235 223.524 459.861 223.86C460.486 224.187 460.976 224.639 461.331 225.218C461.685 225.797 461.863 226.469 461.863 227.234C461.863 227.981 461.685 228.648 461.331 229.236C460.976 229.815 460.486 230.272 459.861 230.608C459.235 230.944 458.526 231.112 457.733 231.112ZM457.733 229.32C458.097 229.32 458.423 229.236 458.713 229.068C459.002 228.9 459.231 228.662 459.399 228.354C459.567 228.037 459.651 227.663 459.651 227.234C459.651 226.795 459.567 226.422 459.399 226.114C459.231 225.806 459.002 225.568 458.713 225.4C458.423 225.232 458.097 225.148 457.733 225.148C457.369 225.148 457.042 225.232 456.753 225.4C456.463 225.568 456.23 225.806 456.053 226.114C455.885 226.422 455.801 226.795 455.801 227.234C455.801 227.663 455.885 228.037 456.053 228.354C456.23 228.662 456.463 228.9 456.753 229.068C457.042 229.236 457.369 229.32 457.733 229.32ZM462.935 225.176L462.795 221.2H464.657L464.503 225.176H462.935ZM465.819 225.176L465.679 221.2H467.541L467.387 225.176H465.819ZM469.089 229.544V227.794L475.095 225.61V226.59L469.089 224.406V222.656L475.753 225.19V227.01L469.089 229.544ZM252.532 247.544L245.868 245.01V243.19L252.532 240.656V242.406L246.526 244.59V243.61L252.532 245.794V247.544ZM258.967 241.356C259.564 241.356 260.096 241.477 260.563 241.72C261.039 241.953 261.412 242.317 261.683 242.812C261.954 243.297 262.089 243.923 262.089 244.688V249H259.905V245.024C259.905 244.417 259.77 243.969 259.499 243.68C259.238 243.391 258.864 243.246 258.379 243.246C258.034 243.246 257.721 243.321 257.441 243.47C257.17 243.61 256.956 243.829 256.797 244.128C256.648 244.427 256.573 244.809 256.573 245.276V249H254.389V238.612H256.573V243.554L256.083 242.924C256.354 242.42 256.741 242.033 257.245 241.762C257.749 241.491 258.323 241.356 258.967 241.356ZM264.859 249V240.04L265.839 241.02H262.899V239.2H267.127V249H264.859ZM269.151 247.544V245.794L275.157 243.61V244.59L269.151 242.406V240.656L275.815 243.19V245.01L269.151 247.544ZM284.546 239.2H286.814V249H284.546V239.2ZM280.094 249H277.826V239.2H280.094V249ZM284.714 244.982H279.926V243.064H284.714V244.982ZM292.717 249.112C291.858 249.112 291.102 248.944 290.449 248.608C289.805 248.272 289.305 247.815 288.951 247.236C288.596 246.648 288.419 245.981 288.419 245.234C288.419 244.478 288.591 243.811 288.937 243.232C289.291 242.644 289.772 242.187 290.379 241.86C290.985 241.524 291.671 241.356 292.437 241.356C293.174 241.356 293.837 241.515 294.425 241.832C295.022 242.14 295.493 242.588 295.839 243.176C296.184 243.755 296.357 244.45 296.357 245.262C296.357 245.346 296.352 245.444 296.343 245.556C296.333 245.659 296.324 245.757 296.315 245.85H290.197V244.576H295.167L294.327 244.954C294.327 244.562 294.247 244.221 294.089 243.932C293.93 243.643 293.711 243.419 293.431 243.26C293.151 243.092 292.824 243.008 292.451 243.008C292.077 243.008 291.746 243.092 291.457 243.26C291.177 243.419 290.957 243.647 290.799 243.946C290.64 244.235 290.561 244.581 290.561 244.982V245.318C290.561 245.729 290.649 246.093 290.827 246.41C291.013 246.718 291.27 246.956 291.597 247.124C291.933 247.283 292.325 247.362 292.773 247.362C293.174 247.362 293.524 247.301 293.823 247.18C294.131 247.059 294.411 246.877 294.663 246.634L295.825 247.894C295.479 248.286 295.045 248.589 294.523 248.804C294 249.009 293.398 249.112 292.717 249.112ZM302.226 249V247.53L302.086 247.208V244.576C302.086 244.109 301.941 243.745 301.652 243.484C301.372 243.223 300.938 243.092 300.35 243.092C299.948 243.092 299.552 243.157 299.16 243.288C298.777 243.409 298.45 243.577 298.18 243.792L297.396 242.266C297.806 241.977 298.301 241.753 298.88 241.594C299.458 241.435 300.046 241.356 300.644 241.356C301.792 241.356 302.683 241.627 303.318 242.168C303.952 242.709 304.27 243.554 304.27 244.702V249H302.226ZM299.93 249.112C299.342 249.112 298.838 249.014 298.418 248.818C297.998 248.613 297.676 248.337 297.452 247.992C297.228 247.647 297.116 247.259 297.116 246.83C297.116 246.382 297.223 245.99 297.438 245.654C297.662 245.318 298.012 245.057 298.488 244.87C298.964 244.674 299.584 244.576 300.35 244.576H302.352V245.85H300.588C300.074 245.85 299.72 245.934 299.524 246.102C299.337 246.27 299.244 246.48 299.244 246.732C299.244 247.012 299.351 247.236 299.566 247.404C299.79 247.563 300.093 247.642 300.476 247.642C300.84 247.642 301.166 247.558 301.456 247.39C301.745 247.213 301.955 246.956 302.086 246.62L302.422 247.628C302.263 248.113 301.974 248.482 301.554 248.734C301.134 248.986 300.592 249.112 299.93 249.112ZM309.535 249.112C308.826 249.112 308.186 248.953 307.617 248.636C307.048 248.309 306.595 247.857 306.259 247.278C305.932 246.699 305.769 246.018 305.769 245.234C305.769 244.441 305.932 243.755 306.259 243.176C306.595 242.597 307.048 242.149 307.617 241.832C308.186 241.515 308.826 241.356 309.535 241.356C310.17 241.356 310.725 241.496 311.201 241.776C311.677 242.056 312.046 242.481 312.307 243.05C312.568 243.619 312.699 244.347 312.699 245.234C312.699 246.111 312.573 246.839 312.321 247.418C312.069 247.987 311.705 248.412 311.229 248.692C310.762 248.972 310.198 249.112 309.535 249.112ZM309.913 247.32C310.268 247.32 310.59 247.236 310.879 247.068C311.168 246.9 311.397 246.662 311.565 246.354C311.742 246.037 311.831 245.663 311.831 245.234C311.831 244.795 311.742 244.422 311.565 244.114C311.397 243.806 311.168 243.568 310.879 243.4C310.59 243.232 310.268 243.148 309.913 243.148C309.549 243.148 309.222 243.232 308.933 243.4C308.644 243.568 308.41 243.806 308.233 244.114C308.065 244.422 307.981 244.795 307.981 245.234C307.981 245.663 308.065 246.037 308.233 246.354C308.41 246.662 308.644 246.9 308.933 247.068C309.222 247.236 309.549 247.32 309.913 247.32ZM311.887 249V247.46L311.929 245.22L311.789 242.994V238.612H313.973V249H311.887ZM315.994 249V241.468H318.178V249H315.994ZM317.086 240.418C316.685 240.418 316.358 240.301 316.106 240.068C315.854 239.835 315.728 239.545 315.728 239.2C315.728 238.855 315.854 238.565 316.106 238.332C316.358 238.099 316.685 237.982 317.086 237.982C317.488 237.982 317.814 238.094 318.066 238.318C318.318 238.533 318.444 238.813 318.444 239.158C318.444 239.522 318.318 239.825 318.066 240.068C317.824 240.301 317.497 240.418 317.086 240.418ZM324.783 241.356C325.381 241.356 325.913 241.477 326.379 241.72C326.855 241.953 327.229 242.317 327.499 242.812C327.77 243.297 327.905 243.923 327.905 244.688V249H325.721V245.024C325.721 244.417 325.586 243.969 325.315 243.68C325.054 243.391 324.681 243.246 324.195 243.246C323.85 243.246 323.537 243.321 323.257 243.47C322.987 243.61 322.772 243.829 322.613 244.128C322.464 244.427 322.389 244.809 322.389 245.276V249H320.205V241.468H322.291V243.554L321.899 242.924C322.17 242.42 322.557 242.033 323.061 241.762C323.565 241.491 324.139 241.356 324.783 241.356ZM333.482 251.828C332.772 251.828 332.086 251.739 331.424 251.562C330.77 251.394 330.224 251.137 329.786 250.792L330.654 249.224C330.971 249.485 331.372 249.691 331.858 249.84C332.352 249.999 332.838 250.078 333.314 250.078C334.088 250.078 334.648 249.905 334.994 249.56C335.348 249.215 335.526 248.701 335.526 248.02V246.886L335.666 244.996L335.638 243.092V241.468H337.71V247.74C337.71 249.14 337.346 250.171 336.618 250.834C335.89 251.497 334.844 251.828 333.482 251.828ZM333.146 248.636C332.446 248.636 331.811 248.487 331.242 248.188C330.682 247.88 330.229 247.455 329.884 246.914C329.548 246.363 329.38 245.724 329.38 244.996C329.38 244.259 329.548 243.619 329.884 243.078C330.229 242.527 330.682 242.103 331.242 241.804C331.811 241.505 332.446 241.356 333.146 241.356C333.78 241.356 334.34 241.487 334.826 241.748C335.311 242 335.689 242.397 335.96 242.938C336.23 243.47 336.366 244.156 336.366 244.996C336.366 245.827 336.23 246.513 335.96 247.054C335.689 247.586 335.311 247.983 334.826 248.244C334.34 248.505 333.78 248.636 333.146 248.636ZM333.58 246.844C333.962 246.844 334.303 246.769 334.602 246.62C334.9 246.461 335.134 246.242 335.302 245.962C335.47 245.682 335.554 245.36 335.554 244.996C335.554 244.623 335.47 244.301 335.302 244.03C335.134 243.75 334.9 243.535 334.602 243.386C334.303 243.227 333.962 243.148 333.58 243.148C333.197 243.148 332.856 243.227 332.558 243.386C332.259 243.535 332.021 243.75 331.844 244.03C331.676 244.301 331.592 244.623 331.592 244.996C331.592 245.36 331.676 245.682 331.844 245.962C332.021 246.242 332.259 246.461 332.558 246.62C332.856 246.769 333.197 246.844 333.58 246.844ZM346.787 249.112C345.901 249.112 345.21 248.888 344.715 248.44C344.221 247.983 343.973 247.306 343.973 246.41V239.802H346.157V246.382C346.157 246.699 346.241 246.947 346.409 247.124C346.577 247.292 346.806 247.376 347.095 247.376C347.441 247.376 347.735 247.283 347.977 247.096L348.565 248.636C348.341 248.795 348.071 248.916 347.753 249C347.445 249.075 347.123 249.112 346.787 249.112ZM342.811 243.316V241.636H348.033V243.316H342.811ZM354.411 249V247.53L354.271 247.208V244.576C354.271 244.109 354.127 243.745 353.837 243.484C353.557 243.223 353.123 243.092 352.535 243.092C352.134 243.092 351.737 243.157 351.345 243.288C350.963 243.409 350.636 243.577 350.365 243.792L349.581 242.266C349.992 241.977 350.487 241.753 351.065 241.594C351.644 241.435 352.232 241.356 352.829 241.356C353.977 241.356 354.869 241.627 355.503 242.168C356.138 242.709 356.455 243.554 356.455 244.702V249H354.411ZM352.115 249.112C351.527 249.112 351.023 249.014 350.603 248.818C350.183 248.613 349.861 248.337 349.637 247.992C349.413 247.647 349.301 247.259 349.301 246.83C349.301 246.382 349.409 245.99 349.623 245.654C349.847 245.318 350.197 245.057 350.673 244.87C351.149 244.674 351.77 244.576 352.535 244.576H354.537V245.85H352.773C352.26 245.85 351.905 245.934 351.709 246.102C351.523 246.27 351.429 246.48 351.429 246.732C351.429 247.012 351.537 247.236 351.751 247.404C351.975 247.563 352.279 247.642 352.661 247.642C353.025 247.642 353.352 247.558 353.641 247.39C353.931 247.213 354.141 246.956 354.271 246.62L354.607 247.628C354.449 248.113 354.159 248.482 353.739 248.734C353.319 248.986 352.778 249.112 352.115 249.112ZM362.029 251.828C361.319 251.828 360.633 251.739 359.971 251.562C359.317 251.394 358.771 251.137 358.333 250.792L359.201 249.224C359.518 249.485 359.919 249.691 360.405 249.84C360.899 249.999 361.385 250.078 361.861 250.078C362.635 250.078 363.195 249.905 363.541 249.56C363.895 249.215 364.073 248.701 364.073 248.02V246.886L364.213 244.996L364.185 243.092V241.468H366.257V247.74C366.257 249.14 365.893 250.171 365.165 250.834C364.437 251.497 363.391 251.828 362.029 251.828ZM361.693 248.636C360.993 248.636 360.358 248.487 359.789 248.188C359.229 247.88 358.776 247.455 358.431 246.914C358.095 246.363 357.927 245.724 357.927 244.996C357.927 244.259 358.095 243.619 358.431 243.078C358.776 242.527 359.229 242.103 359.789 241.804C360.358 241.505 360.993 241.356 361.693 241.356C362.327 241.356 362.887 241.487 363.373 241.748C363.858 242 364.236 242.397 364.507 242.938C364.777 243.47 364.913 244.156 364.913 244.996C364.913 245.827 364.777 246.513 364.507 247.054C364.236 247.586 363.858 247.983 363.373 248.244C362.887 248.505 362.327 248.636 361.693 248.636ZM362.127 246.844C362.509 246.844 362.85 246.769 363.149 246.62C363.447 246.461 363.681 246.242 363.849 245.962C364.017 245.682 364.101 245.36 364.101 244.996C364.101 244.623 364.017 244.301 363.849 244.03C363.681 243.75 363.447 243.535 363.149 243.386C362.85 243.227 362.509 243.148 362.127 243.148C361.744 243.148 361.403 243.227 361.105 243.386C360.806 243.535 360.568 243.75 360.391 244.03C360.223 244.301 360.139 244.623 360.139 244.996C360.139 245.36 360.223 245.682 360.391 245.962C360.568 246.242 360.806 246.461 361.105 246.62C361.403 246.769 361.744 246.844 362.127 246.844ZM374.813 247.544L368.149 245.01V243.19L374.813 240.656V242.406L368.807 244.59V243.61L374.813 245.794V247.544ZM375.2 250.4L379.82 237.212H381.766L377.146 250.4H375.2ZM386.731 241.356C387.328 241.356 387.86 241.477 388.327 241.72C388.803 241.953 389.176 242.317 389.447 242.812C389.717 243.297 389.853 243.923 389.853 244.688V249H387.669V245.024C387.669 244.417 387.533 243.969 387.263 243.68C387.001 243.391 386.628 243.246 386.143 243.246C385.797 243.246 385.485 243.321 385.205 243.47C384.934 243.61 384.719 243.829 384.561 244.128C384.411 244.427 384.337 244.809 384.337 245.276V249H382.153V238.612H384.337V243.554L383.847 242.924C384.117 242.42 384.505 242.033 385.009 241.762C385.513 241.491 386.087 241.356 386.731 241.356ZM392.622 249V240.04L393.602 241.02H390.662V239.2H394.89V249H392.622ZM396.915 247.544V245.794L402.921 243.61V244.59L396.915 242.406V240.656L403.579 243.19V245.01L396.915 247.544ZM252.532 265.544L245.868 263.01V261.19L252.532 258.656V260.406L246.526 262.59V261.61L252.532 263.794V265.544ZM252.919 268.4L257.539 255.212H259.485L254.865 268.4H252.919ZM262.217 267.112C261.507 267.112 260.868 266.953 260.299 266.636C259.729 266.309 259.277 265.857 258.941 265.278C258.614 264.699 258.451 264.018 258.451 263.234C258.451 262.441 258.614 261.755 258.941 261.176C259.277 260.597 259.729 260.149 260.299 259.832C260.868 259.515 261.507 259.356 262.217 259.356C262.851 259.356 263.407 259.496 263.883 259.776C264.359 260.056 264.727 260.481 264.989 261.05C265.25 261.619 265.381 262.347 265.381 263.234C265.381 264.111 265.255 264.839 265.003 265.418C264.751 265.987 264.387 266.412 263.911 266.692C263.444 266.972 262.879 267.112 262.217 267.112ZM262.595 265.32C262.949 265.32 263.271 265.236 263.561 265.068C263.85 264.9 264.079 264.662 264.247 264.354C264.424 264.037 264.513 263.663 264.513 263.234C264.513 262.795 264.424 262.422 264.247 262.114C264.079 261.806 263.85 261.568 263.561 261.4C263.271 261.232 262.949 261.148 262.595 261.148C262.231 261.148 261.904 261.232 261.615 261.4C261.325 261.568 261.092 261.806 260.915 262.114C260.747 262.422 260.663 262.795 260.663 263.234C260.663 263.663 260.747 264.037 260.915 264.354C261.092 264.662 261.325 264.9 261.615 265.068C261.904 265.236 262.231 265.32 262.595 265.32ZM264.569 267V265.46L264.611 263.22L264.471 260.994V256.612H266.655V267H264.569ZM268.676 267V259.468H270.86V267H268.676ZM269.768 258.418C269.367 258.418 269.04 258.301 268.788 258.068C268.536 257.835 268.41 257.545 268.41 257.2C268.41 256.855 268.536 256.565 268.788 256.332C269.04 256.099 269.367 255.982 269.768 255.982C270.169 255.982 270.496 256.094 270.748 256.318C271 256.533 271.126 256.813 271.126 257.158C271.126 257.522 271 257.825 270.748 258.068C270.505 258.301 270.179 258.418 269.768 258.418ZM274.931 267L271.767 259.468H274.021L276.653 265.95H275.533L278.263 259.468H280.363L277.185 267H274.931ZM281.114 265.544V263.794L287.12 261.61V262.59L281.114 260.406V258.656L287.778 261.19V263.01L281.114 265.544ZM252.532 283.544L245.868 281.01V279.19L252.532 276.656V278.406L246.526 280.59V279.61L252.532 281.794V283.544ZM252.919 286.4L257.539 273.212H259.485L254.865 286.4H252.919ZM262.217 285.112C261.507 285.112 260.868 284.953 260.299 284.636C259.729 284.309 259.277 283.857 258.941 283.278C258.614 282.699 258.451 282.018 258.451 281.234C258.451 280.441 258.614 279.755 258.941 279.176C259.277 278.597 259.729 278.149 260.299 277.832C260.868 277.515 261.507 277.356 262.217 277.356C262.851 277.356 263.407 277.496 263.883 277.776C264.359 278.056 264.727 278.481 264.989 279.05C265.25 279.619 265.381 280.347 265.381 281.234C265.381 282.111 265.255 282.839 265.003 283.418C264.751 283.987 264.387 284.412 263.911 284.692C263.444 284.972 262.879 285.112 262.217 285.112ZM262.595 283.32C262.949 283.32 263.271 283.236 263.561 283.068C263.85 282.9 264.079 282.662 264.247 282.354C264.424 282.037 264.513 281.663 264.513 281.234C264.513 280.795 264.424 280.422 264.247 280.114C264.079 279.806 263.85 279.568 263.561 279.4C263.271 279.232 262.949 279.148 262.595 279.148C262.231 279.148 261.904 279.232 261.615 279.4C261.325 279.568 261.092 279.806 260.915 280.114C260.747 280.422 260.663 280.795 260.663 281.234C260.663 281.663 260.747 282.037 260.915 282.354C261.092 282.662 261.325 282.9 261.615 283.068C261.904 283.236 262.231 283.32 262.595 283.32ZM264.569 285V283.46L264.611 281.22L264.471 278.994V274.612H266.655V285H264.569ZM268.676 285V277.468H270.86V285H268.676ZM269.768 276.418C269.367 276.418 269.04 276.301 268.788 276.068C268.536 275.835 268.41 275.545 268.41 275.2C268.41 274.855 268.536 274.565 268.788 274.332C269.04 274.099 269.367 273.982 269.768 273.982C270.169 273.982 270.496 274.094 270.748 274.318C271 274.533 271.126 274.813 271.126 275.158C271.126 275.522 271 275.825 270.748 276.068C270.505 276.301 270.179 276.418 269.768 276.418ZM274.931 285L271.767 277.468H274.021L276.653 283.95H275.533L278.263 277.468H280.363L277.185 285H274.931ZM281.114 283.544V281.794L287.12 279.61V280.59L281.114 278.406V276.656L287.778 279.19V281.01L281.114 283.544ZM252.532 301.544L245.868 299.01V297.19L252.532 294.656V296.406L246.526 298.59V297.61L252.532 299.794V301.544ZM254.543 299.598L254.109 293.2H256.713L256.279 299.598H254.543ZM255.411 303.112C255.019 303.112 254.697 302.986 254.445 302.734C254.193 302.482 254.067 302.183 254.067 301.838C254.067 301.483 254.193 301.189 254.445 300.956C254.697 300.713 255.019 300.592 255.411 300.592C255.812 300.592 256.134 300.713 256.377 300.956C256.629 301.189 256.755 301.483 256.755 301.838C256.755 302.183 256.629 302.482 256.377 302.734C256.134 302.986 255.812 303.112 255.411 303.112ZM258.156 299.934V298.184H262.118V299.934H258.156ZM267.521 299.934V298.184H271.483V299.934H267.521ZM277.32 303V293.2H281.562C282.44 293.2 283.196 293.345 283.83 293.634C284.465 293.914 284.955 294.32 285.3 294.852C285.646 295.384 285.818 296.019 285.818 296.756C285.818 297.484 285.646 298.114 285.3 298.646C284.955 299.169 284.465 299.57 283.83 299.85C283.196 300.13 282.44 300.27 281.562 300.27H278.58L279.588 299.276V303H277.32ZM283.55 303L281.1 299.444H283.522L286 303H283.55ZM279.588 299.528L278.58 298.464H281.436C282.136 298.464 282.659 298.315 283.004 298.016C283.35 297.708 283.522 297.288 283.522 296.756C283.522 296.215 283.35 295.795 283.004 295.496C282.659 295.197 282.136 295.048 281.436 295.048H278.58L279.588 293.97V299.528ZM291.199 303.112C290.34 303.112 289.584 302.944 288.931 302.608C288.287 302.272 287.788 301.815 287.433 301.236C287.078 300.648 286.901 299.981 286.901 299.234C286.901 298.478 287.074 297.811 287.419 297.232C287.774 296.644 288.254 296.187 288.861 295.86C289.468 295.524 290.154 295.356 290.919 295.356C291.656 295.356 292.319 295.515 292.907 295.832C293.504 296.14 293.976 296.588 294.321 297.176C294.666 297.755 294.839 298.45 294.839 299.262C294.839 299.346 294.834 299.444 294.825 299.556C294.816 299.659 294.806 299.757 294.797 299.85H288.679V298.576H293.649L292.809 298.954C292.809 298.562 292.73 298.221 292.571 297.932C292.412 297.643 292.193 297.419 291.913 297.26C291.633 297.092 291.306 297.008 290.933 297.008C290.56 297.008 290.228 297.092 289.939 297.26C289.659 297.419 289.44 297.647 289.281 297.946C289.122 298.235 289.043 298.581 289.043 298.982V299.318C289.043 299.729 289.132 300.093 289.309 300.41C289.496 300.718 289.752 300.956 290.079 301.124C290.415 301.283 290.807 301.362 291.255 301.362C291.656 301.362 292.006 301.301 292.305 301.18C292.613 301.059 292.893 300.877 293.145 300.634L294.307 301.894C293.962 302.286 293.528 302.589 293.005 302.804C292.482 303.009 291.88 303.112 291.199 303.112ZM296.559 303V295.3C296.559 294.451 296.811 293.774 297.315 293.27C297.819 292.757 298.538 292.5 299.471 292.5C299.788 292.5 300.092 292.533 300.381 292.598C300.68 292.663 300.932 292.766 301.137 292.906L300.563 294.488C300.442 294.404 300.306 294.339 300.157 294.292C300.008 294.245 299.849 294.222 299.681 294.222C299.364 294.222 299.116 294.315 298.939 294.502C298.771 294.679 298.687 294.95 298.687 295.314V296.014L298.743 296.952V303H296.559ZM295.397 297.316V295.636H300.619V297.316H295.397ZM306.191 303V301.53L306.051 301.208V298.576C306.051 298.109 305.906 297.745 305.617 297.484C305.337 297.223 304.903 297.092 304.315 297.092C303.913 297.092 303.517 297.157 303.125 297.288C302.742 297.409 302.415 297.577 302.145 297.792L301.361 296.266C301.771 295.977 302.266 295.753 302.845 295.594C303.423 295.435 304.011 295.356 304.609 295.356C305.757 295.356 306.648 295.627 307.283 296.168C307.917 296.709 308.235 297.554 308.235 298.702V303H306.191ZM303.895 303.112C303.307 303.112 302.803 303.014 302.383 302.818C301.963 302.613 301.641 302.337 301.417 301.992C301.193 301.647 301.081 301.259 301.081 300.83C301.081 300.382 301.188 299.99 301.403 299.654C301.627 299.318 301.977 299.057 302.453 298.87C302.929 298.674 303.549 298.576 304.315 298.576H306.317V299.85H304.553C304.039 299.85 303.685 299.934 303.489 300.102C303.302 300.27 303.209 300.48 303.209 300.732C303.209 301.012 303.316 301.236 303.531 301.404C303.755 301.563 304.058 301.642 304.441 301.642C304.805 301.642 305.131 301.558 305.421 301.39C305.71 301.213 305.92 300.956 306.051 300.62L306.387 301.628C306.228 302.113 305.939 302.482 305.519 302.734C305.099 302.986 304.557 303.112 303.895 303.112ZM313.906 303.112C313.094 303.112 312.37 302.949 311.736 302.622C311.101 302.286 310.602 301.824 310.238 301.236C309.883 300.648 309.706 299.981 309.706 299.234C309.706 298.478 309.883 297.811 310.238 297.232C310.602 296.644 311.101 296.187 311.736 295.86C312.37 295.524 313.094 295.356 313.906 295.356C314.699 295.356 315.39 295.524 315.978 295.86C316.566 296.187 317 296.658 317.28 297.274L315.586 298.184C315.39 297.829 315.142 297.568 314.844 297.4C314.554 297.232 314.237 297.148 313.892 297.148C313.518 297.148 313.182 297.232 312.884 297.4C312.585 297.568 312.347 297.806 312.17 298.114C312.002 298.422 311.918 298.795 311.918 299.234C311.918 299.673 312.002 300.046 312.17 300.354C312.347 300.662 312.585 300.9 312.884 301.068C313.182 301.236 313.518 301.32 313.892 301.32C314.237 301.32 314.554 301.241 314.844 301.082C315.142 300.914 315.39 300.648 315.586 300.284L317.28 301.208C317 301.815 316.566 302.286 315.978 302.622C315.39 302.949 314.699 303.112 313.906 303.112ZM321.727 303.112C320.84 303.112 320.149 302.888 319.655 302.44C319.16 301.983 318.913 301.306 318.913 300.41V293.802H321.097V300.382C321.097 300.699 321.181 300.947 321.349 301.124C321.517 301.292 321.745 301.376 322.035 301.376C322.38 301.376 322.674 301.283 322.917 301.096L323.505 302.636C323.281 302.795 323.01 302.916 322.693 303C322.385 303.075 322.063 303.112 321.727 303.112ZM317.751 297.316V295.636H322.973V297.316H317.751ZM328.082 303.112C327.28 303.112 326.566 302.944 325.94 302.608C325.324 302.272 324.834 301.815 324.47 301.236C324.116 300.648 323.938 299.981 323.938 299.234C323.938 298.478 324.116 297.811 324.47 297.232C324.834 296.644 325.324 296.187 325.94 295.86C326.566 295.524 327.28 295.356 328.082 295.356C328.876 295.356 329.585 295.524 330.21 295.86C330.836 296.187 331.326 296.639 331.68 297.218C332.035 297.797 332.212 298.469 332.212 299.234C332.212 299.981 332.035 300.648 331.68 301.236C331.326 301.815 330.836 302.272 330.21 302.608C329.585 302.944 328.876 303.112 328.082 303.112ZM328.082 301.32C328.446 301.32 328.773 301.236 329.062 301.068C329.352 300.9 329.58 300.662 329.748 300.354C329.916 300.037 330 299.663 330 299.234C330 298.795 329.916 298.422 329.748 298.114C329.58 297.806 329.352 297.568 329.062 297.4C328.773 297.232 328.446 297.148 328.082 297.148C327.718 297.148 327.392 297.232 327.102 297.4C326.813 297.568 326.58 297.806 326.402 298.114C326.234 298.422 326.15 298.795 326.15 299.234C326.15 299.663 326.234 300.037 326.402 300.354C326.58 300.662 326.813 300.9 327.102 301.068C327.392 301.236 327.718 301.32 328.082 301.32ZM333.672 303V295.468H335.758V297.596L335.464 296.98C335.688 296.448 336.047 296.047 336.542 295.776C337.037 295.496 337.639 295.356 338.348 295.356V297.372C338.255 297.363 338.171 297.358 338.096 297.358C338.021 297.349 337.942 297.344 337.858 297.344C337.261 297.344 336.775 297.517 336.402 297.862C336.038 298.198 335.856 298.725 335.856 299.444V303H333.672ZM343.33 303.112C342.471 303.112 341.715 302.944 341.062 302.608C340.418 302.272 339.919 301.815 339.564 301.236C339.209 300.648 339.032 299.981 339.032 299.234C339.032 298.478 339.205 297.811 339.55 297.232C339.905 296.644 340.385 296.187 340.992 295.86C341.599 295.524 342.285 295.356 343.05 295.356C343.787 295.356 344.45 295.515 345.038 295.832C345.635 296.14 346.107 296.588 346.452 297.176C346.797 297.755 346.97 298.45 346.97 299.262C346.97 299.346 346.965 299.444 346.956 299.556C346.947 299.659 346.937 299.757 346.928 299.85H340.81V298.576H345.78L344.94 298.954C344.94 298.562 344.861 298.221 344.702 297.932C344.543 297.643 344.324 297.419 344.044 297.26C343.764 297.092 343.437 297.008 343.064 297.008C342.691 297.008 342.359 297.092 342.07 297.26C341.79 297.419 341.571 297.647 341.412 297.946C341.253 298.235 341.174 298.581 341.174 298.982V299.318C341.174 299.729 341.263 300.093 341.44 300.41C341.627 300.718 341.883 300.956 342.21 301.124C342.546 301.283 342.938 301.362 343.386 301.362C343.787 301.362 344.137 301.301 344.436 301.18C344.744 301.059 345.024 300.877 345.276 300.634L346.438 301.894C346.093 302.286 345.659 302.589 345.136 302.804C344.613 303.009 344.011 303.112 343.33 303.112ZM351.658 303.112C350.949 303.112 350.309 302.953 349.74 302.636C349.171 302.309 348.718 301.857 348.382 301.278C348.055 300.699 347.892 300.018 347.892 299.234C347.892 298.441 348.055 297.755 348.382 297.176C348.718 296.597 349.171 296.149 349.74 295.832C350.309 295.515 350.949 295.356 351.658 295.356C352.293 295.356 352.848 295.496 353.324 295.776C353.8 296.056 354.169 296.481 354.43 297.05C354.691 297.619 354.822 298.347 354.822 299.234C354.822 300.111 354.696 300.839 354.444 301.418C354.192 301.987 353.828 302.412 353.352 302.692C352.885 302.972 352.321 303.112 351.658 303.112ZM352.036 301.32C352.391 301.32 352.713 301.236 353.002 301.068C353.291 300.9 353.52 300.662 353.688 300.354C353.865 300.037 353.954 299.663 353.954 299.234C353.954 298.795 353.865 298.422 353.688 298.114C353.52 297.806 353.291 297.568 353.002 297.4C352.713 297.232 352.391 297.148 352.036 297.148C351.672 297.148 351.345 297.232 351.056 297.4C350.767 297.568 350.533 297.806 350.356 298.114C350.188 298.422 350.104 298.795 350.104 299.234C350.104 299.663 350.188 300.037 350.356 300.354C350.533 300.662 350.767 300.9 351.056 301.068C351.345 301.236 351.672 301.32 352.036 301.32ZM354.01 303V301.46L354.052 299.22L353.912 296.994V292.612H356.096V303H354.01ZM361.802 299.934V298.184H365.764V299.934H361.802ZM367.257 299.934V298.184H371.219V299.934H367.257ZM372.798 301.544V299.794L378.804 297.61V298.59L372.798 296.406V294.656L379.462 297.19V299.01L372.798 301.544Z" fill="#FF98B6"/>
<circle cx="560" cy="311" r="68.5" fill="white" stroke="#008AFF"/>
<g clip-path="url(#clip0_3840_208)">
<path d="M552.724 324.236C552.453 324.236 552.192 324.139 551.986 323.964L544.615 317.687C544.489 317.58 544.388 317.447 544.319 317.297C544.25 317.147 544.214 316.984 544.214 316.819C544.214 316.655 544.25 316.492 544.319 316.342C544.388 316.192 544.489 316.059 544.615 315.952L551.986 309.675C552.216 309.479 552.514 309.383 552.815 309.407C553.117 309.431 553.396 309.574 553.592 309.804C553.999 310.283 553.942 311.002 553.463 311.409L547.11 316.819L553.463 322.229C553.64 322.38 553.767 322.582 553.826 322.808C553.886 323.033 553.874 323.271 553.794 323.49C553.713 323.709 553.567 323.898 553.376 324.031C553.184 324.165 552.957 324.236 552.724 324.236ZM567.275 324.236C566.953 324.236 566.633 324.1 566.408 323.835C566.212 323.605 566.115 323.306 566.14 323.005C566.164 322.704 566.306 322.425 566.536 322.229L572.889 316.819L566.536 311.409C566.314 311.211 566.179 310.934 566.159 310.637C566.139 310.341 566.235 310.048 566.428 309.821C566.621 309.595 566.895 309.453 567.191 309.426C567.487 309.398 567.782 309.488 568.013 309.675L575.384 315.952C575.51 316.059 575.611 316.192 575.68 316.342C575.749 316.491 575.785 316.654 575.785 316.819C575.785 316.984 575.749 317.147 575.68 317.297C575.611 317.447 575.51 317.58 575.384 317.687L568.013 323.963C567.807 324.139 567.546 324.236 567.276 324.236H567.275ZM557.39 328.944C557.22 328.944 557.053 328.906 556.899 328.833C556.746 328.76 556.611 328.654 556.504 328.523C556.397 328.391 556.321 328.237 556.281 328.072C556.241 327.907 556.239 327.735 556.274 327.569L560.868 305.757C560.93 305.461 561.107 305.202 561.36 305.037C561.613 304.872 561.922 304.815 562.217 304.877C562.513 304.939 562.772 305.117 562.937 305.37C563.102 305.623 563.159 305.931 563.097 306.227L558.503 328.039C558.449 328.294 558.309 328.524 558.107 328.688C557.904 328.853 557.651 328.943 557.39 328.944Z" fill="#008AFF"/>
<path d="M586.851 340.827H533.149C528.931 340.827 525.5 337.397 525.5 333.179V287.599C525.5 283.382 528.931 279.95 533.149 279.95H586.851C591.069 279.95 594.5 283.382 594.5 287.599V333.179C594.5 337.397 591.069 340.827 586.851 340.827ZM533.149 282.228C530.188 282.228 527.778 284.638 527.778 287.599V333.179C527.778 336.14 530.188 338.549 533.149 338.549H586.851C589.812 338.549 592.222 336.14 592.222 333.179V287.599C592.222 284.638 589.812 282.228 586.851 282.228H533.149Z" fill="#008AFF"/>
<path d="M593.36 298.192H526.639C526.34 298.187 526.055 298.064 525.845 297.851C525.636 297.638 525.519 297.351 525.519 297.052C525.519 296.754 525.636 296.467 525.845 296.254C526.055 296.041 526.34 295.918 526.639 295.913H593.36C593.659 295.918 593.944 296.041 594.153 296.254C594.363 296.467 594.48 296.754 594.48 297.052C594.48 297.351 594.363 297.638 594.153 297.851C593.944 298.064 593.659 298.187 593.36 298.192ZM544.963 292.741C542.976 292.741 541.358 291.123 541.358 289.136C541.358 287.148 542.976 285.531 544.963 285.531C546.951 285.531 548.568 287.148 548.568 289.136C548.568 291.123 546.951 292.741 544.963 292.741ZM544.963 287.809C544.232 287.809 543.636 288.404 543.636 289.136C543.636 289.867 544.232 290.462 544.963 290.462C545.695 290.462 546.29 289.867 546.29 289.136C546.29 288.404 545.695 287.809 544.963 287.809ZM533.887 292.706C531.899 292.706 530.282 291.088 530.282 289.101C530.282 287.113 531.899 285.496 533.887 285.496C535.875 285.496 537.492 287.113 537.492 289.101C537.492 291.088 535.875 292.706 533.887 292.706ZM533.887 287.774C533.156 287.774 532.56 288.37 532.56 289.101C532.56 289.832 533.156 290.427 533.887 290.427C534.618 290.427 535.213 289.832 535.213 289.101C535.213 288.37 534.619 287.774 533.887 287.774ZM556.039 292.775C554.052 292.775 552.435 291.158 552.435 289.17C552.435 287.183 554.052 285.566 556.039 285.566C558.027 285.566 559.644 287.183 559.644 289.17C559.644 291.158 558.027 292.775 556.039 292.775ZM556.039 287.843C555.308 287.843 554.713 288.438 554.713 289.17C554.713 289.902 555.308 290.497 556.039 290.497C556.771 290.497 557.366 289.902 557.366 289.17C557.366 288.438 556.771 287.843 556.039 287.843Z" fill="#008AFF"/>
</g>
<defs>
<filter id="filter0_f_3840_208" x="0" y="0" width="304" height="304" filterUnits="userSpaceOnUse" color-interpolation-filters="sRGB">
<feFlood flood-opacity="0" result="BackgroundImageFix"/>
<feBlend mode="normal" in="SourceGraphic" in2="BackgroundImageFix" result="shape"/>
<feGaussianBlur stdDeviation="25" result="effect1_foregroundBlur_3840_208"/>
</filter>
<filter id="filter1_f_3840_208" x="375" y="82" width="304" height="304" filterUnits="userSpaceOnUse" color-interpolation-filters="sRGB">
<feFlood flood-opacity="0" result="BackgroundImageFix"/>
<feBlend mode="normal" in="SourceGraphic" in2="BackgroundImageFix" result="shape"/>
<feGaussianBlur stdDeviation="25" result="effect1_foregroundBlur_3840_208"/>
</filter>
<linearGradient id="paint0_linear_3840_208" x1="921.5" y1="460" x2="921.5" y2="742" gradientUnits="userSpaceOnUse">
<stop stop-color="white" stop-opacity="0.49"/>
<stop offset="1" stop-color="white" stop-opacity="0"/>
</linearGradient>
<clipPath id="clip0_3840_208">
<rect width="69" height="69" fill="white" transform="translate(525.5 276.5)"/>
</clipPath>
</defs>
</svg>
