<svg width="410" height="340" viewBox="0 0 410 340" fill="none" xmlns="http://www.w3.org/2000/svg">
<rect x="0.5" y="0.5" width="409" height="339" fill="white" fill-opacity="0.3" stroke="black"/>
<path d="M25.2 73.824L21.344 70.144L25.2 66.48H27.04L23.168 70.144L27.04 73.824H25.2ZM31.995 64.848L31.819 72.848H30.603L30.427 64.848H31.995ZM31.275 76.096C30.9977 76.096 30.763 76 30.571 75.808C30.379 75.616 30.283 75.3813 30.283 75.104C30.283 74.8267 30.379 74.592 30.571 74.4C30.763 74.208 30.9977 74.112 31.275 74.112C31.5417 74.112 31.7657 74.208 31.947 74.4C32.139 74.592 32.235 74.8267 32.235 75.104C32.235 75.3813 32.139 75.616 31.947 75.808C31.7657 76 31.5417 76.096 31.275 76.096ZM45.2183 69.52V70.752H38.8343V69.52H45.2183ZM58.2964 69.52V70.752H51.9124V69.52H58.2964ZM70.8785 70.256C71.2838 70.32 71.6518 70.4853 71.9825 70.752C72.3238 71.0187 72.5905 71.3493 72.7825 71.744C72.9852 72.1387 73.0865 72.56 73.0865 73.008C73.0865 73.5733 72.9425 74.0853 72.6545 74.544C72.3665 74.992 71.9452 75.3493 71.3905 75.616C70.8465 75.872 70.2012 76 69.4545 76H65.2945V64.848H69.2945C70.0518 64.848 70.6972 64.976 71.2305 65.232C71.7638 65.4773 72.1638 65.8133 72.4305 66.24C72.6972 66.6667 72.8305 67.1467 72.8305 67.68C72.8305 68.3413 72.6492 68.8907 72.2865 69.328C71.9345 69.7547 71.4652 70.064 70.8785 70.256ZM66.7505 69.664H69.1985C69.8812 69.664 70.4092 69.504 70.7825 69.184C71.1558 68.864 71.3425 68.4213 71.3425 67.856C71.3425 67.2907 71.1558 66.848 70.7825 66.528C70.4092 66.208 69.8705 66.048 69.1665 66.048H66.7505V69.664ZM69.3265 74.8C70.0518 74.8 70.6172 74.6293 71.0225 74.288C71.4278 73.9467 71.6305 73.472 71.6305 72.864C71.6305 72.2453 71.4172 71.76 70.9905 71.408C70.5638 71.0453 69.9932 70.864 69.2785 70.864H66.7505V74.8H69.3265ZM83.107 71.28C83.107 71.5573 83.091 71.8507 83.059 72.16H76.051C76.1043 73.024 76.3977 73.7013 76.931 74.192C77.475 74.672 78.131 74.912 78.899 74.912C79.5283 74.912 80.051 74.768 80.467 74.48C80.8937 74.1813 81.1923 73.7867 81.363 73.296H82.931C82.6963 74.1387 82.227 74.8267 81.523 75.36C80.819 75.8827 79.9443 76.144 78.899 76.144C78.067 76.144 77.3203 75.9573 76.659 75.584C76.0083 75.2107 75.4963 74.6827 75.123 74C74.7497 73.3067 74.563 72.5067 74.563 71.6C74.563 70.6933 74.7443 69.8987 75.107 69.216C75.4697 68.5333 75.9763 68.0107 76.627 67.648C77.2883 67.2747 78.0457 67.088 78.899 67.088C79.731 67.088 80.467 67.2693 81.107 67.632C81.747 67.9947 82.2377 68.496 82.579 69.136C82.931 69.7653 83.107 70.48 83.107 71.28ZM81.603 70.976C81.603 70.4213 81.4803 69.9467 81.235 69.552C80.9897 69.1467 80.6537 68.8427 80.227 68.64C79.811 68.4267 79.347 68.32 78.835 68.32C78.099 68.32 77.4697 68.5547 76.947 69.024C76.435 69.4933 76.1417 70.144 76.067 70.976H81.603ZM88.5969 68.432H86.7569V76H85.3009V68.432H84.1649V67.232H85.3009V66.608C85.3009 65.6267 85.5515 64.912 86.0529 64.464C86.5649 64.0053 87.3809 63.776 88.5009 63.776V64.992C87.8609 64.992 87.4075 65.12 87.1409 65.376C86.8849 65.6213 86.7569 66.032 86.7569 66.608V67.232H88.5969V68.432ZM94.1185 76.144C93.2972 76.144 92.5505 75.9573 91.8785 75.584C91.2172 75.2107 90.6945 74.6827 90.3105 74C89.9372 73.3067 89.7505 72.5067 89.7505 71.6C89.7505 70.704 89.9425 69.9147 90.3265 69.232C90.7212 68.5387 91.2545 68.0107 91.9265 67.648C92.5985 67.2747 93.3505 67.088 94.1825 67.088C95.0145 67.088 95.7665 67.2747 96.4385 67.648C97.1105 68.0107 97.6385 68.5333 98.0225 69.216C98.4172 69.8987 98.6145 70.6933 98.6145 71.6C98.6145 72.5067 98.4118 73.3067 98.0065 74C97.6118 74.6827 97.0732 75.2107 96.3905 75.584C95.7078 75.9573 94.9505 76.144 94.1185 76.144ZM94.1185 74.864C94.6412 74.864 95.1318 74.7413 95.5905 74.496C96.0492 74.2507 96.4172 73.8827 96.6945 73.392C96.9825 72.9013 97.1265 72.304 97.1265 71.6C97.1265 70.896 96.9878 70.2987 96.7105 69.808C96.4332 69.3173 96.0705 68.9547 95.6225 68.72C95.1745 68.4747 94.6892 68.352 94.1665 68.352C93.6332 68.352 93.1425 68.4747 92.6945 68.72C92.2572 68.9547 91.9052 69.3173 91.6385 69.808C91.3718 70.2987 91.2385 70.896 91.2385 71.6C91.2385 72.3147 91.3665 72.9173 91.6225 73.408C91.8892 73.8987 92.2412 74.2667 92.6785 74.512C93.1158 74.7467 93.5958 74.864 94.1185 74.864ZM101.985 68.656C102.241 68.1547 102.604 67.7653 103.073 67.488C103.553 67.2107 104.134 67.072 104.817 67.072V68.576H104.433C102.801 68.576 101.985 69.4613 101.985 71.232V76H100.529V67.232H101.985V68.656ZM114.498 71.28C114.498 71.5573 114.482 71.8507 114.45 72.16H107.442C107.495 73.024 107.788 73.7013 108.322 74.192C108.866 74.672 109.522 74.912 110.29 74.912C110.919 74.912 111.442 74.768 111.858 74.48C112.284 74.1813 112.583 73.7867 112.754 73.296H114.322C114.087 74.1387 113.618 74.8267 112.914 75.36C112.21 75.8827 111.335 76.144 110.29 76.144C109.458 76.144 108.711 75.9573 108.05 75.584C107.399 75.2107 106.887 74.6827 106.514 74C106.14 73.3067 105.954 72.5067 105.954 71.6C105.954 70.6933 106.135 69.8987 106.498 69.216C106.86 68.5333 107.367 68.0107 108.018 67.648C108.679 67.2747 109.436 67.088 110.29 67.088C111.122 67.088 111.858 67.2693 112.498 67.632C113.138 67.9947 113.628 68.496 113.97 69.136C114.322 69.7653 114.498 70.48 114.498 71.28ZM112.994 70.976C112.994 70.4213 112.871 69.9467 112.626 69.552C112.38 69.1467 112.044 68.8427 111.618 68.64C111.202 68.4267 110.738 68.32 110.226 68.32C109.49 68.32 108.86 68.5547 108.338 69.024C107.826 69.4933 107.532 70.144 107.458 70.976H112.994ZM27.312 99.52V100.752H20.928V99.52H27.312ZM36.1245 99.52V100.752H29.7405V99.52H36.1245ZM39.129 96.48H40.969L44.841 100.144L40.969 103.824H39.129L43.001 100.144L39.129 96.48ZM25.2 133.824L21.344 130.144L25.2 126.48H27.04L23.168 130.144L27.04 133.824H25.2ZM29.563 131.584C29.563 130.688 29.7443 129.904 30.107 129.232C30.4697 128.549 30.9657 128.021 31.595 127.648C32.235 127.275 32.9497 127.088 33.739 127.088C34.4217 127.088 35.0563 127.248 35.643 127.568C36.2297 127.877 36.6777 128.288 36.987 128.8V124.16H38.459V136H36.987V134.352C36.699 134.875 36.2723 135.307 35.707 135.648C35.1417 135.979 34.4803 136.144 33.723 136.144C32.9443 136.144 32.235 135.952 31.595 135.568C30.9657 135.184 30.4697 134.645 30.107 133.952C29.7443 133.259 29.563 132.469 29.563 131.584ZM36.987 131.6C36.987 130.939 36.8537 130.363 36.587 129.872C36.3203 129.381 35.9577 129.008 35.499 128.752C35.051 128.485 34.555 128.352 34.011 128.352C33.467 128.352 32.971 128.48 32.523 128.736C32.075 128.992 31.7177 129.365 31.451 129.856C31.1843 130.347 31.051 130.923 31.051 131.584C31.051 132.256 31.1843 132.843 31.451 133.344C31.7177 133.835 32.075 134.213 32.523 134.48C32.971 134.736 33.467 134.864 34.011 134.864C34.555 134.864 35.051 134.736 35.499 134.48C35.9577 134.213 36.3203 133.835 36.587 133.344C36.8537 132.843 36.987 132.261 36.987 131.6ZM41.6715 125.808C41.3942 125.808 41.1595 125.712 40.9675 125.52C40.7755 125.328 40.6795 125.093 40.6795 124.816C40.6795 124.539 40.7755 124.304 40.9675 124.112C41.1595 123.92 41.3942 123.824 41.6715 123.824C41.9382 123.824 42.1622 123.92 42.3435 124.112C42.5355 124.304 42.6315 124.539 42.6315 124.816C42.6315 125.093 42.5355 125.328 42.3435 125.52C42.1622 125.712 41.9382 125.808 41.6715 125.808ZM42.3755 127.232V136H40.9195V127.232H42.3755ZM48.121 134.656L50.841 127.232H52.393L48.953 136H47.257L43.817 127.232H45.385L48.121 134.656ZM57.5474 131.6C57.5474 130.693 57.7287 129.904 58.0914 129.232C58.454 128.549 58.9554 128.021 59.5954 127.648C60.246 127.275 60.9874 127.088 61.8194 127.088C62.8967 127.088 63.782 127.349 64.4754 127.872C65.1794 128.395 65.6434 129.12 65.8674 130.048H64.2994C64.15 129.515 63.8567 129.093 63.4194 128.784C62.9927 128.475 62.4594 128.32 61.8194 128.32C60.9874 128.32 60.3154 128.608 59.8034 129.184C59.2914 129.749 59.0354 130.555 59.0354 131.6C59.0354 132.656 59.2914 133.472 59.8034 134.048C60.3154 134.624 60.9874 134.912 61.8194 134.912C62.4594 134.912 62.9927 134.763 63.4194 134.464C63.846 134.165 64.1394 133.739 64.2994 133.184H65.8674C65.6327 134.08 65.1634 134.8 64.4594 135.344C63.7554 135.877 62.8754 136.144 61.8194 136.144C60.9874 136.144 60.246 135.957 59.5954 135.584C58.9554 135.211 58.454 134.683 58.0914 134C57.7287 133.317 57.5474 132.517 57.5474 131.6ZM69.2661 124.16V136H67.8101V124.16H69.2661ZM71.2036 131.584C71.2036 130.688 71.385 129.904 71.7476 129.232C72.1103 128.549 72.6063 128.021 73.2356 127.648C73.8756 127.275 74.585 127.088 75.3636 127.088C76.1316 127.088 76.7983 127.253 77.3636 127.584C77.929 127.915 78.3503 128.331 78.6276 128.832V127.232H80.0996V136H78.6276V134.368C78.3396 134.88 77.9076 135.307 77.3316 135.648C76.7663 135.979 76.105 136.144 75.3476 136.144C74.569 136.144 73.865 135.952 73.2356 135.568C72.6063 135.184 72.1103 134.645 71.7476 133.952C71.385 133.259 71.2036 132.469 71.2036 131.584ZM78.6276 131.6C78.6276 130.939 78.4943 130.363 78.2276 129.872C77.961 129.381 77.5983 129.008 77.1396 128.752C76.6916 128.485 76.1956 128.352 75.6516 128.352C75.1076 128.352 74.6116 128.48 74.1636 128.736C73.7156 128.992 73.3583 129.365 73.0916 129.856C72.825 130.347 72.6916 130.923 72.6916 131.584C72.6916 132.256 72.825 132.843 73.0916 133.344C73.3583 133.835 73.7156 134.213 74.1636 134.48C74.6116 134.736 75.1076 134.864 75.6516 134.864C76.1956 134.864 76.6916 134.736 77.1396 134.48C77.5983 134.213 77.961 133.835 78.2276 133.344C78.4943 132.843 78.6276 132.261 78.6276 131.6ZM85.6641 136.144C84.9921 136.144 84.3895 136.032 83.8561 135.808C83.3228 135.573 82.9015 135.253 82.5921 134.848C82.2828 134.432 82.1121 133.957 82.0801 133.424H83.5841C83.6268 133.861 83.8295 134.219 84.1921 134.496C84.5655 134.773 85.0508 134.912 85.6481 134.912C86.2028 134.912 86.6401 134.789 86.9601 134.544C87.2801 134.299 87.4401 133.989 87.4401 133.616C87.4401 133.232 87.2695 132.949 86.9281 132.768C86.5868 132.576 86.0588 132.389 85.3441 132.208C84.6935 132.037 84.1601 131.867 83.7441 131.696C83.3388 131.515 82.9868 131.253 82.6881 130.912C82.4001 130.56 82.2561 130.101 82.2561 129.536C82.2561 129.088 82.3895 128.677 82.6561 128.304C82.9228 127.931 83.3015 127.637 83.7921 127.424C84.2828 127.2 84.8428 127.088 85.4721 127.088C86.4428 127.088 87.2268 127.333 87.8241 127.824C88.4215 128.315 88.7415 128.987 88.7841 129.84H87.3281C87.2961 129.381 87.1095 129.013 86.7681 128.736C86.4375 128.459 85.9895 128.32 85.4241 128.32C84.9015 128.32 84.4855 128.432 84.1761 128.656C83.8668 128.88 83.7121 129.173 83.7121 129.536C83.7121 129.824 83.8028 130.064 83.9841 130.256C84.1761 130.437 84.4108 130.587 84.6881 130.704C84.9761 130.811 85.3708 130.933 85.8721 131.072C86.5015 131.243 87.0135 131.413 87.4081 131.584C87.8028 131.744 88.1388 131.989 88.4161 132.32C88.7041 132.651 88.8535 133.083 88.8641 133.616C88.8641 134.096 88.7308 134.528 88.4641 134.912C88.1975 135.296 87.8188 135.6 87.3281 135.824C86.8481 136.037 86.2935 136.144 85.6641 136.144ZM94.0235 136.144C93.3515 136.144 92.7488 136.032 92.2155 135.808C91.6822 135.573 91.2608 135.253 90.9515 134.848C90.6422 134.432 90.4715 133.957 90.4395 133.424H91.9435C91.9862 133.861 92.1888 134.219 92.5515 134.496C92.9248 134.773 93.4102 134.912 94.0075 134.912C94.5622 134.912 94.9995 134.789 95.3195 134.544C95.6395 134.299 95.7995 133.989 95.7995 133.616C95.7995 133.232 95.6288 132.949 95.2875 132.768C94.9462 132.576 94.4182 132.389 93.7035 132.208C93.0528 132.037 92.5195 131.867 92.1035 131.696C91.6982 131.515 91.3462 131.253 91.0475 130.912C90.7595 130.56 90.6155 130.101 90.6155 129.536C90.6155 129.088 90.7488 128.677 91.0155 128.304C91.2822 127.931 91.6608 127.637 92.1515 127.424C92.6422 127.2 93.2022 127.088 93.8315 127.088C94.8022 127.088 95.5862 127.333 96.1835 127.824C96.7808 128.315 97.1008 128.987 97.1435 129.84H95.6875C95.6555 129.381 95.4688 129.013 95.1275 128.736C94.7968 128.459 94.3488 128.32 93.7835 128.32C93.2608 128.32 92.8448 128.432 92.5355 128.656C92.2262 128.88 92.0715 129.173 92.0715 129.536C92.0715 129.824 92.1622 130.064 92.3435 130.256C92.5355 130.437 92.7702 130.587 93.0475 130.704C93.3355 130.811 93.7302 130.933 94.2315 131.072C94.8608 131.243 95.3728 131.413 95.7675 131.584C96.1622 131.744 96.4982 131.989 96.7755 132.32C97.0635 132.651 97.2128 133.083 97.2235 133.616C97.2235 134.096 97.0902 134.528 96.8235 134.912C96.5568 135.296 96.1782 135.6 95.6875 135.824C95.2075 136.037 94.6528 136.144 94.0235 136.144ZM107.983 127.808V129.04H99.6629V127.808H107.983ZM107.983 131.248V132.48H99.6629V131.248H107.983ZM111.545 123.264L111.369 126.448H110.361L110.169 123.264H111.545ZM113.705 123.264L113.529 126.448H112.521L112.329 123.264H113.705ZM119.865 127.072C120.527 127.072 121.124 127.216 121.657 127.504C122.191 127.781 122.607 128.203 122.905 128.768C123.215 129.333 123.369 130.021 123.369 130.832V136H121.929V131.04C121.929 130.165 121.711 129.499 121.273 129.04C120.836 128.571 120.239 128.336 119.481 128.336C118.713 128.336 118.1 128.576 117.641 129.056C117.193 129.536 116.969 130.235 116.969 131.152V136H115.513V124.16H116.969V128.48C117.257 128.032 117.652 127.685 118.153 127.44C118.665 127.195 119.236 127.072 119.865 127.072ZM133.748 131.28C133.748 131.557 133.732 131.851 133.7 132.16H126.692C126.745 133.024 127.038 133.701 127.572 134.192C128.116 134.672 128.772 134.912 129.54 134.912C130.169 134.912 130.692 134.768 131.108 134.48C131.534 134.181 131.833 133.787 132.004 133.296H133.572C133.337 134.139 132.868 134.827 132.164 135.36C131.46 135.883 130.585 136.144 129.54 136.144C128.708 136.144 127.961 135.957 127.3 135.584C126.649 135.211 126.137 134.683 125.764 134C125.39 133.307 125.204 132.507 125.204 131.6C125.204 130.693 125.385 129.899 125.748 129.216C126.11 128.533 126.617 128.011 127.268 127.648C127.929 127.275 128.686 127.088 129.54 127.088C130.372 127.088 131.108 127.269 131.748 127.632C132.388 127.995 132.878 128.496 133.22 129.136C133.572 129.765 133.748 130.48 133.748 131.28ZM132.244 130.976C132.244 130.421 132.121 129.947 131.876 129.552C131.63 129.147 131.294 128.843 130.868 128.64C130.452 128.427 129.988 128.32 129.476 128.32C128.74 128.32 128.11 128.555 127.588 129.024C127.076 129.493 126.782 130.144 126.708 130.976H132.244ZM135.126 131.584C135.126 130.688 135.307 129.904 135.67 129.232C136.032 128.549 136.528 128.021 137.158 127.648C137.798 127.275 138.507 127.088 139.286 127.088C140.054 127.088 140.72 127.253 141.286 127.584C141.851 127.915 142.272 128.331 142.55 128.832V127.232H144.022V136H142.55V134.368C142.262 134.88 141.83 135.307 141.254 135.648C140.688 135.979 140.027 136.144 139.27 136.144C138.491 136.144 137.787 135.952 137.158 135.568C136.528 135.184 136.032 134.645 135.67 133.952C135.307 133.259 135.126 132.469 135.126 131.584ZM142.55 131.6C142.55 130.939 142.416 130.363 142.15 129.872C141.883 129.381 141.52 129.008 141.062 128.752C140.614 128.485 140.118 128.352 139.574 128.352C139.03 128.352 138.534 128.48 138.086 128.736C137.638 128.992 137.28 129.365 137.014 129.856C136.747 130.347 136.614 130.923 136.614 131.584C136.614 132.256 136.747 132.843 137.014 133.344C137.28 133.835 137.638 134.213 138.086 134.48C138.534 134.736 139.03 134.864 139.574 134.864C140.118 134.864 140.614 134.736 141.062 134.48C141.52 134.213 141.883 133.835 142.15 133.344C142.416 132.843 142.55 132.261 142.55 131.6ZM145.938 131.584C145.938 130.688 146.119 129.904 146.482 129.232C146.845 128.549 147.341 128.021 147.97 127.648C148.61 127.275 149.325 127.088 150.114 127.088C150.797 127.088 151.431 127.248 152.018 127.568C152.605 127.877 153.053 128.288 153.362 128.8V124.16H154.834V136H153.362V134.352C153.074 134.875 152.647 135.307 152.082 135.648C151.517 135.979 150.855 136.144 150.098 136.144C149.319 136.144 148.61 135.952 147.97 135.568C147.341 135.184 146.845 134.645 146.482 133.952C146.119 133.259 145.938 132.469 145.938 131.584ZM153.362 131.6C153.362 130.939 153.229 130.363 152.962 129.872C152.695 129.381 152.333 129.008 151.874 128.752C151.426 128.485 150.93 128.352 150.386 128.352C149.842 128.352 149.346 128.48 148.898 128.736C148.45 128.992 148.093 129.365 147.826 129.856C147.559 130.347 147.426 130.923 147.426 131.584C147.426 132.256 147.559 132.843 147.826 133.344C148.093 133.835 148.45 134.213 148.898 134.48C149.346 134.736 149.842 134.864 150.386 134.864C150.93 134.864 151.426 134.736 151.874 134.48C152.333 134.213 152.695 133.835 152.962 133.344C153.229 132.843 153.362 132.261 153.362 131.6ZM165.295 131.28C165.295 131.557 165.279 131.851 165.247 132.16H158.239C158.292 133.024 158.585 133.701 159.119 134.192C159.663 134.672 160.319 134.912 161.087 134.912C161.716 134.912 162.239 134.768 162.655 134.48C163.081 134.181 163.38 133.787 163.551 133.296H165.119C164.884 134.139 164.415 134.827 163.711 135.36C163.007 135.883 162.132 136.144 161.087 136.144C160.255 136.144 159.508 135.957 158.847 135.584C158.196 135.211 157.684 134.683 157.311 134C156.937 133.307 156.751 132.507 156.751 131.6C156.751 130.693 156.932 129.899 157.295 129.216C157.657 128.533 158.164 128.011 158.815 127.648C159.476 127.275 160.233 127.088 161.087 127.088C161.919 127.088 162.655 127.269 163.295 127.632C163.935 127.995 164.425 128.496 164.767 129.136C165.119 129.765 165.295 130.48 165.295 131.28ZM163.791 130.976C163.791 130.421 163.668 129.947 163.423 129.552C163.177 129.147 162.841 128.843 162.415 128.64C161.999 128.427 161.535 128.32 161.023 128.32C160.287 128.32 159.657 128.555 159.135 129.024C158.623 129.493 158.329 130.144 158.255 130.976H163.791ZM168.672 128.656C168.928 128.155 169.291 127.765 169.76 127.488C170.24 127.211 170.822 127.072 171.504 127.072V128.576H171.12C169.488 128.576 168.672 129.461 168.672 131.232V136H167.216V127.232H168.672V128.656ZM173.889 123.264L173.713 126.448H172.705L172.513 123.264H173.889ZM176.049 123.264L175.873 126.448H174.865L174.673 123.264H176.049ZM178.129 126.48H179.969L183.841 130.144L179.969 133.824H178.129L182.001 130.144L178.129 126.48ZM25.2 163.824L21.344 160.144L25.2 156.48H27.04L23.168 160.144L27.04 163.824H25.2ZM29.563 161.584C29.563 160.688 29.7443 159.904 30.107 159.232C30.4697 158.549 30.9657 158.021 31.595 157.648C32.235 157.275 32.9497 157.088 33.739 157.088C34.4217 157.088 35.0563 157.248 35.643 157.568C36.2297 157.877 36.6777 158.288 36.987 158.8V154.16H38.459V166H36.987V164.352C36.699 164.875 36.2723 165.307 35.707 165.648C35.1417 165.979 34.4803 166.144 33.723 166.144C32.9443 166.144 32.235 165.952 31.595 165.568C30.9657 165.184 30.4697 164.645 30.107 163.952C29.7443 163.259 29.563 162.469 29.563 161.584ZM36.987 161.6C36.987 160.939 36.8537 160.363 36.587 159.872C36.3203 159.381 35.9577 159.008 35.499 158.752C35.051 158.485 34.555 158.352 34.011 158.352C33.467 158.352 32.971 158.48 32.523 158.736C32.075 158.992 31.7177 159.365 31.451 159.856C31.1843 160.347 31.051 160.923 31.051 161.584C31.051 162.256 31.1843 162.843 31.451 163.344C31.7177 163.835 32.075 164.213 32.523 164.48C32.971 164.736 33.467 164.864 34.011 164.864C34.555 164.864 35.051 164.736 35.499 164.48C35.9577 164.213 36.3203 163.835 36.587 163.344C36.8537 162.843 36.987 162.261 36.987 161.6ZM41.6715 155.808C41.3942 155.808 41.1595 155.712 40.9675 155.52C40.7755 155.328 40.6795 155.093 40.6795 154.816C40.6795 154.539 40.7755 154.304 40.9675 154.112C41.1595 153.92 41.3942 153.824 41.6715 153.824C41.9382 153.824 42.1622 153.92 42.3435 154.112C42.5355 154.304 42.6315 154.539 42.6315 154.816C42.6315 155.093 42.5355 155.328 42.3435 155.52C42.1622 155.712 41.9382 155.808 41.6715 155.808ZM42.3755 157.232V166H40.9195V157.232H42.3755ZM48.121 164.656L50.841 157.232H52.393L48.953 166H47.257L43.817 157.232H45.385L48.121 164.656ZM57.5474 161.6C57.5474 160.693 57.7287 159.904 58.0914 159.232C58.454 158.549 58.9554 158.021 59.5954 157.648C60.246 157.275 60.9874 157.088 61.8194 157.088C62.8967 157.088 63.782 157.349 64.4754 157.872C65.1794 158.395 65.6434 159.12 65.8674 160.048H64.2994C64.15 159.515 63.8567 159.093 63.4194 158.784C62.9927 158.475 62.4594 158.32 61.8194 158.32C60.9874 158.32 60.3154 158.608 59.8034 159.184C59.2914 159.749 59.0354 160.555 59.0354 161.6C59.0354 162.656 59.2914 163.472 59.8034 164.048C60.3154 164.624 60.9874 164.912 61.8194 164.912C62.4594 164.912 62.9927 164.763 63.4194 164.464C63.846 164.165 64.1394 163.739 64.2994 163.184H65.8674C65.6327 164.08 65.1634 164.8 64.4594 165.344C63.7554 165.877 62.8754 166.144 61.8194 166.144C60.9874 166.144 60.246 165.957 59.5954 165.584C58.9554 165.211 58.454 164.683 58.0914 164C57.7287 163.317 57.5474 162.517 57.5474 161.6ZM69.2661 154.16V166H67.8101V154.16H69.2661ZM71.2036 161.584C71.2036 160.688 71.385 159.904 71.7476 159.232C72.1103 158.549 72.6063 158.021 73.2356 157.648C73.8756 157.275 74.585 157.088 75.3636 157.088C76.1316 157.088 76.7983 157.253 77.3636 157.584C77.929 157.915 78.3503 158.331 78.6276 158.832V157.232H80.0996V166H78.6276V164.368C78.3396 164.88 77.9076 165.307 77.3316 165.648C76.7663 165.979 76.105 166.144 75.3476 166.144C74.569 166.144 73.865 165.952 73.2356 165.568C72.6063 165.184 72.1103 164.645 71.7476 163.952C71.385 163.259 71.2036 162.469 71.2036 161.584ZM78.6276 161.6C78.6276 160.939 78.4943 160.363 78.2276 159.872C77.961 159.381 77.5983 159.008 77.1396 158.752C76.6916 158.485 76.1956 158.352 75.6516 158.352C75.1076 158.352 74.6116 158.48 74.1636 158.736C73.7156 158.992 73.3583 159.365 73.0916 159.856C72.825 160.347 72.6916 160.923 72.6916 161.584C72.6916 162.256 72.825 162.843 73.0916 163.344C73.3583 163.835 73.7156 164.213 74.1636 164.48C74.6116 164.736 75.1076 164.864 75.6516 164.864C76.1956 164.864 76.6916 164.736 77.1396 164.48C77.5983 164.213 77.961 163.835 78.2276 163.344C78.4943 162.843 78.6276 162.261 78.6276 161.6ZM85.6641 166.144C84.9921 166.144 84.3895 166.032 83.8561 165.808C83.3228 165.573 82.9015 165.253 82.5921 164.848C82.2828 164.432 82.1121 163.957 82.0801 163.424H83.5841C83.6268 163.861 83.8295 164.219 84.1921 164.496C84.5655 164.773 85.0508 164.912 85.6481 164.912C86.2028 164.912 86.6401 164.789 86.9601 164.544C87.2801 164.299 87.4401 163.989 87.4401 163.616C87.4401 163.232 87.2695 162.949 86.9281 162.768C86.5868 162.576 86.0588 162.389 85.3441 162.208C84.6935 162.037 84.1601 161.867 83.7441 161.696C83.3388 161.515 82.9868 161.253 82.6881 160.912C82.4001 160.56 82.2561 160.101 82.2561 159.536C82.2561 159.088 82.3895 158.677 82.6561 158.304C82.9228 157.931 83.3015 157.637 83.7921 157.424C84.2828 157.2 84.8428 157.088 85.4721 157.088C86.4428 157.088 87.2268 157.333 87.8241 157.824C88.4215 158.315 88.7415 158.987 88.7841 159.84H87.3281C87.2961 159.381 87.1095 159.013 86.7681 158.736C86.4375 158.459 85.9895 158.32 85.4241 158.32C84.9015 158.32 84.4855 158.432 84.1761 158.656C83.8668 158.88 83.7121 159.173 83.7121 159.536C83.7121 159.824 83.8028 160.064 83.9841 160.256C84.1761 160.437 84.4108 160.587 84.6881 160.704C84.9761 160.811 85.3708 160.933 85.8721 161.072C86.5015 161.243 87.0135 161.413 87.4081 161.584C87.8028 161.744 88.1388 161.989 88.4161 162.32C88.7041 162.651 88.8535 163.083 88.8641 163.616C88.8641 164.096 88.7308 164.528 88.4641 164.912C88.1975 165.296 87.8188 165.6 87.3281 165.824C86.8481 166.037 86.2935 166.144 85.6641 166.144ZM94.0235 166.144C93.3515 166.144 92.7488 166.032 92.2155 165.808C91.6822 165.573 91.2608 165.253 90.9515 164.848C90.6422 164.432 90.4715 163.957 90.4395 163.424H91.9435C91.9862 163.861 92.1888 164.219 92.5515 164.496C92.9248 164.773 93.4102 164.912 94.0075 164.912C94.5622 164.912 94.9995 164.789 95.3195 164.544C95.6395 164.299 95.7995 163.989 95.7995 163.616C95.7995 163.232 95.6288 162.949 95.2875 162.768C94.9462 162.576 94.4182 162.389 93.7035 162.208C93.0528 162.037 92.5195 161.867 92.1035 161.696C91.6982 161.515 91.3462 161.253 91.0475 160.912C90.7595 160.56 90.6155 160.101 90.6155 159.536C90.6155 159.088 90.7488 158.677 91.0155 158.304C91.2822 157.931 91.6608 157.637 92.1515 157.424C92.6422 157.2 93.2022 157.088 93.8315 157.088C94.8022 157.088 95.5862 157.333 96.1835 157.824C96.7808 158.315 97.1008 158.987 97.1435 159.84H95.6875C95.6555 159.381 95.4688 159.013 95.1275 158.736C94.7968 158.459 94.3488 158.32 93.7835 158.32C93.2608 158.32 92.8448 158.432 92.5355 158.656C92.2262 158.88 92.0715 159.173 92.0715 159.536C92.0715 159.824 92.1622 160.064 92.3435 160.256C92.5355 160.437 92.7702 160.587 93.0475 160.704C93.3355 160.811 93.7302 160.933 94.2315 161.072C94.8608 161.243 95.3728 161.413 95.7675 161.584C96.1622 161.744 96.4982 161.989 96.7755 162.32C97.0635 162.651 97.2128 163.083 97.2235 163.616C97.2235 164.096 97.0902 164.528 96.8235 164.912C96.5568 165.296 96.1782 165.6 95.6875 165.824C95.2075 166.037 94.6528 166.144 94.0235 166.144ZM107.983 157.808V159.04H99.6629V157.808H107.983ZM107.983 161.248V162.48H99.6629V161.248H107.983ZM111.545 153.264L111.369 156.448H110.361L110.169 153.264H111.545ZM113.705 153.264L113.529 156.448H112.521L112.329 153.264H113.705ZM116.969 154.16V166H115.513V154.16H116.969ZM123.275 166.144C122.453 166.144 121.707 165.957 121.035 165.584C120.373 165.211 119.851 164.683 119.467 164C119.093 163.307 118.907 162.507 118.907 161.6C118.907 160.704 119.099 159.915 119.483 159.232C119.877 158.539 120.411 158.011 121.083 157.648C121.755 157.275 122.507 157.088 123.339 157.088C124.171 157.088 124.923 157.275 125.595 157.648C126.267 158.011 126.795 158.533 127.179 159.216C127.573 159.899 127.771 160.693 127.771 161.6C127.771 162.507 127.568 163.307 127.163 164C126.768 164.683 126.229 165.211 125.547 165.584C124.864 165.957 124.107 166.144 123.275 166.144ZM123.275 164.864C123.797 164.864 124.288 164.741 124.747 164.496C125.205 164.251 125.573 163.883 125.851 163.392C126.139 162.901 126.283 162.304 126.283 161.6C126.283 160.896 126.144 160.299 125.867 159.808C125.589 159.317 125.227 158.955 124.779 158.72C124.331 158.475 123.845 158.352 123.323 158.352C122.789 158.352 122.299 158.475 121.851 158.72C121.413 158.955 121.061 159.317 120.795 159.808C120.528 160.299 120.395 160.896 120.395 161.6C120.395 162.315 120.523 162.917 120.779 163.408C121.045 163.899 121.397 164.267 121.835 164.512C122.272 164.747 122.752 164.864 123.275 164.864ZM133.301 157.088C134.058 157.088 134.72 157.253 135.285 157.584C135.861 157.915 136.288 158.331 136.565 158.832V157.232H138.037V166.192C138.037 166.992 137.866 167.701 137.525 168.32C137.184 168.949 136.693 169.44 136.053 169.792C135.424 170.144 134.688 170.32 133.845 170.32C132.693 170.32 131.733 170.048 130.965 169.504C130.197 168.96 129.744 168.219 129.605 167.28H131.045C131.205 167.813 131.536 168.24 132.037 168.56C132.538 168.891 133.141 169.056 133.845 169.056C134.645 169.056 135.296 168.805 135.797 168.304C136.309 167.803 136.565 167.099 136.565 166.192V164.352C136.277 164.864 135.85 165.291 135.285 165.632C134.72 165.973 134.058 166.144 133.301 166.144C132.522 166.144 131.813 165.952 131.173 165.568C130.544 165.184 130.048 164.645 129.685 163.952C129.322 163.259 129.141 162.469 129.141 161.584C129.141 160.688 129.322 159.904 129.685 159.232C130.048 158.549 130.544 158.021 131.173 157.648C131.813 157.275 132.522 157.088 133.301 157.088ZM136.565 161.6C136.565 160.939 136.432 160.363 136.165 159.872C135.898 159.381 135.536 159.008 135.077 158.752C134.629 158.485 134.133 158.352 133.589 158.352C133.045 158.352 132.549 158.48 132.101 158.736C131.653 158.992 131.296 159.365 131.029 159.856C130.762 160.347 130.629 160.923 130.629 161.584C130.629 162.256 130.762 162.843 131.029 163.344C131.296 163.835 131.653 164.213 132.101 164.48C132.549 164.736 133.045 164.864 133.589 164.864C134.133 164.864 134.629 164.736 135.077 164.48C135.536 164.213 135.898 163.835 136.165 163.344C136.432 162.843 136.565 162.261 136.565 161.6ZM144.322 166.144C143.5 166.144 142.754 165.957 142.082 165.584C141.42 165.211 140.898 164.683 140.514 164C140.14 163.307 139.954 162.507 139.954 161.6C139.954 160.704 140.146 159.915 140.53 159.232C140.924 158.539 141.458 158.011 142.13 157.648C142.802 157.275 143.554 157.088 144.386 157.088C145.218 157.088 145.97 157.275 146.642 157.648C147.314 158.011 147.842 158.533 148.226 159.216C148.62 159.899 148.818 160.693 148.818 161.6C148.818 162.507 148.615 163.307 148.21 164C147.815 164.683 147.276 165.211 146.594 165.584C145.911 165.957 145.154 166.144 144.322 166.144ZM144.322 164.864C144.844 164.864 145.335 164.741 145.794 164.496C146.252 164.251 146.62 163.883 146.898 163.392C147.186 162.901 147.33 162.304 147.33 161.6C147.33 160.896 147.191 160.299 146.914 159.808C146.636 159.317 146.274 158.955 145.826 158.72C145.378 158.475 144.892 158.352 144.37 158.352C143.836 158.352 143.346 158.475 142.898 158.72C142.46 158.955 142.108 159.317 141.842 159.808C141.575 160.299 141.442 160.896 141.442 161.6C141.442 162.315 141.57 162.917 141.826 163.408C142.092 163.899 142.444 164.267 142.882 164.512C143.319 164.747 143.799 164.864 144.322 164.864ZM151.436 153.264L151.26 156.448H150.252L150.06 153.264H151.436ZM153.596 153.264L153.42 156.448H152.412L152.22 153.264H153.596ZM155.676 156.48H157.516L161.388 160.144L157.516 163.824H155.676L159.548 160.144L155.676 156.48ZM25.2 193.824L21.344 190.144L25.2 186.48H27.04L23.168 190.144L27.04 193.824H25.2ZM30.859 185.808C30.5817 185.808 30.347 185.712 30.155 185.52C29.963 185.328 29.867 185.093 29.867 184.816C29.867 184.539 29.963 184.304 30.155 184.112C30.347 183.92 30.5817 183.824 30.859 183.824C31.1257 183.824 31.3497 183.92 31.531 184.112C31.723 184.304 31.819 184.539 31.819 184.816C31.819 185.093 31.723 185.328 31.531 185.52C31.3497 185.712 31.1257 185.808 30.859 185.808ZM31.563 187.232V196H30.107V187.232H31.563ZM44.5885 187.072C45.2712 187.072 45.8792 187.216 46.4125 187.504C46.9458 187.781 47.3672 188.203 47.6765 188.768C47.9858 189.333 48.1405 190.021 48.1405 190.832V196H46.7005V191.04C46.7005 190.165 46.4818 189.499 46.0445 189.04C45.6178 188.571 45.0365 188.336 44.3005 188.336C43.5432 188.336 42.9405 188.581 42.4925 189.072C42.0445 189.552 41.8205 190.251 41.8205 191.168V196H40.3805V191.04C40.3805 190.165 40.1618 189.499 39.7245 189.04C39.2978 188.571 38.7165 188.336 37.9805 188.336C37.2232 188.336 36.6205 188.581 36.1725 189.072C35.7245 189.552 35.5005 190.251 35.5005 191.168V196H34.0445V187.232H35.5005V188.496C35.7885 188.037 36.1725 187.685 36.6525 187.44C37.1432 187.195 37.6818 187.072 38.2685 187.072C39.0045 187.072 39.6552 187.237 40.2205 187.568C40.7858 187.899 41.2072 188.384 41.4845 189.024C41.7298 188.405 42.1352 187.925 42.7005 187.584C43.2658 187.243 43.8952 187.072 44.5885 187.072ZM54.1449 187.088C54.9022 187.088 55.5635 187.253 56.1289 187.584C56.7049 187.915 57.1315 188.331 57.4089 188.832V187.232H58.8809V196.192C58.8809 196.992 58.7102 197.701 58.3689 198.32C58.0275 198.949 57.5369 199.44 56.8969 199.792C56.2675 200.144 55.5315 200.32 54.6889 200.32C53.5369 200.32 52.5769 200.048 51.8089 199.504C51.0409 198.96 50.5875 198.219 50.4489 197.28H51.8889C52.0489 197.813 52.3795 198.24 52.8809 198.56C53.3822 198.891 53.9849 199.056 54.6889 199.056C55.4889 199.056 56.1395 198.805 56.6409 198.304C57.1529 197.803 57.4089 197.099 57.4089 196.192V194.352C57.1209 194.864 56.6942 195.291 56.1289 195.632C55.5635 195.973 54.9022 196.144 54.1449 196.144C53.3662 196.144 52.6569 195.952 52.0169 195.568C51.3875 195.184 50.8915 194.645 50.5289 193.952C50.1662 193.259 49.9849 192.469 49.9849 191.584C49.9849 190.688 50.1662 189.904 50.5289 189.232C50.8915 188.549 51.3875 188.021 52.0169 187.648C52.6569 187.275 53.3662 187.088 54.1449 187.088ZM57.4089 191.6C57.4089 190.939 57.2755 190.363 57.0089 189.872C56.7422 189.381 56.3795 189.008 55.9209 188.752C55.4729 188.485 54.9769 188.352 54.4329 188.352C53.8889 188.352 53.3929 188.48 52.9449 188.736C52.4969 188.992 52.1395 189.365 51.8729 189.856C51.6062 190.347 51.4729 190.923 51.4729 191.584C51.4729 192.256 51.6062 192.843 51.8729 193.344C52.1395 193.835 52.4969 194.213 52.9449 194.48C53.3929 194.736 53.8889 194.864 54.4329 194.864C54.9769 194.864 55.4729 194.736 55.9209 194.48C56.3795 194.213 56.7422 193.835 57.0089 193.344C57.2755 192.843 57.4089 192.261 57.4089 191.6ZM68.711 196.144C68.039 196.144 67.4363 196.032 66.903 195.808C66.3697 195.573 65.9483 195.253 65.639 194.848C65.3297 194.432 65.159 193.957 65.127 193.424H66.631C66.6737 193.861 66.8763 194.219 67.239 194.496C67.6123 194.773 68.0977 194.912 68.695 194.912C69.2497 194.912 69.687 194.789 70.007 194.544C70.327 194.299 70.487 193.989 70.487 193.616C70.487 193.232 70.3163 192.949 69.975 192.768C69.6337 192.576 69.1057 192.389 68.391 192.208C67.7403 192.037 67.207 191.867 66.791 191.696C66.3857 191.515 66.0337 191.253 65.735 190.912C65.447 190.56 65.303 190.101 65.303 189.536C65.303 189.088 65.4363 188.677 65.703 188.304C65.9697 187.931 66.3483 187.637 66.839 187.424C67.3297 187.2 67.8897 187.088 68.519 187.088C69.4897 187.088 70.2737 187.333 70.871 187.824C71.4683 188.315 71.7883 188.987 71.831 189.84H70.375C70.343 189.381 70.1563 189.013 69.815 188.736C69.4843 188.459 69.0363 188.32 68.471 188.32C67.9483 188.32 67.5323 188.432 67.223 188.656C66.9137 188.88 66.759 189.173 66.759 189.536C66.759 189.824 66.8497 190.064 67.031 190.256C67.223 190.437 67.4577 190.587 67.735 190.704C68.023 190.811 68.4177 190.933 68.919 191.072C69.5483 191.243 70.0603 191.413 70.455 191.584C70.8497 191.744 71.1857 191.989 71.463 192.32C71.751 192.651 71.9003 193.083 71.911 193.616C71.911 194.096 71.7777 194.528 71.511 194.912C71.2443 195.296 70.8657 195.6 70.375 195.824C69.895 196.037 69.3403 196.144 68.711 196.144ZM75.4224 188.656C75.6784 188.155 76.041 187.765 76.5104 187.488C76.9904 187.211 77.5717 187.072 78.2544 187.072V188.576H77.8704C76.2384 188.576 75.4224 189.461 75.4224 191.232V196H73.9664V187.232H75.4224V188.656ZM79.3911 191.6C79.3911 190.693 79.5725 189.904 79.9351 189.232C80.2978 188.549 80.7991 188.021 81.4391 187.648C82.0898 187.275 82.8311 187.088 83.6631 187.088C84.7405 187.088 85.6258 187.349 86.3191 187.872C87.0231 188.395 87.4871 189.12 87.7111 190.048H86.1431C85.9938 189.515 85.7005 189.093 85.2631 188.784C84.8365 188.475 84.3031 188.32 83.6631 188.32C82.8311 188.32 82.1591 188.608 81.6471 189.184C81.1351 189.749 80.8791 190.555 80.8791 191.6C80.8791 192.656 81.1351 193.472 81.6471 194.048C82.1591 194.624 82.8311 194.912 83.6631 194.912C84.3031 194.912 84.8365 194.763 85.2631 194.464C85.6898 194.165 85.9831 193.739 86.1431 193.184H87.7111C87.4765 194.08 87.0071 194.8 86.3031 195.344C85.5991 195.877 84.7191 196.144 83.6631 196.144C82.8311 196.144 82.0898 195.957 81.4391 195.584C80.7991 195.211 80.2978 194.683 79.9351 194C79.5725 193.317 79.3911 192.517 79.3911 191.6ZM98.3579 187.808V189.04H90.0379V187.808H98.3579ZM98.3579 191.248V192.48H90.0379V191.248H98.3579ZM101.92 183.264L101.744 186.448H100.736L100.544 183.264H101.92ZM104.08 183.264L103.904 186.448H102.896L102.704 183.264H104.08ZM107.344 184.16V196H105.888V184.16H107.344ZM113.65 196.144C112.828 196.144 112.082 195.957 111.41 195.584C110.748 195.211 110.226 194.683 109.842 194C109.468 193.307 109.282 192.507 109.282 191.6C109.282 190.704 109.474 189.915 109.858 189.232C110.252 188.539 110.786 188.011 111.458 187.648C112.13 187.275 112.882 187.088 113.714 187.088C114.546 187.088 115.298 187.275 115.97 187.648C116.642 188.011 117.17 188.533 117.554 189.216C117.948 189.899 118.146 190.693 118.146 191.6C118.146 192.507 117.943 193.307 117.538 194C117.143 194.683 116.604 195.211 115.922 195.584C115.239 195.957 114.482 196.144 113.65 196.144ZM113.65 194.864C114.172 194.864 114.663 194.741 115.122 194.496C115.58 194.251 115.948 193.883 116.226 193.392C116.514 192.901 116.658 192.304 116.658 191.6C116.658 190.896 116.519 190.299 116.242 189.808C115.964 189.317 115.602 188.955 115.154 188.72C114.706 188.475 114.22 188.352 113.698 188.352C113.164 188.352 112.674 188.475 112.226 188.72C111.788 188.955 111.436 189.317 111.17 189.808C110.903 190.299 110.77 190.896 110.77 191.6C110.77 192.315 110.898 192.917 111.154 193.408C111.42 193.899 111.772 194.267 112.21 194.512C112.647 194.747 113.127 194.864 113.65 194.864ZM123.676 187.088C124.433 187.088 125.095 187.253 125.66 187.584C126.236 187.915 126.663 188.331 126.94 188.832V187.232H128.412V196.192C128.412 196.992 128.241 197.701 127.9 198.32C127.559 198.949 127.068 199.44 126.428 199.792C125.799 200.144 125.063 200.32 124.22 200.32C123.068 200.32 122.108 200.048 121.34 199.504C120.572 198.96 120.119 198.219 119.98 197.28H121.42C121.58 197.813 121.911 198.24 122.412 198.56C122.913 198.891 123.516 199.056 124.22 199.056C125.02 199.056 125.671 198.805 126.172 198.304C126.684 197.803 126.94 197.099 126.94 196.192V194.352C126.652 194.864 126.225 195.291 125.66 195.632C125.095 195.973 124.433 196.144 123.676 196.144C122.897 196.144 122.188 195.952 121.548 195.568C120.919 195.184 120.423 194.645 120.06 193.952C119.697 193.259 119.516 192.469 119.516 191.584C119.516 190.688 119.697 189.904 120.06 189.232C120.423 188.549 120.919 188.021 121.548 187.648C122.188 187.275 122.897 187.088 123.676 187.088ZM126.94 191.6C126.94 190.939 126.807 190.363 126.54 189.872C126.273 189.381 125.911 189.008 125.452 188.752C125.004 188.485 124.508 188.352 123.964 188.352C123.42 188.352 122.924 188.48 122.476 188.736C122.028 188.992 121.671 189.365 121.404 189.856C121.137 190.347 121.004 190.923 121.004 191.584C121.004 192.256 121.137 192.843 121.404 193.344C121.671 193.835 122.028 194.213 122.476 194.48C122.924 194.736 123.42 194.864 123.964 194.864C124.508 194.864 125.004 194.736 125.452 194.48C125.911 194.213 126.273 193.835 126.54 193.344C126.807 192.843 126.94 192.261 126.94 191.6ZM134.697 196.144C133.875 196.144 133.129 195.957 132.457 195.584C131.795 195.211 131.273 194.683 130.889 194C130.515 193.307 130.329 192.507 130.329 191.6C130.329 190.704 130.521 189.915 130.905 189.232C131.299 188.539 131.833 188.011 132.505 187.648C133.177 187.275 133.929 187.088 134.761 187.088C135.593 187.088 136.345 187.275 137.017 187.648C137.689 188.011 138.217 188.533 138.601 189.216C138.995 189.899 139.193 190.693 139.193 191.6C139.193 192.507 138.99 193.307 138.585 194C138.19 194.683 137.651 195.211 136.969 195.584C136.286 195.957 135.529 196.144 134.697 196.144ZM134.697 194.864C135.219 194.864 135.71 194.741 136.169 194.496C136.627 194.251 136.995 193.883 137.273 193.392C137.561 192.901 137.705 192.304 137.705 191.6C137.705 190.896 137.566 190.299 137.289 189.808C137.011 189.317 136.649 188.955 136.201 188.72C135.753 188.475 135.267 188.352 134.745 188.352C134.211 188.352 133.721 188.475 133.273 188.72C132.835 188.955 132.483 189.317 132.217 189.808C131.95 190.299 131.817 190.896 131.817 191.6C131.817 192.315 131.945 192.917 132.201 193.408C132.467 193.899 132.819 194.267 133.257 194.512C133.694 194.747 134.174 194.864 134.697 194.864ZM141.571 196.096C141.294 196.096 141.059 196 140.867 195.808C140.675 195.616 140.579 195.381 140.579 195.104C140.579 194.827 140.675 194.592 140.867 194.4C141.059 194.208 141.294 194.112 141.571 194.112C141.838 194.112 142.062 194.208 142.243 194.4C142.435 194.592 142.531 194.827 142.531 195.104C142.531 195.381 142.435 195.616 142.243 195.808C142.062 196 141.838 196.096 141.571 196.096ZM149.516 185.808C149.239 185.808 149.004 185.712 148.812 185.52C148.631 185.328 148.54 185.093 148.54 184.816C148.54 184.539 148.631 184.304 148.812 184.112C149.004 183.92 149.239 183.824 149.516 183.824C149.793 183.824 150.023 183.92 150.204 184.112C150.396 184.304 150.492 184.539 150.492 184.816C150.492 185.093 150.396 185.328 150.204 185.52C150.023 185.712 149.793 185.808 149.516 185.808ZM150.236 197.904C150.236 198.683 150.039 199.253 149.644 199.616C149.249 199.979 148.673 200.16 147.916 200.16H147.068V198.928H147.676C148.081 198.928 148.364 198.848 148.524 198.688C148.695 198.528 148.78 198.256 148.78 197.872V187.232H150.236V197.904ZM154.157 188.848C154.445 188.347 154.871 187.931 155.437 187.6C156.013 187.259 156.679 187.088 157.437 187.088C158.215 187.088 158.919 187.275 159.549 187.648C160.189 188.021 160.69 188.549 161.053 189.232C161.415 189.904 161.597 190.688 161.597 191.584C161.597 192.469 161.415 193.259 161.053 193.952C160.69 194.645 160.189 195.184 159.549 195.568C158.919 195.952 158.215 196.144 157.437 196.144C156.69 196.144 156.029 195.979 155.453 195.648C154.887 195.307 154.455 194.885 154.157 194.384V200.16H152.701V187.232H154.157V188.848ZM160.109 191.584C160.109 190.923 159.975 190.347 159.709 189.856C159.442 189.365 159.079 188.992 158.621 188.736C158.173 188.48 157.677 188.352 157.133 188.352C156.599 188.352 156.103 188.485 155.645 188.752C155.197 189.008 154.834 189.387 154.557 189.888C154.29 190.379 154.157 190.949 154.157 191.6C154.157 192.261 154.29 192.843 154.557 193.344C154.834 193.835 155.197 194.213 155.645 194.48C156.103 194.736 156.599 194.864 157.133 194.864C157.677 194.864 158.173 194.736 158.621 194.48C159.079 194.213 159.442 193.835 159.709 193.344C159.975 192.843 160.109 192.256 160.109 191.584ZM167.129 187.088C167.887 187.088 168.548 187.253 169.113 187.584C169.689 187.915 170.116 188.331 170.393 188.832V187.232H171.865V196.192C171.865 196.992 171.695 197.701 171.353 198.32C171.012 198.949 170.521 199.44 169.881 199.792C169.252 200.144 168.516 200.32 167.673 200.32C166.521 200.32 165.561 200.048 164.793 199.504C164.025 198.96 163.572 198.219 163.433 197.28H164.873C165.033 197.813 165.364 198.24 165.865 198.56C166.367 198.891 166.969 199.056 167.673 199.056C168.473 199.056 169.124 198.805 169.625 198.304C170.137 197.803 170.393 197.099 170.393 196.192V194.352C170.105 194.864 169.679 195.291 169.113 195.632C168.548 195.973 167.887 196.144 167.129 196.144C166.351 196.144 165.641 195.952 165.001 195.568C164.372 195.184 163.876 194.645 163.513 193.952C163.151 193.259 162.969 192.469 162.969 191.584C162.969 190.688 163.151 189.904 163.513 189.232C163.876 188.549 164.372 188.021 165.001 187.648C165.641 187.275 166.351 187.088 167.129 187.088ZM170.393 191.6C170.393 190.939 170.26 190.363 169.993 189.872C169.727 189.381 169.364 189.008 168.905 188.752C168.457 188.485 167.961 188.352 167.417 188.352C166.873 188.352 166.377 188.48 165.929 188.736C165.481 188.992 165.124 189.365 164.857 189.856C164.591 190.347 164.457 190.923 164.457 191.584C164.457 192.256 164.591 192.843 164.857 193.344C165.124 193.835 165.481 194.213 165.929 194.48C166.377 194.736 166.873 194.864 167.417 194.864C167.961 194.864 168.457 194.736 168.905 194.48C169.364 194.213 169.727 193.835 169.993 193.344C170.26 192.843 170.393 192.261 170.393 191.6ZM175.03 183.264L174.854 186.448H173.846L173.654 183.264H175.03ZM177.19 183.264L177.014 186.448H176.006L175.814 183.264H177.19ZM182.719 191.584C182.719 190.688 182.901 189.904 183.263 189.232C183.626 188.549 184.122 188.021 184.751 187.648C185.391 187.275 186.101 187.088 186.879 187.088C187.647 187.088 188.314 187.253 188.879 187.584C189.445 187.915 189.866 188.331 190.143 188.832V187.232H191.615V196H190.143V194.368C189.855 194.88 189.423 195.307 188.847 195.648C188.282 195.979 187.621 196.144 186.863 196.144C186.085 196.144 185.381 195.952 184.751 195.568C184.122 195.184 183.626 194.645 183.263 193.952C182.901 193.259 182.719 192.469 182.719 191.584ZM190.143 191.6C190.143 190.939 190.01 190.363 189.743 189.872C189.477 189.381 189.114 189.008 188.655 188.752C188.207 188.485 187.711 188.352 187.167 188.352C186.623 188.352 186.127 188.48 185.679 188.736C185.231 188.992 184.874 189.365 184.607 189.856C184.341 190.347 184.207 190.923 184.207 191.584C184.207 192.256 184.341 192.843 184.607 193.344C184.874 193.835 185.231 194.213 185.679 194.48C186.127 194.736 186.623 194.864 187.167 194.864C187.711 194.864 188.207 194.736 188.655 194.48C189.114 194.213 189.477 193.835 189.743 193.344C190.01 192.843 190.143 192.261 190.143 191.6ZM195.532 184.16V196H194.076V184.16H195.532ZM199.789 188.432V193.6C199.789 194.027 199.88 194.331 200.061 194.512C200.243 194.683 200.557 194.768 201.005 194.768H202.077V196H200.765C199.955 196 199.347 195.813 198.941 195.44C198.536 195.067 198.333 194.453 198.333 193.6V188.432H197.197V187.232H198.333V185.024H199.789V187.232H202.077V188.432H199.789ZM212.545 187.808V189.04H204.225V187.808H212.545ZM212.545 191.248V192.48H204.225V191.248H212.545ZM216.108 183.264L215.932 186.448H214.924L214.732 183.264H216.108ZM218.268 183.264L218.092 186.448H217.084L216.892 183.264H218.268ZM221.532 184.16V196H220.076V184.16H221.532ZM227.837 196.144C227.016 196.144 226.269 195.957 225.597 195.584C224.936 195.211 224.413 194.683 224.029 194C223.656 193.307 223.469 192.507 223.469 191.6C223.469 190.704 223.661 189.915 224.045 189.232C224.44 188.539 224.973 188.011 225.645 187.648C226.317 187.275 227.069 187.088 227.901 187.088C228.733 187.088 229.485 187.275 230.157 187.648C230.829 188.011 231.357 188.533 231.741 189.216C232.136 189.899 232.333 190.693 232.333 191.6C232.333 192.507 232.131 193.307 231.725 194C231.331 194.683 230.792 195.211 230.109 195.584C229.427 195.957 228.669 196.144 227.837 196.144ZM227.837 194.864C228.36 194.864 228.851 194.741 229.309 194.496C229.768 194.251 230.136 193.883 230.413 193.392C230.701 192.901 230.845 192.304 230.845 191.6C230.845 190.896 230.707 190.299 230.429 189.808C230.152 189.317 229.789 188.955 229.341 188.72C228.893 188.475 228.408 188.352 227.885 188.352C227.352 188.352 226.861 188.475 226.413 188.72C225.976 188.955 225.624 189.317 225.357 189.808C225.091 190.299 224.957 190.896 224.957 191.6C224.957 192.315 225.085 192.917 225.341 193.408C225.608 193.899 225.96 194.267 226.397 194.512C226.835 194.747 227.315 194.864 227.837 194.864ZM237.864 187.088C238.621 187.088 239.282 187.253 239.848 187.584C240.424 187.915 240.85 188.331 241.128 188.832V187.232H242.6V196.192C242.6 196.992 242.429 197.701 242.088 198.32C241.746 198.949 241.256 199.44 240.616 199.792C239.986 200.144 239.25 200.32 238.408 200.32C237.256 200.32 236.296 200.048 235.528 199.504C234.76 198.96 234.306 198.219 234.168 197.28H235.608C235.768 197.813 236.098 198.24 236.6 198.56C237.101 198.891 237.704 199.056 238.408 199.056C239.208 199.056 239.858 198.805 240.36 198.304C240.872 197.803 241.128 197.099 241.128 196.192V194.352C240.84 194.864 240.413 195.291 239.848 195.632C239.282 195.973 238.621 196.144 237.864 196.144C237.085 196.144 236.376 195.952 235.736 195.568C235.106 195.184 234.61 194.645 234.248 193.952C233.885 193.259 233.704 192.469 233.704 191.584C233.704 190.688 233.885 189.904 234.248 189.232C234.61 188.549 235.106 188.021 235.736 187.648C236.376 187.275 237.085 187.088 237.864 187.088ZM241.128 191.6C241.128 190.939 240.994 190.363 240.728 189.872C240.461 189.381 240.098 189.008 239.64 188.752C239.192 188.485 238.696 188.352 238.152 188.352C237.608 188.352 237.112 188.48 236.664 188.736C236.216 188.992 235.858 189.365 235.592 189.856C235.325 190.347 235.192 190.923 235.192 191.584C235.192 192.256 235.325 192.843 235.592 193.344C235.858 193.835 236.216 194.213 236.664 194.48C237.112 194.736 237.608 194.864 238.152 194.864C238.696 194.864 239.192 194.736 239.64 194.48C240.098 194.213 240.461 193.835 240.728 193.344C240.994 192.843 241.128 192.261 241.128 191.6ZM248.884 196.144C248.063 196.144 247.316 195.957 246.644 195.584C245.983 195.211 245.46 194.683 245.076 194C244.703 193.307 244.516 192.507 244.516 191.6C244.516 190.704 244.708 189.915 245.092 189.232C245.487 188.539 246.02 188.011 246.692 187.648C247.364 187.275 248.116 187.088 248.948 187.088C249.78 187.088 250.532 187.275 251.204 187.648C251.876 188.011 252.404 188.533 252.788 189.216C253.183 189.899 253.38 190.693 253.38 191.6C253.38 192.507 253.177 193.307 252.772 194C252.377 194.683 251.839 195.211 251.156 195.584C250.473 195.957 249.716 196.144 248.884 196.144ZM248.884 194.864C249.407 194.864 249.897 194.741 250.356 194.496C250.815 194.251 251.183 193.883 251.46 193.392C251.748 192.901 251.892 192.304 251.892 191.6C251.892 190.896 251.753 190.299 251.476 189.808C251.199 189.317 250.836 188.955 250.388 188.72C249.94 188.475 249.455 188.352 248.932 188.352C248.399 188.352 247.908 188.475 247.46 188.72C247.023 188.955 246.671 189.317 246.404 189.808C246.137 190.299 246.004 190.896 246.004 191.6C246.004 192.315 246.132 192.917 246.388 193.408C246.655 193.899 247.007 194.267 247.444 194.512C247.881 194.747 248.361 194.864 248.884 194.864ZM255.999 183.264L255.823 186.448H254.815L254.623 183.264H255.999ZM258.159 183.264L257.983 186.448H256.975L256.783 183.264H258.159ZM260.238 186.48H262.078L265.95 190.144L262.078 193.824H260.238L264.11 190.144L260.238 186.48ZM25.2 223.824L21.344 220.144L25.2 216.48H27.04L23.168 220.144L27.04 223.824H25.2ZM34.459 217.072C35.1203 217.072 35.7177 217.216 36.251 217.504C36.7843 217.781 37.2003 218.203 37.499 218.768C37.8083 219.333 37.963 220.021 37.963 220.832V226H36.523V221.04C36.523 220.165 36.3043 219.499 35.867 219.04C35.4297 218.571 34.8323 218.336 34.075 218.336C33.307 218.336 32.6937 218.576 32.235 219.056C31.787 219.536 31.563 220.235 31.563 221.152V226H30.107V214.16H31.563V218.48C31.851 218.032 32.2457 217.685 32.747 217.44C33.259 217.195 33.8297 217.072 34.459 217.072ZM39.7174 215.76V214.432H42.7254V226H41.2534V215.76H39.7174ZM45.7384 216.48H47.5784L51.4504 220.144L47.5784 223.824H45.7384L49.6104 220.144L45.7384 216.48ZM62.6834 214.848V226H61.2274V220.944H55.5474V226H54.0914V214.848H55.5474V219.744H61.2274V214.848H62.6834ZM73.1695 221.28C73.1695 221.557 73.1535 221.851 73.1215 222.16H66.1135C66.1668 223.024 66.4602 223.701 66.9935 224.192C67.5375 224.672 68.1935 224.912 68.9615 224.912C69.5908 224.912 70.1135 224.768 70.5295 224.48C70.9562 224.181 71.2548 223.787 71.4255 223.296H72.9935C72.7588 224.139 72.2895 224.827 71.5855 225.36C70.8815 225.883 70.0068 226.144 68.9615 226.144C68.1295 226.144 67.3828 225.957 66.7215 225.584C66.0708 225.211 65.5588 224.683 65.1855 224C64.8122 223.307 64.6255 222.507 64.6255 221.6C64.6255 220.693 64.8068 219.899 65.1695 219.216C65.5322 218.533 66.0388 218.011 66.6895 217.648C67.3508 217.275 68.1082 217.088 68.9615 217.088C69.7935 217.088 70.5295 217.269 71.1695 217.632C71.8095 217.995 72.3002 218.496 72.6415 219.136C72.9935 219.765 73.1695 220.48 73.1695 221.28ZM71.6655 220.976C71.6655 220.421 71.5428 219.947 71.2975 219.552C71.0522 219.147 70.7162 218.843 70.2895 218.64C69.8735 218.427 69.4095 218.32 68.8975 218.32C68.1615 218.32 67.5322 218.555 67.0095 219.024C66.4975 219.493 66.2042 220.144 66.1295 220.976H71.6655ZM74.5474 221.584C74.5474 220.688 74.7287 219.904 75.0914 219.232C75.454 218.549 75.95 218.021 76.5794 217.648C77.2194 217.275 77.9287 217.088 78.7074 217.088C79.4754 217.088 80.142 217.253 80.7074 217.584C81.2727 217.915 81.694 218.331 81.9714 218.832V217.232H83.4434V226H81.9714V224.368C81.6834 224.88 81.2514 225.307 80.6754 225.648C80.11 225.979 79.4487 226.144 78.6914 226.144C77.9127 226.144 77.2087 225.952 76.5794 225.568C75.95 225.184 75.454 224.645 75.0914 223.952C74.7287 223.259 74.5474 222.469 74.5474 221.584ZM81.9714 221.6C81.9714 220.939 81.838 220.363 81.5714 219.872C81.3047 219.381 80.942 219.008 80.4834 218.752C80.0354 218.485 79.5394 218.352 78.9954 218.352C78.4514 218.352 77.9554 218.48 77.5074 218.736C77.0594 218.992 76.702 219.365 76.4354 219.856C76.1687 220.347 76.0354 220.923 76.0354 221.584C76.0354 222.256 76.1687 222.843 76.4354 223.344C76.702 223.835 77.0594 224.213 77.5074 224.48C77.9554 224.736 78.4514 224.864 78.9954 224.864C79.5394 224.864 80.0354 224.736 80.4834 224.48C80.942 224.213 81.3047 223.835 81.5714 223.344C81.838 222.843 81.9714 222.261 81.9714 221.6ZM85.3599 221.584C85.3599 220.688 85.5412 219.904 85.9039 219.232C86.2665 218.549 86.7625 218.021 87.3919 217.648C88.0319 217.275 88.7465 217.088 89.5359 217.088C90.2185 217.088 90.8532 217.248 91.4399 217.568C92.0265 217.877 92.4745 218.288 92.7839 218.8V214.16H94.2559V226H92.7839V224.352C92.4959 224.875 92.0692 225.307 91.5039 225.648C90.9385 225.979 90.2772 226.144 89.5199 226.144C88.7412 226.144 88.0319 225.952 87.3919 225.568C86.7625 225.184 86.2665 224.645 85.9039 223.952C85.5412 223.259 85.3599 222.469 85.3599 221.584ZM92.7839 221.6C92.7839 220.939 92.6505 220.363 92.3839 219.872C92.1172 219.381 91.7545 219.008 91.2959 218.752C90.8479 218.485 90.3519 218.352 89.8079 218.352C89.2639 218.352 88.7679 218.48 88.3199 218.736C87.8719 218.992 87.5145 219.365 87.2479 219.856C86.9812 220.347 86.8479 220.923 86.8479 221.584C86.8479 222.256 86.9812 222.843 87.2479 223.344C87.5145 223.835 87.8719 224.213 88.3199 224.48C88.7679 224.736 89.2639 224.864 89.8079 224.864C90.3519 224.864 90.8479 224.736 91.2959 224.48C91.7545 224.213 92.1172 223.835 92.3839 223.344C92.6505 222.843 92.7839 222.261 92.7839 221.6ZM97.4684 215.808C97.191 215.808 96.9564 215.712 96.7644 215.52C96.5724 215.328 96.4764 215.093 96.4764 214.816C96.4764 214.539 96.5724 214.304 96.7644 214.112C96.9564 213.92 97.191 213.824 97.4684 213.824C97.735 213.824 97.959 213.92 98.1404 214.112C98.3324 214.304 98.4284 214.539 98.4284 214.816C98.4284 215.093 98.3324 215.328 98.1404 215.52C97.959 215.712 97.735 215.808 97.4684 215.808ZM98.1724 217.232V226H96.7164V217.232H98.1724ZM104.926 217.072C105.993 217.072 106.857 217.397 107.518 218.048C108.179 218.688 108.51 219.616 108.51 220.832V226H107.07V221.04C107.07 220.165 106.851 219.499 106.414 219.04C105.977 218.571 105.379 218.336 104.622 218.336C103.854 218.336 103.241 218.576 102.782 219.056C102.334 219.536 102.11 220.235 102.11 221.152V226H100.654V217.232H102.11V218.48C102.398 218.032 102.787 217.685 103.278 217.44C103.779 217.195 104.329 217.072 104.926 217.072ZM114.504 217.088C115.262 217.088 115.923 217.253 116.488 217.584C117.064 217.915 117.491 218.331 117.768 218.832V217.232H119.24V226.192C119.24 226.992 119.07 227.701 118.728 228.32C118.387 228.949 117.896 229.44 117.256 229.792C116.627 230.144 115.891 230.32 115.048 230.32C113.896 230.32 112.936 230.048 112.168 229.504C111.4 228.96 110.947 228.219 110.808 227.28H112.248C112.408 227.813 112.739 228.24 113.24 228.56C113.742 228.891 114.344 229.056 115.048 229.056C115.848 229.056 116.499 228.805 117 228.304C117.512 227.803 117.768 227.099 117.768 226.192V224.352C117.48 224.864 117.054 225.291 116.488 225.632C115.923 225.973 115.262 226.144 114.504 226.144C113.726 226.144 113.016 225.952 112.376 225.568C111.747 225.184 111.251 224.645 110.888 223.952C110.526 223.259 110.344 222.469 110.344 221.584C110.344 220.688 110.526 219.904 110.888 219.232C111.251 218.549 111.747 218.021 112.376 217.648C113.016 217.275 113.726 217.088 114.504 217.088ZM117.768 221.6C117.768 220.939 117.635 220.363 117.368 219.872C117.102 219.381 116.739 219.008 116.28 218.752C115.832 218.485 115.336 218.352 114.792 218.352C114.248 218.352 113.752 218.48 113.304 218.736C112.856 218.992 112.499 219.365 112.232 219.856C111.966 220.347 111.832 220.923 111.832 221.584C111.832 222.256 111.966 222.843 112.232 223.344C112.499 223.835 112.856 224.213 113.304 224.48C113.752 224.736 114.248 224.864 114.792 224.864C115.336 224.864 115.832 224.736 116.28 224.48C116.739 224.213 117.102 223.835 117.368 223.344C117.635 222.843 117.768 222.261 117.768 221.6ZM127.742 218.432V223.6C127.742 224.027 127.833 224.331 128.014 224.512C128.196 224.683 128.51 224.768 128.958 224.768H130.03V226H128.718C127.908 226 127.3 225.813 126.894 225.44C126.489 225.067 126.286 224.453 126.286 223.6V218.432H125.15V217.232H126.286V215.024H127.742V217.232H130.03V218.432H127.742ZM131.251 221.584C131.251 220.688 131.432 219.904 131.795 219.232C132.157 218.549 132.653 218.021 133.283 217.648C133.923 217.275 134.632 217.088 135.411 217.088C136.179 217.088 136.845 217.253 137.411 217.584C137.976 217.915 138.397 218.331 138.675 218.832V217.232H140.147V226H138.675V224.368C138.387 224.88 137.955 225.307 137.379 225.648C136.813 225.979 136.152 226.144 135.395 226.144C134.616 226.144 133.912 225.952 133.283 225.568C132.653 225.184 132.157 224.645 131.795 223.952C131.432 223.259 131.251 222.469 131.251 221.584ZM138.675 221.6C138.675 220.939 138.541 220.363 138.275 219.872C138.008 219.381 137.645 219.008 137.187 218.752C136.739 218.485 136.243 218.352 135.699 218.352C135.155 218.352 134.659 218.48 134.211 218.736C133.763 218.992 133.405 219.365 133.139 219.856C132.872 220.347 132.739 220.923 132.739 221.584C132.739 222.256 132.872 222.843 133.139 223.344C133.405 223.835 133.763 224.213 134.211 224.48C134.659 224.736 135.155 224.864 135.699 224.864C136.243 224.864 136.739 224.736 137.187 224.48C137.645 224.213 138.008 223.835 138.275 223.344C138.541 222.843 138.675 222.261 138.675 221.6ZM146.223 217.088C146.98 217.088 147.642 217.253 148.207 217.584C148.783 217.915 149.21 218.331 149.487 218.832V217.232H150.959V226.192C150.959 226.992 150.788 227.701 150.447 228.32C150.106 228.949 149.615 229.44 148.975 229.792C148.346 230.144 147.61 230.32 146.767 230.32C145.615 230.32 144.655 230.048 143.887 229.504C143.119 228.96 142.666 228.219 142.527 227.28H143.967C144.127 227.813 144.458 228.24 144.959 228.56C145.46 228.891 146.063 229.056 146.767 229.056C147.567 229.056 148.218 228.805 148.719 228.304C149.231 227.803 149.487 227.099 149.487 226.192V224.352C149.199 224.864 148.772 225.291 148.207 225.632C147.642 225.973 146.98 226.144 146.223 226.144C145.444 226.144 144.735 225.952 144.095 225.568C143.466 225.184 142.97 224.645 142.607 223.952C142.244 223.259 142.063 222.469 142.063 221.584C142.063 220.688 142.244 219.904 142.607 219.232C142.97 218.549 143.466 218.021 144.095 217.648C144.735 217.275 145.444 217.088 146.223 217.088ZM149.487 221.6C149.487 220.939 149.354 220.363 149.087 219.872C148.82 219.381 148.458 219.008 147.999 218.752C147.551 218.485 147.055 218.352 146.511 218.352C145.967 218.352 145.471 218.48 145.023 218.736C144.575 218.992 144.218 219.365 143.951 219.856C143.684 220.347 143.551 220.923 143.551 221.584C143.551 222.256 143.684 222.843 143.951 223.344C144.218 223.835 144.575 224.213 145.023 224.48C145.471 224.736 145.967 224.864 146.511 224.864C147.055 224.864 147.551 224.736 147.999 224.48C148.458 224.213 148.82 223.835 149.087 223.344C149.354 222.843 149.487 222.261 149.487 221.6ZM157.388 223.824L153.532 220.144L157.388 216.48H159.228L155.356 220.144L159.228 223.824H157.388ZM167.735 210.928L163.351 228.72H161.911L166.279 210.928H167.735ZM174.256 217.072C174.917 217.072 175.515 217.216 176.048 217.504C176.581 217.781 176.997 218.203 177.296 218.768C177.605 219.333 177.76 220.021 177.76 220.832V226H176.32V221.04C176.32 220.165 176.101 219.499 175.664 219.04C175.227 218.571 174.629 218.336 173.872 218.336C173.104 218.336 172.491 218.576 172.032 219.056C171.584 219.536 171.36 220.235 171.36 221.152V226H169.904V214.16H171.36V218.48C171.648 218.032 172.043 217.685 172.544 217.44C173.056 217.195 173.627 217.072 174.256 217.072ZM179.514 215.76V214.432H182.522V226H181.05V215.76H179.514ZM185.535 216.48H187.375L191.247 220.144L187.375 223.824H185.535L189.407 220.144L185.535 216.48ZM25.2 253.824L21.344 250.144L25.2 246.48H27.04L23.168 250.144L27.04 253.824H25.2ZM35.547 240.928L31.163 258.72H29.723L34.091 240.928H35.547ZM37.1724 251.584C37.1724 250.688 37.3537 249.904 37.7164 249.232C38.079 248.549 38.575 248.021 39.2044 247.648C39.8444 247.275 40.559 247.088 41.3484 247.088C42.031 247.088 42.6657 247.248 43.2524 247.568C43.839 247.877 44.287 248.288 44.5964 248.8V244.16H46.0684V256H44.5964V254.352C44.3084 254.875 43.8817 255.307 43.3164 255.648C42.751 255.979 42.0897 256.144 41.3324 256.144C40.5537 256.144 39.8444 255.952 39.2044 255.568C38.575 255.184 38.079 254.645 37.7164 253.952C37.3537 253.259 37.1724 252.469 37.1724 251.584ZM44.5964 251.6C44.5964 250.939 44.463 250.363 44.1964 249.872C43.9297 249.381 43.567 249.008 43.1084 248.752C42.6604 248.485 42.1644 248.352 41.6204 248.352C41.0764 248.352 40.5804 248.48 40.1324 248.736C39.6844 248.992 39.327 249.365 39.0604 249.856C38.7937 250.347 38.6604 250.923 38.6604 251.584C38.6604 252.256 38.7937 252.843 39.0604 253.344C39.327 253.835 39.6844 254.213 40.1324 254.48C40.5804 254.736 41.0764 254.864 41.6204 254.864C42.1644 254.864 42.6604 254.736 43.1084 254.48C43.567 254.213 43.9297 253.835 44.1964 253.344C44.463 252.843 44.5964 252.261 44.5964 251.6ZM49.2809 245.808C49.0035 245.808 48.7689 245.712 48.5769 245.52C48.3849 245.328 48.2889 245.093 48.2889 244.816C48.2889 244.539 48.3849 244.304 48.5769 244.112C48.7689 243.92 49.0035 243.824 49.2809 243.824C49.5475 243.824 49.7715 243.92 49.9529 244.112C50.1449 244.304 50.2409 244.539 50.2409 244.816C50.2409 245.093 50.1449 245.328 49.9529 245.52C49.7715 245.712 49.5475 245.808 49.2809 245.808ZM49.9849 247.232V256H48.5289V247.232H49.9849ZM55.7304 254.656L58.4504 247.232H60.0024L56.5624 256H54.8664L51.4264 247.232H52.9944L55.7304 254.656ZM61.7071 246.48H63.5471L67.4191 250.144L63.5471 253.824H61.7071L65.5791 250.144L61.7071 246.48ZM25.2 283.824L21.344 280.144L25.2 276.48H27.04L23.168 280.144L27.04 283.824H25.2ZM35.547 270.928L31.163 288.72H29.723L34.091 270.928H35.547ZM37.1724 281.584C37.1724 280.688 37.3537 279.904 37.7164 279.232C38.079 278.549 38.575 278.021 39.2044 277.648C39.8444 277.275 40.559 277.088 41.3484 277.088C42.031 277.088 42.6657 277.248 43.2524 277.568C43.839 277.877 44.287 278.288 44.5964 278.8V274.16H46.0684V286H44.5964V284.352C44.3084 284.875 43.8817 285.307 43.3164 285.648C42.751 285.979 42.0897 286.144 41.3324 286.144C40.5537 286.144 39.8444 285.952 39.2044 285.568C38.575 285.184 38.079 284.645 37.7164 283.952C37.3537 283.259 37.1724 282.469 37.1724 281.584ZM44.5964 281.6C44.5964 280.939 44.463 280.363 44.1964 279.872C43.9297 279.381 43.567 279.008 43.1084 278.752C42.6604 278.485 42.1644 278.352 41.6204 278.352C41.0764 278.352 40.5804 278.48 40.1324 278.736C39.6844 278.992 39.327 279.365 39.0604 279.856C38.7937 280.347 38.6604 280.923 38.6604 281.584C38.6604 282.256 38.7937 282.843 39.0604 283.344C39.327 283.835 39.6844 284.213 40.1324 284.48C40.5804 284.736 41.0764 284.864 41.6204 284.864C42.1644 284.864 42.6604 284.736 43.1084 284.48C43.567 284.213 43.9297 283.835 44.1964 283.344C44.463 282.843 44.5964 282.261 44.5964 281.6ZM49.2809 275.808C49.0035 275.808 48.7689 275.712 48.5769 275.52C48.3849 275.328 48.2889 275.093 48.2889 274.816C48.2889 274.539 48.3849 274.304 48.5769 274.112C48.7689 273.92 49.0035 273.824 49.2809 273.824C49.5475 273.824 49.7715 273.92 49.9529 274.112C50.1449 274.304 50.2409 274.539 50.2409 274.816C50.2409 275.093 50.1449 275.328 49.9529 275.52C49.7715 275.712 49.5475 275.808 49.2809 275.808ZM49.9849 277.232V286H48.5289V277.232H49.9849ZM55.7304 284.656L58.4504 277.232H60.0024L56.5624 286H54.8664L51.4264 277.232H52.9944L55.7304 284.656ZM61.7071 276.48H63.5471L67.4191 280.144L63.5471 283.824H61.7071L65.5791 280.144L61.7071 276.48ZM25.2 313.824L21.344 310.144L25.2 306.48H27.04L23.168 310.144L27.04 313.824H25.2ZM31.995 304.848L31.819 312.848H30.603L30.427 304.848H31.995ZM31.275 316.096C30.9977 316.096 30.763 316 30.571 315.808C30.379 315.616 30.283 315.381 30.283 315.104C30.283 314.827 30.379 314.592 30.571 314.4C30.763 314.208 30.9977 314.112 31.275 314.112C31.5417 314.112 31.7657 314.208 31.947 314.4C32.139 314.592 32.235 314.827 32.235 315.104C32.235 315.381 32.139 315.616 31.947 315.808C31.7657 316 31.5417 316.096 31.275 316.096ZM40.9526 309.52V310.752H34.5686V309.52H40.9526ZM54.0308 309.52V310.752H47.6468V309.52H54.0308ZM66.9009 316L64.2449 311.44H62.4849V316H61.0289V304.848H64.6289C65.4715 304.848 66.1809 304.992 66.7569 305.28C67.3435 305.568 67.7809 305.957 68.0689 306.448C68.3569 306.939 68.5009 307.499 68.5009 308.128C68.5009 308.896 68.2769 309.573 67.8289 310.16C67.3915 310.747 66.7302 311.136 65.8449 311.328L68.6449 316H66.9009ZM62.4849 310.272H64.6289C65.4182 310.272 66.0102 310.08 66.4049 309.696C66.7995 309.301 66.9969 308.779 66.9969 308.128C66.9969 307.467 66.7995 306.955 66.4049 306.592C66.0209 306.229 65.4289 306.048 64.6289 306.048H62.4849V310.272ZM78.7633 311.28C78.7633 311.557 78.7473 311.851 78.7153 312.16H71.7073C71.7606 313.024 72.0539 313.701 72.5873 314.192C73.1313 314.672 73.7873 314.912 74.5553 314.912C75.1846 314.912 75.7073 314.768 76.1233 314.48C76.5499 314.181 76.8486 313.787 77.0193 313.296H78.5873C78.3526 314.139 77.8833 314.827 77.1793 315.36C76.4753 315.883 75.6006 316.144 74.5553 316.144C73.7233 316.144 72.9766 315.957 72.3153 315.584C71.6646 315.211 71.1526 314.683 70.7793 314C70.4059 313.307 70.2193 312.507 70.2193 311.6C70.2193 310.693 70.4006 309.899 70.7633 309.216C71.1259 308.533 71.6326 308.011 72.2833 307.648C72.9446 307.275 73.7019 307.088 74.5553 307.088C75.3873 307.088 76.1233 307.269 76.7633 307.632C77.4033 307.995 77.8939 308.496 78.2353 309.136C78.5873 309.765 78.7633 310.48 78.7633 311.28ZM77.2593 310.976C77.2593 310.421 77.1366 309.947 76.8913 309.552C76.6459 309.147 76.3099 308.843 75.8833 308.64C75.4673 308.427 75.0033 308.32 74.4913 308.32C73.7553 308.32 73.1259 308.555 72.6033 309.024C72.0913 309.493 71.7979 310.144 71.7233 310.976H77.2593ZM84.2531 308.432H82.4131V316H80.9571V308.432H79.8211V307.232H80.9571V306.608C80.9571 305.627 81.2078 304.912 81.7091 304.464C82.2211 304.005 83.0371 303.776 84.1571 303.776V304.992C83.5171 304.992 83.0638 305.12 82.7971 305.376C82.5411 305.621 82.4131 306.032 82.4131 306.608V307.232H84.2531V308.432ZM85.4068 311.584C85.4068 310.688 85.5881 309.904 85.9508 309.232C86.3134 308.549 86.8094 308.021 87.4388 307.648C88.0788 307.275 88.7881 307.088 89.5668 307.088C90.3348 307.088 91.0014 307.253 91.5668 307.584C92.1321 307.915 92.5534 308.331 92.8308 308.832V307.232H94.3028V316H92.8308V314.368C92.5428 314.88 92.1108 315.307 91.5348 315.648C90.9694 315.979 90.3081 316.144 89.5508 316.144C88.7721 316.144 88.0681 315.952 87.4388 315.568C86.8094 315.184 86.3134 314.645 85.9508 313.952C85.5881 313.259 85.4068 312.469 85.4068 311.584ZM92.8308 311.6C92.8308 310.939 92.6974 310.363 92.4308 309.872C92.1641 309.381 91.8014 309.008 91.3428 308.752C90.8948 308.485 90.3988 308.352 89.8548 308.352C89.3108 308.352 88.8148 308.48 88.3668 308.736C87.9188 308.992 87.5614 309.365 87.2948 309.856C87.0281 310.347 86.8948 310.923 86.8948 311.584C86.8948 312.256 87.0281 312.843 87.2948 313.344C87.5614 313.835 87.9188 314.213 88.3668 314.48C88.8148 314.736 89.3108 314.864 89.8548 314.864C90.3988 314.864 90.8948 314.736 91.3428 314.48C91.8014 314.213 92.1641 313.835 92.4308 313.344C92.6974 312.843 92.8308 312.261 92.8308 311.6ZM96.2193 311.6C96.2193 310.693 96.4006 309.904 96.7633 309.232C97.1259 308.549 97.6273 308.021 98.2673 307.648C98.9179 307.275 99.6593 307.088 100.491 307.088C101.569 307.088 102.454 307.349 103.147 307.872C103.851 308.395 104.315 309.12 104.539 310.048H102.971C102.822 309.515 102.529 309.093 102.091 308.784C101.665 308.475 101.131 308.32 100.491 308.32C99.6593 308.32 98.9873 308.608 98.4753 309.184C97.9633 309.749 97.7073 310.555 97.7073 311.6C97.7073 312.656 97.9633 313.472 98.4753 314.048C98.9873 314.624 99.6593 314.912 100.491 314.912C101.131 314.912 101.665 314.763 102.091 314.464C102.518 314.165 102.811 313.739 102.971 313.184H104.539C104.305 314.08 103.835 314.8 103.131 315.344C102.427 315.877 101.547 316.144 100.491 316.144C99.6593 316.144 98.9179 315.957 98.2673 315.584C97.6273 315.211 97.1259 314.683 96.7633 314C96.4006 313.317 96.2193 312.517 96.2193 311.6ZM108.258 308.432V313.6C108.258 314.027 108.349 314.331 108.53 314.512C108.711 314.683 109.026 314.768 109.474 314.768H110.546V316H109.234C108.423 316 107.815 315.813 107.41 315.44C107.005 315.067 106.802 314.453 106.802 313.6V308.432H105.666V307.232H106.802V305.024H108.258V307.232H110.546V308.432H108.258ZM116.134 316.144C115.313 316.144 114.566 315.957 113.894 315.584C113.233 315.211 112.71 314.683 112.326 314C111.953 313.307 111.766 312.507 111.766 311.6C111.766 310.704 111.958 309.915 112.342 309.232C112.737 308.539 113.27 308.011 113.942 307.648C114.614 307.275 115.366 307.088 116.198 307.088C117.03 307.088 117.782 307.275 118.454 307.648C119.126 308.011 119.654 308.533 120.038 309.216C120.433 309.899 120.63 310.693 120.63 311.6C120.63 312.507 120.427 313.307 120.022 314C119.627 314.683 119.089 315.211 118.406 315.584C117.723 315.957 116.966 316.144 116.134 316.144ZM116.134 314.864C116.657 314.864 117.147 314.741 117.606 314.496C118.065 314.251 118.433 313.883 118.71 313.392C118.998 312.901 119.142 312.304 119.142 311.6C119.142 310.896 119.003 310.299 118.726 309.808C118.449 309.317 118.086 308.955 117.638 308.72C117.19 308.475 116.705 308.352 116.182 308.352C115.649 308.352 115.158 308.475 114.71 308.72C114.273 308.955 113.921 309.317 113.654 309.808C113.387 310.299 113.254 310.896 113.254 311.6C113.254 312.315 113.382 312.917 113.638 313.408C113.905 313.899 114.257 314.267 114.694 314.512C115.131 314.747 115.611 314.864 116.134 314.864ZM124.001 308.656C124.257 308.155 124.619 307.765 125.089 307.488C125.569 307.211 126.15 307.072 126.833 307.072V308.576H126.449C124.817 308.576 124.001 309.461 124.001 311.232V316H122.545V307.232H124.001V308.656ZM136.513 311.28C136.513 311.557 136.497 311.851 136.465 312.16H129.457C129.511 313.024 129.804 313.701 130.337 314.192C130.881 314.672 131.537 314.912 132.305 314.912C132.935 314.912 133.457 314.768 133.873 314.48C134.3 314.181 134.599 313.787 134.769 313.296H136.337C136.103 314.139 135.633 314.827 134.929 315.36C134.225 315.883 133.351 316.144 132.305 316.144C131.473 316.144 130.727 315.957 130.065 315.584C129.415 315.211 128.903 314.683 128.529 314C128.156 313.307 127.969 312.507 127.969 311.6C127.969 310.693 128.151 309.899 128.513 309.216C128.876 308.533 129.383 308.011 130.033 307.648C130.695 307.275 131.452 307.088 132.305 307.088C133.137 307.088 133.873 307.269 134.513 307.632C135.153 307.995 135.644 308.496 135.985 309.136C136.337 309.765 136.513 310.48 136.513 311.28ZM135.009 310.976C135.009 310.421 134.887 309.947 134.641 309.552C134.396 309.147 134.06 308.843 133.633 308.64C133.217 308.427 132.753 308.32 132.241 308.32C131.505 308.32 130.876 308.555 130.353 309.024C129.841 309.493 129.548 310.144 129.473 310.976H135.009ZM137.891 311.584C137.891 310.688 138.072 309.904 138.435 309.232C138.798 308.549 139.294 308.021 139.923 307.648C140.563 307.275 141.278 307.088 142.067 307.088C142.75 307.088 143.384 307.248 143.971 307.568C144.558 307.877 145.006 308.288 145.315 308.8V304.16H146.787V316H145.315V314.352C145.027 314.875 144.6 315.307 144.035 315.648C143.47 315.979 142.808 316.144 142.051 316.144C141.272 316.144 140.563 315.952 139.923 315.568C139.294 315.184 138.798 314.645 138.435 313.952C138.072 313.259 137.891 312.469 137.891 311.584ZM145.315 311.6C145.315 310.939 145.182 310.363 144.915 309.872C144.648 309.381 144.286 309.008 143.827 308.752C143.379 308.485 142.883 308.352 142.339 308.352C141.795 308.352 141.299 308.48 140.851 308.736C140.403 308.992 140.046 309.365 139.779 309.856C139.512 310.347 139.379 310.923 139.379 311.584C139.379 312.256 139.512 312.843 139.779 313.344C140.046 313.835 140.403 314.213 140.851 314.48C141.299 314.736 141.795 314.864 142.339 314.864C142.883 314.864 143.379 314.736 143.827 314.48C144.286 314.213 144.648 313.835 144.915 313.344C145.182 312.843 145.315 312.261 145.315 311.6ZM159.593 309.52V310.752H153.209V309.52H159.593ZM168.406 309.52V310.752H162.022V309.52H168.406ZM171.41 306.48H173.25L177.122 310.144L173.25 313.824H171.41L175.282 310.144L171.41 306.48Z" fill="black"/>
<rect width="410" height="40" fill="black"/>
<circle cx="25" cy="22" r="5" fill="white"/>
<circle cx="45" cy="22" r="5" fill="white"/>
<circle cx="65" cy="22" r="5" fill="white"/>
</svg>
