<svg width="80" height="80" viewBox="0 0 80 80" fill="none" xmlns="http://www.w3.org/2000/svg">
<circle cx="40" cy="40" r="39.5" fill="white" stroke="#CFC9D4"/>
<g clip-path="url(#clip0_1629_2191)">
<path d="M59.6535 49.1035L55.5535 47.0535L52.9441 40.266C52.9134 40.1858 52.8665 40.1127 52.8063 40.0514C52.746 39.9901 52.6738 39.9419 52.5941 39.9098L36.4035 33.4379C36.2903 33.3928 36.1664 33.3818 36.047 33.4062C35.9277 33.4307 35.818 33.4895 35.7316 33.5754L33.5723 35.7348C33.4875 35.8212 33.4297 35.9305 33.4058 36.0492C33.3819 36.1679 33.3931 36.291 33.4379 36.4035L39.9098 52.5941C39.9419 52.6738 39.9901 52.746 40.0514 52.8063C40.1127 52.8665 40.1858 52.9134 40.266 52.9441L47.0535 55.5535L49.1035 59.6535C49.1467 59.7439 49.2109 59.8226 49.2909 59.883C49.3708 59.9433 49.4641 59.9836 49.5629 60.0004C49.5962 60.0035 49.6296 60.0035 49.6629 60.0004C49.8284 59.9997 49.9868 59.9334 50.1035 59.816L59.816 50.1035C59.8875 50.0345 59.9415 49.9495 59.9736 49.8555C60.0056 49.7615 60.0148 49.6612 60.0004 49.5629C59.9836 49.4641 59.9434 49.3708 59.883 49.2909C59.8226 49.2109 59.7439 49.1467 59.6535 49.1035ZM34.7473 36.3223L35.0941 35.9785L43.1535 44.0379C42.6224 44.7905 42.393 45.715 42.5107 46.6287C42.6284 47.5423 43.0847 48.3785 43.7892 48.9719C44.4938 49.5653 45.3954 49.8728 46.3157 49.8334C47.2361 49.7941 48.1081 49.4108 48.7595 48.7595C49.4109 48.1081 49.7941 47.236 49.8334 46.3157C49.8728 45.3954 49.5653 44.4938 48.9719 43.7892C48.3785 43.0846 47.5423 42.6284 46.6287 42.5107C45.7151 42.393 44.7905 42.6224 44.0379 43.1535L35.9785 35.0941L36.3223 34.7473L51.8754 40.9691L54.3285 47.3504L47.3504 54.3285L40.9691 51.8754L34.7473 36.3223ZM46.1566 43.7285C46.7184 43.7293 47.2624 43.9249 47.6961 44.2819C48.1298 44.6388 48.4263 45.1351 48.5351 45.6862C48.644 46.2373 48.5584 46.809 48.2929 47.3041C48.0275 47.7991 47.5986 48.1868 47.0794 48.4011C46.5602 48.6154 45.9827 48.643 45.4454 48.4793C44.908 48.3156 44.4441 47.9707 44.1326 47.5033C43.821 47.0359 43.6812 46.4749 43.7369 45.916C43.7925 45.357 44.0403 44.8347 44.4379 44.4379C44.8942 43.983 45.5124 43.7279 46.1566 43.7285ZM49.8348 58.3191L48.2723 55.1941L55.1879 48.2785L58.3129 49.841L49.8348 58.3191Z" fill="black"/>
<path d="M31.9536 53.4379C31.8341 53.325 31.6758 53.262 31.5114 53.262C31.3469 53.262 31.1887 53.325 31.0692 53.4379L30.2755 54.2317C28.1573 51.3568 26.9887 47.8928 26.9327 44.3223C26.8767 40.7518 27.936 37.2528 29.963 34.3129C30.5702 34.6471 31.2695 34.7754 31.9558 34.6788C32.6422 34.5821 33.2788 34.2656 33.7701 33.7767C34.2615 33.2878 34.5812 32.6529 34.6813 31.967C34.7814 31.2811 34.6566 30.5812 34.3255 29.9723C37.2653 27.9453 40.7643 26.886 44.3348 26.9421C47.9053 26.9981 51.3694 28.1666 54.2442 30.2848L53.438 31.0692C53.3217 31.1864 53.2566 31.3448 53.2567 31.5098C53.2562 31.592 53.272 31.6736 53.3031 31.7497C53.3342 31.8259 53.38 31.8951 53.438 31.9535L56.1942 34.6879C56.3113 34.8043 56.4697 34.8697 56.6348 34.8697C56.7999 34.8697 56.9584 34.8043 57.0755 34.6879L59.8161 31.9473C59.8742 31.8892 59.9203 31.8203 59.9517 31.7444C59.9832 31.6686 59.9994 31.5872 59.9994 31.5051C59.9994 31.423 59.9832 31.3416 59.9517 31.2658C59.9203 31.1899 59.8742 31.121 59.8161 31.0629L57.0755 28.3223C56.9584 28.2059 56.7999 28.1406 56.6348 28.1406C56.4697 28.1406 56.3113 28.2059 56.1942 28.3223L55.1348 29.3754C52.5239 27.4107 49.4371 26.1763 46.1914 25.7991C42.9457 25.4218 39.6581 25.9151 36.6661 27.2285L40.2692 23.6348C40.6778 23.83 41.1422 23.8742 41.5803 23.7595C42.0183 23.6448 42.4015 23.3787 42.662 23.0084C42.9225 22.638 43.0433 22.1873 43.0032 21.7363C42.963 21.2853 42.7643 20.8632 42.4425 20.5447C42.1206 20.2262 41.6964 20.032 41.245 19.9966C40.7936 19.9612 40.3442 20.0868 39.9766 20.3511C39.609 20.6155 39.347 21.0015 39.2369 21.4408C39.1269 21.88 39.1759 22.344 39.3755 22.7504L33.2942 28.841C32.6768 28.4269 31.9347 28.2399 31.1947 28.3121C30.4547 28.3843 29.7627 28.7112 29.237 29.2369C28.7112 29.7627 28.3844 30.4546 28.3121 31.1946C28.2399 31.9346 28.4269 32.6767 28.8411 33.2942L22.7505 39.3754C22.3424 39.1766 21.8771 39.1289 21.4371 39.2407C20.9972 39.3526 20.6112 39.6168 20.3477 39.9864C20.0842 40.3559 19.9602 40.807 19.9978 41.2594C20.0354 41.7117 20.2322 42.1361 20.5532 42.4571C20.8742 42.778 21.2985 42.9748 21.7509 43.0124C22.2033 43.0501 22.6543 42.9261 23.0239 42.6626C23.3935 42.3991 23.6577 42.013 23.7695 41.5731C23.8814 41.1332 23.8337 40.6679 23.6348 40.2598L27.238 36.666C25.9232 39.6572 25.4283 42.9444 25.8039 46.1901C26.1796 49.4358 27.4123 52.523 29.3755 55.1348L28.3192 56.1942C28.2028 56.3113 28.1375 56.4697 28.1375 56.6348C28.1375 56.7999 28.2028 56.9583 28.3192 57.0754L31.0598 59.816C31.1765 59.9334 31.335 59.9997 31.5005 60.0004C31.5829 60.0005 31.6646 59.9842 31.7408 59.9526C31.8169 59.9209 31.8861 59.8745 31.9442 59.816L34.688 57.0754C34.8044 56.9583 34.8697 56.7999 34.8697 56.6348C34.8697 56.4697 34.8044 56.3113 34.688 56.1942L31.9536 53.4379ZM56.6411 29.641L58.4973 31.4973L56.6411 33.3535L54.7848 31.4973L56.6411 29.641ZM40.6255 21.4473C40.7183 21.3537 40.8369 21.2897 40.9662 21.2636C41.0955 21.2375 41.2296 21.2504 41.3515 21.3006C41.4734 21.3508 41.5777 21.4361 41.6511 21.5457C41.7245 21.6553 41.7637 21.7842 41.7637 21.916C41.7637 22.0479 41.7245 22.1768 41.6511 22.2864C41.5777 22.396 41.4734 22.4813 41.3515 22.5315C41.2296 22.5817 41.0955 22.5946 40.9662 22.5685C40.8369 22.5424 40.7183 22.4784 40.6255 22.3848C40.5639 22.3233 40.515 22.2502 40.4816 22.1698C40.4483 22.0893 40.4311 22.0031 40.4311 21.916C40.4311 21.829 40.4483 21.7428 40.4816 21.6623C40.515 21.5819 40.5639 21.5088 40.6255 21.4473ZM30.1255 30.1254C30.3069 29.9431 30.5227 29.7984 30.7602 29.6996C30.9978 29.6009 31.2526 29.55 31.5098 29.55C31.7671 29.55 32.0218 29.6009 32.2594 29.6996C32.497 29.7984 32.7127 29.9431 32.8942 30.1254C33.1685 30.3993 33.3555 30.7484 33.4313 31.1286C33.5072 31.5088 33.4686 31.9029 33.3204 32.2611C33.1722 32.6193 32.921 32.9255 32.5987 33.141C32.2764 33.3564 31.8975 33.4714 31.5098 33.4714C31.1222 33.4714 30.7432 33.3564 30.4209 33.141C30.0986 32.9255 29.8475 32.6193 29.6993 32.2611C29.5511 31.9029 29.5125 31.5088 29.5883 31.1286C29.6642 30.7484 29.8511 30.3993 30.1255 30.1254ZM22.388 41.5629C22.2604 41.6693 22.0976 41.7242 21.9316 41.7167C21.7656 41.7092 21.6085 41.6399 21.491 41.5224C21.3735 41.4049 21.3042 41.2477 21.2967 41.0818C21.2892 40.9158 21.3441 40.753 21.4505 40.6254C21.5755 40.5025 21.7439 40.4336 21.9192 40.4336C22.0946 40.4336 22.2629 40.5025 22.388 40.6254C22.4496 40.687 22.4984 40.76 22.5318 40.8405C22.5651 40.9209 22.5823 41.0071 22.5823 41.0942C22.5823 41.1812 22.5651 41.2675 22.5318 41.3479C22.4984 41.4283 22.4496 41.5014 22.388 41.5629ZM31.5098 58.4785L29.6536 56.6223L31.5098 54.766L33.3661 56.6223L31.5098 58.4785Z" fill="black"/>
</g>
<defs>
<clipPath id="clip0_1629_2191">
<rect width="40" height="40" fill="white" transform="translate(20 20)"/>
</clipPath>
</defs>
</svg>
