<svg width="629" height="502" viewBox="0 0 629 502" fill="none" xmlns="http://www.w3.org/2000/svg">
<g filter="url(#filter0_f_3839_207)">
<circle cx="477" cy="152" r="102" fill="#FFF1BE" fill-opacity="0.32"/>
</g>
<rect x="108.5" y="112.5" width="453" height="293" rx="9.5" fill="white" stroke="black"/>
<line x1="108" y1="151.5" x2="562" y2="151.5" stroke="#FF92B2"/>
<circle cx="141.378" cy="133.049" r="4.08702" fill="#FF92B2"/>
<circle cx="156.818" cy="133.049" r="4.08702" fill="#FF92B2"/>
<circle cx="172.258" cy="133.049" r="4.08702" fill="#FF92B2"/>
<path d="M112.5 156.5H200C203.038 156.5 205.5 158.962 205.5 162V395C205.5 398.038 203.038 400.5 200 400.5H120C115.858 400.5 112.5 397.142 112.5 393V156.5Z" fill="#F5EFD9" stroke="#FF92B2"/>
<path d="M483.5 161C483.5 158.515 485.515 156.5 488 156.5H556.5V395C556.5 398.038 554.038 400.5 551 400.5H491C486.858 400.5 483.5 397.142 483.5 393V161Z" fill="#F5EFD9" stroke="#FF92B2"/>
<rect x="118.984" y="176.559" width="79.328" height="6.10215" fill="#F7BE08"/>
<rect x="118.984" y="163.134" width="18.3065" height="3.66129" fill="#F7BE08"/>
<rect x="139.731" y="163.134" width="18.3065" height="3.66129" fill="#F7BE08"/>
<rect x="180.006" y="163.134" width="18.3065" height="3.66129" fill="#F7BE08"/>
<rect x="225.162" y="198.527" width="18.3065" height="2.44086" fill="#F7BE08"/>
<rect x="486.334" y="161.914" width="9.76344" height="2.44086" fill="#F7BE08"/>
<rect x="500.979" y="161.914" width="9.76344" height="2.44086" fill="#F7BE08"/>
<rect x="118.984" y="187.543" width="79.328" height="6.10215" fill="#F7BE08"/>
<rect x="118.984" y="198.527" width="79.328" height="6.10215" fill="#F7BE08"/>
<rect x="118.984" y="209.511" width="79.328" height="6.10215" fill="#F7BE08"/>
<rect x="487.555" y="176.559" width="64.6828" height="24.4086" fill="#F7BE08"/>
<rect x="487.555" y="207.07" width="64.6828" height="8.54301" fill="#F7BE08"/>
<rect x="487.555" y="218.054" width="64.6828" height="8.54301" fill="#F7BE08"/>
<rect x="487.555" y="229.038" width="64.6828" height="8.54301" fill="#F7BE08"/>
<rect x="118.984" y="220.495" width="79.328" height="6.10215" fill="#F7BE08"/>
<line x1="113" y1="169.5" x2="204" y2="169.5" stroke="#FF92B2"/>
<line x1="483" y1="169.5" x2="557" y2="169.5" stroke="#FF92B2"/>
<rect x="222.5" y="202.5" width="129" height="164" rx="3.5" fill="#FF92B2" stroke="#ABD8FF"/>
<rect x="375.274" y="221.715" width="18.3065" height="2.44086" fill="#F7BE08"/>
<rect x="372.113" y="225.876" width="91.7527" height="116.161" rx="3.5" fill="#FF92B2" stroke="#ABD8FF"/>
<ellipse cx="352.5" cy="284" rx="2.5" ry="2" fill="#ABD8FF"/>
<path d="M372 284L367 281.113L367 286.887L372 284ZM353 284.5L367.5 284.5L367.5 283.5L353 283.5L353 284.5Z" fill="#ABD8FF"/>
<rect x="585" y="502" width="585" height="282" transform="rotate(180 585 502)" fill="url(#paint0_linear_3839_207)"/>
<circle cx="86" cy="334" r="71.5" fill="white" stroke="#8A5DD6"/>
<g clip-path="url(#clip0_3839_207)">
<path d="M121.376 350.386L113.996 346.696L109.299 334.478C109.244 334.334 109.16 334.202 109.051 334.092C108.943 333.982 108.813 333.895 108.669 333.837L79.5263 322.188C79.3226 322.107 79.0995 322.087 78.8847 322.131C78.6698 322.175 78.4725 322.281 78.317 322.435L74.4301 326.322C74.2775 326.478 74.1734 326.674 74.1304 326.888C74.0875 327.102 74.1076 327.323 74.1882 327.526L85.8376 356.669C85.8954 356.812 85.9822 356.942 86.0925 357.051C86.2029 357.159 86.3344 357.244 86.4788 357.299L98.6963 361.996L102.386 369.376C102.464 369.539 102.58 369.68 102.724 369.789C102.868 369.898 103.035 369.97 103.213 370C103.273 370.006 103.333 370.006 103.393 370C103.691 369.999 103.976 369.88 104.186 369.668L121.669 352.186C121.798 352.062 121.895 351.909 121.952 351.739C122.01 351.57 122.027 351.39 122.001 351.213C121.971 351.035 121.898 350.867 121.789 350.723C121.681 350.579 121.539 350.464 121.376 350.386ZM76.5451 327.38L77.1695 326.761L91.6763 341.268C90.7203 342.622 90.3074 344.287 90.5192 345.931C90.7311 347.576 91.5524 349.081 92.8206 350.149C94.0888 351.217 95.7117 351.77 97.3683 351.7C99.0249 351.629 100.595 350.939 101.767 349.767C102.94 348.594 103.629 347.024 103.7 345.368C103.771 343.711 103.218 342.088 102.149 340.82C101.081 339.552 99.5761 338.731 97.9316 338.519C96.2871 338.307 94.6229 338.72 93.2682 339.676L78.7613 325.169L79.3801 324.545L107.376 335.744L111.791 347.23L99.2307 359.791L87.7445 355.375L76.5451 327.38ZM97.0819 340.711C98.093 340.712 99.0723 341.064 99.853 341.707C100.634 342.349 101.167 343.243 101.363 344.235C101.559 345.227 101.405 346.256 100.927 347.147C100.449 348.038 99.6775 348.736 98.7429 349.121C97.8083 349.507 96.7688 349.557 95.8016 349.262C94.8345 348.968 93.9993 348.347 93.4386 347.505C92.8778 346.664 92.6261 345.654 92.7263 344.648C92.8266 343.642 93.2725 342.702 93.9882 341.988C94.8095 341.169 95.9223 340.71 97.0819 340.711ZM103.703 366.974L100.89 361.349L113.338 348.901L118.963 351.713L103.703 366.974Z" fill="#8A5DD6"/>
<path d="M71.5166 358.188C71.3015 357.985 71.0167 357.872 70.7207 357.872C70.4247 357.872 70.1399 357.985 69.9248 358.188L68.496 359.617C64.6833 354.442 62.5799 348.207 62.4791 341.78C62.3783 335.353 64.285 329.055 67.9335 323.763C69.0266 324.365 70.2852 324.596 71.5207 324.422C72.7561 324.248 73.902 323.678 74.7864 322.798C75.6708 321.918 76.2463 320.775 76.4265 319.541C76.6067 318.306 76.382 317.046 75.786 315.95C81.0778 312.302 87.376 310.395 93.8029 310.496C100.23 310.597 106.465 312.7 111.64 316.513L110.189 317.925C109.979 318.136 109.862 318.421 109.862 318.718C109.861 318.866 109.89 319.013 109.946 319.15C110.002 319.287 110.084 319.411 110.189 319.516L115.15 324.438C115.361 324.648 115.646 324.765 115.943 324.765C116.24 324.765 116.525 324.648 116.736 324.438L121.669 319.505C121.774 319.401 121.857 319.277 121.913 319.14C121.97 319.004 121.999 318.857 121.999 318.709C121.999 318.561 121.97 318.415 121.913 318.278C121.857 318.142 121.774 318.018 121.669 317.913L116.736 312.98C116.525 312.771 116.24 312.653 115.943 312.653C115.646 312.653 115.361 312.771 115.15 312.98L113.243 314.876C108.543 311.339 102.987 309.118 97.1447 308.438C91.3025 307.759 85.3847 308.647 79.9991 311.011L86.4848 304.543C87.2201 304.894 88.0562 304.974 88.8447 304.767C89.6331 304.561 90.3229 304.082 90.7918 303.415C91.2607 302.748 91.4782 301.937 91.4059 301.126C91.3336 300.314 90.976 299.554 90.3967 298.981C89.8173 298.407 89.0537 298.058 88.2412 297.994C87.4286 297.93 86.6198 298.156 85.9581 298.632C85.2965 299.108 84.8247 299.803 84.6266 300.593C84.4286 301.384 84.5169 302.219 84.876 302.951L73.9298 313.914C72.8184 313.168 71.4826 312.832 70.1506 312.962C68.8186 313.092 67.5731 313.68 66.6268 314.627C65.6804 315.573 65.092 316.818 64.9621 318.15C64.8321 319.482 65.1686 320.818 65.9141 321.93L54.951 332.876C54.2165 332.518 53.3789 332.432 52.5871 332.633C51.7952 332.835 51.1004 333.31 50.626 333.976C50.1517 334.641 49.9285 335.453 49.9963 336.267C50.064 337.081 50.4182 337.845 50.996 338.423C51.5737 339.001 52.3376 339.355 53.1518 339.422C53.9661 339.49 54.778 339.267 55.4432 338.793C56.1085 338.318 56.584 337.624 56.7854 336.832C56.9867 336.04 56.9008 335.202 56.5429 334.468L63.0285 327.999C60.662 333.383 59.7711 339.3 60.4473 345.142C61.1235 350.984 63.3423 356.541 66.876 361.243L64.9748 363.15C64.7652 363.36 64.6476 363.646 64.6476 363.943C64.6476 364.24 64.7652 364.525 64.9748 364.736L69.9079 369.669C70.1179 369.88 70.4031 370 70.701 370.001C70.8495 370.001 70.9965 369.972 71.1336 369.915C71.2707 369.858 71.3951 369.774 71.4998 369.669L76.4385 364.736C76.6481 364.525 76.7657 364.24 76.7657 363.943C76.7657 363.646 76.6481 363.36 76.4385 363.15L71.5166 358.188ZM115.954 315.354L119.295 318.695L115.954 322.036L112.613 318.695L115.954 315.354ZM87.126 300.605C87.2932 300.437 87.5067 300.322 87.7393 300.275C87.972 300.228 88.2134 300.251 88.4329 300.341C88.6524 300.432 88.8401 300.585 88.9722 300.782C89.1043 300.98 89.1748 301.212 89.1748 301.449C89.1748 301.686 89.1043 301.918 88.9722 302.116C88.8401 302.313 88.6524 302.466 88.4329 302.557C88.2134 302.647 87.972 302.67 87.7393 302.623C87.5067 302.576 87.2932 302.461 87.126 302.293C87.0151 302.182 86.9272 302.05 86.8671 301.906C86.8071 301.761 86.7762 301.606 86.7762 301.449C86.7762 301.292 86.8071 301.137 86.8671 300.992C86.9272 300.848 87.0151 300.716 87.126 300.605ZM68.226 316.226C68.5527 315.898 68.941 315.637 69.3686 315.459C69.7963 315.282 70.2548 315.19 70.7179 315.19C71.181 315.19 71.6395 315.282 72.0672 315.459C72.4948 315.637 72.8831 315.898 73.2098 316.226C73.7036 316.719 74.04 317.347 74.1766 318.032C74.3131 318.716 74.2436 319.425 73.9768 320.07C73.7101 320.715 73.258 321.266 72.6779 321.654C72.0978 322.042 71.4157 322.249 70.7179 322.249C70.0201 322.249 69.338 322.042 68.7579 321.654C68.1778 321.266 67.7257 320.715 67.4589 320.07C67.1922 319.425 67.1227 318.716 67.2592 318.032C67.3957 317.347 67.7322 316.719 68.226 316.226ZM54.2985 336.813C54.0688 337.005 53.7758 337.104 53.4771 337.09C53.1783 337.077 52.8954 336.952 52.684 336.74C52.4725 336.529 52.3478 336.246 52.3343 335.947C52.3208 335.649 52.4195 335.356 52.611 335.126C52.8361 334.905 53.1391 334.781 53.4548 334.781C53.7704 334.781 54.0734 334.905 54.2985 335.126C54.4094 335.237 54.4974 335.368 54.5574 335.513C54.6174 335.658 54.6483 335.813 54.6483 335.97C54.6483 336.126 54.6174 336.282 54.5574 336.426C54.4974 336.571 54.4094 336.703 54.2985 336.813ZM70.7179 367.261L67.3766 363.92L70.7179 360.579L74.0591 363.92L70.7179 367.261Z" fill="#8A5DD6"/>
</g>
<defs>
<filter id="filter0_f_3839_207" x="325" y="0" width="304" height="304" filterUnits="userSpaceOnUse" color-interpolation-filters="sRGB">
<feFlood flood-opacity="0" result="BackgroundImageFix"/>
<feBlend mode="normal" in="SourceGraphic" in2="BackgroundImageFix" result="shape"/>
<feGaussianBlur stdDeviation="25" result="effect1_foregroundBlur_3839_207"/>
</filter>
<linearGradient id="paint0_linear_3839_207" x1="877.5" y1="502" x2="877.5" y2="784" gradientUnits="userSpaceOnUse">
<stop stop-color="white" stop-opacity="0.49"/>
<stop offset="1" stop-color="white" stop-opacity="0"/>
</linearGradient>
<clipPath id="clip0_3839_207">
<rect width="72" height="72" fill="white" transform="translate(50 298)"/>
</clipPath>
</defs>
</svg>
