<svg width="80" height="80" viewBox="0 0 80 80" fill="none" xmlns="http://www.w3.org/2000/svg">
<circle cx="40" cy="40" r="39.5" fill="white" stroke="#CFC9D4"/>
<path d="M38.8306 21.25C38.6648 21.25 38.5059 21.3158 38.3887 21.4331C38.2715 21.5503 38.2056 21.7092 38.2056 21.875V56.9119C38.2056 57.0776 38.2715 57.2366 38.3887 57.3538C38.5059 57.471 38.6648 57.5369 38.8306 57.5369H51.6919C51.8576 57.5369 52.0166 57.471 52.1338 57.3538C52.251 57.2366 52.3169 57.0776 52.3169 56.9119V21.875C52.3169 21.7092 52.251 21.5503 52.1338 21.4331C52.0166 21.3158 51.8576 21.25 51.6919 21.25H38.8306ZM39.4556 56.2869V22.5H51.0669V24.92H48.9831C48.8173 24.92 48.6584 24.9858 48.5412 25.1031C48.424 25.2203 48.3581 25.3792 48.3581 25.545C48.3581 25.7108 48.424 25.8697 48.5412 25.9869C48.6584 26.1042 48.8173 26.17 48.9831 26.17H51.0669V27.9975H47.755C47.5892 27.9975 47.4303 28.0633 47.313 28.1806C47.1958 28.2978 47.13 28.4567 47.13 28.6225C47.13 28.7883 47.1958 28.9472 47.313 29.0644C47.4303 29.1817 47.5892 29.2475 47.755 29.2475H51.0669V31.075H48.9831C48.8173 31.075 48.6584 31.1408 48.5412 31.2581C48.424 31.3753 48.3581 31.5342 48.3581 31.7C48.3581 31.8658 48.424 32.0247 48.5412 32.1419C48.6584 32.2592 48.8173 32.325 48.9831 32.325H51.0669V34.1525H47.755C47.5892 34.1525 47.4303 34.2183 47.313 34.3356C47.1958 34.4528 47.13 34.6117 47.13 34.7775C47.13 34.9433 47.1958 35.1022 47.313 35.2194C47.4303 35.3367 47.5892 35.4025 47.755 35.4025H51.0669V37.23H48.9831C48.8173 37.23 48.6584 37.2958 48.5412 37.4131C48.424 37.5303 48.3581 37.6892 48.3581 37.855C48.3581 38.0208 48.424 38.1797 48.5412 38.2969C48.6584 38.4142 48.8173 38.48 48.9831 38.48H51.0669V40.3075H47.755C47.5892 40.3075 47.4303 40.3734 47.313 40.4906C47.1958 40.6078 47.13 40.7667 47.13 40.9325C47.13 41.0983 47.1958 41.2572 47.313 41.3744C47.4303 41.4917 47.5892 41.5575 47.755 41.5575H51.0669V43.385H48.9831C48.8173 43.385 48.6584 43.4508 48.5412 43.5681C48.424 43.6853 48.3581 43.8442 48.3581 44.01C48.3581 44.1758 48.424 44.3347 48.5412 44.4519C48.6584 44.5692 48.8173 44.635 48.9831 44.635H51.0669V46.4625H47.755C47.5892 46.4625 47.4303 46.5284 47.313 46.6456C47.1958 46.7628 47.13 46.9217 47.13 47.0875C47.13 47.2533 47.1958 47.4122 47.313 47.5294C47.4303 47.6467 47.5892 47.7125 47.755 47.7125H51.0669V49.54H48.9831C48.8173 49.54 48.6584 49.6059 48.5412 49.7231C48.424 49.8403 48.3581 49.9992 48.3581 50.165C48.3581 50.3308 48.424 50.4897 48.5412 50.6069C48.6584 50.7242 48.8173 50.79 48.9831 50.79H51.0669V52.6175H47.755C47.5892 52.6175 47.4303 52.6833 47.313 52.8006C47.1958 52.9178 47.13 53.0767 47.13 53.2425C47.13 53.4083 47.1958 53.5672 47.313 53.6844C47.4303 53.8017 47.5892 53.8675 47.755 53.8675H51.0669V56.2875H39.4556V56.2869ZM30.5756 21.25C29.8087 21.2508 29.0735 21.5558 28.5312 22.0981C27.9889 22.6404 27.6839 23.3756 27.6831 24.1425V52.7094C27.6848 52.8058 27.7092 52.9004 27.7544 52.9856C27.765 53.0063 27.7706 53.0294 27.7831 53.0488L31.28 58.4644C31.3366 58.5521 31.4144 58.6242 31.5061 58.6742C31.5978 58.7241 31.7006 58.7503 31.805 58.7503C31.9094 58.7503 32.0122 58.7241 32.1039 58.6742C32.1956 58.6242 32.2733 58.5521 32.33 58.4644L35.8269 53.0488C35.8394 53.0294 35.8456 53.0063 35.8556 52.9856C35.8656 52.9656 35.8756 52.9469 35.8831 52.9256C35.9104 52.8569 35.9252 52.7839 35.9269 52.71V24.1425C35.9269 22.5475 34.6325 21.25 33.0419 21.25H30.5762H30.5756ZM34.6769 52.0844H32.43V31.165H34.6769V52.0844ZM28.9331 31.165H31.18V52.0844H28.9331V31.165ZM34.6762 29.915H28.9331V28.0194H34.6762V29.915ZM31.8044 56.9731L29.455 53.335H34.1531L31.8044 56.9731ZM34.6762 24.1425V26.7694H28.9331V24.1425C28.9336 23.707 29.1068 23.2895 29.4147 22.9816C29.7227 22.6737 30.1401 22.5005 30.5756 22.5H33.0412C33.4757 22.5015 33.8918 22.6753 34.1984 22.9832C34.5049 23.2911 34.6767 23.708 34.6762 24.1425Z" fill="black"/>
</svg>
