<svg width="320" height="320" viewBox="0 0 320 320" fill="none" xmlns="http://www.w3.org/2000/svg">
<rect x="0.5" y="0.5" width="159" height="159" rx="79.5" fill="#F5EFD9" stroke="black"/>
<g clip-path="url(#clip0_3805_1444)">
<path d="M101.325 72.3469C102.91 71.3494 104.045 69.8157 104.532 67.9966C105.044 66.0841 104.781 64.0864 103.791 62.3718C101.796 58.9163 97.4203 57.6755 93.9195 59.5203L87.2625 47.99C86.382 46.465 84.9553 45.3728 83.2452 44.9146C81.5349 44.4563 79.753 44.6888 78.2283 45.5694C76.7033 46.4499 75.6111 47.8766 75.1528 49.5866C74.8075 50.8752 74.8548 52.2044 75.2756 53.4338C72.1136 61.4022 65.4214 69.5286 56.3355 76.4613C56.1935 76.3656 56.0368 76.2939 55.8716 76.2491C55.6734 76.196 55.4667 76.1824 55.2632 76.2092C55.0598 76.236 54.8636 76.3026 54.6859 76.4052L46.1913 81.3097C43.3334 82.9597 41.2863 85.6347 40.4269 88.8419C39.5675 92.0491 40.0028 95.3894 41.653 98.2472C43.947 102.221 48.123 104.444 52.4116 104.444C54.5136 104.444 56.6428 103.91 58.5903 102.786L59.0766 102.505L68.4447 114.736C69.0919 115.581 69.9942 116.078 71.0548 116.175C71.1753 116.186 71.2945 116.191 71.4127 116.191C72.3342 116.191 73.1813 115.861 73.8802 115.227L76.4602 112.886C77.8958 111.583 78.093 109.437 76.9188 107.895L68.1102 96.3214C78.5727 91.995 88.8611 90.2997 97.2766 91.5366C98.5514 92.9955 100.388 93.7963 102.266 93.7961C103.423 93.7965 104.56 93.4913 105.561 92.9114C108.72 91.0882 109.805 87.0355 107.982 83.8772L101.325 72.3469ZM101.085 63.9343C101.658 64.9261 101.81 66.0816 101.513 67.1878C101.242 68.2005 100.624 69.0599 99.7605 69.6375L95.4836 62.2297C97.4891 61.2441 99.9514 61.9708 101.085 63.9343ZM52.4064 101.32C49.1991 101.32 46.075 99.6564 44.3591 96.6847C43.1264 94.5497 42.8019 92.0518 43.4453 89.6508C44.0886 87.2499 45.6186 85.2488 47.7536 84.0161L54.8952 79.8928L64.1692 95.9561L57.0277 100.079C55.6234 100.893 54.0292 101.321 52.4064 101.32ZM74.36 110.572L71.7802 112.913C71.6438 113.037 71.5186 113.079 71.3359 113.062C71.1525 113.046 71.0375 112.982 70.9255 112.836L61.8058 100.929L65.8936 98.5691L74.432 109.787C74.5211 109.903 74.5632 110.048 74.5498 110.194C74.5365 110.339 74.4687 110.474 74.36 110.572ZM66.4366 93.6328L58.0409 79.0911C66.7864 72.456 73.4638 64.7074 77.1559 56.9388L95.1788 88.1553C86.6049 87.4685 76.5553 89.3768 66.4366 93.6328ZM103.999 90.2049C102.333 91.1671 100.195 90.5938 99.2333 88.9282L78.5138 53.0408C77.552 51.3749 78.1248 49.2372 79.7906 48.2755C80.3158 47.9712 80.912 47.811 81.5189 47.8111C81.8242 47.8111 82.1324 47.8514 82.4363 47.9328C83.3402 48.175 84.0931 48.7502 84.5561 49.5524L105.275 85.4396C106.237 87.1055 105.665 89.2432 103.999 90.2049ZM105.698 61.271C105.266 60.5236 105.523 59.568 106.27 59.1366L112.542 55.5152C113.29 55.0836 114.245 55.3399 114.677 56.0871C115.108 56.8344 114.852 57.79 114.105 58.2214L107.832 61.8428C107.655 61.9455 107.459 62.0122 107.255 62.039C107.052 62.0658 106.845 62.0523 106.647 61.9992C106.448 61.9461 106.263 61.8544 106.1 61.7295C105.937 61.6045 105.801 61.4487 105.698 61.271ZM98.4667 51.2077L102.287 44.5911C102.718 43.8439 103.674 43.5875 104.421 44.0193C105.168 44.4507 105.425 45.4063 104.993 46.1536L101.173 52.7702C101.07 52.9479 100.934 53.1037 100.771 53.2287C100.608 53.3536 100.422 53.4452 100.224 53.4983C100.026 53.5515 99.8193 53.565 99.6159 53.5382C99.4124 53.5114 99.2163 53.4447 99.0386 53.3421C98.2911 52.9107 98.0352 51.955 98.4667 51.2077ZM120 71.0028C120 71.8658 119.3 72.5653 118.438 72.5653H110.798C109.935 72.5653 109.235 71.8658 109.235 71.0028C109.235 70.1399 109.935 69.4403 110.798 69.4403H118.438C119.3 69.4403 120 70.1399 120 71.0028Z" fill="black"/>
</g>
<rect x="160.5" y="160.5" width="159" height="159" rx="79.5" fill="#F5EFD9" stroke="black"/>
<g clip-path="url(#clip1_3805_1444)">
<path d="M241.979 238.024C241.833 237.878 241.661 237.763 241.471 237.684C241.282 237.606 241.078 237.565 240.873 237.565C240.668 237.565 240.464 237.606 240.275 237.684C240.085 237.763 239.913 237.878 239.768 238.024C239.158 238.633 239.158 239.622 239.768 240.233C240.379 240.842 241.368 240.842 241.979 240.233C242.588 239.622 242.588 238.633 241.979 238.024ZM261.865 218.136C258.811 215.083 253.869 215.083 250.816 218.136C247.771 221.181 247.77 226.137 250.816 229.185C253.862 232.229 258.819 232.231 261.865 229.185C264.917 226.132 264.918 221.189 261.865 218.136ZM259.655 226.975C257.828 228.802 254.854 228.802 253.026 226.975C251.199 225.147 251.198 222.173 253.026 220.346C254.857 218.514 257.823 218.514 259.655 220.346C261.487 222.177 261.487 225.143 259.655 226.975Z" fill="black"/>
<path d="M279.542 200.458C279.391 200.306 279.209 200.187 279.01 200.108C278.81 200.029 278.596 199.993 278.381 200.001C278.028 200.014 269.616 200.352 259.617 203.886C251.605 206.715 244.926 210.766 239.767 215.925C238.597 217.096 237.477 218.316 236.409 219.581C231.308 216.578 227.22 217.519 224.636 218.902C218.686 222.087 215.003 230.733 215.003 236.917C215.003 237.332 215.168 237.729 215.461 238.022C215.754 238.315 216.151 238.48 216.566 238.48C216.771 238.48 216.974 238.439 217.164 238.361C217.353 238.282 217.526 238.167 217.671 238.022C220.809 234.884 224.679 235.08 225.944 235.247L226.491 235.794C225.414 238.356 224.546 240.905 223.91 243.383C223.68 244.28 223.758 245.229 224.099 246.097C222.595 246.79 221.144 247.808 219.88 249.072C215.858 253.094 215.041 262.896 215.008 263.312C214.99 263.537 215.022 263.763 215.1 263.975C215.178 264.187 215.301 264.38 215.461 264.539C215.621 264.699 215.813 264.822 216.025 264.9C216.237 264.979 216.463 265.01 216.689 264.992C217.104 264.96 226.907 264.143 230.929 260.121C232.192 258.858 233.21 257.406 233.903 255.902C234.822 256.264 235.768 256.308 236.619 256.09C239.096 255.454 241.644 254.587 244.206 253.51L244.754 254.057C244.92 255.322 245.116 259.192 241.978 262.33C241.76 262.548 241.611 262.827 241.551 263.13C241.49 263.433 241.521 263.747 241.64 264.032C241.758 264.318 241.958 264.562 242.215 264.734C242.472 264.905 242.774 264.997 243.083 264.997C249.267 264.997 257.913 261.314 261.098 255.364C262.481 252.78 263.422 248.692 260.419 243.591C261.684 242.523 262.904 241.403 264.075 240.233C269.234 235.074 273.285 228.395 276.114 220.383C279.648 210.384 279.986 201.972 279.999 201.619C280.014 201.185 279.849 200.765 279.542 200.458ZM218.496 233.557C219.467 228.859 222.286 223.705 226.111 221.658C228.667 220.29 231.461 220.424 234.432 222.05C231.894 225.39 229.695 228.975 227.867 232.751C227.844 232.737 227.562 232.383 227.04 232.265C226.825 232.217 222.691 231.327 218.496 233.557ZM228.719 257.911C226.57 260.059 221.531 261.192 218.345 261.655C218.808 258.47 219.941 253.43 222.089 251.282C223.293 250.078 224.688 249.166 226.09 248.653L231.348 253.911C230.834 255.313 229.922 256.708 228.719 257.911ZM235.842 253.063C235.39 253.179 234.866 253.009 234.477 252.62L231.417 249.56L227.381 245.524C226.992 245.134 226.822 244.61 226.937 244.159C227.438 242.21 228.092 240.21 228.888 238.191L241.809 251.112C239.79 251.908 237.791 252.563 235.842 253.063ZM258.343 253.889C256.296 257.714 251.141 260.533 246.444 261.504C247.942 258.686 248.272 255.098 247.725 252.923C247.598 252.417 247.268 252.163 247.25 252.133C251.026 250.306 254.61 248.106 257.951 245.568C259.577 248.539 259.711 251.334 258.343 253.889ZM261.866 238.023C260.437 239.45 258.932 240.8 257.359 242.066C253.556 245.128 249.37 247.723 244.904 249.788L230.213 235.097C232.278 230.631 234.872 226.444 237.934 222.641C239.21 221.058 240.57 219.542 241.977 218.135C246.606 213.506 252.58 209.822 259.738 207.17L272.831 220.262C270.179 227.42 266.495 233.394 261.866 238.023ZM273.955 216.967L263.034 206.045C268.984 204.197 274.16 203.505 276.744 203.257C276.495 205.841 275.803 211.017 273.955 216.967Z" fill="black"/>
<path d="M237.558 264.539C236.948 263.929 235.958 263.929 235.348 264.539L230.93 268.96C230.32 269.57 230.32 270.559 230.93 271.169C231.54 271.779 232.53 271.779 233.14 271.169L237.559 266.749C238.169 266.138 238.168 265.149 237.558 264.539ZM215.462 242.442C214.852 241.832 213.863 241.832 213.252 242.442L208.832 246.861C208.222 247.471 208.221 248.46 208.831 249.071C209.441 249.681 210.43 249.681 211.041 249.071L215.461 244.652C216.072 244.042 216.072 243.053 215.462 242.442ZM226.51 266.75C225.9 266.14 224.911 266.14 224.3 266.75L213.716 277.333C213.106 277.943 213.106 278.932 213.716 279.542C214.326 280.153 215.315 280.153 215.926 279.543L226.51 268.96C227.12 268.35 227.12 267.36 226.51 266.75ZM214.01 266.75C213.4 266.14 212.411 266.14 211.8 266.75L201.216 277.333C200.606 277.943 200.606 278.932 201.216 279.542C201.826 280.153 202.815 280.153 203.426 279.543L214.01 268.96C214.62 268.35 214.62 267.36 214.01 266.75ZM213.251 253.49C212.641 252.88 211.651 252.88 211.041 253.491L200.458 264.075C199.848 264.685 199.848 265.674 200.458 266.285C201.068 266.895 202.058 266.895 202.668 266.285L213.251 255.7C213.861 255.09 213.861 254.101 213.251 253.49ZM248.607 231.394C247.997 230.783 247.008 230.783 246.397 231.394L244.188 233.603C243.578 234.213 243.578 235.203 244.188 235.813C244.798 236.423 245.787 236.423 246.398 235.813L248.607 233.603C249.217 232.993 249.217 232.004 248.607 231.394Z" fill="black"/>
</g>
<rect x="0.5" y="160.5" width="159" height="159" fill="#F7BE08" stroke="black"/>
<rect x="160.5" y="0.5" width="159" height="159" fill="#FF92B2" stroke="black"/>
<path d="M42.64 254.28C40.5867 254.28 38.7467 253.947 37.12 253.28C35.4933 252.613 34.1867 251.627 33.2 250.32C32.24 249.013 31.7333 247.44 31.68 245.6H38.96C39.0667 246.64 39.4267 247.44 40.04 248C40.6533 248.533 41.4533 248.8 42.44 248.8C43.4533 248.8 44.2533 248.573 44.84 248.12C45.4267 247.64 45.72 246.987 45.72 246.16C45.72 245.467 45.48 244.893 45 244.44C44.5467 243.987 43.9733 243.613 43.28 243.32C42.6133 243.027 41.6533 242.693 40.4 242.32C38.5867 241.76 37.1067 241.2 35.96 240.64C34.8133 240.08 33.8267 239.253 33 238.16C32.1733 237.067 31.76 235.64 31.76 233.88C31.76 231.267 32.7067 229.227 34.6 227.76C36.4933 226.267 38.96 225.52 42 225.52C45.0933 225.52 47.5867 226.267 49.48 227.76C51.3733 229.227 52.3867 231.28 52.52 233.92H45.12C45.0667 233.013 44.7333 232.307 44.12 231.8C43.5067 231.267 42.72 231 41.76 231C40.9333 231 40.2667 231.227 39.76 231.68C39.2533 232.107 39 232.733 39 233.56C39 234.467 39.4267 235.173 40.28 235.68C41.1333 236.187 42.4667 236.733 44.28 237.32C46.0933 237.933 47.56 238.52 48.68 239.08C49.8267 239.64 50.8133 240.453 51.64 241.52C52.4667 242.587 52.88 243.96 52.88 245.64C52.88 247.24 52.4667 248.693 51.64 250C50.84 251.307 49.6667 252.347 48.12 253.12C46.5733 253.893 44.7467 254.28 42.64 254.28ZM88.8894 225.92V254H82.0494V237.16L75.7694 254H70.2494L63.9294 237.12V254H57.0894V225.92H65.1694L73.0494 245.36L80.8494 225.92H88.8894ZM125.608 225.92V254H118.768V237.16L112.488 254H106.968L100.648 237.12V254H93.8081V225.92H101.888L109.768 245.36L117.568 225.92H125.608Z" fill="black"/>
<path d="M213.792 94.28C211.739 94.28 209.899 93.9467 208.272 93.28C206.646 92.6133 205.339 91.6267 204.352 90.32C203.392 89.0133 202.886 87.44 202.832 85.6H210.112C210.219 86.64 210.579 87.44 211.192 88C211.806 88.5333 212.606 88.8 213.592 88.8C214.606 88.8 215.406 88.5733 215.992 88.12C216.579 87.64 216.872 86.9867 216.872 86.16C216.872 85.4667 216.632 84.8933 216.152 84.44C215.699 83.9867 215.126 83.6133 214.432 83.32C213.766 83.0267 212.806 82.6933 211.552 82.32C209.739 81.76 208.259 81.2 207.112 80.64C205.966 80.08 204.979 79.2533 204.152 78.16C203.326 77.0667 202.912 75.64 202.912 73.88C202.912 71.2667 203.859 69.2267 205.752 67.76C207.646 66.2667 210.112 65.52 213.152 65.52C216.246 65.52 218.739 66.2667 220.632 67.76C222.526 69.2267 223.539 71.28 223.672 73.92H216.272C216.219 73.0133 215.886 72.3067 215.272 71.8C214.659 71.2667 213.872 71 212.912 71C212.086 71 211.419 71.2267 210.912 71.68C210.406 72.1067 210.152 72.7333 210.152 73.56C210.152 74.4667 210.579 75.1733 211.432 75.68C212.286 76.1867 213.619 76.7333 215.432 77.32C217.246 77.9333 218.712 78.52 219.832 79.08C220.979 79.64 221.966 80.4533 222.792 81.52C223.619 82.5867 224.032 83.96 224.032 85.64C224.032 87.24 223.619 88.6933 222.792 90C221.992 91.3067 220.819 92.3467 219.272 93.12C217.726 93.8933 215.899 94.28 213.792 94.28ZM235.082 71.4V77.08H244.242V82.36H235.082V88.52H245.442V94H228.242V65.92H245.442V71.4H235.082ZM263.162 94.28C260.522 94.28 258.096 93.6667 255.882 92.44C253.696 91.2133 251.949 89.5067 250.642 87.32C249.362 85.1067 248.722 82.6267 248.722 79.88C248.722 77.1333 249.362 74.6667 250.642 72.48C251.949 70.2933 253.696 68.5867 255.882 67.36C258.096 66.1333 260.522 65.52 263.162 65.52C265.802 65.52 268.216 66.1333 270.402 67.36C272.616 68.5867 274.349 70.2933 275.602 72.48C276.882 74.6667 277.522 77.1333 277.522 79.88C277.522 82.6267 276.882 85.1067 275.602 87.32C274.322 89.5067 272.589 91.2133 270.402 92.44C268.216 93.6667 265.802 94.28 263.162 94.28ZM263.162 88.04C265.402 88.04 267.189 87.2933 268.522 85.8C269.882 84.3067 270.562 82.3333 270.562 79.88C270.562 77.4 269.882 75.4267 268.522 73.96C267.189 72.4667 265.402 71.72 263.162 71.72C260.896 71.72 259.082 72.4533 257.722 73.92C256.389 75.3867 255.722 77.3733 255.722 79.88C255.722 82.36 256.389 84.3467 257.722 85.84C259.082 87.3067 260.896 88.04 263.162 88.04Z" fill="black"/>
<defs>
<clipPath id="clip0_3805_1444">
<rect width="80" height="80" fill="white" transform="translate(40 40)"/>
</clipPath>
<clipPath id="clip1_3805_1444">
<rect width="80" height="80" fill="white" transform="translate(200 200)"/>
</clipPath>
</defs>
</svg>
