<svg width="420" height="340" viewBox="0 0 420 340" fill="none" xmlns="http://www.w3.org/2000/svg">
<circle cx="210" cy="170" r="169.5" fill="white" fill-opacity="0.3" stroke="black"/>
<circle cx="210" cy="170" r="89.5" fill="#F7BE08" stroke="black"/>
<circle cx="210" cy="170" r="49.5" fill="#FF92B2" stroke="black"/>
<path d="M211.056 187.707H225.262V177.62H211.056V187.707ZM212.931 179.495H223.387V185.832H212.931V179.495Z" fill="black"/>
<path d="M235.626 166.864V159.913L228.715 148.042H190.921L184.375 159.924V166.864C184.375 168.043 184.67 169.203 185.231 170.24C185.792 171.276 186.603 172.157 187.59 172.801V190.082H185.126V191.957H234.874V190.082H232.41V172.795C234.344 171.524 235.626 169.341 235.626 166.864ZM228.496 172.092C225.684 172.092 223.306 169.731 223.271 166.925V161.105H233.751V166.865C233.751 169.747 231.394 172.092 228.496 172.092ZM198.607 161.105H209.063V168.779C209.063 171.661 206.718 174.006 203.835 174.006C200.952 174.006 198.607 171.661 198.607 168.779V161.105ZM209.063 159.23H198.922L201.655 149.917H209.063V159.23ZM210.938 149.917H218.326L221.06 159.23H210.938V149.917ZM210.938 161.105H221.396L221.394 166.865V168.779C221.392 170.165 220.841 171.494 219.861 172.474C218.88 173.454 217.551 174.005 216.165 174.006C214.779 174.005 213.45 173.453 212.47 172.473C211.49 171.493 210.939 170.165 210.938 168.779V161.105ZM233.057 159.23H222.977L220.276 149.917H227.639C228.632 151.613 232.239 157.826 233.057 159.23ZM192.034 149.917H199.701L196.967 159.23H186.9C188.621 156.133 190.33 153.035 192.034 149.917ZM186.25 166.864V161.104H196.764L196.732 166.864C196.732 169.747 194.375 172.092 191.478 172.092C188.644 172.092 186.25 169.698 186.25 166.864ZM195.391 190.083V179.495H204.943V190.083H195.391ZM230.535 190.083H206.818V177.62H193.516V190.083H189.465V173.672C190.118 173.867 190.796 173.966 191.477 173.967C192.573 173.967 193.655 173.715 194.638 173.229C195.621 172.744 196.479 172.038 197.145 171.167C198.129 173.911 200.756 175.88 203.834 175.88C205.086 175.88 206.315 175.548 207.398 174.92C208.48 174.292 209.378 173.388 209.999 172.302C210.621 173.388 211.518 174.291 212.601 174.92C213.683 175.548 214.912 175.879 216.164 175.88C219.241 175.88 221.867 173.914 222.851 171.173C223.726 172.321 224.93 173.175 226.303 173.62C227.676 174.066 229.152 174.083 230.534 173.668L230.535 190.083Z" fill="black"/>
<path d="M199.44 181.102L200.76 182.435L197.888 185.28L196.568 183.946L199.44 181.102ZM199.1 188.502L197.775 187.175L202.691 182.26L204.016 183.585L199.1 188.502Z" fill="black"/>
<circle cx="330" cy="50" r="39.5" fill="white" stroke="black"/>
<path d="M344.262 34.7412H315.721C313.598 34.7412 311.872 36.4762 311.872 38.6087V61.3918C311.872 63.5243 313.598 65.2593 315.721 65.2593H344.262C345.288 65.2582 346.271 64.8503 346.996 64.1253C347.721 63.4002 348.129 62.4172 348.13 61.3918V38.6081C348.128 37.5828 347.72 36.5999 346.995 35.875C346.27 35.1501 345.287 34.7424 344.262 34.7412ZM315.721 35.9912H344.262C344.956 35.9919 345.622 36.2679 346.112 36.7586C346.603 37.2493 346.879 37.9147 346.88 38.6087V41.6512H313.122V38.6087C313.122 37.165 314.287 35.9912 315.721 35.9912ZM344.262 64.0087H315.721C314.288 64.0087 313.122 62.835 313.122 61.3912V42.9006H346.879V61.3912C346.878 62.0852 346.602 62.7506 346.112 63.2413C345.621 63.7321 344.956 64.0081 344.262 64.0087Z" fill="black"/>
<path d="M316.642 40.7926H331.63C332.717 40.7926 333.601 39.9082 333.601 38.8213C333.601 37.7345 332.717 36.8501 331.63 36.8501H316.642C315.555 36.8501 314.671 37.7345 314.671 38.8213C314.671 39.9082 315.555 40.7926 316.642 40.7926ZM316.642 38.0995H331.63C331.816 38.1072 331.992 38.1866 332.121 38.321C332.25 38.4554 332.321 38.6345 332.321 38.8207C332.321 39.007 332.25 39.186 332.121 39.3204C331.992 39.4548 331.816 39.5342 331.63 39.542H316.642C316.456 39.5342 316.28 39.4548 316.151 39.3204C316.022 39.186 315.95 39.007 315.95 38.8207C315.95 38.6345 316.022 38.4554 316.151 38.321C316.28 38.1866 316.456 38.1072 316.642 38.0995ZM337.194 40.7926H343.342C344.428 40.7926 345.313 39.9082 345.313 38.8213C345.313 37.7345 344.428 36.8501 343.342 36.8501H337.194C336.107 36.8501 335.223 37.7345 335.223 38.8213C335.223 39.9082 336.107 40.7926 337.194 40.7926ZM337.194 38.0995H343.342C343.528 38.1072 343.704 38.1866 343.832 38.321C343.961 38.4554 344.033 38.6345 344.033 38.8207C344.033 39.007 343.961 39.186 343.832 39.3204C343.704 39.4548 343.528 39.5342 343.342 39.542H337.194C337.008 39.5342 336.832 39.4548 336.703 39.3204C336.574 39.186 336.502 39.007 336.502 38.8207C336.502 38.6345 336.574 38.4554 336.703 38.321C336.832 38.1866 337.008 38.1072 337.194 38.0995ZM336.095 49.4038C336.048 49.0366 335.897 48.6905 335.659 48.407C335.422 48.1234 335.107 47.9144 334.753 47.8051V47.0407C334.752 46.1844 334.412 45.3635 333.806 44.7581C333.201 44.1527 332.38 43.8122 331.523 43.8113C331.034 43.8113 330.575 43.9307 330.159 44.1282C329.734 43.9221 329.268 43.8138 328.795 43.8113C327.939 43.8123 327.118 44.1529 326.513 44.7583C325.907 45.3637 325.567 46.1845 325.566 47.0407V47.732C325.14 47.7834 324.743 47.976 324.439 48.2791C324.135 48.5822 323.941 48.9784 323.888 49.4045L322.878 57.1257C322.838 57.4016 322.859 57.6832 322.94 57.95C323.021 58.2168 323.16 58.4623 323.348 58.6688C323.529 58.8778 323.753 59.0447 324.006 59.1577C324.258 59.2708 324.532 59.3273 324.808 59.3232H335.173C335.777 59.3232 336.287 59.0913 336.635 58.6682C337.02 58.2301 337.182 57.6964 337.103 57.1295L336.095 49.4038ZM330.16 45.6238C330.527 45.9838 330.757 46.4851 330.757 47.0413V47.7095H329.562V47.0413C329.562 46.4851 329.792 45.9838 330.16 45.6238ZM333.503 47.0413V47.7095H332.007V47.0413C332.004 46.3313 331.766 45.6421 331.33 45.082C331.395 45.0751 331.457 45.062 331.523 45.062C332.048 45.0623 332.552 45.2709 332.923 45.642C333.294 46.0132 333.503 46.5164 333.503 47.0413ZM328.796 45.062C328.862 45.062 328.925 45.0751 328.989 45.082C328.553 45.6423 328.315 46.3313 328.312 47.0413V47.7095H326.816V47.0413C326.817 46.5165 327.026 46.0135 327.397 45.6424C327.768 45.2714 328.271 45.0626 328.796 45.062ZM324.81 58.0738C324.588 58.0738 324.427 58.0026 324.287 57.8426C324.218 57.77 324.167 57.6825 324.138 57.587C324.109 57.4915 324.102 57.3905 324.118 57.292L325.128 49.5682C325.163 49.2995 325.333 49.092 325.567 49.0051V50.5726H326.817V48.9601H330.757V50.5726H332.007V49.0051C332.242 49.092 332.41 49.3001 332.446 49.5676L333.456 57.297C333.485 57.507 333.432 57.6807 333.288 57.8432C333.224 57.9195 333.144 57.9802 333.053 58.0204C332.962 58.0606 332.863 58.0793 332.763 58.0751H324.81V58.0738ZM335.683 57.8588C335.601 57.9588 335.469 58.0738 335.174 58.0738H334.581C334.7 57.7744 334.739 57.4493 334.695 57.1301L333.686 49.4045C333.664 49.2523 333.624 49.1032 333.568 48.9601H334.165C334.525 48.9601 334.809 49.2101 334.857 49.5676L335.867 57.297C335.895 57.5057 335.841 57.6795 335.683 57.8588ZM341.356 49.7313L343.061 51.4507L341.358 53.1545L342.242 54.0382L344.825 51.4545L342.243 48.8513L341.356 49.7313ZM317.74 48.8513L315.158 51.4545L317.742 54.0382L318.625 53.1545L316.922 51.4507L318.627 49.7313L317.74 48.8513Z" fill="black"/>
<circle cx="330" cy="290" r="39.5" fill="white" stroke="black"/>
<g clip-path="url(#clip0_1651_1558)">
<path d="M340.663 286.173C341.455 285.675 342.022 284.908 342.266 283.998C342.522 283.042 342.391 282.043 341.896 281.186C340.898 279.458 338.71 278.838 336.96 279.76L333.631 273.995C333.191 273.233 332.478 272.686 331.623 272.457C330.767 272.228 329.876 272.344 329.114 272.785C328.352 273.225 327.806 273.938 327.576 274.793C327.404 275.438 327.427 276.102 327.638 276.717C326.057 280.701 322.711 284.764 318.168 288.231C318.097 288.183 318.018 288.147 317.936 288.125C317.837 288.098 317.733 288.091 317.632 288.105C317.53 288.118 317.432 288.151 317.343 288.203L313.096 290.655C311.667 291.48 310.643 292.817 310.213 294.421C309.784 296.025 310.001 297.695 310.826 299.124C311.974 301.11 314.061 302.222 316.206 302.222C317.257 302.222 318.321 301.955 319.295 301.393L319.538 301.253L324.222 307.368C324.546 307.791 324.997 308.039 325.527 308.087C325.588 308.093 325.647 308.095 325.706 308.095C326.167 308.095 326.591 307.931 326.94 307.614L328.23 306.443C328.948 305.792 329.046 304.719 328.459 303.947L324.055 298.161C329.286 295.998 334.431 295.15 338.638 295.768C339.276 296.498 340.194 296.898 341.133 296.898C341.711 296.898 342.28 296.746 342.781 296.456C344.36 295.544 344.903 293.518 343.991 291.939L340.663 286.173ZM340.543 281.967C340.829 282.463 340.905 283.041 340.757 283.594C340.621 284.1 340.312 284.53 339.88 284.819L337.742 281.115C338.745 280.622 339.976 280.985 340.543 281.967ZM316.203 300.66C314.6 300.66 313.038 299.828 312.18 298.342C311.563 297.275 311.401 296.026 311.723 294.825C312.044 293.625 312.809 292.624 313.877 292.008L317.448 289.946L322.085 297.978L318.514 300.04C317.812 300.446 317.015 300.66 316.203 300.66ZM327.18 305.286L325.89 306.457C325.822 306.518 325.759 306.539 325.668 306.531C325.576 306.523 325.519 306.491 325.463 306.418L320.903 300.465L322.947 299.285L327.216 304.894C327.261 304.952 327.282 305.024 327.275 305.097C327.268 305.17 327.234 305.237 327.18 305.286ZM323.218 296.816L319.02 289.546C323.393 286.228 326.732 282.354 328.578 278.469L337.589 294.078C333.302 293.734 328.278 294.688 323.218 296.816ZM341.999 295.102C341.166 295.584 340.098 295.297 339.617 294.464L329.257 276.52C328.776 275.687 329.062 274.619 329.895 274.138C330.158 273.986 330.456 273.906 330.759 273.906C330.912 273.906 331.066 273.926 331.218 273.966C331.67 274.088 332.047 274.375 332.278 274.776L342.638 292.72C343.119 293.553 342.832 294.622 341.999 295.102ZM342.849 280.635C342.633 280.262 342.761 279.784 343.135 279.568L346.271 277.758C346.645 277.542 347.123 277.67 347.338 278.044C347.554 278.417 347.426 278.895 347.052 279.111L343.916 280.921C343.827 280.973 343.729 281.006 343.628 281.02C343.526 281.033 343.422 281.026 343.323 281C343.224 280.973 343.131 280.927 343.05 280.865C342.969 280.802 342.9 280.724 342.849 280.635ZM339.233 275.604L341.143 272.296C341.359 271.922 341.837 271.794 342.211 272.01C342.584 272.225 342.712 272.703 342.496 273.077L340.586 276.385C340.535 276.474 340.467 276.552 340.386 276.614C340.304 276.677 340.211 276.723 340.112 276.749C340.013 276.776 339.91 276.782 339.808 276.769C339.706 276.756 339.608 276.722 339.519 276.671C339.146 276.455 339.018 275.978 339.233 275.604ZM350 285.501C350 285.933 349.65 286.283 349.219 286.283H345.399C344.967 286.283 344.618 285.933 344.618 285.501C344.618 285.07 344.967 284.72 345.399 284.72H349.219C349.65 284.72 350 285.07 350 285.501Z" fill="black"/>
</g>
<circle cx="380" cy="176" r="39.5" fill="white" stroke="black"/>
<path d="M375.782 183.673C375.625 183.673 375.473 183.617 375.354 183.515L371.081 179.876C371.008 179.814 370.95 179.737 370.91 179.651C370.869 179.564 370.849 179.469 370.849 179.374C370.849 179.278 370.869 179.184 370.91 179.097C370.95 179.01 371.008 178.933 371.081 178.871L375.354 175.232C375.488 175.119 375.66 175.063 375.835 175.077C376.01 175.09 376.171 175.173 376.285 175.306C376.521 175.584 376.488 176.001 376.21 176.237L372.528 179.373L376.21 182.509C376.313 182.597 376.387 182.714 376.421 182.845C376.455 182.976 376.449 183.114 376.402 183.241C376.355 183.368 376.271 183.477 376.16 183.554C376.049 183.632 375.917 183.673 375.782 183.673ZM384.218 183.673C384.031 183.673 383.845 183.594 383.715 183.44C383.601 183.307 383.545 183.134 383.559 182.959C383.573 182.785 383.656 182.623 383.789 182.509L387.472 179.373L383.789 176.237C383.661 176.122 383.582 175.962 383.57 175.79C383.559 175.618 383.615 175.448 383.726 175.317C383.838 175.186 383.997 175.103 384.169 175.087C384.34 175.071 384.511 175.123 384.645 175.232L388.918 178.871C388.991 178.933 389.05 179.01 389.09 179.097C389.13 179.183 389.151 179.278 389.151 179.374C389.151 179.469 389.13 179.564 389.09 179.65C389.05 179.737 388.991 179.814 388.918 179.876L384.645 183.515C384.526 183.617 384.374 183.673 384.218 183.673H384.218ZM378.487 186.402C378.389 186.402 378.291 186.38 378.203 186.338C378.114 186.296 378.035 186.234 377.973 186.158C377.911 186.082 377.867 185.992 377.844 185.897C377.821 185.801 377.82 185.702 377.84 185.605L380.503 172.961C380.539 172.789 380.642 172.639 380.789 172.543C380.935 172.448 381.114 172.414 381.285 172.45C381.457 172.487 381.607 172.589 381.702 172.736C381.798 172.883 381.832 173.061 381.795 173.233L379.132 185.878C379.101 186.026 379.02 186.159 378.902 186.254C378.785 186.35 378.638 186.402 378.487 186.402Z" fill="black"/>
<path d="M395.566 193.291H364.434C361.989 193.291 360 191.302 360 188.857V162.434C360 159.989 361.989 158 364.434 158H395.566C398.011 158 400 159.989 400 162.434V188.857C400 191.302 398.011 193.291 395.566 193.291ZM364.434 159.321C362.717 159.321 361.321 160.717 361.321 162.434V188.857C361.321 190.574 362.717 191.97 364.434 191.97H395.566C397.283 191.97 398.679 190.574 398.679 188.857V162.434C398.679 160.717 397.283 159.321 395.566 159.321H364.434Z" fill="black"/>
<path d="M399.339 168.575H360.66C360.487 168.572 360.322 168.501 360.2 168.377C360.079 168.254 360.011 168.087 360.011 167.914C360.011 167.741 360.079 167.575 360.2 167.451C360.322 167.328 360.487 167.257 360.66 167.254H399.339C399.513 167.257 399.678 167.328 399.799 167.451C399.921 167.575 399.989 167.741 399.989 167.914C399.989 168.087 399.921 168.254 399.799 168.377C399.678 168.501 399.513 168.572 399.339 168.575ZM371.283 165.415C370.131 165.415 369.193 164.477 369.193 163.325C369.193 162.172 370.131 161.235 371.283 161.235C372.435 161.235 373.373 162.172 373.373 163.325C373.373 164.477 372.435 165.415 371.283 165.415ZM371.283 162.556C370.859 162.556 370.514 162.901 370.514 163.325C370.514 163.749 370.859 164.094 371.283 164.094C371.707 164.094 372.052 163.749 372.052 163.325C372.052 162.9 371.707 162.556 371.283 162.556ZM364.862 165.394C363.709 165.394 362.772 164.457 362.772 163.305C362.772 162.152 363.709 161.215 364.862 161.215C366.014 161.215 366.952 162.152 366.952 163.305C366.952 164.457 366.014 165.394 364.862 165.394ZM364.862 162.535C364.438 162.535 364.093 162.881 364.093 163.305C364.093 163.729 364.438 164.074 364.862 164.074C365.286 164.074 365.631 163.729 365.631 163.305C365.631 162.881 365.286 162.535 364.862 162.535ZM377.704 165.435C376.552 165.435 375.614 164.497 375.614 163.345C375.614 162.193 376.552 161.255 377.704 161.255C378.856 161.255 379.794 162.193 379.794 163.345C379.794 164.497 378.856 165.435 377.704 165.435ZM377.704 162.576C377.28 162.576 376.935 162.92 376.935 163.345C376.935 163.769 377.28 164.114 377.704 164.114C378.128 164.114 378.473 163.769 378.473 163.345C378.473 162.92 378.128 162.576 377.704 162.576Z" fill="black"/>
<circle cx="90" cy="50" r="39.5" fill="white" stroke="black"/>
<g clip-path="url(#clip1_1651_1558)">
<path d="M109.654 59.103L105.554 57.053L102.944 50.2655C102.913 50.1853 102.866 50.1122 102.806 50.0509C102.746 49.9896 102.674 49.9414 102.594 49.9093L86.4035 43.4374C86.2903 43.3923 86.1664 43.3813 86.047 43.4058C85.9277 43.4302 85.818 43.489 85.7316 43.5749L83.5723 45.7343C83.4875 45.8207 83.4297 45.93 83.4058 46.0487C83.3819 46.1674 83.3931 46.2905 83.4379 46.403L89.9098 62.5936C89.9419 62.6733 89.9901 62.7455 90.0514 62.8058C90.1127 62.866 90.1858 62.9129 90.266 62.9436L97.0535 65.553L99.1035 69.653C99.1467 69.7434 99.2109 69.8221 99.2909 69.8825C99.3708 69.9429 99.4641 69.9831 99.5629 69.9999C99.5962 70.003 99.6296 70.003 99.6629 69.9999C99.8284 69.9992 99.9868 69.9329 100.104 69.8155L109.816 60.103C109.888 60.034 109.942 59.949 109.974 59.855C110.006 59.761 110.015 59.6607 110 59.5624C109.984 59.4636 109.943 59.3703 109.883 59.2904C109.823 59.2104 109.744 59.1462 109.654 59.103ZM84.7473 46.3218L85.0941 45.978L93.1535 54.0374C92.6224 54.79 92.393 55.7146 92.5107 56.6282C92.6284 57.5418 93.0847 58.378 93.7892 58.9714C94.4938 59.5648 95.3954 59.8723 96.3157 59.8329C97.2361 59.7936 98.1081 59.4104 98.7595 58.759C99.4109 58.1076 99.7941 57.2355 99.8334 56.3152C99.8728 55.3949 99.5653 54.4933 98.9719 53.7887C98.3785 53.0842 97.5423 52.6279 96.6287 52.5102C95.7151 52.3925 94.7905 52.6219 94.0379 53.153L85.9785 45.0936L86.3223 44.7468L101.875 50.9686L104.329 57.3499L97.3504 64.328L90.9691 61.8749L84.7473 46.3218ZM96.1566 53.728C96.7184 53.7289 97.2624 53.9244 97.6961 54.2814C98.1298 54.6383 98.4263 55.1346 98.5351 55.6857C98.644 56.2368 98.5584 56.8085 98.2929 57.3036C98.0275 57.7986 97.5986 58.1863 97.0794 58.4006C96.5602 58.6149 95.9827 58.6426 95.4454 58.4789C94.908 58.3151 94.4441 57.9702 94.1326 57.5028C93.821 57.0354 93.6812 56.4744 93.7369 55.9155C93.7925 55.3565 94.0403 54.8342 94.4379 54.4374C94.8942 53.9825 95.5124 53.7274 96.1566 53.728ZM99.8348 68.3186L98.2723 65.1936L105.188 58.278L108.313 59.8405L99.8348 68.3186Z" fill="black"/>
<path d="M81.9536 63.4377C81.8341 63.3247 81.6758 63.2618 81.5114 63.2618C81.3469 63.2618 81.1887 63.3247 81.0692 63.4377L80.2755 64.2314C78.1573 61.3566 76.9887 57.8925 76.9327 54.322C76.8767 50.7516 77.936 47.2526 79.963 44.3127C80.5702 44.6468 81.2695 44.7752 81.9558 44.6785C82.6422 44.5819 83.2788 44.2654 83.7701 43.7765C84.2615 43.2876 84.5812 42.6526 84.6813 41.9667C84.7814 41.2809 84.6566 40.581 84.3255 39.9721C87.2653 37.9451 90.7643 36.8858 94.3348 36.9418C97.9053 36.9978 101.369 38.1664 104.244 40.2846L103.438 41.0689C103.322 41.1861 103.257 41.3445 103.257 41.5096C103.256 41.5918 103.272 41.6733 103.303 41.7495C103.334 41.8256 103.38 41.8949 103.438 41.9533L106.194 44.6877C106.311 44.8041 106.47 44.8694 106.635 44.8694C106.8 44.8694 106.958 44.8041 107.075 44.6877L109.816 41.9471C109.874 41.889 109.92 41.8201 109.952 41.7442C109.983 41.6683 109.999 41.587 109.999 41.5049C109.999 41.4227 109.983 41.3414 109.952 41.2655C109.92 41.1897 109.874 41.1207 109.816 41.0627L107.075 38.3221C106.958 38.2056 106.8 38.1403 106.635 38.1403C106.47 38.1403 106.311 38.2056 106.194 38.3221L105.135 39.3752C102.524 37.4105 99.4371 36.1761 96.1914 35.7988C92.9457 35.4215 89.6581 35.9149 86.6661 37.2283L90.2692 33.6346C90.6778 33.8298 91.1422 33.874 91.5803 33.7593C92.0183 33.6446 92.4015 33.3785 92.662 33.0081C92.9225 32.6378 93.0433 32.1871 93.0032 31.7361C92.963 31.2851 92.7643 30.8629 92.4425 30.5444C92.1206 30.226 91.6964 30.0318 91.245 29.9964C90.7936 29.9609 90.3442 30.0865 89.9766 30.3509C89.609 30.6153 89.347 31.0013 89.2369 31.4405C89.1269 31.8797 89.1759 32.3437 89.3755 32.7502L83.2942 38.8408C82.6768 38.4266 81.9347 38.2397 81.1947 38.3119C80.4547 38.3841 79.7627 38.711 79.237 39.2367C78.7112 39.7624 78.3844 40.4544 78.3121 41.1944C78.2399 41.9344 78.4269 42.6765 78.8411 43.2939L72.7505 49.3752C72.3424 49.1763 71.8771 49.1286 71.4371 49.2405C70.9972 49.3523 70.6112 49.6165 70.3477 49.9861C70.0842 50.3557 69.9602 50.8067 69.9978 51.2591C70.0354 51.7115 70.2322 52.1358 70.5532 52.4568C70.8742 52.7778 71.2985 52.9746 71.7509 53.0122C72.2033 53.0498 72.6543 52.9259 73.0239 52.6623C73.3935 52.3988 73.6577 52.0128 73.7695 51.5729C73.8814 51.1329 73.8337 50.6676 73.6348 50.2596L77.238 46.6658C75.9232 49.657 75.4283 52.9442 75.8039 56.1898C76.1796 59.4355 77.4123 62.5228 79.3755 65.1346L78.3192 66.1939C78.2028 66.311 78.1375 66.4694 78.1375 66.6346C78.1375 66.7997 78.2028 66.9581 78.3192 67.0752L81.0598 69.8158C81.1765 69.9332 81.335 69.9995 81.5005 70.0002C81.5829 70.0002 81.6646 69.984 81.7408 69.9523C81.8169 69.9207 81.8861 69.8743 81.9442 69.8158L84.688 67.0752C84.8044 66.9581 84.8697 66.7997 84.8697 66.6346C84.8697 66.4694 84.8044 66.311 84.688 66.1939L81.9536 63.4377ZM106.641 39.6408L108.497 41.4971L106.641 43.3533L104.785 41.4971L106.641 39.6408ZM90.6255 31.4471C90.7183 31.3534 90.8369 31.2895 90.9662 31.2634C91.0955 31.2372 91.2296 31.2501 91.3515 31.3003C91.4734 31.3505 91.5777 31.4359 91.6511 31.5454C91.7245 31.655 91.7637 31.7839 91.7637 31.9158C91.7637 32.0477 91.7245 32.1766 91.6511 32.2862C91.5777 32.3957 91.4734 32.4811 91.3515 32.5313C91.2296 32.5815 91.0955 32.5944 90.9662 32.5682C90.8369 32.5421 90.7183 32.4782 90.6255 32.3846C90.5639 32.323 90.515 32.25 90.4816 32.1695C90.4483 32.0891 90.4311 32.0029 90.4311 31.9158C90.4311 31.8287 90.4483 31.7425 90.4816 31.6621C90.515 31.5817 90.5639 31.5086 90.6255 31.4471ZM80.1255 40.1252C80.3069 39.9428 80.5227 39.7981 80.7602 39.6994C80.9978 39.6006 81.2526 39.5498 81.5098 39.5498C81.7671 39.5498 82.0218 39.6006 82.2594 39.6994C82.497 39.7981 82.7127 39.9428 82.8942 40.1252C83.1685 40.3991 83.3555 40.7482 83.4313 41.1284C83.5072 41.5085 83.4686 41.9027 83.3204 42.2609C83.1722 42.6191 82.921 42.9253 82.5987 43.1407C82.2764 43.3562 81.8975 43.4712 81.5098 43.4712C81.1222 43.4712 80.7432 43.3562 80.4209 43.1407C80.0986 42.9253 79.8475 42.6191 79.6993 42.2609C79.5511 41.9027 79.5125 41.5085 79.5883 41.1284C79.6642 40.7482 79.8511 40.3991 80.1255 40.1252ZM72.388 51.5627C72.2604 51.6691 72.0976 51.7239 71.9316 51.7164C71.7656 51.7089 71.6085 51.6396 71.491 51.5221C71.3735 51.4047 71.3042 51.2475 71.2967 51.0815C71.2892 50.9156 71.3441 50.7528 71.4505 50.6252C71.5755 50.5023 71.7439 50.4334 71.9192 50.4334C72.0946 50.4334 72.2629 50.5023 72.388 50.6252C72.4496 50.6867 72.4984 50.7598 72.5318 50.8402C72.5651 50.9206 72.5823 51.0069 72.5823 51.0939C72.5823 51.181 72.5651 51.2672 72.5318 51.3476C72.4984 51.4281 72.4496 51.5011 72.388 51.5627ZM81.5098 68.4783L79.6536 66.6221L81.5098 64.7658L83.3661 66.6221L81.5098 68.4783Z" fill="black"/>
</g>
<circle cx="90" cy="290" r="39.5" fill="white" stroke="black"/>
<path d="M100.314 273.522C100.034 273.078 99.6456 272.712 99.1846 272.46C98.7236 272.209 98.2059 272.079 97.6807 272.084H82.3207C81.2344 272.084 80.2738 272.608 79.6844 273.524L74.165 282.182V304.793C74.166 305.621 74.4955 306.415 75.0811 307.001C75.6667 307.586 76.4607 307.916 77.2888 307.916H102.711C103.539 307.916 104.333 307.586 104.919 307.001C105.505 306.415 105.834 305.621 105.835 304.793V282.182L100.314 273.522ZM80.7369 274.198C80.9036 273.929 81.1371 273.709 81.4147 273.557C81.6923 273.406 82.0045 273.329 82.3207 273.334H97.6807C98.3432 273.334 98.9044 273.641 99.2619 274.196L104.07 281.739H75.9294L80.7369 274.198ZM93.8663 282.989V289.77C93.8689 289.881 93.8411 289.99 93.7859 290.085C93.7306 290.181 93.6501 290.26 93.5532 290.313C93.4622 290.369 93.3575 290.399 93.2505 290.4C93.1435 290.401 93.0383 290.373 92.9463 290.318L89.9907 288.722L87.0525 290.319C86.9586 290.374 86.8516 290.401 86.7432 290.399C86.6348 290.397 86.529 290.365 86.4375 290.306C86.2338 290.191 86.135 290.016 86.135 289.77V282.989H93.8663ZM104.585 304.793C104.584 305.29 104.387 305.766 104.035 306.117C103.684 306.468 103.208 306.666 102.711 306.666H77.2888C76.792 306.666 76.3157 306.469 75.9644 306.117C75.6131 305.766 75.4155 305.29 75.415 304.793V282.989H84.8838V289.77C84.8838 290.466 85.2257 291.058 85.8107 291.389C86.1082 291.564 86.4294 291.652 86.7525 291.652C87.0563 291.652 87.3625 291.574 87.6494 291.418L89.9925 290.144L92.3494 291.417C92.9413 291.74 93.6119 291.729 94.1875 291.389C94.4724 291.226 94.7086 290.99 94.8717 290.706C95.0347 290.421 95.1188 290.098 95.115 289.77V282.989H104.584V304.793H104.585Z" fill="black"/>
<path d="M79.2725 301.918H85.3137V303.168H79.2725V301.918ZM79.2725 299.165H88.3975V300.415H79.2725V299.165ZM101.276 300.115L100.392 299.231L97.8225 301.801L96.2793 300.26L95.3956 301.143L97.8225 303.569L101.276 300.115Z" fill="black"/>
<circle cx="40" cy="176" r="39.5" fill="white" stroke="black"/>
<path d="M57.5007 164.611C56.9907 164.032 56.3195 163.726 55.5607 163.726H49.9351C49.6207 160.567 46.9482 158.092 43.7082 158.092C40.477 158.092 37.812 160.567 37.4982 163.726H30.442L30.3301 163.002C30.0013 160.783 28.1313 159.172 25.8851 159.172H22.502V160.422H25.8857C26.6647 160.418 27.419 160.695 28.0091 161.204C28.5991 161.712 28.9849 162.418 29.0951 163.189L31.672 179.913C30.9287 180.079 30.2643 180.494 29.7882 181.089C29.3121 181.683 29.0526 182.422 29.0526 183.184C29.0536 184.068 29.4053 184.916 30.0306 185.541C30.6559 186.167 31.5038 186.519 32.3882 186.52H53.6657V185.27H32.3876C31.8345 185.269 31.3043 185.049 30.9133 184.658C30.5223 184.267 30.3024 183.737 30.302 183.184C30.302 182.024 31.2376 181.081 32.3876 181.081H53.6651C54.2788 181.085 54.8733 180.867 55.3386 180.466C55.8039 180.066 56.1086 179.511 56.1963 178.904L58.092 166.68C58.2082 165.937 58.0013 165.207 57.5007 164.611ZM43.7088 159.342C46.4707 159.342 48.7176 161.589 48.7176 164.351C48.7176 167.114 46.4707 169.361 43.7088 169.361C40.957 169.361 38.7176 167.114 38.7176 164.351C38.717 161.589 40.9563 159.342 43.7088 159.342ZM56.857 166.487L54.9607 178.716C54.8638 179.372 54.3307 179.83 53.6657 179.83H32.9238L30.6363 164.975H37.4988C37.8126 168.134 40.4776 170.61 43.7088 170.61C46.9488 170.61 49.6213 168.134 49.9357 164.975H55.5613C55.962 164.975 56.2888 165.126 56.5532 165.426C56.812 165.735 56.917 166.102 56.857 166.487ZM36.4451 187.094C34.567 187.094 33.0388 188.622 33.0388 190.501C33.0388 192.379 34.567 193.907 36.4451 193.907C38.3232 193.907 39.8513 192.379 39.8513 190.501C39.8513 188.622 38.3226 187.094 36.4451 187.094ZM36.4451 192.657C35.2563 192.657 34.2888 191.69 34.2888 190.501C34.2888 189.311 35.2563 188.344 36.4451 188.344C37.6338 188.344 38.6013 189.311 38.6013 190.501C38.6013 191.69 37.6338 192.657 36.4451 192.657ZM49.8913 187.094C48.0032 187.094 46.467 188.622 46.467 190.501C46.467 192.379 48.0032 193.907 49.8913 193.907C51.7695 193.907 53.2976 192.379 53.2976 190.501C53.2976 188.622 51.7695 187.094 49.8913 187.094ZM49.8913 192.657C48.6926 192.657 47.717 191.69 47.717 190.501C47.717 189.311 48.6926 188.344 49.8913 188.344C51.0801 188.344 52.0476 189.311 52.0476 190.501C52.0476 191.69 51.0807 192.657 49.8913 192.657Z" fill="black"/>
<path d="M46.3999 163.394L45.5162 162.51L43.1412 164.884L41.9174 163.661L41.0337 164.545L43.1412 166.652L46.3999 163.394Z" fill="black"/>
<defs>
<clipPath id="clip0_1651_1558">
<rect width="40" height="40" fill="white" transform="translate(310 270)"/>
</clipPath>
<clipPath id="clip1_1651_1558">
<rect width="40" height="40" fill="white" transform="translate(70 30)"/>
</clipPath>
</defs>
</svg>
