<svg width="80" height="80" viewBox="0 0 80 80" fill="none" xmlns="http://www.w3.org/2000/svg">
<circle cx="40" cy="40" r="39.5" fill="white" stroke="#CFC9D4"/>
<g clip-path="url(#clip0_3827_208)">
<path d="M50.6625 36.1735C51.4551 35.6747 52.0223 34.9078 52.266 33.9983C52.5222 33.042 52.3907 32.0432 51.8957 31.1859C50.8982 29.4581 48.7102 28.8378 46.9598 29.7602L43.6313 23.995C43.191 23.2325 42.4777 22.6864 41.6226 22.4573C40.7674 22.2281 39.8765 22.3444 39.1141 22.7847C38.3516 23.2249 37.8055 23.9383 37.5764 24.7933C37.4038 25.4376 37.4274 26.1022 37.6378 26.7169C36.0568 30.7011 32.7107 34.7643 28.1677 38.2306C28.0968 38.1828 28.0184 38.1469 27.9358 38.1245C27.8367 38.098 27.7333 38.0912 27.6316 38.1046C27.5299 38.118 27.4318 38.1513 27.343 38.2026L23.0956 40.6549C21.6667 41.4799 20.6431 42.8174 20.2134 44.421C19.7838 46.0245 20.0014 47.6947 20.8265 49.1236C21.9735 51.1103 24.0615 52.2222 26.2058 52.2222C27.2568 52.2222 28.3214 51.955 29.2952 51.3928L29.5383 51.2525L34.2223 57.3681C34.5459 57.7906 34.9971 58.0392 35.5274 58.0873C35.5877 58.0928 35.6473 58.0954 35.7063 58.0954C36.1671 58.0954 36.5906 57.9307 36.9401 57.6137L38.2301 56.4431C38.9479 55.7917 39.0465 54.7187 38.4594 53.9474L34.0551 48.1607C39.2863 45.9975 44.4305 45.1499 48.6383 45.7683C49.2757 46.4978 50.1938 46.8981 51.1328 46.8981C51.7115 46.8982 52.2799 46.7456 52.7807 46.4557C54.3598 45.5441 54.9027 43.5177 53.991 41.9386L50.6625 36.1735ZM50.5425 31.9671C50.8288 32.4631 50.9049 33.0408 50.7566 33.5939C50.621 34.1003 50.3119 34.5299 49.8802 34.8188L47.7418 31.1149C48.7445 30.622 49.9757 30.9854 50.5425 31.9671ZM26.2032 50.66C24.5995 50.6599 23.0375 49.8282 22.1795 48.3424C21.5632 47.2749 21.4009 46.0259 21.7227 44.8254C22.0443 43.6249 22.8093 42.6244 23.8768 42.0081L27.4476 39.9464L32.0846 47.9781L28.5138 50.0397C27.8117 50.4464 27.0146 50.6603 26.2032 50.66ZM37.18 55.286L35.8901 56.4565C35.8219 56.5184 35.7593 56.5394 35.668 56.531C35.5763 56.5228 35.5188 56.491 35.4627 56.418L30.9029 50.4646L32.9468 49.2845L37.216 54.8937C37.2606 54.9516 37.2816 55.0242 37.2749 55.0969C37.2682 55.1697 37.2343 55.2372 37.18 55.286ZM33.2183 46.8164L29.0205 39.5456C33.3932 36.228 36.7319 32.3537 38.578 28.4694L47.5894 44.0777C43.3024 43.7342 38.2777 44.6884 33.2183 46.8164ZM51.9994 45.1024C51.1663 45.5835 50.0976 45.2969 49.6166 44.4641L39.2569 26.5204C38.776 25.6874 39.0624 24.6186 39.8953 24.1378C40.1579 23.9856 40.456 23.9055 40.7595 23.9056C40.9121 23.9056 41.0662 23.9257 41.2181 23.9664C41.6701 24.0875 42.0466 24.3751 42.278 24.7762L52.6377 42.7198C53.1187 43.5528 52.8323 44.6216 51.9994 45.1024ZM52.849 30.6355C52.6332 30.2618 52.7613 29.784 53.1349 29.5683L56.2712 27.7576C56.6448 27.5418 57.1227 27.6699 57.3384 28.0435C57.5541 28.4172 57.4261 28.895 57.0524 29.1107L53.9162 30.9214C53.8273 30.9728 53.7293 31.0061 53.6275 31.0195C53.5258 31.0329 53.4224 31.0261 53.3233 30.9996C53.2242 30.973 53.1313 30.9272 53.0499 30.8647C52.9685 30.8023 52.9003 30.7244 52.849 30.6355ZM49.2334 25.6038L51.1434 22.2956C51.3591 21.922 51.8368 21.7938 52.2105 22.0096C52.5842 22.2253 52.7123 22.7031 52.4965 23.0768L50.5865 26.3851C50.5352 26.474 50.4669 26.5519 50.3855 26.6143C50.3041 26.6768 50.2112 26.7226 50.1121 26.7492C50.013 26.7757 49.9097 26.7825 49.8079 26.7691C49.7062 26.7557 49.6081 26.7224 49.5193 26.671C49.1455 26.4553 49.0176 25.9775 49.2334 25.6038ZM60 35.5014C60 35.9329 59.6502 36.2827 59.2188 36.2827H55.3988C54.9673 36.2827 54.6175 35.9329 54.6175 35.5014C54.6175 35.0699 54.9673 34.7202 55.3988 34.7202H59.2188C59.6502 34.7202 60 35.0699 60 35.5014Z" fill="black"/>
</g>
<defs>
<clipPath id="clip0_3827_208">
<rect width="40" height="40" fill="white" transform="translate(20 20)"/>
</clipPath>
</defs>
</svg>
