<svg width="340" height="340" viewBox="0 0 340 340" fill="none" xmlns="http://www.w3.org/2000/svg">
<circle cx="170" cy="170" r="169.5" fill="white" fill-opacity="0.3" stroke="black"/>
<circle cx="170" cy="170" r="129.5" fill="white" fill-opacity="0.3" stroke="black" stroke-dasharray="8 8"/>
<circle cx="170" cy="170" r="89.5" fill="white" fill-opacity="0.3" stroke="black"/>
<path d="M238.562 227.53C236.04 230.535 231.759 231.926 226.036 231.75C220.32 231.575 213.254 229.836 205.3 226.692C189.396 220.407 170.047 208.549 151.038 192.598C132.03 176.648 116.992 159.653 108.04 145.082C103.563 137.794 100.624 131.138 99.4581 125.539C98.2912 119.933 98.9179 115.476 101.44 112.471C103.962 109.465 108.242 108.074 113.965 108.25C119.682 108.425 126.747 110.164 134.702 113.308C150.606 119.594 169.954 131.452 188.963 147.402C207.972 163.352 223.009 180.348 231.961 194.918C236.438 202.206 239.378 208.863 240.543 214.461C241.71 220.067 241.084 224.524 238.562 227.53Z" fill="#FF92B2" stroke="black"/>
<circle cx="230" cy="120" r="39.5" fill="white" stroke="black"/>
<path d="M225.782 127.673C225.625 127.673 225.473 127.617 225.354 127.515L221.081 123.877C221.008 123.815 220.95 123.738 220.91 123.651C220.869 123.564 220.849 123.47 220.849 123.374C220.849 123.278 220.869 123.184 220.91 123.097C220.95 123.01 221.008 122.933 221.081 122.871L225.354 119.232C225.488 119.119 225.66 119.063 225.835 119.077C226.01 119.091 226.171 119.173 226.285 119.307C226.521 119.585 226.488 120.001 226.21 120.238L222.528 123.374L226.21 126.51C226.313 126.597 226.387 126.714 226.421 126.845C226.455 126.976 226.449 127.114 226.402 127.241C226.355 127.368 226.271 127.477 226.16 127.555C226.049 127.632 225.917 127.673 225.782 127.673ZM234.218 127.673C234.031 127.673 233.845 127.594 233.715 127.441C233.601 127.307 233.545 127.134 233.559 126.96C233.573 126.785 233.656 126.623 233.789 126.51L237.472 123.374L233.789 120.238C233.661 120.123 233.582 119.962 233.57 119.79C233.559 119.618 233.615 119.448 233.726 119.317C233.838 119.186 233.997 119.103 234.169 119.088C234.34 119.072 234.511 119.124 234.645 119.232L238.918 122.871C238.991 122.933 239.05 123.01 239.09 123.097C239.13 123.184 239.151 123.278 239.151 123.374C239.151 123.469 239.13 123.564 239.09 123.651C239.05 123.738 238.991 123.815 238.918 123.877L234.645 127.515C234.526 127.617 234.374 127.673 234.218 127.673H234.218ZM228.487 130.402C228.389 130.402 228.291 130.381 228.203 130.338C228.114 130.296 228.035 130.235 227.973 130.158C227.911 130.082 227.867 129.993 227.844 129.897C227.821 129.801 227.82 129.702 227.84 129.606L230.503 116.961C230.539 116.789 230.642 116.639 230.789 116.544C230.935 116.448 231.114 116.415 231.285 116.451C231.457 116.487 231.607 116.59 231.702 116.736C231.798 116.883 231.832 117.062 231.795 117.233L229.132 129.878C229.101 130.026 229.02 130.159 228.902 130.254C228.785 130.35 228.638 130.402 228.487 130.402Z" fill="black"/>
<path d="M245.566 137.291H214.434C211.989 137.291 210 135.302 210 132.857V106.434C210 103.989 211.989 102 214.434 102H245.566C248.011 102 250 103.989 250 106.434V132.857C250 135.302 248.011 137.291 245.566 137.291ZM214.434 103.321C212.717 103.321 211.321 104.717 211.321 106.434V132.857C211.321 134.574 212.717 135.97 214.434 135.97H245.566C247.283 135.97 248.679 134.574 248.679 132.857V106.434C248.679 104.717 247.283 103.321 245.566 103.321H214.434Z" fill="black"/>
<path d="M249.339 112.575H210.66C210.487 112.572 210.322 112.501 210.2 112.378C210.079 112.254 210.011 112.088 210.011 111.914C210.011 111.741 210.079 111.575 210.2 111.451C210.322 111.328 210.487 111.257 210.66 111.254H249.339C249.513 111.257 249.678 111.328 249.799 111.451C249.921 111.575 249.989 111.741 249.989 111.914C249.989 112.088 249.921 112.254 249.799 112.378C249.678 112.501 249.513 112.572 249.339 112.575ZM221.283 109.415C220.131 109.415 219.193 108.477 219.193 107.325C219.193 106.173 220.131 105.235 221.283 105.235C222.435 105.235 223.373 106.173 223.373 107.325C223.373 108.477 222.435 109.415 221.283 109.415ZM221.283 106.556C220.859 106.556 220.514 106.901 220.514 107.325C220.514 107.749 220.859 108.094 221.283 108.094C221.707 108.094 222.052 107.749 222.052 107.325C222.052 106.901 221.707 106.556 221.283 106.556ZM214.862 109.395C213.709 109.395 212.772 108.457 212.772 107.305C212.772 106.152 213.709 105.215 214.862 105.215C216.014 105.215 216.952 106.152 216.952 107.305C216.952 108.457 216.014 109.395 214.862 109.395ZM214.862 106.536C214.438 106.536 214.093 106.881 214.093 107.305C214.093 107.729 214.438 108.074 214.862 108.074C215.286 108.074 215.631 107.729 215.631 107.305C215.631 106.881 215.286 106.536 214.862 106.536ZM227.704 109.435C226.552 109.435 225.614 108.497 225.614 107.345C225.614 106.193 226.552 105.255 227.704 105.255C228.856 105.255 229.794 106.193 229.794 107.345C229.794 108.497 228.856 109.435 227.704 109.435ZM227.704 106.576C227.28 106.576 226.935 106.921 226.935 107.345C226.935 107.769 227.28 108.114 227.704 108.114C228.128 108.114 228.473 107.769 228.473 107.345C228.473 106.921 228.128 106.576 227.704 106.576Z" fill="black"/>
<circle cx="120" cy="230" r="39.5" fill="white" stroke="black"/>
<g clip-path="url(#clip0_1651_1540)">
<path d="M139.654 239.104L135.554 237.054L132.944 230.266C132.913 230.186 132.866 230.113 132.806 230.051C132.746 229.99 132.674 229.942 132.594 229.91L116.404 223.438C116.29 223.393 116.166 223.382 116.047 223.406C115.928 223.431 115.818 223.489 115.732 223.575L113.572 225.735C113.487 225.821 113.43 225.93 113.406 226.049C113.382 226.168 113.393 226.291 113.438 226.404L119.91 242.594C119.942 242.674 119.99 242.746 120.051 242.806C120.113 242.866 120.186 242.913 120.266 242.944L127.054 245.554L129.104 249.654C129.147 249.744 129.211 249.823 129.291 249.883C129.371 249.943 129.464 249.984 129.563 250C129.596 250.003 129.63 250.003 129.663 250C129.828 250 129.987 249.933 130.104 249.816L139.816 240.104C139.888 240.035 139.942 239.95 139.974 239.855C140.006 239.761 140.015 239.661 140 239.563C139.984 239.464 139.943 239.371 139.883 239.291C139.823 239.211 139.744 239.147 139.654 239.104ZM114.747 226.322L115.094 225.979L123.154 234.038C122.622 234.791 122.393 235.715 122.511 236.629C122.628 237.542 123.085 238.378 123.789 238.972C124.494 239.565 125.395 239.873 126.316 239.833C127.236 239.794 128.108 239.411 128.759 238.759C129.411 238.108 129.794 237.236 129.833 236.316C129.873 235.395 129.565 234.494 128.972 233.789C128.378 233.085 127.542 232.628 126.629 232.511C125.715 232.393 124.791 232.622 124.038 233.154L115.979 225.094L116.322 224.747L131.875 230.969L134.329 237.35L127.35 244.329L120.969 241.875L114.747 226.322ZM126.157 233.729C126.718 233.729 127.262 233.925 127.696 234.282C128.13 234.639 128.426 235.135 128.535 235.686C128.644 236.237 128.558 236.809 128.293 237.304C128.027 237.799 127.599 238.187 127.079 238.401C126.56 238.615 125.983 238.643 125.445 238.479C124.908 238.316 124.444 237.971 124.133 237.503C123.821 237.036 123.681 236.475 123.737 235.916C123.793 235.357 124.04 234.835 124.438 234.438C124.894 233.983 125.512 233.728 126.157 233.729ZM129.835 248.319L128.272 245.194L135.188 238.279L138.313 239.841L129.835 248.319Z" fill="black"/>
<path d="M111.954 243.438C111.834 243.325 111.676 243.262 111.511 243.262C111.347 243.262 111.189 243.325 111.069 243.438L110.275 244.232C108.157 241.357 106.989 237.893 106.933 234.322C106.877 230.752 107.936 227.253 109.963 224.313C110.57 224.647 111.269 224.775 111.956 224.679C112.642 224.582 113.279 224.266 113.77 223.777C114.261 223.288 114.581 222.653 114.681 221.967C114.781 221.281 114.657 220.581 114.325 219.972C117.265 217.945 120.764 216.886 124.335 216.942C127.905 216.998 131.369 218.167 134.244 220.285L133.438 221.069C133.322 221.186 133.257 221.345 133.257 221.51C133.256 221.592 133.272 221.674 133.303 221.75C133.334 221.826 133.38 221.895 133.438 221.954L136.194 224.688C136.311 224.804 136.47 224.87 136.635 224.87C136.8 224.87 136.958 224.804 137.075 224.688L139.816 221.947C139.874 221.889 139.92 221.82 139.952 221.744C139.983 221.669 139.999 221.587 139.999 221.505C139.999 221.423 139.983 221.342 139.952 221.266C139.92 221.19 139.874 221.121 139.816 221.063L137.075 218.322C136.958 218.206 136.8 218.141 136.635 218.141C136.47 218.141 136.311 218.206 136.194 218.322L135.135 219.375C132.524 217.411 129.437 216.176 126.191 215.799C122.946 215.422 119.658 215.915 116.666 217.229L120.269 213.635C120.678 213.83 121.142 213.874 121.58 213.76C122.018 213.645 122.402 213.379 122.662 213.008C122.922 212.638 123.043 212.187 123.003 211.736C122.963 211.285 122.764 210.863 122.442 210.545C122.121 210.226 121.696 210.032 121.245 209.997C120.794 209.961 120.344 210.087 119.977 210.351C119.609 210.616 119.347 211.002 119.237 211.441C119.127 211.88 119.176 212.344 119.375 212.75L113.294 218.841C112.677 218.427 111.935 218.24 111.195 218.312C110.455 218.384 109.763 218.711 109.237 219.237C108.711 219.763 108.384 220.455 108.312 221.195C108.24 221.935 108.427 222.677 108.841 223.294L102.75 229.375C102.342 229.177 101.877 229.129 101.437 229.241C100.997 229.353 100.611 229.617 100.348 229.986C100.084 230.356 99.9602 230.807 99.9978 231.259C100.035 231.712 100.232 232.136 100.553 232.457C100.874 232.778 101.299 232.975 101.751 233.012C102.203 233.05 102.654 232.926 103.024 232.663C103.393 232.399 103.658 232.013 103.77 231.573C103.881 231.133 103.834 230.668 103.635 230.26L107.238 226.666C105.923 229.657 105.428 232.944 105.804 236.19C106.18 239.436 107.412 242.523 109.375 245.135L108.319 246.194C108.203 246.311 108.137 246.47 108.137 246.635C108.137 246.8 108.203 246.958 108.319 247.075L111.06 249.816C111.177 249.933 111.335 250 111.5 250C111.583 250 111.665 249.984 111.741 249.953C111.817 249.921 111.886 249.875 111.944 249.816L114.688 247.075C114.804 246.958 114.87 246.8 114.87 246.635C114.87 246.47 114.804 246.311 114.688 246.194L111.954 243.438ZM136.641 219.641L138.497 221.497L136.641 223.354L134.785 221.497L136.641 219.641ZM120.625 211.447C120.718 211.354 120.837 211.29 120.966 211.264C121.095 211.237 121.23 211.25 121.352 211.301C121.473 211.351 121.578 211.436 121.651 211.546C121.724 211.655 121.764 211.784 121.764 211.916C121.764 212.048 121.724 212.177 121.651 212.286C121.578 212.396 121.473 212.481 121.352 212.532C121.23 212.582 121.095 212.595 120.966 212.568C120.837 212.542 120.718 212.478 120.625 212.385C120.564 212.323 120.515 212.25 120.482 212.17C120.448 212.089 120.431 212.003 120.431 211.916C120.431 211.829 120.448 211.743 120.482 211.662C120.515 211.582 120.564 211.509 120.625 211.447ZM110.125 220.125C110.307 219.943 110.523 219.798 110.76 219.7C110.998 219.601 111.253 219.55 111.51 219.55C111.767 219.55 112.022 219.601 112.259 219.7C112.497 219.798 112.713 219.943 112.894 220.125C113.169 220.399 113.355 220.748 113.431 221.129C113.507 221.509 113.469 221.903 113.32 222.261C113.172 222.619 112.921 222.926 112.599 223.141C112.276 223.356 111.897 223.471 111.51 223.471C111.122 223.471 110.743 223.356 110.421 223.141C110.099 222.926 109.848 222.619 109.699 222.261C109.551 221.903 109.512 221.509 109.588 221.129C109.664 220.748 109.851 220.399 110.125 220.125ZM102.388 231.563C102.26 231.669 102.098 231.724 101.932 231.717C101.766 231.709 101.608 231.64 101.491 231.522C101.374 231.405 101.304 231.248 101.297 231.082C101.289 230.916 101.344 230.753 101.45 230.625C101.576 230.503 101.744 230.434 101.919 230.434C102.095 230.434 102.263 230.503 102.388 230.625C102.45 230.687 102.498 230.76 102.532 230.84C102.565 230.921 102.582 231.007 102.582 231.094C102.582 231.181 102.565 231.267 102.532 231.348C102.498 231.428 102.45 231.501 102.388 231.563ZM111.51 248.479L109.654 246.622L111.51 244.766L113.366 246.622L111.51 248.479Z" fill="black"/>
</g>
<defs>
<clipPath id="clip0_1651_1540">
<rect width="40" height="40" fill="white" transform="translate(100 210)"/>
</clipPath>
</defs>
</svg>
