<svg width="500" height="407" viewBox="0 0 500 407" fill="none" xmlns="http://www.w3.org/2000/svg">
<path d="M280.992 55.5014C280.44 55.4973 279.996 55.0462 280 54.4939C280.004 53.9416 280.455 53.4973 281.008 53.5015L280.992 55.5014ZM408.177 103.128L402.479 93.0841L414.026 93.1715L408.177 103.128ZM408.537 55.4664L408.545 54.4664L409.545 54.474L409.537 55.4739L408.537 55.4664ZM283 53.5166C283.553 53.5207 283.997 53.9718 283.993 54.5241C283.989 55.0764 283.537 55.5207 282.985 55.5165L283 53.5166ZM286.971 55.5467C286.418 55.5425 285.974 55.0914 285.978 54.5391C285.983 53.9869 286.434 53.5425 286.986 53.5467L286.971 55.5467ZM290.971 53.5769C291.524 53.5811 291.968 54.0321 291.964 54.5844C291.96 55.1367 291.509 55.581 290.956 55.5768L290.971 53.5769ZM294.942 55.607C294.39 55.6028 293.945 55.1517 293.949 54.5994C293.954 54.0472 294.405 53.6029 294.957 53.607L294.942 55.607ZM298.942 53.6372C299.495 53.6414 299.939 54.0924 299.935 54.6447C299.931 55.197 299.48 55.6413 298.927 55.6371L298.942 53.6372ZM302.913 55.6673C302.361 55.6631 301.916 55.212 301.92 54.6597C301.925 54.1075 302.376 53.6632 302.928 53.6673L302.913 55.6673ZM306.914 53.6975C307.466 53.7017 307.91 54.1528 307.906 54.705C307.902 55.2573 307.451 55.7016 306.898 55.6974L306.914 53.6975ZM310.884 55.7276C310.332 55.7234 309.887 55.2723 309.892 54.72C309.896 54.1678 310.347 53.7235 310.899 53.7276L310.884 55.7276ZM314.885 53.7578C315.437 53.762 315.881 54.2131 315.877 54.7653C315.873 55.3176 315.422 55.7619 314.87 55.7577L314.885 53.7578ZM318.855 55.7879C318.303 55.7837 317.858 55.3326 317.863 54.7804C317.867 54.2281 318.318 53.7838 318.87 53.7879L318.855 55.7879ZM322.856 53.8181C323.408 53.8223 323.852 54.2734 323.848 54.8256C323.844 55.3779 323.393 55.8222 322.841 55.818L322.856 53.8181ZM326.826 55.8482C326.274 55.844 325.83 55.3929 325.834 54.8407C325.838 54.2884 326.289 53.8441 326.841 53.8483L326.826 55.8482ZM330.827 53.8784C331.379 53.8826 331.823 54.3337 331.819 54.8859C331.815 55.4382 331.364 55.8825 330.812 55.8783L330.827 53.8784ZM334.797 55.9085C334.245 55.9043 333.801 55.4532 333.805 54.901C333.809 54.3487 334.26 53.9044 334.812 53.9086L334.797 55.9085ZM338.798 53.9387C339.35 53.9429 339.794 54.394 339.79 54.9462C339.786 55.4985 339.335 55.9428 338.783 55.9387L338.798 53.9387ZM342.768 55.9688C342.216 55.9646 341.772 55.5135 341.776 54.9613C341.78 54.409 342.231 53.9647 342.783 53.9689L342.768 55.9688ZM346.769 53.999C347.321 54.0032 347.766 54.4543 347.761 55.0066C347.757 55.5588 347.306 56.0031 346.754 55.999L346.769 53.999ZM350.739 56.0291C350.187 56.0249 349.743 55.5738 349.747 55.0216C349.751 54.4693 350.202 54.025 350.755 54.0292L350.739 56.0291ZM354.74 54.0593C355.292 54.0635 355.737 54.5146 355.732 55.0669C355.728 55.6191 355.277 56.0634 354.725 56.0593L354.74 54.0593ZM358.71 56.0894C358.158 56.0852 357.714 55.6342 357.718 55.0819C357.722 54.5296 358.173 54.0853 358.726 54.0895L358.71 56.0894ZM362.711 54.1196C363.263 54.1238 363.708 54.5749 363.704 55.1272C363.699 55.6794 363.248 56.1237 362.696 56.1196L362.711 54.1196ZM366.682 56.1497C366.129 56.1455 365.685 55.6945 365.689 55.1422C365.693 54.5899 366.144 54.1456 366.697 54.1498L366.682 56.1497ZM370.682 54.1799C371.234 54.1841 371.679 54.6352 371.675 55.1875C371.67 55.7397 371.219 56.1841 370.667 56.1799L370.682 54.1799ZM374.653 56.21C374.1 56.2059 373.656 55.7548 373.66 55.2025C373.664 54.6502 374.115 54.2059 374.668 54.2101L374.653 56.21ZM378.653 54.2402C379.206 54.2444 379.65 54.6955 379.646 55.2478C379.642 55.8 379.19 56.2444 378.638 56.2402L378.653 54.2402ZM382.624 56.2703C382.071 56.2662 381.627 55.8151 381.631 55.2628C381.635 54.7105 382.087 54.2662 382.639 54.2704L382.624 56.2703ZM386.624 54.3005C387.177 54.3047 387.621 54.7558 387.617 55.3081C387.613 55.8604 387.162 56.3047 386.609 56.3005L386.624 54.3005ZM390.595 56.3306C390.043 56.3265 389.598 55.8754 389.602 55.3231C389.607 54.7708 390.058 54.3265 390.61 54.3307L390.595 56.3306ZM394.595 54.3608C395.148 54.365 395.592 54.8161 395.588 55.3684C395.584 55.9207 395.133 56.365 394.58 56.3608L394.595 54.3608ZM398.566 56.3909C398.014 56.3868 397.569 55.9357 397.573 55.3834C397.578 54.8311 398.029 54.3868 398.581 54.391L398.566 56.3909ZM402.567 54.4212C403.119 54.4253 403.563 54.8764 403.559 55.4287C403.555 55.981 403.104 56.4253 402.551 56.4211L402.567 54.4212ZM406.537 56.4513C405.985 56.4471 405.54 55.996 405.545 55.4437C405.549 54.8914 406 54.4471 406.552 54.4513L406.537 56.4513ZM409.522 57.4598C409.518 58.0121 409.067 58.4564 408.515 58.4522C407.962 58.448 407.518 57.9969 407.522 57.4447L409.522 57.4598ZM407.492 61.4164C407.496 60.8642 407.947 60.4199 408.5 60.424C409.052 60.4282 409.496 60.8793 409.492 61.4316L407.492 61.4164ZM409.462 65.4033C409.458 65.9556 409.007 66.3999 408.455 66.3957C407.902 66.3916 407.458 65.9405 407.462 65.3882L409.462 65.4033ZM407.432 69.36C407.436 68.8077 407.887 68.3634 408.44 68.3676C408.992 68.3717 409.436 68.8228 409.432 69.3751L407.432 69.36ZM409.402 73.3469C409.398 73.8991 408.947 74.3434 408.394 74.3393C407.842 74.3351 407.398 73.884 407.402 73.3317L409.402 73.3469ZM407.372 77.3035C407.376 76.7512 407.827 76.3069 408.38 76.3111C408.932 76.3153 409.376 76.7664 409.372 77.3186L407.372 77.3035ZM409.342 81.2904C409.338 81.8427 408.887 82.287 408.334 82.2828C407.782 82.2786 407.338 81.8275 407.342 81.2753L409.342 81.2904ZM407.312 85.247C407.316 84.6948 407.767 84.2504 408.319 84.2546C408.872 84.2588 409.316 84.7099 409.312 85.2622L407.312 85.247ZM409.282 89.2339C409.278 89.7862 408.827 90.2305 408.274 90.2263C407.722 90.2222 407.278 89.7711 407.282 89.2188L409.282 89.2339ZM407.252 93.1906C407.256 92.6383 407.707 92.194 408.259 92.1982C408.812 92.2023 409.256 92.6534 409.252 93.2057L407.252 93.1906ZM409.222 97.1775C409.218 97.7297 408.766 98.174 408.214 98.1699C407.662 98.1657 407.218 97.7146 407.222 97.1623L409.222 97.1775ZM407.192 101.134C407.196 100.582 407.647 100.137 408.199 100.142C408.752 100.146 409.196 100.597 409.192 101.149L407.192 101.134ZM281.008 53.5015L283 53.5166L282.985 55.5165L280.992 55.5014L281.008 53.5015ZM286.986 53.5467L290.971 53.5769L290.956 55.5768L286.971 55.5467L286.986 53.5467ZM294.957 53.607L298.942 53.6372L298.927 55.6371L294.942 55.607L294.957 53.607ZM302.928 53.6673L306.914 53.6975L306.898 55.6974L302.913 55.6673L302.928 53.6673ZM310.899 53.7276L314.885 53.7578L314.87 55.7577L310.884 55.7276L310.899 53.7276ZM318.87 53.7879L322.856 53.8181L322.841 55.818L318.855 55.7879L318.87 53.7879ZM326.841 53.8483L330.827 53.8784L330.812 55.8783L326.826 55.8482L326.841 53.8483ZM334.812 53.9086L338.798 53.9387L338.783 55.9387L334.797 55.9085L334.812 53.9086ZM342.783 53.9689L346.769 53.999L346.754 55.999L342.768 55.9688L342.783 53.9689ZM350.755 54.0292L354.74 54.0593L354.725 56.0593L350.739 56.0291L350.755 54.0292ZM358.726 54.0895L362.711 54.1196L362.696 56.1196L358.71 56.0894L358.726 54.0895ZM366.697 54.1498L370.682 54.1799L370.667 56.1799L366.682 56.1497L366.697 54.1498ZM374.668 54.2101L378.653 54.2402L378.638 56.2402L374.653 56.21L374.668 54.2101ZM382.639 54.2704L386.624 54.3005L386.609 56.3005L382.624 56.2703L382.639 54.2704ZM390.61 54.3307L394.595 54.3608L394.58 56.3608L390.595 56.3306L390.61 54.3307ZM398.581 54.391L402.567 54.4212L402.551 56.4211L398.566 56.3909L398.581 54.391ZM406.552 54.4513L408.545 54.4664L408.53 56.4663L406.537 56.4513L406.552 54.4513ZM409.537 55.4739L409.522 57.4598L407.522 57.4447L407.537 55.4588L409.537 55.4739ZM409.492 61.4316L409.462 65.4033L407.462 65.3882L407.492 61.4164L409.492 61.4316ZM409.432 69.3751L409.402 73.3469L407.402 73.3317L407.432 69.36L409.432 69.3751ZM409.372 77.3186L409.342 81.2904L407.342 81.2753L407.372 77.3035L409.372 77.3186ZM409.312 85.2622L409.282 89.2339L407.282 89.2188L407.312 85.247L409.312 85.2622ZM409.252 93.2057L409.222 97.1775L407.222 97.1623L407.252 93.1906L409.252 93.2057Z" fill="#8A5DD6"/>
<rect x="205" y="304.798" width="83.8723" height="79.8655" fill="#89EB8D" fill-opacity="0.88"/>
<rect x="329.255" y="257" width="83.8723" height="79.8655" fill="#89EB8D" fill-opacity="0.88"/>
<rect x="334.433" y="370.748" width="83.8723" height="9.68067" fill="#89EB8D" fill-opacity="0.88"/>
<rect x="413.128" y="338.076" width="83.8723" height="62.9244" fill="#89EB8D" fill-opacity="0.88"/>
<g filter="url(#filter0_bii_3843_212)">
<rect x="202" y="122" width="298" height="285" rx="9" fill="white" fill-opacity="0.03"/>
<rect x="203" y="123" width="296" height="283" rx="8" stroke="black" stroke-width="2"/>
</g>
<rect x="204" y="142.673" width="294" height="109.977" fill="#C7FEBE"/>
<path d="M256.947 142.673H204.019V151.337C204.019 180.569 227.716 204.266 256.947 204.266V204.266V142.673Z" fill="#E6FFE1"/>
<path d="M257.026 230.73C257.026 216.115 268.875 204.266 283.491 204.266V204.266C298.107 204.266 309.955 216.115 309.955 230.73V252.657H257.026V230.73Z" fill="#C9ECDB"/>
<rect x="309.958" y="204.21" width="52.8229" height="48.3625" fill="#E6FFE1"/>
<rect x="362.729" y="142.673" width="52.7719" height="61.5375" fill="#E6FFE1"/>
<path d="M362.83 142.673V142.673C333.598 142.673 309.901 166.37 309.901 195.602V204.266H362.83V142.673Z" fill="#C9ECDB"/>
<rect x="362.856" y="204.21" width="52.9287" height="48.447" fill="#C9ECDB"/>
<rect x="415.785" y="204.266" width="52.9022" height="48.3907" fill="#E6FFE1"/>
<ellipse cx="283.451" cy="173.455" rx="26.5041" ry="28.1927" transform="rotate(180 283.451 173.455)" fill="#C9ECDB"/>
<path d="M204.044 252.657H256.999C256.999 225.929 233.293 204.266 204.044 204.266V252.657Z" fill="#E6FFE1"/>
<path d="M415.785 142.673V204.266C431.081 203.473 443.255 189.99 443.255 173.473C443.255 156.956 431.081 143.466 415.785 142.673Z" fill="#E6FFE1"/>
<path d="M435.502 174.99V204.266C443.056 204.266 449.184 197.711 449.184 189.628C449.184 181.545 443.056 174.99 435.502 174.99Z" fill="#B5CE80"/>
<path d="M445.902 173.075C453.765 173.075 460.14 166.27 460.14 157.874C460.14 149.479 453.765 142.673 445.902 142.673C438.039 142.673 431.664 149.479 431.664 157.874C431.664 166.27 438.039 173.075 445.902 173.075Z" fill="#C9ECDB"/>
<path fill-rule="evenodd" clip-rule="evenodd" d="M362.884 252.6C362.884 237.071 351.034 224.478 336.419 224.478C321.805 224.478 309.955 237.071 309.955 252.6H362.884Z" fill="#B4D8AE"/>
<path d="M362.83 204.21L415.653 142.729V204.21H362.83Z" fill="#B4D8AE"/>
<rect x="214.683" y="292.764" width="64.5716" height="110.236" rx="9" fill="white"/>
<rect x="284.037" y="292.764" width="64.5716" height="110.236" rx="9" fill="white"/>
<rect x="353.392" y="292.764" width="64.5716" height="110.236" rx="9" fill="white"/>
<rect x="422.746" y="292.764" width="64.5716" height="110.236" rx="9" fill="white"/>
<rect x="206" y="125" width="291" height="17" rx="8.5" fill="white"/>
<rect x="231.11" y="127.579" width="78.9208" height="10.3452" rx="5.17262" fill="#F0F6EF"/>
<ellipse cx="373.995" cy="133.26" rx="4.54393" ry="4.83343" fill="#F0F6EF"/>
<ellipse cx="428.522" cy="133.26" rx="4.54393" ry="4.83343" fill="#F0F6EF"/>
<ellipse cx="392.171" cy="133.26" rx="4.54393" ry="4.83343" fill="#F0F6EF"/>
<ellipse cx="446.698" cy="133.26" rx="4.54393" ry="4.83343" fill="#F0F6EF"/>
<ellipse cx="410.347" cy="133.26" rx="4.54393" ry="4.83343" fill="#F0F6EF"/>
<ellipse cx="464.873" cy="133.26" rx="4.54393" ry="4.83343" fill="#F0F6EF"/>
<rect x="477.867" y="127.749" width="9.56616" height="11.0236" rx="4.78308" fill="#F0F6EF"/>
<ellipse cx="218.306" cy="132.836" rx="5.58026" ry="5.9358" fill="#F0F6EF"/>
<rect x="284.153" y="266.477" width="131.854" height="13.3979" fill="white"/>
<rect x="254.178" y="173.03" width="191.642" height="16.6202" fill="white"/>
<rect x="1" y="28" width="235" height="251" rx="8" fill="white" fill-opacity="0.3" stroke="black" stroke-width="2"/>
<path d="M18.9 81.368L16.008 78.608L18.9 75.86H20.28L17.376 78.608L20.28 81.368H18.9ZM23.9963 74.636L23.8643 80.636H22.9523L22.8203 74.636H23.9963ZM23.4563 83.072C23.2483 83.072 23.0723 83 22.9283 82.856C22.7843 82.712 22.7123 82.536 22.7123 82.328C22.7123 82.12 22.7843 81.944 22.9283 81.8C23.0723 81.656 23.2483 81.584 23.4563 81.584C23.6563 81.584 23.8243 81.656 23.9603 81.8C24.1043 81.944 24.1763 82.12 24.1763 82.328C24.1763 82.536 24.1043 82.712 23.9603 82.856C23.8243 83 23.6563 83.072 23.4563 83.072ZM33.9137 78.14V79.064H29.1257V78.14H33.9137ZM43.7223 78.14V79.064H38.9343V78.14H43.7223ZM53.1589 78.692C53.4629 78.74 53.7389 78.864 53.9869 79.064C54.2429 79.264 54.4429 79.512 54.5869 79.808C54.7389 80.104 54.8149 80.42 54.8149 80.756C54.8149 81.18 54.7069 81.564 54.4909 81.908C54.2749 82.244 53.9589 82.512 53.5429 82.712C53.1349 82.904 52.6509 83 52.0909 83H48.9709V74.636H51.9709C52.5389 74.636 53.0229 74.732 53.4229 74.924C53.8229 75.108 54.1229 75.36 54.3229 75.68C54.5229 76 54.6229 76.36 54.6229 76.76C54.6229 77.256 54.4869 77.668 54.2149 77.996C53.9509 78.316 53.5989 78.548 53.1589 78.692ZM50.0629 78.248H51.8989C52.4109 78.248 52.8069 78.128 53.0869 77.888C53.3669 77.648 53.5069 77.316 53.5069 76.892C53.5069 76.468 53.3669 76.136 53.0869 75.896C52.8069 75.656 52.4029 75.536 51.8749 75.536H50.0629V78.248ZM51.9949 82.1C52.5389 82.1 52.9629 81.972 53.2669 81.716C53.5709 81.46 53.7229 81.104 53.7229 80.648C53.7229 80.184 53.5629 79.82 53.2429 79.556C52.9229 79.284 52.4949 79.148 51.9589 79.148H50.0629V82.1H51.9949ZM62.3303 79.46C62.3303 79.668 62.3183 79.888 62.2943 80.12H57.0383C57.0783 80.768 57.2983 81.276 57.6983 81.644C58.1063 82.004 58.5983 82.184 59.1743 82.184C59.6463 82.184 60.0383 82.076 60.3503 81.86C60.6703 81.636 60.8943 81.34 61.0223 80.972H62.1983C62.0223 81.604 61.6703 82.12 61.1423 82.52C60.6143 82.912 59.9583 83.108 59.1743 83.108C58.5503 83.108 57.9903 82.968 57.4943 82.688C57.0063 82.408 56.6223 82.012 56.3423 81.5C56.0623 80.98 55.9223 80.38 55.9223 79.7C55.9223 79.02 56.0583 78.424 56.3303 77.912C56.6023 77.4 56.9823 77.008 57.4703 76.736C57.9663 76.456 58.5343 76.316 59.1743 76.316C59.7983 76.316 60.3503 76.452 60.8303 76.724C61.3103 76.996 61.6783 77.372 61.9343 77.852C62.1983 78.324 62.3303 78.86 62.3303 79.46ZM61.2023 79.232C61.2023 78.816 61.1103 78.46 60.9263 78.164C60.7423 77.86 60.4903 77.632 60.1703 77.48C59.8583 77.32 59.5103 77.24 59.1263 77.24C58.5743 77.24 58.1023 77.416 57.7103 77.768C57.3263 78.12 57.1063 78.608 57.0503 79.232H61.2023ZM66.4477 77.324H65.0677V83H63.9757V77.324H63.1237V76.424H63.9757V75.956C63.9757 75.22 64.1637 74.684 64.5397 74.348C64.9237 74.004 65.5357 73.832 66.3757 73.832V74.744C65.8957 74.744 65.5557 74.84 65.3557 75.032C65.1637 75.216 65.0677 75.524 65.0677 75.956V76.424H66.4477V77.324ZM70.5889 83.108C69.9729 83.108 69.4129 82.968 68.9089 82.688C68.4129 82.408 68.0209 82.012 67.7329 81.5C67.4529 80.98 67.3129 80.38 67.3129 79.7C67.3129 79.028 67.4569 78.436 67.7449 77.924C68.0409 77.404 68.4409 77.008 68.9449 76.736C69.4489 76.456 70.0129 76.316 70.6369 76.316C71.2609 76.316 71.8249 76.456 72.3289 76.736C72.8329 77.008 73.2289 77.4 73.5169 77.912C73.8129 78.424 73.9609 79.02 73.9609 79.7C73.9609 80.38 73.8089 80.98 73.5049 81.5C73.2089 82.012 72.8049 82.408 72.2929 82.688C71.7809 82.968 71.2129 83.108 70.5889 83.108ZM70.5889 82.148C70.9809 82.148 71.3489 82.056 71.6929 81.872C72.0369 81.688 72.3129 81.412 72.5209 81.044C72.7369 80.676 72.8449 80.228 72.8449 79.7C72.8449 79.172 72.7409 78.724 72.5329 78.356C72.3249 77.988 72.0529 77.716 71.7169 77.54C71.3809 77.356 71.0169 77.264 70.6249 77.264C70.2249 77.264 69.8569 77.356 69.5209 77.54C69.1929 77.716 68.9289 77.988 68.7289 78.356C68.5289 78.724 68.4289 79.172 68.4289 79.7C68.4289 80.236 68.5249 80.688 68.7169 81.056C68.9169 81.424 69.1809 81.7 69.5089 81.884C69.8369 82.06 70.1969 82.148 70.5889 82.148ZM76.4887 77.492C76.6807 77.116 76.9527 76.824 77.3047 76.616C77.6647 76.408 78.1007 76.304 78.6127 76.304V77.432H78.3247C77.1007 77.432 76.4887 78.096 76.4887 79.424V83H75.3967V76.424H76.4887V77.492ZM85.8732 79.46C85.8732 79.668 85.8612 79.888 85.8372 80.12H80.5812C80.6212 80.768 80.8412 81.276 81.2412 81.644C81.6492 82.004 82.1412 82.184 82.7172 82.184C83.1892 82.184 83.5812 82.076 83.8932 81.86C84.2132 81.636 84.4372 81.34 84.5652 80.972H85.7412C85.5652 81.604 85.2132 82.12 84.6852 82.52C84.1572 82.912 83.5012 83.108 82.7172 83.108C82.0932 83.108 81.5332 82.968 81.0372 82.688C80.5492 82.408 80.1652 82.012 79.8852 81.5C79.6052 80.98 79.4652 80.38 79.4652 79.7C79.4652 79.02 79.6012 78.424 79.8732 77.912C80.1452 77.4 80.5252 77.008 81.0132 76.736C81.5092 76.456 82.0772 76.316 82.7172 76.316C83.3412 76.316 83.8932 76.452 84.3732 76.724C84.8532 76.996 85.2212 77.372 85.4772 77.852C85.7412 78.324 85.8732 78.86 85.8732 79.46ZM84.7452 79.232C84.7452 78.816 84.6532 78.46 84.4692 78.164C84.2852 77.86 84.0332 77.632 83.7132 77.48C83.4012 77.32 83.0532 77.24 82.6692 77.24C82.1172 77.24 81.6452 77.416 81.2532 77.768C80.8692 78.12 80.6492 78.608 80.5932 79.232H84.7452ZM20.484 100.14V101.064H15.696V100.14H20.484ZM27.0934 100.14V101.064H22.3054V100.14H27.0934ZM29.3468 97.86H30.7268L33.6308 100.608L30.7268 103.368H29.3468L32.2508 100.608L29.3468 97.86ZM44.5199 123.7C44.5199 123.02 44.6559 122.428 44.9279 121.924C45.1999 121.412 45.5759 121.016 46.0559 120.736C46.5439 120.456 47.0999 120.316 47.7239 120.316C48.5319 120.316 49.1959 120.512 49.7159 120.904C50.2439 121.296 50.5919 121.84 50.7599 122.536H49.5839C49.4719 122.136 49.2519 121.82 48.9239 121.588C48.6039 121.356 48.2039 121.24 47.7239 121.24C47.0999 121.24 46.5959 121.456 46.2119 121.888C45.8279 122.312 45.6359 122.916 45.6359 123.7C45.6359 124.492 45.8279 125.104 46.2119 125.536C46.5959 125.968 47.0999 126.184 47.7239 126.184C48.2039 126.184 48.6039 126.072 48.9239 125.848C49.2439 125.624 49.4639 125.304 49.5839 124.888H50.7599C50.5839 125.56 50.2319 126.1 49.7039 126.508C49.1759 126.908 48.5159 127.108 47.7239 127.108C47.0999 127.108 46.5439 126.968 46.0559 126.688C45.5759 126.408 45.1999 126.012 44.9279 125.5C44.6559 124.988 44.5199 124.388 44.5199 123.7ZM53.309 118.12V127H52.217V118.12H53.309ZM54.7621 123.688C54.7621 123.016 54.8981 122.428 55.1701 121.924C55.4421 121.412 55.8141 121.016 56.2861 120.736C56.7661 120.456 57.2981 120.316 57.8821 120.316C58.4581 120.316 58.9581 120.44 59.3821 120.688C59.8061 120.936 60.1221 121.248 60.3301 121.624V120.424H61.4341V127H60.3301V125.776C60.1141 126.16 59.7901 126.48 59.3581 126.736C58.9341 126.984 58.4381 127.108 57.8701 127.108C57.2861 127.108 56.7581 126.964 56.2861 126.676C55.8141 126.388 55.4421 125.984 55.1701 125.464C54.8981 124.944 54.7621 124.352 54.7621 123.688ZM60.3301 123.7C60.3301 123.204 60.2301 122.772 60.0301 122.404C59.8301 122.036 59.5581 121.756 59.2141 121.564C58.8781 121.364 58.5061 121.264 58.0981 121.264C57.6901 121.264 57.3181 121.36 56.9821 121.552C56.6461 121.744 56.3781 122.024 56.1781 122.392C55.9781 122.76 55.8781 123.192 55.8781 123.688C55.8781 124.192 55.9781 124.632 56.1781 125.008C56.3781 125.376 56.6461 125.66 56.9821 125.86C57.3181 126.052 57.6901 126.148 58.0981 126.148C58.5061 126.148 58.8781 126.052 59.2141 125.86C59.5581 125.66 59.8301 125.376 60.0301 125.008C60.2301 124.632 60.3301 124.196 60.3301 123.7ZM65.6075 127.108C65.1035 127.108 64.6515 127.024 64.2515 126.856C63.8515 126.68 63.5355 126.44 63.3035 126.136C63.0715 125.824 62.9435 125.468 62.9195 125.068H64.0475C64.0795 125.396 64.2315 125.664 64.5035 125.872C64.7835 126.08 65.1475 126.184 65.5955 126.184C66.0115 126.184 66.3395 126.092 66.5795 125.908C66.8195 125.724 66.9395 125.492 66.9395 125.212C66.9395 124.924 66.8115 124.712 66.5555 124.576C66.2995 124.432 65.9035 124.292 65.3675 124.156C64.8795 124.028 64.4795 123.9 64.1675 123.772C63.8635 123.636 63.5995 123.44 63.3755 123.184C63.1595 122.92 63.0515 122.576 63.0515 122.152C63.0515 121.816 63.1515 121.508 63.3515 121.228C63.5515 120.948 63.8355 120.728 64.2035 120.568C64.5715 120.4 64.9915 120.316 65.4635 120.316C66.1915 120.316 66.7795 120.5 67.2275 120.868C67.6755 121.236 67.9155 121.74 67.9475 122.38H66.8555C66.8315 122.036 66.6915 121.76 66.4355 121.552C66.1875 121.344 65.8515 121.24 65.4275 121.24C65.0355 121.24 64.7235 121.324 64.4915 121.492C64.2595 121.66 64.1435 121.88 64.1435 122.152C64.1435 122.368 64.2115 122.548 64.3475 122.692C64.4915 122.828 64.6675 122.94 64.8755 123.028C65.0915 123.108 65.3875 123.2 65.7635 123.304C66.2355 123.432 66.6195 123.56 66.9155 123.688C67.2115 123.808 67.4635 123.992 67.6715 124.24C67.8875 124.488 67.9995 124.812 68.0075 125.212C68.0075 125.572 67.9075 125.896 67.7075 126.184C67.5075 126.472 67.2235 126.7 66.8555 126.868C66.4955 127.028 66.0795 127.108 65.6075 127.108ZM71.877 127.108C71.373 127.108 70.921 127.024 70.521 126.856C70.121 126.68 69.805 126.44 69.573 126.136C69.341 125.824 69.213 125.468 69.189 125.068H70.317C70.349 125.396 70.501 125.664 70.773 125.872C71.053 126.08 71.417 126.184 71.865 126.184C72.281 126.184 72.609 126.092 72.849 125.908C73.089 125.724 73.209 125.492 73.209 125.212C73.209 124.924 73.081 124.712 72.825 124.576C72.569 124.432 72.173 124.292 71.637 124.156C71.149 124.028 70.749 123.9 70.437 123.772C70.133 123.636 69.869 123.44 69.645 123.184C69.429 122.92 69.321 122.576 69.321 122.152C69.321 121.816 69.421 121.508 69.621 121.228C69.821 120.948 70.105 120.728 70.473 120.568C70.841 120.4 71.261 120.316 71.733 120.316C72.461 120.316 73.049 120.5 73.497 120.868C73.945 121.236 74.185 121.74 74.217 122.38H73.125C73.101 122.036 72.961 121.76 72.705 121.552C72.457 121.344 72.121 121.24 71.697 121.24C71.305 121.24 70.993 121.324 70.761 121.492C70.529 121.66 70.413 121.88 70.413 122.152C70.413 122.368 70.481 122.548 70.617 122.692C70.761 122.828 70.937 122.94 71.145 123.028C71.361 123.108 71.657 123.2 72.033 123.304C72.505 123.432 72.889 123.56 73.185 123.688C73.481 123.808 73.733 123.992 73.941 124.24C74.157 124.488 74.269 124.812 74.277 125.212C74.277 125.572 74.177 125.896 73.977 126.184C73.777 126.472 73.493 126.7 73.125 126.868C72.765 127.028 72.349 127.108 71.877 127.108ZM82.3465 120.856V121.78H76.1065V120.856H82.3465ZM82.3465 123.436V124.36H76.1065V123.436H82.3465ZM85.0184 117.448L84.8864 119.836H84.1304L83.9864 117.448H85.0184ZM86.6384 117.448L86.5064 119.836H85.7504L85.6064 117.448H86.6384ZM91.2583 120.304C91.7543 120.304 92.2023 120.412 92.6023 120.628C93.0023 120.836 93.3143 121.152 93.5383 121.576C93.7703 122 93.8863 122.516 93.8863 123.124V127H92.8063V123.28C92.8063 122.624 92.6423 122.124 92.3143 121.78C91.9863 121.428 91.5383 121.252 90.9703 121.252C90.3943 121.252 89.9343 121.432 89.5903 121.792C89.2543 122.152 89.0863 122.676 89.0863 123.364V127H87.9943V118.12H89.0863V121.36C89.3023 121.024 89.5983 120.764 89.9743 120.58C90.3583 120.396 90.7863 120.304 91.2583 120.304ZM101.67 123.46C101.67 123.668 101.658 123.888 101.634 124.12H96.3781C96.4181 124.768 96.6381 125.276 97.0381 125.644C97.4461 126.004 97.9381 126.184 98.5141 126.184C98.9861 126.184 99.3781 126.076 99.6901 125.86C100.01 125.636 100.234 125.34 100.362 124.972H101.538C101.362 125.604 101.01 126.12 100.482 126.52C99.9541 126.912 99.2981 127.108 98.5141 127.108C97.8901 127.108 97.3301 126.968 96.8341 126.688C96.3461 126.408 95.9621 126.012 95.6821 125.5C95.4021 124.98 95.2621 124.38 95.2621 123.7C95.2621 123.02 95.3981 122.424 95.6701 121.912C95.9421 121.4 96.3221 121.008 96.8101 120.736C97.3061 120.456 97.8741 120.316 98.5141 120.316C99.1381 120.316 99.6901 120.452 100.17 120.724C100.65 120.996 101.018 121.372 101.274 121.852C101.538 122.324 101.67 122.86 101.67 123.46ZM100.542 123.232C100.542 122.816 100.45 122.46 100.266 122.164C100.082 121.86 99.8301 121.632 99.5101 121.48C99.1981 121.32 98.8501 121.24 98.4661 121.24C97.9141 121.24 97.4421 121.416 97.0501 121.768C96.6661 122.12 96.4461 122.608 96.3901 123.232H100.542ZM102.704 123.688C102.704 123.016 102.84 122.428 103.112 121.924C103.384 121.412 103.756 121.016 104.228 120.736C104.708 120.456 105.24 120.316 105.824 120.316C106.4 120.316 106.9 120.44 107.324 120.688C107.748 120.936 108.064 121.248 108.272 121.624V120.424H109.376V127H108.272V125.776C108.056 126.16 107.732 126.48 107.3 126.736C106.876 126.984 106.38 127.108 105.812 127.108C105.228 127.108 104.7 126.964 104.228 126.676C103.756 126.388 103.384 125.984 103.112 125.464C102.84 124.944 102.704 124.352 102.704 123.688ZM108.272 123.7C108.272 123.204 108.172 122.772 107.972 122.404C107.772 122.036 107.5 121.756 107.156 121.564C106.82 121.364 106.448 121.264 106.04 121.264C105.632 121.264 105.26 121.36 104.924 121.552C104.588 121.744 104.32 122.024 104.12 122.392C103.92 122.76 103.82 123.192 103.82 123.688C103.82 124.192 103.92 124.632 104.12 125.008C104.32 125.376 104.588 125.66 104.924 125.86C105.26 126.052 105.632 126.148 106.04 126.148C106.448 126.148 106.82 126.052 107.156 125.86C107.5 125.66 107.772 125.376 107.972 125.008C108.172 124.632 108.272 124.196 108.272 123.7ZM110.813 123.688C110.813 123.016 110.949 122.428 111.221 121.924C111.493 121.412 111.865 121.016 112.337 120.736C112.817 120.456 113.353 120.316 113.945 120.316C114.457 120.316 114.933 120.436 115.373 120.676C115.813 120.908 116.149 121.216 116.381 121.6V118.12H117.485V127H116.381V125.764C116.165 126.156 115.845 126.48 115.421 126.736C114.997 126.984 114.501 127.108 113.933 127.108C113.349 127.108 112.817 126.964 112.337 126.676C111.865 126.388 111.493 125.984 111.221 125.464C110.949 124.944 110.813 124.352 110.813 123.688ZM116.381 123.7C116.381 123.204 116.281 122.772 116.081 122.404C115.881 122.036 115.609 121.756 115.265 121.564C114.929 121.364 114.557 121.264 114.149 121.264C113.741 121.264 113.369 121.36 113.033 121.552C112.697 121.744 112.429 122.024 112.229 122.392C112.029 122.76 111.929 123.192 111.929 123.688C111.929 124.192 112.029 124.632 112.229 125.008C112.429 125.376 112.697 125.66 113.033 125.86C113.369 126.052 113.741 126.148 114.149 126.148C114.557 126.148 114.929 126.052 115.265 125.86C115.609 125.66 115.881 125.376 116.081 125.008C116.281 124.632 116.381 124.196 116.381 123.7ZM125.33 123.46C125.33 123.668 125.318 123.888 125.294 124.12H120.038C120.078 124.768 120.298 125.276 120.698 125.644C121.106 126.004 121.598 126.184 122.174 126.184C122.646 126.184 123.038 126.076 123.35 125.86C123.67 125.636 123.894 125.34 124.022 124.972H125.198C125.022 125.604 124.67 126.12 124.142 126.52C123.614 126.912 122.958 127.108 122.174 127.108C121.55 127.108 120.99 126.968 120.494 126.688C120.006 126.408 119.622 126.012 119.342 125.5C119.062 124.98 118.922 124.38 118.922 123.7C118.922 123.02 119.058 122.424 119.33 121.912C119.602 121.4 119.982 121.008 120.47 120.736C120.966 120.456 121.534 120.316 122.174 120.316C122.798 120.316 123.35 120.452 123.83 120.724C124.31 120.996 124.678 121.372 124.934 121.852C125.198 122.324 125.33 122.86 125.33 123.46ZM124.202 123.232C124.202 122.816 124.11 122.46 123.926 122.164C123.742 121.86 123.49 121.632 123.17 121.48C122.858 121.32 122.51 121.24 122.126 121.24C121.574 121.24 121.102 121.416 120.71 121.768C120.326 122.12 120.106 122.608 120.05 123.232H124.202ZM127.864 121.492C128.056 121.116 128.328 120.824 128.68 120.616C129.04 120.408 129.476 120.304 129.988 120.304V121.432H129.7C128.476 121.432 127.864 122.096 127.864 123.424V127H126.772V120.424H127.864V121.492ZM131.776 117.448L131.644 119.836H130.888L130.744 117.448H131.776ZM133.396 117.448L133.264 119.836H132.508L132.364 117.448H133.396ZM134.956 119.86H136.336L139.24 122.608L136.336 125.368H134.956L137.86 122.608L134.956 119.86ZM44.5199 145.7C44.5199 145.02 44.6559 144.428 44.9279 143.924C45.1999 143.412 45.5759 143.016 46.0559 142.736C46.5439 142.456 47.0999 142.316 47.7239 142.316C48.5319 142.316 49.1959 142.512 49.7159 142.904C50.2439 143.296 50.5919 143.84 50.7599 144.536H49.5839C49.4719 144.136 49.2519 143.82 48.9239 143.588C48.6039 143.356 48.2039 143.24 47.7239 143.24C47.0999 143.24 46.5959 143.456 46.2119 143.888C45.8279 144.312 45.6359 144.916 45.6359 145.7C45.6359 146.492 45.8279 147.104 46.2119 147.536C46.5959 147.968 47.0999 148.184 47.7239 148.184C48.2039 148.184 48.6039 148.072 48.9239 147.848C49.2439 147.624 49.4639 147.304 49.5839 146.888H50.7599C50.5839 147.56 50.2319 148.1 49.7039 148.508C49.1759 148.908 48.5159 149.108 47.7239 149.108C47.0999 149.108 46.5439 148.968 46.0559 148.688C45.5759 148.408 45.1999 148.012 44.9279 147.5C44.6559 146.988 44.5199 146.388 44.5199 145.7ZM53.309 140.12V149H52.217V140.12H53.309ZM54.7621 145.688C54.7621 145.016 54.8981 144.428 55.1701 143.924C55.4421 143.412 55.8141 143.016 56.2861 142.736C56.7661 142.456 57.2981 142.316 57.8821 142.316C58.4581 142.316 58.9581 142.44 59.3821 142.688C59.8061 142.936 60.1221 143.248 60.3301 143.624V142.424H61.4341V149H60.3301V147.776C60.1141 148.16 59.7901 148.48 59.3581 148.736C58.9341 148.984 58.4381 149.108 57.8701 149.108C57.2861 149.108 56.7581 148.964 56.2861 148.676C55.8141 148.388 55.4421 147.984 55.1701 147.464C54.8981 146.944 54.7621 146.352 54.7621 145.688ZM60.3301 145.7C60.3301 145.204 60.2301 144.772 60.0301 144.404C59.8301 144.036 59.5581 143.756 59.2141 143.564C58.8781 143.364 58.5061 143.264 58.0981 143.264C57.6901 143.264 57.3181 143.36 56.9821 143.552C56.6461 143.744 56.3781 144.024 56.1781 144.392C55.9781 144.76 55.8781 145.192 55.8781 145.688C55.8781 146.192 55.9781 146.632 56.1781 147.008C56.3781 147.376 56.6461 147.66 56.9821 147.86C57.3181 148.052 57.6901 148.148 58.0981 148.148C58.5061 148.148 58.8781 148.052 59.2141 147.86C59.5581 147.66 59.8301 147.376 60.0301 147.008C60.2301 146.632 60.3301 146.196 60.3301 145.7ZM65.6075 149.108C65.1035 149.108 64.6515 149.024 64.2515 148.856C63.8515 148.68 63.5355 148.44 63.3035 148.136C63.0715 147.824 62.9435 147.468 62.9195 147.068H64.0475C64.0795 147.396 64.2315 147.664 64.5035 147.872C64.7835 148.08 65.1475 148.184 65.5955 148.184C66.0115 148.184 66.3395 148.092 66.5795 147.908C66.8195 147.724 66.9395 147.492 66.9395 147.212C66.9395 146.924 66.8115 146.712 66.5555 146.576C66.2995 146.432 65.9035 146.292 65.3675 146.156C64.8795 146.028 64.4795 145.9 64.1675 145.772C63.8635 145.636 63.5995 145.44 63.3755 145.184C63.1595 144.92 63.0515 144.576 63.0515 144.152C63.0515 143.816 63.1515 143.508 63.3515 143.228C63.5515 142.948 63.8355 142.728 64.2035 142.568C64.5715 142.4 64.9915 142.316 65.4635 142.316C66.1915 142.316 66.7795 142.5 67.2275 142.868C67.6755 143.236 67.9155 143.74 67.9475 144.38H66.8555C66.8315 144.036 66.6915 143.76 66.4355 143.552C66.1875 143.344 65.8515 143.24 65.4275 143.24C65.0355 143.24 64.7235 143.324 64.4915 143.492C64.2595 143.66 64.1435 143.88 64.1435 144.152C64.1435 144.368 64.2115 144.548 64.3475 144.692C64.4915 144.828 64.6675 144.94 64.8755 145.028C65.0915 145.108 65.3875 145.2 65.7635 145.304C66.2355 145.432 66.6195 145.56 66.9155 145.688C67.2115 145.808 67.4635 145.992 67.6715 146.24C67.8875 146.488 67.9995 146.812 68.0075 147.212C68.0075 147.572 67.9075 147.896 67.7075 148.184C67.5075 148.472 67.2235 148.7 66.8555 148.868C66.4955 149.028 66.0795 149.108 65.6075 149.108ZM71.877 149.108C71.373 149.108 70.921 149.024 70.521 148.856C70.121 148.68 69.805 148.44 69.573 148.136C69.341 147.824 69.213 147.468 69.189 147.068H70.317C70.349 147.396 70.501 147.664 70.773 147.872C71.053 148.08 71.417 148.184 71.865 148.184C72.281 148.184 72.609 148.092 72.849 147.908C73.089 147.724 73.209 147.492 73.209 147.212C73.209 146.924 73.081 146.712 72.825 146.576C72.569 146.432 72.173 146.292 71.637 146.156C71.149 146.028 70.749 145.9 70.437 145.772C70.133 145.636 69.869 145.44 69.645 145.184C69.429 144.92 69.321 144.576 69.321 144.152C69.321 143.816 69.421 143.508 69.621 143.228C69.821 142.948 70.105 142.728 70.473 142.568C70.841 142.4 71.261 142.316 71.733 142.316C72.461 142.316 73.049 142.5 73.497 142.868C73.945 143.236 74.185 143.74 74.217 144.38H73.125C73.101 144.036 72.961 143.76 72.705 143.552C72.457 143.344 72.121 143.24 71.697 143.24C71.305 143.24 70.993 143.324 70.761 143.492C70.529 143.66 70.413 143.88 70.413 144.152C70.413 144.368 70.481 144.548 70.617 144.692C70.761 144.828 70.937 144.94 71.145 145.028C71.361 145.108 71.657 145.2 72.033 145.304C72.505 145.432 72.889 145.56 73.185 145.688C73.481 145.808 73.733 145.992 73.941 146.24C74.157 146.488 74.269 146.812 74.277 147.212C74.277 147.572 74.177 147.896 73.977 148.184C73.777 148.472 73.493 148.7 73.125 148.868C72.765 149.028 72.349 149.108 71.877 149.108ZM82.3465 142.856V143.78H76.1065V142.856H82.3465ZM82.3465 145.436V146.36H76.1065V145.436H82.3465ZM85.0184 139.448L84.8864 141.836H84.1304L83.9864 139.448H85.0184ZM86.6384 139.448L86.5064 141.836H85.7504L85.6064 139.448H86.6384ZM89.0863 140.12V149H87.9943V140.12H89.0863ZM93.8154 149.108C93.1994 149.108 92.6394 148.968 92.1354 148.688C91.6394 148.408 91.2474 148.012 90.9594 147.5C90.6794 146.98 90.5394 146.38 90.5394 145.7C90.5394 145.028 90.6834 144.436 90.9714 143.924C91.2674 143.404 91.6674 143.008 92.1714 142.736C92.6754 142.456 93.2394 142.316 93.8634 142.316C94.4874 142.316 95.0514 142.456 95.5554 142.736C96.0594 143.008 96.4554 143.4 96.7434 143.912C97.0394 144.424 97.1874 145.02 97.1874 145.7C97.1874 146.38 97.0354 146.98 96.7314 147.5C96.4354 148.012 96.0314 148.408 95.5194 148.688C95.0074 148.968 94.4394 149.108 93.8154 149.108ZM93.8154 148.148C94.2074 148.148 94.5754 148.056 94.9194 147.872C95.2634 147.688 95.5394 147.412 95.7474 147.044C95.9634 146.676 96.0714 146.228 96.0714 145.7C96.0714 145.172 95.9674 144.724 95.7594 144.356C95.5514 143.988 95.2794 143.716 94.9434 143.54C94.6074 143.356 94.2434 143.264 93.8514 143.264C93.4514 143.264 93.0834 143.356 92.7474 143.54C92.4194 143.716 92.1554 143.988 91.9554 144.356C91.7554 144.724 91.6554 145.172 91.6554 145.7C91.6554 146.236 91.7514 146.688 91.9434 147.056C92.1434 147.424 92.4074 147.7 92.7354 147.884C93.0634 148.06 93.4234 148.148 93.8154 148.148ZM101.335 142.316C101.903 142.316 102.399 142.44 102.823 142.688C103.255 142.936 103.575 143.248 103.783 143.624V142.424H104.887V149.144C104.887 149.744 104.759 150.276 104.503 150.74C104.247 151.212 103.879 151.58 103.399 151.844C102.927 152.108 102.375 152.24 101.743 152.24C100.879 152.24 100.159 152.036 99.5832 151.628C99.0072 151.22 98.6672 150.664 98.5632 149.96H99.6432C99.7632 150.36 100.011 150.68 100.387 150.92C100.763 151.168 101.215 151.292 101.743 151.292C102.343 151.292 102.831 151.104 103.207 150.728C103.591 150.352 103.783 149.824 103.783 149.144V147.764C103.567 148.148 103.247 148.468 102.823 148.724C102.399 148.98 101.903 149.108 101.335 149.108C100.751 149.108 100.219 148.964 99.7392 148.676C99.2672 148.388 98.8952 147.984 98.6232 147.464C98.3512 146.944 98.2152 146.352 98.2152 145.688C98.2152 145.016 98.3512 144.428 98.6232 143.924C98.8952 143.412 99.2672 143.016 99.7392 142.736C100.219 142.456 100.751 142.316 101.335 142.316ZM103.783 145.7C103.783 145.204 103.683 144.772 103.483 144.404C103.283 144.036 103.011 143.756 102.667 143.564C102.331 143.364 101.959 143.264 101.551 143.264C101.143 143.264 100.771 143.36 100.435 143.552C100.099 143.744 99.8312 144.024 99.6312 144.392C99.4312 144.76 99.3312 145.192 99.3312 145.688C99.3312 146.192 99.4312 146.632 99.6312 147.008C99.8312 147.376 100.099 147.66 100.435 147.86C100.771 148.052 101.143 148.148 101.551 148.148C101.959 148.148 102.331 148.052 102.667 147.86C103.011 147.66 103.283 147.376 103.483 147.008C103.683 146.632 103.783 146.196 103.783 145.7ZM109.601 149.108C108.985 149.108 108.425 148.968 107.921 148.688C107.425 148.408 107.033 148.012 106.745 147.5C106.465 146.98 106.325 146.38 106.325 145.7C106.325 145.028 106.469 144.436 106.757 143.924C107.053 143.404 107.453 143.008 107.957 142.736C108.461 142.456 109.025 142.316 109.649 142.316C110.273 142.316 110.837 142.456 111.341 142.736C111.845 143.008 112.241 143.4 112.529 143.912C112.825 144.424 112.973 145.02 112.973 145.7C112.973 146.38 112.821 146.98 112.517 147.5C112.221 148.012 111.817 148.408 111.305 148.688C110.793 148.968 110.225 149.108 109.601 149.108ZM109.601 148.148C109.993 148.148 110.361 148.056 110.705 147.872C111.049 147.688 111.325 147.412 111.533 147.044C111.749 146.676 111.857 146.228 111.857 145.7C111.857 145.172 111.753 144.724 111.545 144.356C111.337 143.988 111.065 143.716 110.729 143.54C110.393 143.356 110.029 143.264 109.637 143.264C109.237 143.264 108.869 143.356 108.533 143.54C108.205 143.716 107.941 143.988 107.741 144.356C107.541 144.724 107.441 145.172 107.441 145.7C107.441 146.236 107.537 146.688 107.729 147.056C107.929 147.424 108.193 147.7 108.521 147.884C108.849 148.06 109.209 148.148 109.601 148.148ZM114.936 139.448L114.804 141.836H114.048L113.904 139.448H114.936ZM116.556 139.448L116.424 141.836H115.668L115.524 139.448H116.556ZM118.116 141.86H119.496L122.4 144.608L119.496 147.368H118.116L121.02 144.608L118.116 141.86ZM18.9 169.368L16.008 166.608L18.9 163.86H20.28L17.376 166.608L20.28 169.368H18.9ZM23.1443 163.356C22.9363 163.356 22.7603 163.284 22.6163 163.14C22.4723 162.996 22.4003 162.82 22.4003 162.612C22.4003 162.404 22.4723 162.228 22.6163 162.084C22.7603 161.94 22.9363 161.868 23.1443 161.868C23.3443 161.868 23.5123 161.94 23.6483 162.084C23.7923 162.228 23.8643 162.404 23.8643 162.612C23.8643 162.82 23.7923 162.996 23.6483 163.14C23.5123 163.284 23.3443 163.356 23.1443 163.356ZM23.6723 164.424V171H22.5803V164.424H23.6723ZM33.4414 164.304C33.9534 164.304 34.4094 164.412 34.8094 164.628C35.2094 164.836 35.5254 165.152 35.7574 165.576C35.9894 166 36.1054 166.516 36.1054 167.124V171H35.0254V167.28C35.0254 166.624 34.8614 166.124 34.5334 165.78C34.2134 165.428 33.7774 165.252 33.2254 165.252C32.6574 165.252 32.2054 165.436 31.8694 165.804C31.5334 166.164 31.3654 166.688 31.3654 167.376V171H30.2854V167.28C30.2854 166.624 30.1214 166.124 29.7934 165.78C29.4734 165.428 29.0374 165.252 28.4854 165.252C27.9174 165.252 27.4654 165.436 27.1294 165.804C26.7934 166.164 26.6254 166.688 26.6254 167.376V171H25.5334V164.424H26.6254V165.372C26.8414 165.028 27.1294 164.764 27.4894 164.58C27.8574 164.396 28.2614 164.304 28.7014 164.304C29.2534 164.304 29.7414 164.428 30.1654 164.676C30.5894 164.924 30.9054 165.288 31.1134 165.768C31.2974 165.304 31.6014 164.944 32.0254 164.688C32.4494 164.432 32.9214 164.304 33.4414 164.304ZM40.6087 164.316C41.1767 164.316 41.6727 164.44 42.0967 164.688C42.5287 164.936 42.8487 165.248 43.0567 165.624V164.424H44.1607V171.144C44.1607 171.744 44.0327 172.276 43.7767 172.74C43.5207 173.212 43.1527 173.58 42.6727 173.844C42.2007 174.108 41.6487 174.24 41.0167 174.24C40.1527 174.24 39.4327 174.036 38.8567 173.628C38.2807 173.22 37.9407 172.664 37.8367 171.96H38.9167C39.0367 172.36 39.2847 172.68 39.6607 172.92C40.0367 173.168 40.4887 173.292 41.0167 173.292C41.6167 173.292 42.1047 173.104 42.4807 172.728C42.8647 172.352 43.0567 171.824 43.0567 171.144V169.764C42.8407 170.148 42.5207 170.468 42.0967 170.724C41.6727 170.98 41.1767 171.108 40.6087 171.108C40.0247 171.108 39.4927 170.964 39.0127 170.676C38.5407 170.388 38.1687 169.984 37.8967 169.464C37.6247 168.944 37.4887 168.352 37.4887 167.688C37.4887 167.016 37.6247 166.428 37.8967 165.924C38.1687 165.412 38.5407 165.016 39.0127 164.736C39.4927 164.456 40.0247 164.316 40.6087 164.316ZM43.0567 167.7C43.0567 167.204 42.9567 166.772 42.7567 166.404C42.5567 166.036 42.2847 165.756 41.9407 165.564C41.6047 165.364 41.2327 165.264 40.8247 165.264C40.4167 165.264 40.0447 165.36 39.7087 165.552C39.3727 165.744 39.1047 166.024 38.9047 166.392C38.7047 166.76 38.6047 167.192 38.6047 167.688C38.6047 168.192 38.7047 168.632 38.9047 169.008C39.1047 169.376 39.3727 169.66 39.7087 169.86C40.0447 170.052 40.4167 170.148 40.8247 170.148C41.2327 170.148 41.6047 170.052 41.9407 169.86C42.2847 169.66 42.5567 169.376 42.7567 169.008C42.9567 168.632 43.0567 168.196 43.0567 167.7ZM51.5333 171.108C51.0293 171.108 50.5773 171.024 50.1773 170.856C49.7773 170.68 49.4613 170.44 49.2293 170.136C48.9973 169.824 48.8693 169.468 48.8453 169.068H49.9733C50.0053 169.396 50.1573 169.664 50.4293 169.872C50.7093 170.08 51.0733 170.184 51.5213 170.184C51.9373 170.184 52.2653 170.092 52.5053 169.908C52.7453 169.724 52.8653 169.492 52.8653 169.212C52.8653 168.924 52.7373 168.712 52.4813 168.576C52.2253 168.432 51.8293 168.292 51.2933 168.156C50.8053 168.028 50.4053 167.9 50.0933 167.772C49.7893 167.636 49.5253 167.44 49.3013 167.184C49.0853 166.92 48.9773 166.576 48.9773 166.152C48.9773 165.816 49.0773 165.508 49.2773 165.228C49.4773 164.948 49.7613 164.728 50.1293 164.568C50.4973 164.4 50.9173 164.316 51.3893 164.316C52.1173 164.316 52.7053 164.5 53.1533 164.868C53.6013 165.236 53.8413 165.74 53.8733 166.38H52.7813C52.7573 166.036 52.6173 165.76 52.3613 165.552C52.1133 165.344 51.7773 165.24 51.3533 165.24C50.9613 165.24 50.6493 165.324 50.4173 165.492C50.1853 165.66 50.0693 165.88 50.0693 166.152C50.0693 166.368 50.1373 166.548 50.2733 166.692C50.4173 166.828 50.5933 166.94 50.8013 167.028C51.0173 167.108 51.3133 167.2 51.6893 167.304C52.1613 167.432 52.5453 167.56 52.8413 167.688C53.1373 167.808 53.3893 167.992 53.5973 168.24C53.8133 168.488 53.9253 168.812 53.9333 169.212C53.9333 169.572 53.8333 169.896 53.6333 170.184C53.4333 170.472 53.1493 170.7 52.7813 170.868C52.4213 171.028 52.0053 171.108 51.5333 171.108ZM56.5668 165.492C56.7588 165.116 57.0308 164.824 57.3828 164.616C57.7428 164.408 58.1788 164.304 58.6908 164.304V165.432H58.4028C57.1788 165.432 56.5668 166.096 56.5668 167.424V171H55.4748V164.424H56.5668V165.492ZM59.5433 167.7C59.5433 167.02 59.6793 166.428 59.9513 165.924C60.2233 165.412 60.5993 165.016 61.0793 164.736C61.5673 164.456 62.1233 164.316 62.7473 164.316C63.5553 164.316 64.2193 164.512 64.7393 164.904C65.2673 165.296 65.6153 165.84 65.7833 166.536H64.6073C64.4953 166.136 64.2753 165.82 63.9473 165.588C63.6273 165.356 63.2273 165.24 62.7473 165.24C62.1233 165.24 61.6193 165.456 61.2353 165.888C60.8513 166.312 60.6593 166.916 60.6593 167.7C60.6593 168.492 60.8513 169.104 61.2353 169.536C61.6193 169.968 62.1233 170.184 62.7473 170.184C63.2273 170.184 63.6273 170.072 63.9473 169.848C64.2673 169.624 64.4873 169.304 64.6073 168.888H65.7833C65.6073 169.56 65.2553 170.1 64.7273 170.508C64.1993 170.908 63.5393 171.108 62.7473 171.108C62.1233 171.108 61.5673 170.968 61.0793 170.688C60.5993 170.408 60.2233 170.012 59.9513 169.5C59.6793 168.988 59.5433 168.388 59.5433 167.7ZM73.7684 164.856V165.78H67.5284V164.856H73.7684ZM73.7684 167.436V168.36H67.5284V167.436H73.7684ZM76.4403 161.448L76.3083 163.836H75.5523L75.4083 161.448H76.4403ZM78.0603 161.448L77.9283 163.836H77.1723L77.0283 161.448H78.0603ZM80.5082 162.12V171H79.4162V162.12H80.5082ZM85.2373 171.108C84.6213 171.108 84.0613 170.968 83.5573 170.688C83.0613 170.408 82.6693 170.012 82.3813 169.5C82.1013 168.98 81.9613 168.38 81.9613 167.7C81.9613 167.028 82.1053 166.436 82.3933 165.924C82.6893 165.404 83.0893 165.008 83.5933 164.736C84.0973 164.456 84.6613 164.316 85.2853 164.316C85.9093 164.316 86.4733 164.456 86.9773 164.736C87.4813 165.008 87.8773 165.4 88.1653 165.912C88.4613 166.424 88.6093 167.02 88.6093 167.7C88.6093 168.38 88.4573 168.98 88.1533 169.5C87.8573 170.012 87.4533 170.408 86.9413 170.688C86.4293 170.968 85.8613 171.108 85.2373 171.108ZM85.2373 170.148C85.6293 170.148 85.9973 170.056 86.3413 169.872C86.6853 169.688 86.9613 169.412 87.1693 169.044C87.3853 168.676 87.4933 168.228 87.4933 167.7C87.4933 167.172 87.3893 166.724 87.1813 166.356C86.9733 165.988 86.7013 165.716 86.3653 165.54C86.0293 165.356 85.6653 165.264 85.2733 165.264C84.8733 165.264 84.5053 165.356 84.1693 165.54C83.8413 165.716 83.5773 165.988 83.3773 166.356C83.1773 166.724 83.0773 167.172 83.0773 167.7C83.0773 168.236 83.1733 168.688 83.3653 169.056C83.5653 169.424 83.8293 169.7 84.1573 169.884C84.4853 170.06 84.8453 170.148 85.2373 170.148ZM92.7571 164.316C93.3251 164.316 93.8211 164.44 94.2451 164.688C94.6771 164.936 94.9971 165.248 95.2051 165.624V164.424H96.3091V171.144C96.3091 171.744 96.1811 172.276 95.9251 172.74C95.6691 173.212 95.3011 173.58 94.8211 173.844C94.3491 174.108 93.7971 174.24 93.1651 174.24C92.3011 174.24 91.5811 174.036 91.0051 173.628C90.4291 173.22 90.0891 172.664 89.9851 171.96H91.0651C91.1851 172.36 91.4331 172.68 91.8091 172.92C92.1851 173.168 92.6371 173.292 93.1651 173.292C93.7651 173.292 94.2531 173.104 94.6291 172.728C95.0131 172.352 95.2051 171.824 95.2051 171.144V169.764C94.9891 170.148 94.6691 170.468 94.2451 170.724C93.8211 170.98 93.3251 171.108 92.7571 171.108C92.1731 171.108 91.6411 170.964 91.1611 170.676C90.6891 170.388 90.3171 169.984 90.0451 169.464C89.7731 168.944 89.6371 168.352 89.6371 167.688C89.6371 167.016 89.7731 166.428 90.0451 165.924C90.3171 165.412 90.6891 165.016 91.1611 164.736C91.6411 164.456 92.1731 164.316 92.7571 164.316ZM95.2051 167.7C95.2051 167.204 95.1051 166.772 94.9051 166.404C94.7051 166.036 94.4331 165.756 94.0891 165.564C93.7531 165.364 93.3811 165.264 92.9731 165.264C92.5651 165.264 92.1931 165.36 91.8571 165.552C91.5211 165.744 91.2531 166.024 91.0531 166.392C90.8531 166.76 90.7531 167.192 90.7531 167.688C90.7531 168.192 90.8531 168.632 91.0531 169.008C91.2531 169.376 91.5211 169.66 91.8571 169.86C92.1931 170.052 92.5651 170.148 92.9731 170.148C93.3811 170.148 93.7531 170.052 94.0891 169.86C94.4331 169.66 94.7051 169.376 94.9051 169.008C95.1051 168.632 95.2051 168.196 95.2051 167.7ZM101.022 171.108C100.406 171.108 99.8465 170.968 99.3425 170.688C98.8465 170.408 98.4545 170.012 98.1665 169.5C97.8865 168.98 97.7465 168.38 97.7465 167.7C97.7465 167.028 97.8905 166.436 98.1785 165.924C98.4745 165.404 98.8745 165.008 99.3785 164.736C99.8825 164.456 100.446 164.316 101.07 164.316C101.694 164.316 102.258 164.456 102.762 164.736C103.266 165.008 103.662 165.4 103.95 165.912C104.246 166.424 104.394 167.02 104.394 167.7C104.394 168.38 104.242 168.98 103.938 169.5C103.642 170.012 103.238 170.408 102.726 170.688C102.214 170.968 101.646 171.108 101.022 171.108ZM101.022 170.148C101.414 170.148 101.782 170.056 102.126 169.872C102.47 169.688 102.746 169.412 102.954 169.044C103.17 168.676 103.278 168.228 103.278 167.7C103.278 167.172 103.174 166.724 102.966 166.356C102.758 165.988 102.486 165.716 102.15 165.54C101.814 165.356 101.45 165.264 101.058 165.264C100.658 165.264 100.29 165.356 99.9545 165.54C99.6265 165.716 99.3625 165.988 99.1625 166.356C98.9625 166.724 98.8625 167.172 98.8625 167.7C98.8625 168.236 98.9585 168.688 99.1505 169.056C99.3505 169.424 99.6145 169.7 99.9425 169.884C100.27 170.06 100.63 170.148 101.022 170.148ZM106.178 171.072C105.97 171.072 105.794 171 105.65 170.856C105.506 170.712 105.434 170.536 105.434 170.328C105.434 170.12 105.506 169.944 105.65 169.8C105.794 169.656 105.97 169.584 106.178 169.584C106.378 169.584 106.546 169.656 106.682 169.8C106.826 169.944 106.898 170.12 106.898 170.328C106.898 170.536 106.826 170.712 106.682 170.856C106.546 171 106.378 171.072 106.178 171.072ZM112.137 163.356C111.929 163.356 111.753 163.284 111.609 163.14C111.473 162.996 111.405 162.82 111.405 162.612C111.405 162.404 111.473 162.228 111.609 162.084C111.753 161.94 111.929 161.868 112.137 161.868C112.345 161.868 112.517 161.94 112.653 162.084C112.797 162.228 112.869 162.404 112.869 162.612C112.869 162.82 112.797 162.996 112.653 163.14C112.517 163.284 112.345 163.356 112.137 163.356ZM112.677 172.428C112.677 173.012 112.529 173.44 112.233 173.712C111.937 173.984 111.505 174.12 110.937 174.12H110.301V173.196H110.757C111.061 173.196 111.273 173.136 111.393 173.016C111.521 172.896 111.585 172.692 111.585 172.404V164.424H112.677V172.428ZM115.618 165.636C115.834 165.26 116.154 164.948 116.578 164.7C117.01 164.444 117.51 164.316 118.078 164.316C118.662 164.316 119.19 164.456 119.662 164.736C120.142 165.016 120.518 165.412 120.79 165.924C121.062 166.428 121.198 167.016 121.198 167.688C121.198 168.352 121.062 168.944 120.79 169.464C120.518 169.984 120.142 170.388 119.662 170.676C119.19 170.964 118.662 171.108 118.078 171.108C117.518 171.108 117.022 170.984 116.59 170.736C116.166 170.48 115.842 170.164 115.618 169.788V174.12H114.526V164.424H115.618V165.636ZM120.082 167.688C120.082 167.192 119.982 166.76 119.782 166.392C119.582 166.024 119.31 165.744 118.966 165.552C118.63 165.36 118.258 165.264 117.85 165.264C117.45 165.264 117.078 165.364 116.734 165.564C116.398 165.756 116.126 166.04 115.918 166.416C115.718 166.784 115.618 167.212 115.618 167.7C115.618 168.196 115.718 168.632 115.918 169.008C116.126 169.376 116.398 169.66 116.734 169.86C117.078 170.052 117.45 170.148 117.85 170.148C118.258 170.148 118.63 170.052 118.966 169.86C119.31 169.66 119.582 169.376 119.782 169.008C119.982 168.632 120.082 168.192 120.082 167.688ZM125.347 164.316C125.915 164.316 126.411 164.44 126.835 164.688C127.267 164.936 127.587 165.248 127.795 165.624V164.424H128.899V171.144C128.899 171.744 128.771 172.276 128.515 172.74C128.259 173.212 127.891 173.58 127.411 173.844C126.939 174.108 126.387 174.24 125.755 174.24C124.891 174.24 124.171 174.036 123.595 173.628C123.019 173.22 122.679 172.664 122.575 171.96H123.655C123.775 172.36 124.023 172.68 124.399 172.92C124.775 173.168 125.227 173.292 125.755 173.292C126.355 173.292 126.843 173.104 127.219 172.728C127.603 172.352 127.795 171.824 127.795 171.144V169.764C127.579 170.148 127.259 170.468 126.835 170.724C126.411 170.98 125.915 171.108 125.347 171.108C124.763 171.108 124.231 170.964 123.751 170.676C123.279 170.388 122.907 169.984 122.635 169.464C122.363 168.944 122.227 168.352 122.227 167.688C122.227 167.016 122.363 166.428 122.635 165.924C122.907 165.412 123.279 165.016 123.751 164.736C124.231 164.456 124.763 164.316 125.347 164.316ZM127.795 167.7C127.795 167.204 127.695 166.772 127.495 166.404C127.295 166.036 127.023 165.756 126.679 165.564C126.343 165.364 125.971 165.264 125.563 165.264C125.155 165.264 124.783 165.36 124.447 165.552C124.111 165.744 123.843 166.024 123.643 166.392C123.443 166.76 123.343 167.192 123.343 167.688C123.343 168.192 123.443 168.632 123.643 169.008C123.843 169.376 124.111 169.66 124.447 169.86C124.783 170.052 125.155 170.148 125.563 170.148C125.971 170.148 126.343 170.052 126.679 169.86C127.023 169.66 127.295 169.376 127.495 169.008C127.695 168.632 127.795 168.196 127.795 167.7ZM131.272 161.448L131.14 163.836H130.384L130.24 161.448H131.272ZM132.892 161.448L132.76 163.836H132.004L131.86 161.448H132.892ZM137.039 167.688C137.039 167.016 137.175 166.428 137.447 165.924C137.719 165.412 138.091 165.016 138.563 164.736C139.043 164.456 139.575 164.316 140.159 164.316C140.735 164.316 141.235 164.44 141.659 164.688C142.083 164.936 142.399 165.248 142.607 165.624V164.424H143.711V171H142.607V169.776C142.391 170.16 142.067 170.48 141.635 170.736C141.211 170.984 140.715 171.108 140.147 171.108C139.563 171.108 139.035 170.964 138.563 170.676C138.091 170.388 137.719 169.984 137.447 169.464C137.175 168.944 137.039 168.352 137.039 167.688ZM142.607 167.7C142.607 167.204 142.507 166.772 142.307 166.404C142.107 166.036 141.835 165.756 141.491 165.564C141.155 165.364 140.783 165.264 140.375 165.264C139.967 165.264 139.595 165.36 139.259 165.552C138.923 165.744 138.655 166.024 138.455 166.392C138.255 166.76 138.155 167.192 138.155 167.688C138.155 168.192 138.255 168.632 138.455 169.008C138.655 169.376 138.923 169.66 139.259 169.86C139.595 170.052 139.967 170.148 140.375 170.148C140.783 170.148 141.155 170.052 141.491 169.86C141.835 169.66 142.107 169.376 142.307 169.008C142.507 168.632 142.607 168.196 142.607 167.7ZM146.649 162.12V171H145.557V162.12H146.649ZM149.842 165.324V169.2C149.842 169.52 149.91 169.748 150.046 169.884C150.182 170.012 150.418 170.076 150.754 170.076H151.558V171H150.574C149.966 171 149.51 170.86 149.206 170.58C148.902 170.3 148.75 169.84 148.75 169.2V165.324H147.898V164.424H148.75V162.768H149.842V164.424H151.558V165.324H149.842ZM159.409 164.856V165.78H153.169V164.856H159.409ZM159.409 167.436V168.36H153.169V167.436H159.409ZM162.081 161.448L161.949 163.836H161.193L161.049 161.448H162.081ZM163.701 161.448L163.569 163.836H162.813L162.669 161.448H163.701ZM166.149 162.12V171H165.057V162.12H166.149ZM170.878 171.108C170.262 171.108 169.702 170.968 169.198 170.688C168.702 170.408 168.31 170.012 168.022 169.5C167.742 168.98 167.602 168.38 167.602 167.7C167.602 167.028 167.746 166.436 168.034 165.924C168.33 165.404 168.73 165.008 169.234 164.736C169.738 164.456 170.302 164.316 170.926 164.316C171.55 164.316 172.114 164.456 172.618 164.736C173.122 165.008 173.518 165.4 173.806 165.912C174.102 166.424 174.25 167.02 174.25 167.7C174.25 168.38 174.098 168.98 173.794 169.5C173.498 170.012 173.094 170.408 172.582 170.688C172.07 170.968 171.502 171.108 170.878 171.108ZM170.878 170.148C171.27 170.148 171.638 170.056 171.982 169.872C172.326 169.688 172.602 169.412 172.81 169.044C173.026 168.676 173.134 168.228 173.134 167.7C173.134 167.172 173.03 166.724 172.822 166.356C172.614 165.988 172.342 165.716 172.006 165.54C171.67 165.356 171.306 165.264 170.914 165.264C170.514 165.264 170.146 165.356 169.81 165.54C169.482 165.716 169.218 165.988 169.018 166.356C168.818 166.724 168.718 167.172 168.718 167.7C168.718 168.236 168.814 168.688 169.006 169.056C169.206 169.424 169.47 169.7 169.798 169.884C170.126 170.06 170.486 170.148 170.878 170.148ZM178.398 164.316C178.966 164.316 179.462 164.44 179.886 164.688C180.318 164.936 180.638 165.248 180.846 165.624V164.424H181.95V171.144C181.95 171.744 181.822 172.276 181.566 172.74C181.31 173.212 180.942 173.58 180.462 173.844C179.99 174.108 179.438 174.24 178.806 174.24C177.942 174.24 177.222 174.036 176.646 173.628C176.07 173.22 175.73 172.664 175.626 171.96H176.706C176.826 172.36 177.074 172.68 177.45 172.92C177.826 173.168 178.278 173.292 178.806 173.292C179.406 173.292 179.894 173.104 180.27 172.728C180.654 172.352 180.846 171.824 180.846 171.144V169.764C180.63 170.148 180.31 170.468 179.886 170.724C179.462 170.98 178.966 171.108 178.398 171.108C177.814 171.108 177.282 170.964 176.802 170.676C176.33 170.388 175.958 169.984 175.686 169.464C175.414 168.944 175.278 168.352 175.278 167.688C175.278 167.016 175.414 166.428 175.686 165.924C175.958 165.412 176.33 165.016 176.802 164.736C177.282 164.456 177.814 164.316 178.398 164.316ZM180.846 167.7C180.846 167.204 180.746 166.772 180.546 166.404C180.346 166.036 180.074 165.756 179.73 165.564C179.394 165.364 179.022 165.264 178.614 165.264C178.206 165.264 177.834 165.36 177.498 165.552C177.162 165.744 176.894 166.024 176.694 166.392C176.494 166.76 176.394 167.192 176.394 167.688C176.394 168.192 176.494 168.632 176.694 169.008C176.894 169.376 177.162 169.66 177.498 169.86C177.834 170.052 178.206 170.148 178.614 170.148C179.022 170.148 179.394 170.052 179.73 169.86C180.074 169.66 180.346 169.376 180.546 169.008C180.746 168.632 180.846 168.196 180.846 167.7ZM186.663 171.108C186.047 171.108 185.487 170.968 184.983 170.688C184.487 170.408 184.095 170.012 183.807 169.5C183.527 168.98 183.387 168.38 183.387 167.7C183.387 167.028 183.531 166.436 183.819 165.924C184.115 165.404 184.515 165.008 185.019 164.736C185.523 164.456 186.087 164.316 186.711 164.316C187.335 164.316 187.899 164.456 188.403 164.736C188.907 165.008 189.303 165.4 189.591 165.912C189.887 166.424 190.035 167.02 190.035 167.7C190.035 168.38 189.883 168.98 189.579 169.5C189.283 170.012 188.879 170.408 188.367 170.688C187.855 170.968 187.287 171.108 186.663 171.108ZM186.663 170.148C187.055 170.148 187.423 170.056 187.767 169.872C188.111 169.688 188.387 169.412 188.595 169.044C188.811 168.676 188.919 168.228 188.919 167.7C188.919 167.172 188.815 166.724 188.607 166.356C188.399 165.988 188.127 165.716 187.791 165.54C187.455 165.356 187.091 165.264 186.699 165.264C186.299 165.264 185.931 165.356 185.595 165.54C185.267 165.716 185.003 165.988 184.803 166.356C184.603 166.724 184.503 167.172 184.503 167.7C184.503 168.236 184.599 168.688 184.791 169.056C184.991 169.424 185.255 169.7 185.583 169.884C185.911 170.06 186.271 170.148 186.663 170.148ZM191.999 161.448L191.867 163.836H191.111L190.967 161.448H191.999ZM193.619 161.448L193.487 163.836H192.731L192.587 161.448H193.619ZM195.179 163.86H196.559L199.463 166.608L196.559 169.368H195.179L198.083 166.608L195.179 163.86ZM18.9 191.368L16.008 188.608L18.9 185.86H20.28L17.376 188.608L20.28 191.368H18.9ZM25.8443 186.304C26.3403 186.304 26.7883 186.412 27.1883 186.628C27.5883 186.836 27.9003 187.152 28.1243 187.576C28.3563 188 28.4723 188.516 28.4723 189.124V193H27.3923V189.28C27.3923 188.624 27.2283 188.124 26.9003 187.78C26.5723 187.428 26.1243 187.252 25.5563 187.252C24.9803 187.252 24.5203 187.432 24.1763 187.792C23.8403 188.152 23.6723 188.676 23.6723 189.364V193H22.5803V184.12H23.6723V187.36C23.8883 187.024 24.1843 186.764 24.5603 186.58C24.9443 186.396 25.3723 186.304 25.8443 186.304ZM29.788 185.32V184.324H32.044V193H30.94V185.32H29.788ZM34.3038 185.86H35.6838L38.5878 188.608L35.6838 191.368H34.3038L37.2078 188.608L34.3038 185.86ZM47.0125 184.636V193H45.9205V189.208H41.6605V193H40.5685V184.636H41.6605V188.308H45.9205V184.636H47.0125ZM54.8771 189.46C54.8771 189.668 54.8651 189.888 54.8411 190.12H49.5851C49.6251 190.768 49.8451 191.276 50.2451 191.644C50.6531 192.004 51.1451 192.184 51.7211 192.184C52.1931 192.184 52.5851 192.076 52.8971 191.86C53.2171 191.636 53.4411 191.34 53.5691 190.972H54.7451C54.5691 191.604 54.2171 192.12 53.6891 192.52C53.1611 192.912 52.5051 193.108 51.7211 193.108C51.0971 193.108 50.5371 192.968 50.0411 192.688C49.5531 192.408 49.1691 192.012 48.8891 191.5C48.6091 190.98 48.4691 190.38 48.4691 189.7C48.4691 189.02 48.6051 188.424 48.8771 187.912C49.1491 187.4 49.5291 187.008 50.0171 186.736C50.5131 186.456 51.0811 186.316 51.7211 186.316C52.3451 186.316 52.8971 186.452 53.3771 186.724C53.8571 186.996 54.2251 187.372 54.4811 187.852C54.7451 188.324 54.8771 188.86 54.8771 189.46ZM53.7491 189.232C53.7491 188.816 53.6571 188.46 53.4731 188.164C53.2891 187.86 53.0371 187.632 52.7171 187.48C52.4051 187.32 52.0571 187.24 51.6731 187.24C51.1211 187.24 50.6491 187.416 50.2571 187.768C49.8731 188.12 49.6531 188.608 49.5971 189.232H53.7491ZM55.9105 189.688C55.9105 189.016 56.0465 188.428 56.3185 187.924C56.5905 187.412 56.9625 187.016 57.4345 186.736C57.9145 186.456 58.4465 186.316 59.0305 186.316C59.6065 186.316 60.1065 186.44 60.5305 186.688C60.9545 186.936 61.2705 187.248 61.4785 187.624V186.424H62.5825V193H61.4785V191.776C61.2625 192.16 60.9385 192.48 60.5065 192.736C60.0825 192.984 59.5865 193.108 59.0185 193.108C58.4345 193.108 57.9065 192.964 57.4345 192.676C56.9625 192.388 56.5905 191.984 56.3185 191.464C56.0465 190.944 55.9105 190.352 55.9105 189.688ZM61.4785 189.7C61.4785 189.204 61.3785 188.772 61.1785 188.404C60.9785 188.036 60.7065 187.756 60.3625 187.564C60.0265 187.364 59.6545 187.264 59.2465 187.264C58.8385 187.264 58.4665 187.36 58.1305 187.552C57.7945 187.744 57.5265 188.024 57.3265 188.392C57.1265 188.76 57.0265 189.192 57.0265 189.688C57.0265 190.192 57.1265 190.632 57.3265 191.008C57.5265 191.376 57.7945 191.66 58.1305 191.86C58.4665 192.052 58.8385 192.148 59.2465 192.148C59.6545 192.148 60.0265 192.052 60.3625 191.86C60.7065 191.66 60.9785 191.376 61.1785 191.008C61.3785 190.632 61.4785 190.196 61.4785 189.7ZM64.0199 189.688C64.0199 189.016 64.1559 188.428 64.4279 187.924C64.6999 187.412 65.0719 187.016 65.5439 186.736C66.0239 186.456 66.5599 186.316 67.1519 186.316C67.6639 186.316 68.1399 186.436 68.5799 186.676C69.0199 186.908 69.3559 187.216 69.5879 187.6V184.12H70.6919V193H69.5879V191.764C69.3719 192.156 69.0519 192.48 68.6279 192.736C68.2039 192.984 67.7079 193.108 67.1399 193.108C66.5559 193.108 66.0239 192.964 65.5439 192.676C65.0719 192.388 64.6999 191.984 64.4279 191.464C64.1559 190.944 64.0199 190.352 64.0199 189.688ZM69.5879 189.7C69.5879 189.204 69.4879 188.772 69.2879 188.404C69.0879 188.036 68.8159 187.756 68.4719 187.564C68.1359 187.364 67.7639 187.264 67.3559 187.264C66.9479 187.264 66.5759 187.36 66.2399 187.552C65.9039 187.744 65.6359 188.024 65.4359 188.392C65.2359 188.76 65.1359 189.192 65.1359 189.688C65.1359 190.192 65.2359 190.632 65.4359 191.008C65.6359 191.376 65.9039 191.66 66.2399 191.86C66.5759 192.052 66.9479 192.148 67.3559 192.148C67.7639 192.148 68.1359 192.052 68.4719 191.86C68.8159 191.66 69.0879 191.376 69.2879 191.008C69.4879 190.632 69.5879 190.196 69.5879 189.7ZM73.1013 185.356C72.8933 185.356 72.7173 185.284 72.5733 185.14C72.4293 184.996 72.3573 184.82 72.3573 184.612C72.3573 184.404 72.4293 184.228 72.5733 184.084C72.7173 183.94 72.8933 183.868 73.1013 183.868C73.3013 183.868 73.4693 183.94 73.6053 184.084C73.7493 184.228 73.8213 184.404 73.8213 184.612C73.8213 184.82 73.7493 184.996 73.6053 185.14C73.4693 185.284 73.3013 185.356 73.1013 185.356ZM73.6293 186.424V193H72.5373V186.424H73.6293ZM78.6944 186.304C79.4944 186.304 80.1424 186.548 80.6384 187.036C81.1344 187.516 81.3824 188.212 81.3824 189.124V193H80.3024V189.28C80.3024 188.624 80.1384 188.124 79.8104 187.78C79.4824 187.428 79.0344 187.252 78.4664 187.252C77.8904 187.252 77.4304 187.432 77.0864 187.792C76.7504 188.152 76.5824 188.676 76.5824 189.364V193H75.4904V186.424H76.5824V187.36C76.7984 187.024 77.0904 186.764 77.4584 186.58C77.8344 186.396 78.2464 186.304 78.6944 186.304ZM85.8782 186.316C86.4462 186.316 86.9422 186.44 87.3662 186.688C87.7982 186.936 88.1182 187.248 88.3262 187.624V186.424H89.4302V193.144C89.4302 193.744 89.3022 194.276 89.0462 194.74C88.7902 195.212 88.4222 195.58 87.9422 195.844C87.4702 196.108 86.9182 196.24 86.2862 196.24C85.4222 196.24 84.7022 196.036 84.1262 195.628C83.5502 195.22 83.2102 194.664 83.1062 193.96H84.1862C84.3062 194.36 84.5542 194.68 84.9302 194.92C85.3062 195.168 85.7582 195.292 86.2862 195.292C86.8862 195.292 87.3742 195.104 87.7502 194.728C88.1342 194.352 88.3262 193.824 88.3262 193.144V191.764C88.1102 192.148 87.7902 192.468 87.3662 192.724C86.9422 192.98 86.4462 193.108 85.8782 193.108C85.2942 193.108 84.7622 192.964 84.2822 192.676C83.8102 192.388 83.4382 191.984 83.1662 191.464C82.8942 190.944 82.7582 190.352 82.7582 189.688C82.7582 189.016 82.8942 188.428 83.1662 187.924C83.4382 187.412 83.8102 187.016 84.2822 186.736C84.7622 186.456 85.2942 186.316 85.8782 186.316ZM88.3262 189.7C88.3262 189.204 88.2262 188.772 88.0262 188.404C87.8262 188.036 87.5542 187.756 87.2102 187.564C86.8742 187.364 86.5022 187.264 86.0942 187.264C85.6862 187.264 85.3142 187.36 84.9782 187.552C84.6422 187.744 84.3742 188.024 84.1742 188.392C83.9742 188.76 83.8742 189.192 83.8742 189.688C83.8742 190.192 83.9742 190.632 84.1742 191.008C84.3742 191.376 84.6422 191.66 84.9782 191.86C85.3142 192.052 85.6862 192.148 86.0942 192.148C86.5022 192.148 86.8742 192.052 87.2102 191.86C87.5542 191.66 87.8262 191.376 88.0262 191.008C88.2262 190.632 88.3262 190.196 88.3262 189.7ZM95.8068 187.324V191.2C95.8068 191.52 95.8748 191.748 96.0108 191.884C96.1468 192.012 96.3828 192.076 96.7188 192.076H97.5228V193H96.5388C95.9308 193 95.4748 192.86 95.1708 192.58C94.8668 192.3 94.7148 191.84 94.7148 191.2V187.324H93.8628V186.424H94.7148V184.768H95.8068V186.424H97.5228V187.324H95.8068ZM98.4379 189.688C98.4379 189.016 98.5739 188.428 98.8459 187.924C99.1179 187.412 99.4899 187.016 99.9619 186.736C100.442 186.456 100.974 186.316 101.558 186.316C102.134 186.316 102.634 186.44 103.058 186.688C103.482 186.936 103.798 187.248 104.006 187.624V186.424H105.11V193H104.006V191.776C103.79 192.16 103.466 192.48 103.034 192.736C102.61 192.984 102.114 193.108 101.546 193.108C100.962 193.108 100.434 192.964 99.9619 192.676C99.4899 192.388 99.1179 191.984 98.8459 191.464C98.5739 190.944 98.4379 190.352 98.4379 189.688ZM104.006 189.7C104.006 189.204 103.906 188.772 103.706 188.404C103.506 188.036 103.234 187.756 102.89 187.564C102.554 187.364 102.182 187.264 101.774 187.264C101.366 187.264 100.994 187.36 100.658 187.552C100.322 187.744 100.054 188.024 99.8539 188.392C99.6539 188.76 99.5539 189.192 99.5539 189.688C99.5539 190.192 99.6539 190.632 99.8539 191.008C100.054 191.376 100.322 191.66 100.658 191.86C100.994 192.052 101.366 192.148 101.774 192.148C102.182 192.148 102.554 192.052 102.89 191.86C103.234 191.66 103.506 191.376 103.706 191.008C103.906 190.632 104.006 190.196 104.006 189.7ZM109.667 186.316C110.235 186.316 110.731 186.44 111.155 186.688C111.587 186.936 111.907 187.248 112.115 187.624V186.424H113.219V193.144C113.219 193.744 113.091 194.276 112.835 194.74C112.579 195.212 112.211 195.58 111.731 195.844C111.259 196.108 110.707 196.24 110.075 196.24C109.211 196.24 108.491 196.036 107.915 195.628C107.339 195.22 106.999 194.664 106.895 193.96H107.975C108.095 194.36 108.343 194.68 108.719 194.92C109.095 195.168 109.547 195.292 110.075 195.292C110.675 195.292 111.163 195.104 111.539 194.728C111.923 194.352 112.115 193.824 112.115 193.144V191.764C111.899 192.148 111.579 192.468 111.155 192.724C110.731 192.98 110.235 193.108 109.667 193.108C109.083 193.108 108.551 192.964 108.071 192.676C107.599 192.388 107.227 191.984 106.955 191.464C106.683 190.944 106.547 190.352 106.547 189.688C106.547 189.016 106.683 188.428 106.955 187.924C107.227 187.412 107.599 187.016 108.071 186.736C108.551 186.456 109.083 186.316 109.667 186.316ZM112.115 189.7C112.115 189.204 112.015 188.772 111.815 188.404C111.615 188.036 111.343 187.756 110.999 187.564C110.663 187.364 110.291 187.264 109.883 187.264C109.475 187.264 109.103 187.36 108.767 187.552C108.431 187.744 108.163 188.024 107.963 188.392C107.763 188.76 107.663 189.192 107.663 189.688C107.663 190.192 107.763 190.632 107.963 191.008C108.163 191.376 108.431 191.66 108.767 191.86C109.103 192.052 109.475 192.148 109.883 192.148C110.291 192.148 110.663 192.052 110.999 191.86C111.343 191.66 111.615 191.376 111.815 191.008C112.015 190.632 112.115 190.196 112.115 189.7ZM118.041 191.368L115.149 188.608L118.041 185.86H119.421L116.517 188.608L119.421 191.368H118.041ZM125.801 181.696L122.513 195.04H121.433L124.709 181.696H125.801ZM130.692 186.304C131.188 186.304 131.636 186.412 132.036 186.628C132.436 186.836 132.748 187.152 132.972 187.576C133.204 188 133.32 188.516 133.32 189.124V193H132.24V189.28C132.24 188.624 132.076 188.124 131.748 187.78C131.42 187.428 130.972 187.252 130.404 187.252C129.828 187.252 129.368 187.432 129.024 187.792C128.688 188.152 128.52 188.676 128.52 189.364V193H127.428V184.12H128.52V187.36C128.736 187.024 129.032 186.764 129.408 186.58C129.792 186.396 130.22 186.304 130.692 186.304ZM134.636 185.32V184.324H136.892V193H135.788V185.32H134.636ZM139.151 185.86H140.531L143.435 188.608L140.531 191.368H139.151L142.055 188.608L139.151 185.86ZM18.9 257.368L16.008 254.608L18.9 251.86H20.28L17.376 254.608L20.28 257.368H18.9ZM23.9963 250.636L23.8643 256.636H22.9523L22.8203 250.636H23.9963ZM23.4563 259.072C23.2483 259.072 23.0723 259 22.9283 258.856C22.7843 258.712 22.7123 258.536 22.7123 258.328C22.7123 258.12 22.7843 257.944 22.9283 257.8C23.0723 257.656 23.2483 257.584 23.4563 257.584C23.6563 257.584 23.8243 257.656 23.9603 257.8C24.1043 257.944 24.1763 258.12 24.1763 258.328C24.1763 258.536 24.1043 258.712 23.9603 258.856C23.8243 259 23.6563 259.072 23.4563 259.072ZM30.7145 254.14V255.064H25.9265V254.14H30.7145ZM40.5231 254.14V255.064H35.7351V254.14H40.5231ZM50.1757 259L48.1837 255.58H46.8637V259H45.7717V250.636H48.4717C49.1037 250.636 49.6357 250.744 50.0677 250.96C50.5077 251.176 50.8357 251.468 51.0517 251.836C51.2677 252.204 51.3757 252.624 51.3757 253.096C51.3757 253.672 51.2077 254.18 50.8717 254.62C50.5437 255.06 50.0477 255.352 49.3837 255.496L51.4837 259H50.1757ZM46.8637 254.704H48.4717C49.0637 254.704 49.5077 254.56 49.8037 254.272C50.0997 253.976 50.2477 253.584 50.2477 253.096C50.2477 252.6 50.0997 252.216 49.8037 251.944C49.5157 251.672 49.0717 251.536 48.4717 251.536H46.8637V254.704ZM59.0724 255.46C59.0724 255.668 59.0604 255.888 59.0364 256.12H53.7804C53.8204 256.768 54.0404 257.276 54.4404 257.644C54.8484 258.004 55.3404 258.184 55.9164 258.184C56.3884 258.184 56.7804 258.076 57.0924 257.86C57.4124 257.636 57.6364 257.34 57.7644 256.972H58.9404C58.7644 257.604 58.4124 258.12 57.8844 258.52C57.3564 258.912 56.7004 259.108 55.9164 259.108C55.2924 259.108 54.7324 258.968 54.2364 258.688C53.7484 258.408 53.3644 258.012 53.0844 257.5C52.8044 256.98 52.6644 256.38 52.6644 255.7C52.6644 255.02 52.8004 254.424 53.0724 253.912C53.3444 253.4 53.7244 253.008 54.2124 252.736C54.7084 252.456 55.2764 252.316 55.9164 252.316C56.5404 252.316 57.0924 252.452 57.5724 252.724C58.0524 252.996 58.4204 253.372 58.6764 253.852C58.9404 254.324 59.0724 254.86 59.0724 255.46ZM57.9444 255.232C57.9444 254.816 57.8524 254.46 57.6684 254.164C57.4844 253.86 57.2324 253.632 56.9124 253.48C56.6004 253.32 56.2524 253.24 55.8684 253.24C55.3164 253.24 54.8444 253.416 54.4524 253.768C54.0684 254.12 53.8484 254.608 53.7924 255.232H57.9444ZM63.1898 253.324H61.8098V259H60.7178V253.324H59.8658V252.424H60.7178V251.956C60.7178 251.22 60.9058 250.684 61.2818 250.348C61.6658 250.004 62.2778 249.832 63.1178 249.832V250.744C62.6378 250.744 62.2978 250.84 62.0978 251.032C61.9058 251.216 61.8098 251.524 61.8098 251.956V252.424H63.1898V253.324ZM64.0551 255.688C64.0551 255.016 64.1911 254.428 64.4631 253.924C64.7351 253.412 65.1071 253.016 65.5791 252.736C66.0591 252.456 66.5911 252.316 67.1751 252.316C67.7511 252.316 68.2511 252.44 68.6751 252.688C69.0991 252.936 69.4151 253.248 69.6231 253.624V252.424H70.7271V259H69.6231V257.776C69.4071 258.16 69.0831 258.48 68.6511 258.736C68.2271 258.984 67.7311 259.108 67.1631 259.108C66.5791 259.108 66.0511 258.964 65.5791 258.676C65.1071 258.388 64.7351 257.984 64.4631 257.464C64.1911 256.944 64.0551 256.352 64.0551 255.688ZM69.6231 255.7C69.6231 255.204 69.5231 254.772 69.3231 254.404C69.1231 254.036 68.8511 253.756 68.5071 253.564C68.1711 253.364 67.7991 253.264 67.3911 253.264C66.9831 253.264 66.6111 253.36 66.2751 253.552C65.9391 253.744 65.6711 254.024 65.4711 254.392C65.2711 254.76 65.1711 255.192 65.1711 255.688C65.1711 256.192 65.2711 256.632 65.4711 257.008C65.6711 257.376 65.9391 257.66 66.2751 257.86C66.6111 258.052 66.9831 258.148 67.3911 258.148C67.7991 258.148 68.1711 258.052 68.5071 257.86C68.8511 257.66 69.1231 257.376 69.3231 257.008C69.5231 256.632 69.6231 256.196 69.6231 255.7ZM72.1644 255.7C72.1644 255.02 72.3004 254.428 72.5724 253.924C72.8444 253.412 73.2204 253.016 73.7004 252.736C74.1884 252.456 74.7444 252.316 75.3684 252.316C76.1764 252.316 76.8404 252.512 77.3604 252.904C77.8884 253.296 78.2364 253.84 78.4044 254.536H77.2284C77.1164 254.136 76.8964 253.82 76.5684 253.588C76.2484 253.356 75.8484 253.24 75.3684 253.24C74.7444 253.24 74.2404 253.456 73.8564 253.888C73.4724 254.312 73.2804 254.916 73.2804 255.7C73.2804 256.492 73.4724 257.104 73.8564 257.536C74.2404 257.968 74.7444 258.184 75.3684 258.184C75.8484 258.184 76.2484 258.072 76.5684 257.848C76.8884 257.624 77.1084 257.304 77.2284 256.888H78.4044C78.2284 257.56 77.8764 258.1 77.3484 258.508C76.8204 258.908 76.1604 259.108 75.3684 259.108C74.7444 259.108 74.1884 258.968 73.7004 258.688C73.2204 258.408 72.8444 258.012 72.5724 257.5C72.3004 256.988 72.1644 256.388 72.1644 255.7ZM81.1935 253.324V257.2C81.1935 257.52 81.2615 257.748 81.3975 257.884C81.5335 258.012 81.7695 258.076 82.1055 258.076H82.9095V259H81.9255C81.3175 259 80.8615 258.86 80.5575 258.58C80.2535 258.3 80.1015 257.84 80.1015 257.2V253.324H79.2495V252.424H80.1015V250.768H81.1935V252.424H82.9095V253.324H81.1935ZM87.1006 259.108C86.4846 259.108 85.9246 258.968 85.4206 258.688C84.9246 258.408 84.5326 258.012 84.2446 257.5C83.9646 256.98 83.8246 256.38 83.8246 255.7C83.8246 255.028 83.9686 254.436 84.2566 253.924C84.5526 253.404 84.9526 253.008 85.4566 252.736C85.9606 252.456 86.5246 252.316 87.1486 252.316C87.7726 252.316 88.3366 252.456 88.8406 252.736C89.3446 253.008 89.7406 253.4 90.0286 253.912C90.3246 254.424 90.4726 255.02 90.4726 255.7C90.4726 256.38 90.3206 256.98 90.0166 257.5C89.7206 258.012 89.3166 258.408 88.8046 258.688C88.2926 258.968 87.7246 259.108 87.1006 259.108ZM87.1006 258.148C87.4926 258.148 87.8606 258.056 88.2046 257.872C88.5486 257.688 88.8246 257.412 89.0326 257.044C89.2486 256.676 89.3566 256.228 89.3566 255.7C89.3566 255.172 89.2526 254.724 89.0446 254.356C88.8366 253.988 88.5646 253.716 88.2286 253.54C87.8926 253.356 87.5286 253.264 87.1366 253.264C86.7366 253.264 86.3686 253.356 86.0326 253.54C85.7046 253.716 85.4406 253.988 85.2406 254.356C85.0406 254.724 84.9406 255.172 84.9406 255.7C84.9406 256.236 85.0366 256.688 85.2286 257.056C85.4286 257.424 85.6926 257.7 86.0206 257.884C86.3486 258.06 86.7086 258.148 87.1006 258.148ZM93.0004 253.492C93.1924 253.116 93.4644 252.824 93.8164 252.616C94.1764 252.408 94.6124 252.304 95.1244 252.304V253.432H94.8364C93.6124 253.432 93.0004 254.096 93.0004 255.424V259H91.9084V252.424H93.0004V253.492ZM102.385 255.46C102.385 255.668 102.373 255.888 102.349 256.12H97.0929C97.1329 256.768 97.3529 257.276 97.7529 257.644C98.1609 258.004 98.6529 258.184 99.2289 258.184C99.7009 258.184 100.093 258.076 100.405 257.86C100.725 257.636 100.949 257.34 101.077 256.972H102.253C102.077 257.604 101.725 258.12 101.197 258.52C100.669 258.912 100.013 259.108 99.2289 259.108C98.6049 259.108 98.0449 258.968 97.5489 258.688C97.0609 258.408 96.6769 258.012 96.3969 257.5C96.1169 256.98 95.9769 256.38 95.9769 255.7C95.9769 255.02 96.1129 254.424 96.3849 253.912C96.6569 253.4 97.0369 253.008 97.5249 252.736C98.0209 252.456 98.5889 252.316 99.2289 252.316C99.8529 252.316 100.405 252.452 100.885 252.724C101.365 252.996 101.733 253.372 101.989 253.852C102.253 254.324 102.385 254.86 102.385 255.46ZM101.257 255.232C101.257 254.816 101.165 254.46 100.981 254.164C100.797 253.86 100.545 253.632 100.225 253.48C99.9129 253.32 99.5649 253.24 99.1809 253.24C98.6289 253.24 98.1569 253.416 97.7649 253.768C97.3809 254.12 97.1609 254.608 97.1049 255.232H101.257ZM103.418 255.688C103.418 255.016 103.554 254.428 103.826 253.924C104.098 253.412 104.47 253.016 104.942 252.736C105.422 252.456 105.958 252.316 106.55 252.316C107.062 252.316 107.538 252.436 107.978 252.676C108.418 252.908 108.754 253.216 108.986 253.6V250.12H110.09V259H108.986V257.764C108.77 258.156 108.45 258.48 108.026 258.736C107.602 258.984 107.106 259.108 106.538 259.108C105.954 259.108 105.422 258.964 104.942 258.676C104.47 258.388 104.098 257.984 103.826 257.464C103.554 256.944 103.418 256.352 103.418 255.688ZM108.986 255.7C108.986 255.204 108.886 254.772 108.686 254.404C108.486 254.036 108.214 253.756 107.87 253.564C107.534 253.364 107.162 253.264 106.754 253.264C106.346 253.264 105.974 253.36 105.638 253.552C105.302 253.744 105.034 254.024 104.834 254.392C104.634 254.76 104.534 255.192 104.534 255.688C104.534 256.192 104.634 256.632 104.834 257.008C105.034 257.376 105.302 257.66 105.638 257.86C105.974 258.052 106.346 258.148 106.754 258.148C107.162 258.148 107.534 258.052 107.87 257.86C108.214 257.66 108.486 257.376 108.686 257.008C108.886 256.632 108.986 256.196 108.986 255.7ZM119.695 254.14V255.064H114.907V254.14H119.695ZM126.304 254.14V255.064H121.516V254.14H126.304ZM128.558 251.86H129.938L132.842 254.608L129.938 257.368H128.558L131.462 254.608L128.558 251.86Z" fill="black"/>
<path d="M18.12 125.452L15.684 122.8L18.12 120.148H20.7L18.252 122.8L20.7 125.452H18.12ZM21.9454 123.64C21.9454 122.952 22.0734 122.348 22.3294 121.828C22.5934 121.308 22.9494 120.908 23.3974 120.628C23.8454 120.348 24.3454 120.208 24.8974 120.208C25.3374 120.208 25.7374 120.3 26.0974 120.484C26.4654 120.668 26.7534 120.916 26.9614 121.228V118.12H29.0134V127H26.9614V126.04C26.7694 126.36 26.4934 126.616 26.1334 126.808C25.7814 127 25.3694 127.096 24.8974 127.096C24.3454 127.096 23.8454 126.956 23.3974 126.676C22.9494 126.388 22.5934 125.984 22.3294 125.464C22.0734 124.936 21.9454 124.328 21.9454 123.64ZM26.9614 123.652C26.9614 123.14 26.8174 122.736 26.5294 122.44C26.2494 122.144 25.9054 121.996 25.4974 121.996C25.0894 121.996 24.7414 122.144 24.4534 122.44C24.1734 122.728 24.0334 123.128 24.0334 123.64C24.0334 124.152 24.1734 124.56 24.4534 124.864C24.7414 125.16 25.0894 125.308 25.4974 125.308C25.9054 125.308 26.2494 125.16 26.5294 124.864C26.8174 124.568 26.9614 124.164 26.9614 123.652ZM31.5299 119.608C31.1699 119.608 30.8739 119.504 30.6419 119.296C30.4179 119.08 30.3059 118.816 30.3059 118.504C30.3059 118.184 30.4179 117.92 30.6419 117.712C30.8739 117.496 31.1699 117.388 31.5299 117.388C31.8819 117.388 32.1699 117.496 32.3939 117.712C32.6259 117.92 32.7419 118.184 32.7419 118.504C32.7419 118.816 32.6259 119.08 32.3939 119.296C32.1699 119.504 31.8819 119.608 31.5299 119.608ZM32.5499 120.304V127H30.4979V120.304H32.5499ZM37.049 125.08L38.501 120.304H40.685L38.309 127H35.777L33.401 120.304H35.597L37.049 125.08ZM18.12 147.452L15.684 144.8L18.12 142.148H20.7L18.252 144.8L20.7 147.452H18.12ZM21.9454 145.64C21.9454 144.952 22.0734 144.348 22.3294 143.828C22.5934 143.308 22.9494 142.908 23.3974 142.628C23.8454 142.348 24.3454 142.208 24.8974 142.208C25.3374 142.208 25.7374 142.3 26.0974 142.484C26.4654 142.668 26.7534 142.916 26.9614 143.228V140.12H29.0134V149H26.9614V148.04C26.7694 148.36 26.4934 148.616 26.1334 148.808C25.7814 149 25.3694 149.096 24.8974 149.096C24.3454 149.096 23.8454 148.956 23.3974 148.676C22.9494 148.388 22.5934 147.984 22.3294 147.464C22.0734 146.936 21.9454 146.328 21.9454 145.64ZM26.9614 145.652C26.9614 145.14 26.8174 144.736 26.5294 144.44C26.2494 144.144 25.9054 143.996 25.4974 143.996C25.0894 143.996 24.7414 144.144 24.4534 144.44C24.1734 144.728 24.0334 145.128 24.0334 145.64C24.0334 146.152 24.1734 146.56 24.4534 146.864C24.7414 147.16 25.0894 147.308 25.4974 147.308C25.9054 147.308 26.2494 147.16 26.5294 146.864C26.8174 146.568 26.9614 146.164 26.9614 145.652ZM31.5299 141.608C31.1699 141.608 30.8739 141.504 30.6419 141.296C30.4179 141.08 30.3059 140.816 30.3059 140.504C30.3059 140.184 30.4179 139.92 30.6419 139.712C30.8739 139.496 31.1699 139.388 31.5299 139.388C31.8819 139.388 32.1699 139.496 32.3939 139.712C32.6259 139.92 32.7419 140.184 32.7419 140.504C32.7419 140.816 32.6259 141.08 32.3939 141.296C32.1699 141.504 31.8819 141.608 31.5299 141.608ZM32.5499 142.304V149H30.4979V142.304H32.5499ZM37.049 147.08L38.501 142.304H40.685L38.309 149H35.777L33.401 142.304H35.597L37.049 147.08ZM18.12 213.452L15.684 210.8L18.12 208.148H20.7L18.252 210.8L20.7 213.452H18.12ZM26.9254 203.6L23.7094 217.244H21.7294L24.9454 203.6H26.9254ZM27.3829 211.64C27.3829 210.952 27.5109 210.348 27.7669 209.828C28.0309 209.308 28.3869 208.908 28.8349 208.628C29.2829 208.348 29.7829 208.208 30.3349 208.208C30.7749 208.208 31.1749 208.3 31.5349 208.484C31.9029 208.668 32.1909 208.916 32.3989 209.228V206.12H34.4509V215H32.3989V214.04C32.2069 214.36 31.9309 214.616 31.5709 214.808C31.2189 215 30.8069 215.096 30.3349 215.096C29.7829 215.096 29.2829 214.956 28.8349 214.676C28.3869 214.388 28.0309 213.984 27.7669 213.464C27.5109 212.936 27.3829 212.328 27.3829 211.64ZM32.3989 211.652C32.3989 211.14 32.2549 210.736 31.9669 210.44C31.6869 210.144 31.3429 209.996 30.9349 209.996C30.5269 209.996 30.1789 210.144 29.8909 210.44C29.6109 210.728 29.4709 211.128 29.4709 211.64C29.4709 212.152 29.6109 212.56 29.8909 212.864C30.1789 213.16 30.5269 213.308 30.9349 213.308C31.3429 213.308 31.6869 213.16 31.9669 212.864C32.2549 212.568 32.3989 212.164 32.3989 211.652ZM36.9674 207.608C36.6074 207.608 36.3114 207.504 36.0794 207.296C35.8554 207.08 35.7434 206.816 35.7434 206.504C35.7434 206.184 35.8554 205.92 36.0794 205.712C36.3114 205.496 36.6074 205.388 36.9674 205.388C37.3194 205.388 37.6074 205.496 37.8314 205.712C38.0634 205.92 38.1794 206.184 38.1794 206.504C38.1794 206.816 38.0634 207.08 37.8314 207.296C37.6074 207.504 37.3194 207.608 36.9674 207.608ZM37.9874 208.304V215H35.9354V208.304H37.9874ZM42.4865 213.08L43.9385 208.304H46.1225L43.7465 215H41.2145L38.8385 208.304H41.0345L42.4865 213.08ZM46.9982 208.148H49.5782L52.0142 210.8L49.5782 213.452H46.9982L49.4462 210.8L46.9982 208.148ZM18.12 235.452L15.684 232.8L18.12 230.148H20.7L18.252 232.8L20.7 235.452H18.12ZM26.9254 225.6L23.7094 239.244H21.7294L24.9454 225.6H26.9254ZM27.3829 233.64C27.3829 232.952 27.5109 232.348 27.7669 231.828C28.0309 231.308 28.3869 230.908 28.8349 230.628C29.2829 230.348 29.7829 230.208 30.3349 230.208C30.7749 230.208 31.1749 230.3 31.5349 230.484C31.9029 230.668 32.1909 230.916 32.3989 231.228V228.12H34.4509V237H32.3989V236.04C32.2069 236.36 31.9309 236.616 31.5709 236.808C31.2189 237 30.8069 237.096 30.3349 237.096C29.7829 237.096 29.2829 236.956 28.8349 236.676C28.3869 236.388 28.0309 235.984 27.7669 235.464C27.5109 234.936 27.3829 234.328 27.3829 233.64ZM32.3989 233.652C32.3989 233.14 32.2549 232.736 31.9669 232.44C31.6869 232.144 31.3429 231.996 30.9349 231.996C30.5269 231.996 30.1789 232.144 29.8909 232.44C29.6109 232.728 29.4709 233.128 29.4709 233.64C29.4709 234.152 29.6109 234.56 29.8909 234.864C30.1789 235.16 30.5269 235.308 30.9349 235.308C31.3429 235.308 31.6869 235.16 31.9669 234.864C32.2549 234.568 32.3989 234.164 32.3989 233.652ZM36.9674 229.608C36.6074 229.608 36.3114 229.504 36.0794 229.296C35.8554 229.08 35.7434 228.816 35.7434 228.504C35.7434 228.184 35.8554 227.92 36.0794 227.712C36.3114 227.496 36.6074 227.388 36.9674 227.388C37.3194 227.388 37.6074 227.496 37.8314 227.712C38.0634 227.92 38.1794 228.184 38.1794 228.504C38.1794 228.816 38.0634 229.08 37.8314 229.296C37.6074 229.504 37.3194 229.608 36.9674 229.608ZM37.9874 230.304V237H35.9354V230.304H37.9874ZM42.4865 235.08L43.9385 230.304H46.1225L43.7465 237H41.2145L38.8385 230.304H41.0345L42.4865 235.08ZM46.9982 230.148H49.5782L52.0142 232.8L49.5782 235.452H46.9982L49.4462 232.8L46.9982 230.148Z" fill="#420FB0"/>
<path d="M0 36C0 31.0294 4.02944 27 9 27H228C232.971 27 237 31.0294 237 36V56.7647H0V36Z" fill="black"/>
<ellipse cx="15" cy="43.5" rx="3" ry="3.5" fill="white"/>
<ellipse cx="28" cy="43.5" rx="3" ry="3.5" fill="white"/>
<ellipse cx="41" cy="43.5" rx="3" ry="3.5" fill="white"/>
<defs>
<filter id="filter0_bii_3843_212" x="129.278" y="49.2778" width="443.444" height="430.444" filterUnits="userSpaceOnUse" color-interpolation-filters="sRGB">
<feFlood flood-opacity="0" result="BackgroundImageFix"/>
<feGaussianBlur in="BackgroundImageFix" stdDeviation="36.3611"/>
<feComposite in2="SourceAlpha" operator="in" result="effect1_backgroundBlur_3843_212"/>
<feBlend mode="normal" in="SourceGraphic" in2="effect1_backgroundBlur_3843_212" result="shape"/>
<feColorMatrix in="SourceAlpha" type="matrix" values="0 0 0 0 0 0 0 0 0 0 0 0 0 0 0 0 0 0 127 0" result="hardAlpha"/>
<feOffset dy="2.26765"/>
<feGaussianBlur stdDeviation="1.13383"/>
<feComposite in2="hardAlpha" operator="arithmetic" k2="-1" k3="1"/>
<feColorMatrix type="matrix" values="0 0 0 0 1 0 0 0 0 1 0 0 0 0 1 0 0 0 0.15 0"/>
<feBlend mode="normal" in2="shape" result="effect2_innerShadow_3843_212"/>
<feColorMatrix in="SourceAlpha" type="matrix" values="0 0 0 0 0 0 0 0 0 0 0 0 0 0 0 0 0 0 127 0" result="hardAlpha"/>
<feOffset/>
<feGaussianBlur stdDeviation="17.0074"/>
<feComposite in2="hardAlpha" operator="arithmetic" k2="-1" k3="1"/>
<feColorMatrix type="matrix" values="0 0 0 0 1 0 0 0 0 1 0 0 0 0 1 0 0 0 0.05 0"/>
<feBlend mode="normal" in2="effect2_innerShadow_3843_212" result="effect3_innerShadow_3843_212"/>
</filter>
</defs>
</svg>
